<?xml version="1.0" encoding="utf-8" standalone="no"?>
<!DOCTYPE svg PUBLIC "-//W3C//DTD SVG 1.1//EN"
  "http://www.w3.org/Graphics/SVG/1.1/DTD/svg11.dtd">
<svg xmlns:xlink="http://www.w3.org/1999/xlink" width="408.400632pt" height="152.234277pt" viewBox="0 0 408.400632 152.234277" xmlns="http://www.w3.org/2000/svg" version="1.1">
 <metadata>
  <rdf:RDF xmlns:dc="http://purl.org/dc/elements/1.1/" xmlns:cc="http://creativecommons.org/ns#" xmlns:rdf="http://www.w3.org/1999/02/22-rdf-syntax-ns#">
   <cc:Work>
    <dc:type rdf:resource="http://purl.org/dc/dcmitype/StillImage"/>
    <dc:date>2026-07-12T16:52:24.599692</dc:date>
    <dc:format>image/svg+xml</dc:format>
    <dc:creator>
     <cc:Agent>
      <dc:title>Matplotlib v3.11.0, https://matplotlib.org/</dc:title>
     </cc:Agent>
    </dc:creator>
   </cc:Work>
  </rdf:RDF>
 </metadata>
 <defs>
  <style type="text/css">*{stroke-linejoin: round; stroke-linecap: butt}</style>
 </defs>
 <g id="figure_1">
  <g id="patch_1">
   <path d="M 0 152.234277 
L 408.400632 152.234277 
L 408.400632 0 
L 0 0 
z
" style="fill: #ffffff"/>
  </g>
  <g id="axes_1">
   <g id="patch_2">
    <path d="M 8.900316 118.08 
L 93.81336 118.08 
L 93.81336 7.2 
L 8.900316 7.2 
z
" style="fill: #ffffff"/>
   </g>
   <g id="patch_3">
    <path d="M 12.76 118.08 
L 20.479368 118.08 
L 20.479368 16.541538 
L 12.76 16.541538 
z
" clip-path="url(#p85cc73e7d2)" style="fill: #333333"/>
   </g>
   <g id="patch_4">
    <path d="M 20.479368 118.08 
L 28.198735 118.08 
L 28.198735 44.972308 
L 20.479368 44.972308 
z
" clip-path="url(#p85cc73e7d2)" style="fill: #333333"/>
   </g>
   <g id="patch_5">
    <path d="M 28.198735 118.08 
L 35.918103 118.08 
L 35.918103 12.48 
L 28.198735 12.48 
z
" clip-path="url(#p85cc73e7d2)" style="fill: #333333"/>
   </g>
   <g id="patch_6">
    <path d="M 35.918103 118.08 
L 43.63747 118.08 
L 43.63747 57.156923 
L 35.918103 57.156923 
z
" clip-path="url(#p85cc73e7d2)" style="fill: #333333"/>
   </g>
   <g id="patch_7">
    <path d="M 43.63747 118.08 
L 51.356838 118.08 
L 51.356838 57.156923 
L 43.63747 57.156923 
z
" clip-path="url(#p85cc73e7d2)" style="fill: #333333"/>
   </g>
   <g id="patch_8">
    <path d="M 51.356838 118.08 
L 59.076206 118.08 
L 59.076206 12.48 
L 51.356838 12.48 
z
" clip-path="url(#p85cc73e7d2)" style="fill: #333333"/>
   </g>
   <g id="patch_9">
    <path d="M 59.076206 118.08 
L 66.795573 118.08 
L 66.795573 36.849231 
L 59.076206 36.849231 
z
" clip-path="url(#p85cc73e7d2)" style="fill: #333333"/>
   </g>
   <g id="patch_10">
    <path d="M 66.795573 118.08 
L 74.514941 118.08 
L 74.514941 57.156923 
L 66.795573 57.156923 
z
" clip-path="url(#p85cc73e7d2)" style="fill: #333333"/>
   </g>
   <g id="patch_11">
    <path d="M 74.514941 118.08 
L 82.234308 118.08 
L 82.234308 53.095385 
L 74.514941 53.095385 
z
" clip-path="url(#p85cc73e7d2)" style="fill: #333333"/>
   </g>
   <g id="patch_12">
    <path d="M 82.234308 118.08 
L 89.953676 118.08 
L 89.953676 20.603077 
L 82.234308 20.603077 
z
" clip-path="url(#p85cc73e7d2)" style="fill: #333333"/>
   </g>
   <g id="matplotlib.axis_1">
    <g id="xtick_1">
     <g id="line2d_1">
      <defs>
       <path id="m50c0880892" d="M 0 0 
L 0 3.5 
" style="stroke: #000000; stroke-width: 0.8"/>
      </defs>
      <g>
       <use xlink:href="#m50c0880892" x="12.76" y="118.08" style="stroke: #000000; stroke-width: 0.8"/>
      </g>
     </g>
     <g id="text_1">
      <!-- 0.0 -->
      <g transform="translate(7.2 130.904219) scale(0.08 -0.08)">
       <defs>
        <path id="ArialMT-13" d="M 266 2259 
Q 266 3072 433 3567 
Q 600 4063 929 4331 
Q 1259 4600 1759 4600 
Q 2128 4600 2406 4451 
Q 2684 4303 2865 4023 
Q 3047 3744 3150 3342 
Q 3253 2941 3253 2259 
Q 3253 1453 3087 958 
Q 2922 463 2592 192 
Q 2263 -78 1759 -78 
Q 1097 -78 719 397 
Q 266 969 266 2259 
z
M 844 2259 
Q 844 1131 1108 757 
Q 1372 384 1759 384 
Q 2147 384 2411 759 
Q 2675 1134 2675 2259 
Q 2675 3391 2411 3762 
Q 2147 4134 1753 4134 
Q 1366 4134 1134 3806 
Q 844 3388 844 2259 
z
" transform="scale(0.015625)"/>
        <path id="ArialMT-11" d="M 581 0 
L 581 641 
L 1222 641 
L 1222 0 
L 581 0 
z
" transform="scale(0.015625)"/>
       </defs>
       <use xlink:href="#ArialMT-13"/>
       <use xlink:href="#ArialMT-11" transform="translate(55.609375 0)"/>
       <use xlink:href="#ArialMT-13" transform="translate(83.390625 0)"/>
      </g>
     </g>
    </g>
    <g id="xtick_2">
     <g id="line2d_2">
      <g>
       <use xlink:href="#m50c0880892" x="51.356838" y="118.08" style="stroke: #000000; stroke-width: 0.8"/>
      </g>
     </g>
     <g id="text_2">
      <!-- 0.5 -->
      <g transform="translate(45.796838 130.904219) scale(0.08 -0.08)">
       <defs>
        <path id="ArialMT-18" d="M 266 1200 
L 856 1250 
Q 922 819 1161 601 
Q 1400 384 1738 384 
Q 2144 384 2425 690 
Q 2706 997 2706 1503 
Q 2706 1984 2436 2262 
Q 2166 2541 1728 2541 
Q 1456 2541 1237 2417 
Q 1019 2294 894 2097 
L 366 2166 
L 809 4519 
L 3088 4519 
L 3088 3981 
L 1259 3981 
L 1013 2750 
Q 1425 3038 1878 3038 
Q 2478 3038 2890 2622 
Q 3303 2206 3303 1553 
Q 3303 931 2941 478 
Q 2500 -78 1738 -78 
Q 1113 -78 717 272 
Q 322 622 266 1200 
z
" transform="scale(0.015625)"/>
       </defs>
       <use xlink:href="#ArialMT-13"/>
       <use xlink:href="#ArialMT-11" transform="translate(55.609375 0)"/>
       <use xlink:href="#ArialMT-18" transform="translate(83.390625 0)"/>
      </g>
     </g>
    </g>
    <g id="xtick_3">
     <g id="line2d_3">
      <g>
       <use xlink:href="#m50c0880892" x="89.953676" y="118.08" style="stroke: #000000; stroke-width: 0.8"/>
      </g>
     </g>
     <g id="text_3">
      <!-- 1.0 -->
      <g transform="translate(84.393676 130.904219) scale(0.08 -0.08)">
       <defs>
        <path id="ArialMT-14" d="M 2384 0 
L 1822 0 
L 1822 3584 
Q 1619 3391 1289 3197 
Q 959 3003 697 2906 
L 697 3450 
Q 1169 3672 1522 3987 
Q 1875 4303 2022 4600 
L 2384 4600 
L 2384 0 
z
" transform="scale(0.015625)"/>
       </defs>
       <use xlink:href="#ArialMT-14"/>
       <use xlink:href="#ArialMT-11" transform="translate(55.609375 0)"/>
       <use xlink:href="#ArialMT-13" transform="translate(83.390625 0)"/>
      </g>
     </g>
    </g>
    <g id="text_4">
     <!-- SBC rank (mu) -->
     <g transform="translate(21.602697 143.140059) scale(0.09 -0.09)">
      <defs>
       <path id="ArialMT-36" d="M 288 1472 
L 859 1522 
Q 900 1178 1048 958 
Q 1197 738 1509 602 
Q 1822 466 2213 466 
Q 2559 466 2825 569 
Q 3091 672 3220 851 
Q 3350 1031 3350 1244 
Q 3350 1459 3225 1620 
Q 3100 1781 2813 1891 
Q 2628 1963 1997 2114 
Q 1366 2266 1113 2400 
Q 784 2572 623 2826 
Q 463 3081 463 3397 
Q 463 3744 659 4045 
Q 856 4347 1234 4503 
Q 1613 4659 2075 4659 
Q 2584 4659 2973 4495 
Q 3363 4331 3572 4012 
Q 3781 3694 3797 3291 
L 3216 3247 
Q 3169 3681 2898 3903 
Q 2628 4125 2100 4125 
Q 1550 4125 1298 3923 
Q 1047 3722 1047 3438 
Q 1047 3191 1225 3031 
Q 1400 2872 2139 2705 
Q 2878 2538 3153 2413 
Q 3553 2228 3743 1945 
Q 3934 1663 3934 1294 
Q 3934 928 3725 604 
Q 3516 281 3123 101 
Q 2731 -78 2241 -78 
Q 1619 -78 1198 103 
Q 778 284 539 648 
Q 300 1013 288 1472 
z
" transform="scale(0.015625)"/>
       <path id="ArialMT-25" d="M 469 0 
L 469 4581 
L 2188 4581 
Q 2713 4581 3030 4442 
Q 3347 4303 3526 4014 
Q 3706 3725 3706 3409 
Q 3706 3116 3547 2856 
Q 3388 2597 3066 2438 
Q 3481 2316 3704 2022 
Q 3928 1728 3928 1328 
Q 3928 1006 3792 729 
Q 3656 453 3456 303 
Q 3256 153 2954 76 
Q 2653 0 2216 0 
L 469 0 
z
M 1075 2656 
L 2066 2656 
Q 2469 2656 2644 2709 
Q 2875 2778 2992 2937 
Q 3109 3097 3109 3338 
Q 3109 3566 3000 3739 
Q 2891 3913 2687 3977 
Q 2484 4041 1991 4041 
L 1075 4041 
L 1075 2656 
z
M 1075 541 
L 2216 541 
Q 2509 541 2628 563 
Q 2838 600 2978 687 
Q 3119 775 3209 942 
Q 3300 1109 3300 1328 
Q 3300 1584 3169 1773 
Q 3038 1963 2805 2039 
Q 2572 2116 2134 2116 
L 1075 2116 
L 1075 541 
z
" transform="scale(0.015625)"/>
       <path id="ArialMT-26" d="M 3763 1606 
L 4369 1453 
Q 4178 706 3683 314 
Q 3188 -78 2472 -78 
Q 1731 -78 1267 223 
Q 803 525 561 1097 
Q 319 1669 319 2325 
Q 319 3041 592 3573 
Q 866 4106 1370 4382 
Q 1875 4659 2481 4659 
Q 3169 4659 3637 4309 
Q 4106 3959 4291 3325 
L 3694 3184 
Q 3534 3684 3231 3912 
Q 2928 4141 2469 4141 
Q 1941 4141 1586 3887 
Q 1231 3634 1087 3207 
Q 944 2781 944 2328 
Q 944 1744 1114 1308 
Q 1284 872 1643 656 
Q 2003 441 2422 441 
Q 2931 441 3284 734 
Q 3638 1028 3763 1606 
z
" transform="scale(0.015625)"/>
       <path id="ArialMT-3" transform="scale(0.015625)"/>
       <path id="ArialMT-55" d="M 416 0 
L 416 3319 
L 922 3319 
L 922 2816 
Q 1116 3169 1280 3281 
Q 1444 3394 1641 3394 
Q 1925 3394 2219 3213 
L 2025 2691 
Q 1819 2813 1613 2813 
Q 1428 2813 1281 2702 
Q 1134 2591 1072 2394 
Q 978 2094 978 1738 
L 978 0 
L 416 0 
z
" transform="scale(0.015625)"/>
       <path id="ArialMT-44" d="M 2588 409 
Q 2275 144 1986 34 
Q 1697 -75 1366 -75 
Q 819 -75 525 192 
Q 231 459 231 875 
Q 231 1119 342 1320 
Q 453 1522 633 1644 
Q 813 1766 1038 1828 
Q 1203 1872 1538 1913 
Q 2219 1994 2541 2106 
Q 2544 2222 2544 2253 
Q 2544 2597 2384 2738 
Q 2169 2928 1744 2928 
Q 1347 2928 1158 2789 
Q 969 2650 878 2297 
L 328 2372 
Q 403 2725 575 2942 
Q 747 3159 1072 3276 
Q 1397 3394 1825 3394 
Q 2250 3394 2515 3294 
Q 2781 3194 2906 3042 
Q 3031 2891 3081 2659 
Q 3109 2516 3109 2141 
L 3109 1391 
Q 3109 606 3145 398 
Q 3181 191 3288 0 
L 2700 0 
Q 2613 175 2588 409 
z
M 2541 1666 
Q 2234 1541 1622 1453 
Q 1275 1403 1131 1340 
Q 988 1278 909 1158 
Q 831 1038 831 891 
Q 831 666 1001 516 
Q 1172 366 1500 366 
Q 1825 366 2078 508 
Q 2331 650 2450 897 
Q 2541 1088 2541 1459 
L 2541 1666 
z
" transform="scale(0.015625)"/>
       <path id="ArialMT-51" d="M 422 0 
L 422 3319 
L 928 3319 
L 928 2847 
Q 1294 3394 1984 3394 
Q 2284 3394 2536 3286 
Q 2788 3178 2913 3003 
Q 3038 2828 3088 2588 
Q 3119 2431 3119 2041 
L 3119 0 
L 2556 0 
L 2556 2019 
Q 2556 2363 2490 2533 
Q 2425 2703 2258 2804 
Q 2091 2906 1866 2906 
Q 1506 2906 1245 2678 
Q 984 2450 984 1813 
L 984 0 
L 422 0 
z
" transform="scale(0.015625)"/>
       <path id="ArialMT-4e" d="M 425 0 
L 425 4581 
L 988 4581 
L 988 1969 
L 2319 3319 
L 3047 3319 
L 1778 2088 
L 3175 0 
L 2481 0 
L 1384 1697 
L 988 1316 
L 988 0 
L 425 0 
z
" transform="scale(0.015625)"/>
       <path id="ArialMT-b" d="M 1497 -1347 
Q 1031 -759 709 28 
Q 388 816 388 1659 
Q 388 2403 628 3084 
Q 909 3875 1497 4659 
L 1900 4659 
Q 1522 4009 1400 3731 
Q 1209 3300 1100 2831 
Q 966 2247 966 1656 
Q 966 153 1900 -1347 
L 1497 -1347 
z
" transform="scale(0.015625)"/>
       <path id="ArialMT-50" d="M 422 0 
L 422 3319 
L 925 3319 
L 925 2853 
Q 1081 3097 1340 3245 
Q 1600 3394 1931 3394 
Q 2300 3394 2536 3241 
Q 2772 3088 2869 2813 
Q 3263 3394 3894 3394 
Q 4388 3394 4653 3120 
Q 4919 2847 4919 2278 
L 4919 0 
L 4359 0 
L 4359 2091 
Q 4359 2428 4304 2576 
Q 4250 2725 4106 2815 
Q 3963 2906 3769 2906 
Q 3419 2906 3187 2673 
Q 2956 2441 2956 1928 
L 2956 0 
L 2394 0 
L 2394 2156 
Q 2394 2531 2256 2718 
Q 2119 2906 1806 2906 
Q 1569 2906 1367 2781 
Q 1166 2656 1075 2415 
Q 984 2175 984 1722 
L 984 0 
L 422 0 
z
" transform="scale(0.015625)"/>
       <path id="ArialMT-58" d="M 2597 0 
L 2597 488 
Q 2209 -75 1544 -75 
Q 1250 -75 995 37 
Q 741 150 617 320 
Q 494 491 444 738 
Q 409 903 409 1263 
L 409 3319 
L 972 3319 
L 972 1478 
Q 972 1038 1006 884 
Q 1059 663 1231 536 
Q 1403 409 1656 409 
Q 1909 409 2131 539 
Q 2353 669 2445 892 
Q 2538 1116 2538 1541 
L 2538 3319 
L 3100 3319 
L 3100 0 
L 2597 0 
z
" transform="scale(0.015625)"/>
       <path id="ArialMT-c" d="M 791 -1347 
L 388 -1347 
Q 1322 153 1322 1656 
Q 1322 2244 1188 2822 
Q 1081 3291 891 3722 
Q 769 4003 388 4659 
L 791 4659 
Q 1378 3875 1659 3084 
Q 1900 2403 1900 1659 
Q 1900 816 1576 28 
Q 1253 -759 791 -1347 
z
" transform="scale(0.015625)"/>
      </defs>
      <use xlink:href="#ArialMT-36"/>
      <use xlink:href="#ArialMT-25" transform="translate(66.703125 0)"/>
      <use xlink:href="#ArialMT-26" transform="translate(133.40625 0)"/>
      <use xlink:href="#ArialMT-3" transform="translate(205.625 0)"/>
      <use xlink:href="#ArialMT-55" transform="translate(233.40625 0)"/>
      <use xlink:href="#ArialMT-44" transform="translate(266.703125 0)"/>
      <use xlink:href="#ArialMT-51" transform="translate(322.3125 0)"/>
      <use xlink:href="#ArialMT-4e" transform="translate(377.921875 0)"/>
      <use xlink:href="#ArialMT-3" transform="translate(427.921875 0)"/>
      <use xlink:href="#ArialMT-b" transform="translate(455.703125 0)"/>
      <use xlink:href="#ArialMT-50" transform="translate(489 0)"/>
      <use xlink:href="#ArialMT-58" transform="translate(572.296875 0)"/>
      <use xlink:href="#ArialMT-c" transform="translate(627.90625 0)"/>
     </g>
    </g>
   </g>
   <g id="matplotlib.axis_2"/>
   <g id="patch_13">
    <path d="M 8.900316 118.08 
L 8.900316 7.2 
" style="fill: none; stroke: #000000; stroke-width: 0.8; stroke-linejoin: miter; stroke-linecap: square"/>
   </g>
   <g id="patch_14">
    <path d="M 8.900316 118.08 
L 93.81336 118.08 
" style="fill: none; stroke: #000000; stroke-width: 0.8; stroke-linejoin: miter; stroke-linecap: square"/>
   </g>
  </g>
  <g id="axes_2">
   <g id="patch_15">
    <path d="M 110.795968 118.08 
L 195.709012 118.08 
L 195.709012 7.2 
L 110.795968 7.2 
z
" style="fill: #ffffff"/>
   </g>
   <g id="patch_16">
    <path d="M 114.655652 118.08 
L 122.37502 118.08 
L 122.37502 12.48 
L 114.655652 12.48 
z
" clip-path="url(#p7a6bafafae)" style="fill: #333333"/>
   </g>
   <g id="patch_17">
    <path d="M 122.37502 118.08 
L 130.094387 118.08 
L 130.094387 30.686897 
L 122.37502 30.686897 
z
" clip-path="url(#p7a6bafafae)" style="fill: #333333"/>
   </g>
   <g id="patch_18">
    <path d="M 130.094387 118.08 
L 137.813755 118.08 
L 137.813755 59.817931 
L 130.094387 59.817931 
z
" clip-path="url(#p7a6bafafae)" style="fill: #333333"/>
   </g>
   <g id="patch_19">
    <path d="M 137.813755 118.08 
L 145.533123 118.08 
L 145.533123 41.611034 
L 137.813755 41.611034 
z
" clip-path="url(#p7a6bafafae)" style="fill: #333333"/>
   </g>
   <g id="patch_20">
    <path d="M 145.533123 118.08 
L 153.25249 118.08 
L 153.25249 52.535172 
L 145.533123 52.535172 
z
" clip-path="url(#p7a6bafafae)" style="fill: #333333"/>
   </g>
   <g id="patch_21">
    <path d="M 153.25249 118.08 
L 160.971858 118.08 
L 160.971858 56.176552 
L 153.25249 56.176552 
z
" clip-path="url(#p7a6bafafae)" style="fill: #333333"/>
   </g>
   <g id="patch_22">
    <path d="M 160.971858 118.08 
L 168.691225 118.08 
L 168.691225 74.383448 
L 160.971858 74.383448 
z
" clip-path="url(#p7a6bafafae)" style="fill: #333333"/>
   </g>
   <g id="patch_23">
    <path d="M 168.691225 118.08 
L 176.410593 118.08 
L 176.410593 27.045517 
L 168.691225 27.045517 
z
" clip-path="url(#p7a6bafafae)" style="fill: #333333"/>
   </g>
   <g id="patch_24">
    <path d="M 176.410593 118.08 
L 184.12996 118.08 
L 184.12996 48.893793 
L 176.410593 48.893793 
z
" clip-path="url(#p7a6bafafae)" style="fill: #333333"/>
   </g>
   <g id="patch_25">
    <path d="M 184.12996 118.08 
L 191.849328 118.08 
L 191.849328 48.893793 
L 184.12996 48.893793 
z
" clip-path="url(#p7a6bafafae)" style="fill: #333333"/>
   </g>
   <g id="matplotlib.axis_3">
    <g id="xtick_4">
     <g id="line2d_4">
      <g>
       <use xlink:href="#m50c0880892" x="114.655652" y="118.08" style="stroke: #000000; stroke-width: 0.8"/>
      </g>
     </g>
     <g id="text_5">
      <!-- 0.0 -->
      <g transform="translate(109.095652 130.904219) scale(0.08 -0.08)">
       <use xlink:href="#ArialMT-13"/>
       <use xlink:href="#ArialMT-11" transform="translate(55.609375 0)"/>
       <use xlink:href="#ArialMT-13" transform="translate(83.390625 0)"/>
      </g>
     </g>
    </g>
    <g id="xtick_5">
     <g id="line2d_5">
      <g>
       <use xlink:href="#m50c0880892" x="153.25249" y="118.08" style="stroke: #000000; stroke-width: 0.8"/>
      </g>
     </g>
     <g id="text_6">
      <!-- 0.5 -->
      <g transform="translate(147.69249 130.904219) scale(0.08 -0.08)">
       <use xlink:href="#ArialMT-13"/>
       <use xlink:href="#ArialMT-11" transform="translate(55.609375 0)"/>
       <use xlink:href="#ArialMT-18" transform="translate(83.390625 0)"/>
      </g>
     </g>
    </g>
    <g id="xtick_6">
     <g id="line2d_6">
      <g>
       <use xlink:href="#m50c0880892" x="191.849328" y="118.08" style="stroke: #000000; stroke-width: 0.8"/>
      </g>
     </g>
     <g id="text_7">
      <!-- 1.0 -->
      <g transform="translate(186.289328 130.904219) scale(0.08 -0.08)">
       <use xlink:href="#ArialMT-14"/>
       <use xlink:href="#ArialMT-11" transform="translate(55.609375 0)"/>
       <use xlink:href="#ArialMT-13" transform="translate(83.390625 0)"/>
      </g>
     </g>
    </g>
    <g id="text_8">
     <!-- SBC rank (b) -->
     <g transform="translate(127.246709 143.140059) scale(0.09 -0.09)">
      <defs>
       <path id="ArialMT-45" d="M 941 0 
L 419 0 
L 419 4581 
L 981 4581 
L 981 2947 
Q 1338 3394 1891 3394 
Q 2197 3394 2470 3270 
Q 2744 3147 2920 2923 
Q 3097 2700 3197 2384 
Q 3297 2069 3297 1709 
Q 3297 856 2875 390 
Q 2453 -75 1863 -75 
Q 1275 -75 941 416 
L 941 0 
z
M 934 1684 
Q 934 1088 1097 822 
Q 1363 388 1816 388 
Q 2184 388 2453 708 
Q 2722 1028 2722 1663 
Q 2722 2313 2464 2622 
Q 2206 2931 1841 2931 
Q 1472 2931 1203 2611 
Q 934 2291 934 1684 
z
" transform="scale(0.015625)"/>
      </defs>
      <use xlink:href="#ArialMT-36"/>
      <use xlink:href="#ArialMT-25" transform="translate(66.703125 0)"/>
      <use xlink:href="#ArialMT-26" transform="translate(133.40625 0)"/>
      <use xlink:href="#ArialMT-3" transform="translate(205.625 0)"/>
      <use xlink:href="#ArialMT-55" transform="translate(233.40625 0)"/>
      <use xlink:href="#ArialMT-44" transform="translate(266.703125 0)"/>
      <use xlink:href="#ArialMT-51" transform="translate(322.3125 0)"/>
      <use xlink:href="#ArialMT-4e" transform="translate(377.921875 0)"/>
      <use xlink:href="#ArialMT-3" transform="translate(427.921875 0)"/>
      <use xlink:href="#ArialMT-b" transform="translate(455.703125 0)"/>
      <use xlink:href="#ArialMT-45" transform="translate(489 0)"/>
      <use xlink:href="#ArialMT-c" transform="translate(544.609375 0)"/>
     </g>
    </g>
   </g>
   <g id="matplotlib.axis_4"/>
   <g id="patch_26">
    <path d="M 110.795968 118.08 
L 110.795968 7.2 
" style="fill: none; stroke: #000000; stroke-width: 0.8; stroke-linejoin: miter; stroke-linecap: square"/>
   </g>
   <g id="patch_27">
    <path d="M 110.795968 118.08 
L 195.709012 118.08 
" style="fill: none; stroke: #000000; stroke-width: 0.8; stroke-linejoin: miter; stroke-linecap: square"/>
   </g>
  </g>
  <g id="axes_3">
   <g id="patch_28">
    <path d="M 212.691621 118.08 
L 297.604664 118.08 
L 297.604664 7.2 
L 212.691621 7.2 
z
" style="fill: #ffffff"/>
   </g>
   <g id="patch_29">
    <path d="M 216.551304 118.08 
L 224.270672 118.08 
L 224.270672 12.48 
L 216.551304 12.48 
z
" clip-path="url(#p1531a17bdf)" style="fill: #333333"/>
   </g>
   <g id="patch_30">
    <path d="M 224.270672 118.08 
L 231.99004 118.08 
L 231.99004 28.98 
L 224.270672 28.98 
z
" clip-path="url(#p1531a17bdf)" style="fill: #333333"/>
   </g>
   <g id="patch_31">
    <path d="M 231.99004 118.08 
L 239.709407 118.08 
L 239.709407 55.38 
L 231.99004 55.38 
z
" clip-path="url(#p1531a17bdf)" style="fill: #333333"/>
   </g>
   <g id="patch_32">
    <path d="M 239.709407 118.08 
L 247.428775 118.08 
L 247.428775 42.18 
L 239.709407 42.18 
z
" clip-path="url(#p1531a17bdf)" style="fill: #333333"/>
   </g>
   <g id="patch_33">
    <path d="M 247.428775 118.08 
L 255.148142 118.08 
L 255.148142 58.68 
L 247.428775 58.68 
z
" clip-path="url(#p1531a17bdf)" style="fill: #333333"/>
   </g>
   <g id="patch_34">
    <path d="M 255.148142 118.08 
L 262.86751 118.08 
L 262.86751 45.48 
L 255.148142 45.48 
z
" clip-path="url(#p1531a17bdf)" style="fill: #333333"/>
   </g>
   <g id="patch_35">
    <path d="M 262.86751 118.08 
L 270.586877 118.08 
L 270.586877 55.38 
L 262.86751 55.38 
z
" clip-path="url(#p1531a17bdf)" style="fill: #333333"/>
   </g>
   <g id="patch_36">
    <path d="M 270.586877 118.08 
L 278.306245 118.08 
L 278.306245 71.88 
L 270.586877 71.88 
z
" clip-path="url(#p1531a17bdf)" style="fill: #333333"/>
   </g>
   <g id="patch_37">
    <path d="M 278.306245 118.08 
L 286.025613 118.08 
L 286.025613 78.48 
L 278.306245 78.48 
z
" clip-path="url(#p1531a17bdf)" style="fill: #333333"/>
   </g>
   <g id="patch_38">
    <path d="M 286.025613 118.08 
L 293.74498 118.08 
L 293.74498 71.88 
L 286.025613 71.88 
z
" clip-path="url(#p1531a17bdf)" style="fill: #333333"/>
   </g>
   <g id="matplotlib.axis_5">
    <g id="xtick_7">
     <g id="line2d_7">
      <g>
       <use xlink:href="#m50c0880892" x="216.551304" y="118.08" style="stroke: #000000; stroke-width: 0.8"/>
      </g>
     </g>
     <g id="text_9">
      <!-- 0.0 -->
      <g transform="translate(210.991304 130.904219) scale(0.08 -0.08)">
       <use xlink:href="#ArialMT-13"/>
       <use xlink:href="#ArialMT-11" transform="translate(55.609375 0)"/>
       <use xlink:href="#ArialMT-13" transform="translate(83.390625 0)"/>
      </g>
     </g>
    </g>
    <g id="xtick_8">
     <g id="line2d_8">
      <g>
       <use xlink:href="#m50c0880892" x="255.148142" y="118.08" style="stroke: #000000; stroke-width: 0.8"/>
      </g>
     </g>
     <g id="text_10">
      <!-- 0.5 -->
      <g transform="translate(249.588142 130.904219) scale(0.08 -0.08)">
       <use xlink:href="#ArialMT-13"/>
       <use xlink:href="#ArialMT-11" transform="translate(55.609375 0)"/>
       <use xlink:href="#ArialMT-18" transform="translate(83.390625 0)"/>
      </g>
     </g>
    </g>
    <g id="xtick_9">
     <g id="line2d_9">
      <g>
       <use xlink:href="#m50c0880892" x="293.74498" y="118.08" style="stroke: #000000; stroke-width: 0.8"/>
      </g>
     </g>
     <g id="text_11">
      <!-- 1.0 -->
      <g transform="translate(288.18498 130.904219) scale(0.08 -0.08)">
       <use xlink:href="#ArialMT-14"/>
       <use xlink:href="#ArialMT-11" transform="translate(55.609375 0)"/>
       <use xlink:href="#ArialMT-13" transform="translate(83.390625 0)"/>
      </g>
     </g>
    </g>
    <g id="text_12">
     <!-- SBC rank (N) -->
     <g transform="translate(228.394939 143.140059) scale(0.09 -0.09)">
      <defs>
       <path id="ArialMT-31" d="M 488 0 
L 488 4581 
L 1109 4581 
L 3516 984 
L 3516 4581 
L 4097 4581 
L 4097 0 
L 3475 0 
L 1069 3600 
L 1069 0 
L 488 0 
z
" transform="scale(0.015625)"/>
      </defs>
      <use xlink:href="#ArialMT-36"/>
      <use xlink:href="#ArialMT-25" transform="translate(66.703125 0)"/>
      <use xlink:href="#ArialMT-26" transform="translate(133.40625 0)"/>
      <use xlink:href="#ArialMT-3" transform="translate(205.625 0)"/>
      <use xlink:href="#ArialMT-55" transform="translate(233.40625 0)"/>
      <use xlink:href="#ArialMT-44" transform="translate(266.703125 0)"/>
      <use xlink:href="#ArialMT-51" transform="translate(322.3125 0)"/>
      <use xlink:href="#ArialMT-4e" transform="translate(377.921875 0)"/>
      <use xlink:href="#ArialMT-3" transform="translate(427.921875 0)"/>
      <use xlink:href="#ArialMT-b" transform="translate(455.703125 0)"/>
      <use xlink:href="#ArialMT-31" transform="translate(489 0)"/>
      <use xlink:href="#ArialMT-c" transform="translate(561.21875 0)"/>
     </g>
    </g>
   </g>
   <g id="matplotlib.axis_6"/>
   <g id="patch_39">
    <path d="M 212.691621 118.08 
L 212.691621 7.2 
" style="fill: none; stroke: #000000; stroke-width: 0.8; stroke-linejoin: miter; stroke-linecap: square"/>
   </g>
   <g id="patch_40">
    <path d="M 212.691621 118.08 
L 297.604664 118.08 
" style="fill: none; stroke: #000000; stroke-width: 0.8; stroke-linejoin: miter; stroke-linecap: square"/>
   </g>
  </g>
  <g id="axes_4">
   <g id="patch_41">
    <path d="M 314.587273 118.08 
L 399.500316 118.08 
L 399.500316 7.2 
L 314.587273 7.2 
z
" style="fill: #ffffff"/>
   </g>
   <g id="patch_42">
    <path d="M 318.446957 118.08 
L 326.166324 118.08 
L 326.166324 12.48 
L 318.446957 12.48 
z
" clip-path="url(#p02079f7d3b)" style="fill: #333333"/>
   </g>
   <g id="patch_43">
    <path d="M 326.166324 118.08 
L 333.885692 118.08 
L 333.885692 63.68 
L 326.166324 63.68 
z
" clip-path="url(#p02079f7d3b)" style="fill: #333333"/>
   </g>
   <g id="patch_44">
    <path d="M 333.885692 118.08 
L 341.605059 118.08 
L 341.605059 50.88 
L 333.885692 50.88 
z
" clip-path="url(#p02079f7d3b)" style="fill: #333333"/>
   </g>
   <g id="patch_45">
    <path d="M 341.605059 118.08 
L 349.324427 118.08 
L 349.324427 60.48 
L 341.605059 60.48 
z
" clip-path="url(#p02079f7d3b)" style="fill: #333333"/>
   </g>
   <g id="patch_46">
    <path d="M 349.324427 118.08 
L 357.043794 118.08 
L 357.043794 44.48 
L 349.324427 44.48 
z
" clip-path="url(#p02079f7d3b)" style="fill: #333333"/>
   </g>
   <g id="patch_47">
    <path d="M 357.043794 118.08 
L 364.763162 118.08 
L 364.763162 79.68 
L 357.043794 79.68 
z
" clip-path="url(#p02079f7d3b)" style="fill: #333333"/>
   </g>
   <g id="patch_48">
    <path d="M 364.763162 118.08 
L 372.48253 118.08 
L 372.48253 82.88 
L 364.763162 82.88 
z
" clip-path="url(#p02079f7d3b)" style="fill: #333333"/>
   </g>
   <g id="patch_49">
    <path d="M 372.48253 118.08 
L 380.201897 118.08 
L 380.201897 54.08 
L 372.48253 54.08 
z
" clip-path="url(#p02079f7d3b)" style="fill: #333333"/>
   </g>
   <g id="patch_50">
    <path d="M 380.201897 118.08 
L 387.921265 118.08 
L 387.921265 70.08 
L 380.201897 70.08 
z
" clip-path="url(#p02079f7d3b)" style="fill: #333333"/>
   </g>
   <g id="patch_51">
    <path d="M 387.921265 118.08 
L 395.640632 118.08 
L 395.640632 22.08 
L 387.921265 22.08 
z
" clip-path="url(#p02079f7d3b)" style="fill: #333333"/>
   </g>
   <g id="matplotlib.axis_7">
    <g id="xtick_10">
     <g id="line2d_10">
      <g>
       <use xlink:href="#m50c0880892" x="318.446957" y="118.08" style="stroke: #000000; stroke-width: 0.8"/>
      </g>
     </g>
     <g id="text_13">
      <!-- 0.0 -->
      <g transform="translate(312.886957 130.904219) scale(0.08 -0.08)">
       <use xlink:href="#ArialMT-13"/>
       <use xlink:href="#ArialMT-11" transform="translate(55.609375 0)"/>
       <use xlink:href="#ArialMT-13" transform="translate(83.390625 0)"/>
      </g>
     </g>
    </g>
    <g id="xtick_11">
     <g id="line2d_11">
      <g>
       <use xlink:href="#m50c0880892" x="357.043794" y="118.08" style="stroke: #000000; stroke-width: 0.8"/>
      </g>
     </g>
     <g id="text_14">
      <!-- 0.5 -->
      <g transform="translate(351.483794 130.904219) scale(0.08 -0.08)">
       <use xlink:href="#ArialMT-13"/>
       <use xlink:href="#ArialMT-11" transform="translate(55.609375 0)"/>
       <use xlink:href="#ArialMT-18" transform="translate(83.390625 0)"/>
      </g>
     </g>
    </g>
    <g id="xtick_12">
     <g id="line2d_12">
      <g>
       <use xlink:href="#m50c0880892" x="395.640632" y="118.08" style="stroke: #000000; stroke-width: 0.8"/>
      </g>
     </g>
     <g id="text_15">
      <!-- 1.0 -->
      <g transform="translate(390.080632 130.904219) scale(0.08 -0.08)">
       <use xlink:href="#ArialMT-14"/>
       <use xlink:href="#ArialMT-11" transform="translate(55.609375 0)"/>
       <use xlink:href="#ArialMT-13" transform="translate(83.390625 0)"/>
      </g>
     </g>
    </g>
    <g id="text_16">
     <!-- SBC rank (w) -->
     <g transform="translate(330.290591 143.140059) scale(0.09 -0.09)">
      <defs>
       <path id="ArialMT-5a" d="M 1034 0 
L 19 3319 
L 600 3319 
L 1128 1403 
L 1325 691 
Q 1338 744 1497 1375 
L 2025 3319 
L 2603 3319 
L 3100 1394 
L 3266 759 
L 3456 1400 
L 4025 3319 
L 4572 3319 
L 3534 0 
L 2950 0 
L 2422 1988 
L 2294 2553 
L 1622 0 
L 1034 0 
z
" transform="scale(0.015625)"/>
      </defs>
      <use xlink:href="#ArialMT-36"/>
      <use xlink:href="#ArialMT-25" transform="translate(66.703125 0)"/>
      <use xlink:href="#ArialMT-26" transform="translate(133.40625 0)"/>
      <use xlink:href="#ArialMT-3" transform="translate(205.625 0)"/>
      <use xlink:href="#ArialMT-55" transform="translate(233.40625 0)"/>
      <use xlink:href="#ArialMT-44" transform="translate(266.703125 0)"/>
      <use xlink:href="#ArialMT-51" transform="translate(322.3125 0)"/>
      <use xlink:href="#ArialMT-4e" transform="translate(377.921875 0)"/>
      <use xlink:href="#ArialMT-3" transform="translate(427.921875 0)"/>
      <use xlink:href="#ArialMT-b" transform="translate(455.703125 0)"/>
      <use xlink:href="#ArialMT-5a" transform="translate(489 0)"/>
      <use xlink:href="#ArialMT-c" transform="translate(561.21875 0)"/>
     </g>
    </g>
   </g>
   <g id="matplotlib.axis_8"/>
   <g id="patch_52">
    <path d="M 314.587273 118.08 
L 314.587273 7.2 
" style="fill: none; stroke: #000000; stroke-width: 0.8; stroke-linejoin: miter; stroke-linecap: square"/>
   </g>
   <g id="patch_53">
    <path d="M 314.587273 118.08 
L 399.500316 118.08 
" style="fill: none; stroke: #000000; stroke-width: 0.8; stroke-linejoin: miter; stroke-linecap: square"/>
   </g>
  </g>
 </g>
 <defs>
  <clipPath id="p85cc73e7d2">
   <rect x="8.900316" y="7.2" width="84.913043" height="110.88"/>
  </clipPath>
  <clipPath id="p7a6bafafae">
   <rect x="110.795968" y="7.2" width="84.913043" height="110.88"/>
  </clipPath>
  <clipPath id="p1531a17bdf">
   <rect x="212.691621" y="7.2" width="84.913043" height="110.88"/>
  </clipPath>
  <clipPath id="p02079f7d3b">
   <rect x="314.587273" y="7.2" width="84.913043" height="110.88"/>
  </clipPath>
 </defs>
</svg>
