<?xml version="1.0" encoding="utf-8" standalone="no"?>
<!DOCTYPE svg PUBLIC "-//W3C//DTD SVG 1.1//EN"
  "http://www.w3.org/Graphics/SVG/1.1/DTD/svg11.dtd">
<svg xmlns:xlink="http://www.w3.org/1999/xlink" width="242.492715pt" height="207.691855pt" viewBox="0 0 242.492715 207.691855" xmlns="http://www.w3.org/2000/svg" version="1.1">
 <metadata>
  <rdf:RDF xmlns:dc="http://purl.org/dc/elements/1.1/" xmlns:cc="http://creativecommons.org/ns#" xmlns:rdf="http://www.w3.org/1999/02/22-rdf-syntax-ns#">
   <cc:Work>
    <dc:type rdf:resource="http://purl.org/dc/dcmitype/StillImage"/>
    <dc:date>2026-07-13T13:56:35.186848</dc:date>
    <dc:format>image/svg+xml</dc:format>
    <dc:creator>
     <cc:Agent>
      <dc:title>Matplotlib v3.11.0, https://matplotlib.org/</dc:title>
     </cc:Agent>
    </dc:creator>
   </cc:Work>
  </rdf:RDF>
 </metadata>
 <defs>
  <style type="text/css">*{stroke-linejoin: round; stroke-linecap: butt}</style>
 </defs>
 <g id="figure_1">
  <g id="patch_1">
   <path d="M 0 207.691855 
L 242.492715 207.691855 
L 242.492715 0 
L 0 0 
z
" style="fill: #ffffff"/>
  </g>
  <g id="axes_1">
   <g id="patch_2">
    <path d="M 39.992715 173.52 
L 235.292715 173.52 
L 235.292715 7.2 
L 39.992715 7.2 
z
" style="fill: #ffffff"/>
   </g>
   <g id="patch_3">
    <path d="M 48.869988 173.52 
L 53.308624 173.52 
L 53.308624 173.44181 
L 48.869988 173.44181 
z
" clip-path="url(#p2bc9e2fde2)" style="fill: #333333; opacity: 0.65"/>
   </g>
   <g id="patch_4">
    <path d="M 53.308624 173.52 
L 57.74726 173.52 
L 57.74726 172.860972 
L 53.308624 172.860972 
z
" clip-path="url(#p2bc9e2fde2)" style="fill: #333333; opacity: 0.65"/>
   </g>
   <g id="patch_5">
    <path d="M 57.74726 173.52 
L 62.185897 173.52 
L 62.185897 171.107287 
L 57.74726 171.107287 
z
" clip-path="url(#p2bc9e2fde2)" style="fill: #333333; opacity: 0.65"/>
   </g>
   <g id="patch_6">
    <path d="M 62.185897 173.52 
L 66.624533 173.52 
L 66.624533 168.873293 
L 62.185897 168.873293 
z
" clip-path="url(#p2bc9e2fde2)" style="fill: #333333; opacity: 0.65"/>
   </g>
   <g id="patch_7">
    <path d="M 66.624533 173.52 
L 71.063169 173.52 
L 71.063169 166.080801 
L 66.624533 166.080801 
z
" clip-path="url(#p2bc9e2fde2)" style="fill: #333333; opacity: 0.65"/>
   </g>
   <g id="patch_8">
    <path d="M 71.063169 173.52 
L 75.501806 173.52 
L 75.501806 164.561686 
L 71.063169 164.561686 
z
" clip-path="url(#p2bc9e2fde2)" style="fill: #333333; opacity: 0.65"/>
   </g>
   <g id="patch_9">
    <path d="M 75.501806 173.52 
L 79.940442 173.52 
L 79.940442 163.500539 
L 75.501806 163.500539 
z
" clip-path="url(#p2bc9e2fde2)" style="fill: #333333; opacity: 0.65"/>
   </g>
   <g id="patch_10">
    <path d="M 79.940442 173.52 
L 84.379078 173.52 
L 84.379078 163.16544 
L 79.940442 163.16544 
z
" clip-path="url(#p2bc9e2fde2)" style="fill: #333333; opacity: 0.65"/>
   </g>
   <g id="patch_11">
    <path d="M 84.379078 173.52 
L 88.817715 173.52 
L 88.817715 164.673385 
L 84.379078 164.673385 
z
" clip-path="url(#p2bc9e2fde2)" style="fill: #333333; opacity: 0.65"/>
   </g>
   <g id="patch_12">
    <path d="M 88.817715 173.52 
L 93.256351 173.52 
L 93.256351 165.879742 
L 88.817715 165.879742 
z
" clip-path="url(#p2bc9e2fde2)" style="fill: #333333; opacity: 0.65"/>
   </g>
   <g id="patch_13">
    <path d="M 93.256351 173.52 
L 97.694988 173.52 
L 97.694988 166.974399 
L 93.256351 166.974399 
z
" clip-path="url(#p2bc9e2fde2)" style="fill: #333333; opacity: 0.65"/>
   </g>
   <g id="patch_14">
    <path d="M 97.694988 173.52 
L 102.133624 173.52 
L 102.133624 168.180755 
L 97.694988 168.180755 
z
" clip-path="url(#p2bc9e2fde2)" style="fill: #333333; opacity: 0.65"/>
   </g>
   <g id="patch_15">
    <path d="M 102.133624 173.52 
L 106.57226 173.52 
L 106.57226 169.521151 
L 102.133624 169.521151 
z
" clip-path="url(#p2bc9e2fde2)" style="fill: #333333; opacity: 0.65"/>
   </g>
   <g id="patch_16">
    <path d="M 106.57226 173.52 
L 111.010897 173.52 
L 111.010897 170.437089 
L 106.57226 170.437089 
z
" clip-path="url(#p2bc9e2fde2)" style="fill: #333333; opacity: 0.65"/>
   </g>
   <g id="patch_17">
    <path d="M 111.010897 173.52 
L 115.449533 173.52 
L 115.449533 171.118457 
L 111.010897 171.118457 
z
" clip-path="url(#p2bc9e2fde2)" style="fill: #333333; opacity: 0.65"/>
   </g>
   <g id="patch_18">
    <path d="M 115.449533 173.52 
L 119.888169 173.52 
L 119.888169 171.609935 
L 115.449533 171.609935 
z
" clip-path="url(#p2bc9e2fde2)" style="fill: #333333; opacity: 0.65"/>
   </g>
   <g id="patch_19">
    <path d="M 119.888169 173.52 
L 124.326806 173.52 
L 124.326806 172.168434 
L 119.888169 172.168434 
z
" clip-path="url(#p2bc9e2fde2)" style="fill: #333333; opacity: 0.65"/>
   </g>
   <g id="patch_20">
    <path d="M 124.326806 173.52 
L 128.765442 173.52 
L 128.765442 172.626403 
L 124.326806 172.626403 
z
" clip-path="url(#p2bc9e2fde2)" style="fill: #333333; opacity: 0.65"/>
   </g>
   <g id="patch_21">
    <path d="M 128.765442 173.52 
L 133.204078 173.52 
L 133.204078 172.604063 
L 128.765442 172.604063 
z
" clip-path="url(#p2bc9e2fde2)" style="fill: #333333; opacity: 0.65"/>
   </g>
   <g id="patch_22">
    <path d="M 133.204078 173.52 
L 137.642715 173.52 
L 137.642715 173.028521 
L 133.204078 173.028521 
z
" clip-path="url(#p2bc9e2fde2)" style="fill: #333333; opacity: 0.65"/>
   </g>
   <g id="patch_23">
    <path d="M 137.642715 173.52 
L 142.081351 173.52 
L 142.081351 173.106711 
L 137.642715 173.106711 
z
" clip-path="url(#p2bc9e2fde2)" style="fill: #333333; opacity: 0.65"/>
   </g>
   <g id="patch_24">
    <path d="M 142.081351 173.52 
L 146.519988 173.52 
L 146.519988 173.296601 
L 142.081351 173.296601 
z
" clip-path="url(#p2bc9e2fde2)" style="fill: #333333; opacity: 0.65"/>
   </g>
   <g id="patch_25">
    <path d="M 146.519988 173.52 
L 150.958624 173.52 
L 150.958624 173.251921 
L 146.519988 173.251921 
z
" clip-path="url(#p2bc9e2fde2)" style="fill: #333333; opacity: 0.65"/>
   </g>
   <g id="patch_26">
    <path d="M 150.958624 173.52 
L 155.39726 173.52 
L 155.39726 173.43064 
L 150.958624 173.43064 
z
" clip-path="url(#p2bc9e2fde2)" style="fill: #333333; opacity: 0.65"/>
   </g>
   <g id="patch_27">
    <path d="M 155.39726 173.52 
L 159.835897 173.52 
L 159.835897 173.4083 
L 155.39726 173.4083 
z
" clip-path="url(#p2bc9e2fde2)" style="fill: #333333; opacity: 0.65"/>
   </g>
   <g id="patch_28">
    <path d="M 159.835897 173.52 
L 164.274533 173.52 
L 164.274533 173.46415 
L 159.835897 173.46415 
z
" clip-path="url(#p2bc9e2fde2)" style="fill: #333333; opacity: 0.65"/>
   </g>
   <g id="patch_29">
    <path d="M 164.274533 173.52 
L 168.713169 173.52 
L 168.713169 173.45298 
L 164.274533 173.45298 
z
" clip-path="url(#p2bc9e2fde2)" style="fill: #333333; opacity: 0.65"/>
   </g>
   <g id="patch_30">
    <path d="M 168.713169 173.52 
L 173.151806 173.52 
L 173.151806 173.46415 
L 168.713169 173.46415 
z
" clip-path="url(#p2bc9e2fde2)" style="fill: #333333; opacity: 0.65"/>
   </g>
   <g id="patch_31">
    <path d="M 173.151806 173.52 
L 177.590442 173.52 
L 177.590442 173.49766 
L 173.151806 173.49766 
z
" clip-path="url(#p2bc9e2fde2)" style="fill: #333333; opacity: 0.65"/>
   </g>
   <g id="patch_32">
    <path d="M 177.590442 173.52 
L 182.029078 173.52 
L 182.029078 173.52 
L 177.590442 173.52 
z
" clip-path="url(#p2bc9e2fde2)" style="fill: #333333; opacity: 0.65"/>
   </g>
   <g id="patch_33">
    <path d="M 182.029078 173.52 
L 186.467715 173.52 
L 186.467715 173.52 
L 182.029078 173.52 
z
" clip-path="url(#p2bc9e2fde2)" style="fill: #333333; opacity: 0.65"/>
   </g>
   <g id="patch_34">
    <path d="M 186.467715 173.52 
L 190.906351 173.52 
L 190.906351 173.49766 
L 186.467715 173.49766 
z
" clip-path="url(#p2bc9e2fde2)" style="fill: #333333; opacity: 0.65"/>
   </g>
   <g id="patch_35">
    <path d="M 190.906351 173.52 
L 195.344988 173.52 
L 195.344988 173.50883 
L 190.906351 173.50883 
z
" clip-path="url(#p2bc9e2fde2)" style="fill: #333333; opacity: 0.65"/>
   </g>
   <g id="patch_36">
    <path d="M 195.344988 173.52 
L 199.783624 173.52 
L 199.783624 173.50883 
L 195.344988 173.50883 
z
" clip-path="url(#p2bc9e2fde2)" style="fill: #333333; opacity: 0.65"/>
   </g>
   <g id="patch_37">
    <path d="M 199.783624 173.52 
L 204.22226 173.52 
L 204.22226 173.50883 
L 199.783624 173.50883 
z
" clip-path="url(#p2bc9e2fde2)" style="fill: #333333; opacity: 0.65"/>
   </g>
   <g id="patch_38">
    <path d="M 204.22226 173.52 
L 208.660897 173.52 
L 208.660897 173.52 
L 204.22226 173.52 
z
" clip-path="url(#p2bc9e2fde2)" style="fill: #333333; opacity: 0.65"/>
   </g>
   <g id="patch_39">
    <path d="M 208.660897 173.52 
L 213.099533 173.52 
L 213.099533 173.52 
L 208.660897 173.52 
z
" clip-path="url(#p2bc9e2fde2)" style="fill: #333333; opacity: 0.65"/>
   </g>
   <g id="patch_40">
    <path d="M 213.099533 173.52 
L 217.538169 173.52 
L 217.538169 173.52 
L 213.099533 173.52 
z
" clip-path="url(#p2bc9e2fde2)" style="fill: #333333; opacity: 0.65"/>
   </g>
   <g id="patch_41">
    <path d="M 217.538169 173.52 
L 221.976806 173.52 
L 221.976806 173.52 
L 217.538169 173.52 
z
" clip-path="url(#p2bc9e2fde2)" style="fill: #333333; opacity: 0.65"/>
   </g>
   <g id="patch_42">
    <path d="M 221.976806 173.52 
L 226.415442 173.52 
L 226.415442 173.50883 
L 221.976806 173.50883 
z
" clip-path="url(#p2bc9e2fde2)" style="fill: #333333; opacity: 0.65"/>
   </g>
   <g id="patch_43">
    <path d="M 52.078487 173.52 
L 52.293519 173.52 
L 52.293519 173.058865 
L 52.078487 173.058865 
z
" clip-path="url(#p2bc9e2fde2)" style="fill: #616161; opacity: 0.55"/>
   </g>
   <g id="patch_44">
    <path d="M 52.293519 173.52 
L 52.508551 173.52 
L 52.508551 173.52 
L 52.293519 173.52 
z
" clip-path="url(#p2bc9e2fde2)" style="fill: #616161; opacity: 0.55"/>
   </g>
   <g id="patch_45">
    <path d="M 52.508551 173.52 
L 52.723583 173.52 
L 52.723583 173.52 
L 52.508551 173.52 
z
" clip-path="url(#p2bc9e2fde2)" style="fill: #616161; opacity: 0.55"/>
   </g>
   <g id="patch_46">
    <path d="M 52.723583 173.52 
L 52.938615 173.52 
L 52.938615 173.289432 
L 52.723583 173.289432 
z
" clip-path="url(#p2bc9e2fde2)" style="fill: #616161; opacity: 0.55"/>
   </g>
   <g id="patch_47">
    <path d="M 52.938615 173.52 
L 53.153647 173.52 
L 53.153647 172.367162 
L 52.938615 172.367162 
z
" clip-path="url(#p2bc9e2fde2)" style="fill: #616161; opacity: 0.55"/>
   </g>
   <g id="patch_48">
    <path d="M 53.153647 173.52 
L 53.368679 173.52 
L 53.368679 172.828297 
L 53.153647 172.828297 
z
" clip-path="url(#p2bc9e2fde2)" style="fill: #616161; opacity: 0.55"/>
   </g>
   <g id="patch_49">
    <path d="M 53.368679 173.52 
L 53.583711 173.52 
L 53.583711 170.52262 
L 53.368679 170.52262 
z
" clip-path="url(#p2bc9e2fde2)" style="fill: #616161; opacity: 0.55"/>
   </g>
   <g id="patch_50">
    <path d="M 53.583711 173.52 
L 53.798742 173.52 
L 53.798742 168.216943 
L 53.583711 168.216943 
z
" clip-path="url(#p2bc9e2fde2)" style="fill: #616161; opacity: 0.55"/>
   </g>
   <g id="patch_51">
    <path d="M 53.798742 173.52 
L 54.013774 173.52 
L 54.013774 163.60559 
L 53.798742 163.60559 
z
" clip-path="url(#p2bc9e2fde2)" style="fill: #616161; opacity: 0.55"/>
   </g>
   <g id="patch_52">
    <path d="M 54.013774 173.52 
L 54.228806 173.52 
L 54.228806 160.60821 
L 54.013774 160.60821 
z
" clip-path="url(#p2bc9e2fde2)" style="fill: #616161; opacity: 0.55"/>
   </g>
   <g id="patch_53">
    <path d="M 54.228806 173.52 
L 54.443838 173.52 
L 54.443838 150.463231 
L 54.228806 150.463231 
z
" clip-path="url(#p2bc9e2fde2)" style="fill: #616161; opacity: 0.55"/>
   </g>
   <g id="patch_54">
    <path d="M 54.443838 173.52 
L 54.65887 173.52 
L 54.65887 140.087686 
L 54.443838 140.087686 
z
" clip-path="url(#p2bc9e2fde2)" style="fill: #616161; opacity: 0.55"/>
   </g>
   <g id="patch_55">
    <path d="M 54.65887 173.52 
L 54.873902 173.52 
L 54.873902 127.175895 
L 54.65887 127.175895 
z
" clip-path="url(#p2bc9e2fde2)" style="fill: #616161; opacity: 0.55"/>
   </g>
   <g id="patch_56">
    <path d="M 54.873902 173.52 
L 55.088934 173.52 
L 55.088934 109.652751 
L 54.873902 109.652751 
z
" clip-path="url(#p2bc9e2fde2)" style="fill: #616161; opacity: 0.55"/>
   </g>
   <g id="patch_57">
    <path d="M 55.088934 173.52 
L 55.303966 173.52 
L 55.303966 101.582882 
L 55.088934 101.582882 
z
" clip-path="url(#p2bc9e2fde2)" style="fill: #616161; opacity: 0.55"/>
   </g>
   <g id="patch_58">
    <path d="M 55.303966 173.52 
L 55.518998 173.52 
L 55.518998 81.062358 
L 55.303966 81.062358 
z
" clip-path="url(#p2bc9e2fde2)" style="fill: #616161; opacity: 0.55"/>
   </g>
   <g id="patch_59">
    <path d="M 55.518998 173.52 
L 55.73403 173.52 
L 55.73403 59.850131 
L 55.518998 59.850131 
z
" clip-path="url(#p2bc9e2fde2)" style="fill: #616161; opacity: 0.55"/>
   </g>
   <g id="patch_60">
    <path d="M 55.73403 173.52 
L 55.949062 173.52 
L 55.949062 51.780262 
L 55.73403 51.780262 
z
" clip-path="url(#p2bc9e2fde2)" style="fill: #616161; opacity: 0.55"/>
   </g>
   <g id="patch_61">
    <path d="M 55.949062 173.52 
L 56.164094 173.52 
L 56.164094 38.176769 
L 55.949062 38.176769 
z
" clip-path="url(#p2bc9e2fde2)" style="fill: #616161; opacity: 0.55"/>
   </g>
   <g id="patch_62">
    <path d="M 56.164094 173.52 
L 56.379126 173.52 
L 56.379126 32.643144 
L 56.164094 32.643144 
z
" clip-path="url(#p2bc9e2fde2)" style="fill: #616161; opacity: 0.55"/>
   </g>
   <g id="patch_63">
    <path d="M 56.379126 173.52 
L 56.594158 173.52 
L 56.594158 15.12 
L 56.379126 15.12 
z
" clip-path="url(#p2bc9e2fde2)" style="fill: #616161; opacity: 0.55"/>
   </g>
   <g id="patch_64">
    <path d="M 56.594158 173.52 
L 56.80919 173.52 
L 56.80919 36.101659 
L 56.594158 36.101659 
z
" clip-path="url(#p2bc9e2fde2)" style="fill: #616161; opacity: 0.55"/>
   </g>
   <g id="patch_65">
    <path d="M 56.80919 173.52 
L 57.024222 173.52 
L 57.024222 41.174148 
L 56.80919 41.174148 
z
" clip-path="url(#p2bc9e2fde2)" style="fill: #616161; opacity: 0.55"/>
   </g>
   <g id="patch_66">
    <path d="M 57.024222 173.52 
L 57.239254 173.52 
L 57.239254 58.466725 
L 57.024222 58.466725 
z
" clip-path="url(#p2bc9e2fde2)" style="fill: #616161; opacity: 0.55"/>
   </g>
   <g id="patch_67">
    <path d="M 57.239254 173.52 
L 57.454286 173.52 
L 57.454286 69.072838 
L 57.239254 69.072838 
z
" clip-path="url(#p2bc9e2fde2)" style="fill: #616161; opacity: 0.55"/>
   </g>
   <g id="patch_68">
    <path d="M 57.454286 173.52 
L 57.669318 173.52 
L 57.669318 90.285066 
L 57.454286 90.285066 
z
" clip-path="url(#p2bc9e2fde2)" style="fill: #616161; opacity: 0.55"/>
   </g>
   <g id="patch_69">
    <path d="M 57.669318 173.52 
L 57.88435 173.52 
L 57.88435 109.883319 
L 57.669318 109.883319 
z
" clip-path="url(#p2bc9e2fde2)" style="fill: #616161; opacity: 0.55"/>
   </g>
   <g id="patch_70">
    <path d="M 57.88435 173.52 
L 58.099382 173.52 
L 58.099382 119.797729 
L 57.88435 119.797729 
z
" clip-path="url(#p2bc9e2fde2)" style="fill: #616161; opacity: 0.55"/>
   </g>
   <g id="patch_71">
    <path d="M 58.099382 173.52 
L 58.314414 173.52 
L 58.314414 133.63179 
L 58.099382 133.63179 
z
" clip-path="url(#p2bc9e2fde2)" style="fill: #616161; opacity: 0.55"/>
   </g>
   <g id="patch_72">
    <path d="M 58.314414 173.52 
L 58.529446 173.52 
L 58.529446 147.465852 
L 58.314414 147.465852 
z
" clip-path="url(#p2bc9e2fde2)" style="fill: #616161; opacity: 0.55"/>
   </g>
   <g id="patch_73">
    <path d="M 58.529446 173.52 
L 58.744478 173.52 
L 58.744478 156.919127 
L 58.529446 156.919127 
z
" clip-path="url(#p2bc9e2fde2)" style="fill: #616161; opacity: 0.55"/>
   </g>
   <g id="patch_74">
    <path d="M 58.744478 173.52 
L 58.95951 173.52 
L 58.95951 157.841397 
L 58.744478 157.841397 
z
" clip-path="url(#p2bc9e2fde2)" style="fill: #616161; opacity: 0.55"/>
   </g>
   <g id="patch_75">
    <path d="M 58.95951 173.52 
L 59.174542 173.52 
L 59.174542 166.602969 
L 58.95951 166.602969 
z
" clip-path="url(#p2bc9e2fde2)" style="fill: #616161; opacity: 0.55"/>
   </g>
   <g id="patch_76">
    <path d="M 59.174542 173.52 
L 59.389574 173.52 
L 59.389574 168.447511 
L 59.174542 168.447511 
z
" clip-path="url(#p2bc9e2fde2)" style="fill: #616161; opacity: 0.55"/>
   </g>
   <g id="patch_77">
    <path d="M 59.389574 173.52 
L 59.604606 173.52 
L 59.604606 167.755808 
L 59.389574 167.755808 
z
" clip-path="url(#p2bc9e2fde2)" style="fill: #616161; opacity: 0.55"/>
   </g>
   <g id="patch_78">
    <path d="M 59.604606 173.52 
L 59.819638 173.52 
L 59.819638 171.444891 
L 59.604606 171.444891 
z
" clip-path="url(#p2bc9e2fde2)" style="fill: #616161; opacity: 0.55"/>
   </g>
   <g id="patch_79">
    <path d="M 59.819638 173.52 
L 60.03467 173.52 
L 60.03467 172.597729 
L 59.819638 172.597729 
z
" clip-path="url(#p2bc9e2fde2)" style="fill: #616161; opacity: 0.55"/>
   </g>
   <g id="patch_80">
    <path d="M 60.03467 173.52 
L 60.249702 173.52 
L 60.249702 173.058865 
L 60.03467 173.058865 
z
" clip-path="url(#p2bc9e2fde2)" style="fill: #616161; opacity: 0.55"/>
   </g>
   <g id="patch_81">
    <path d="M 60.249702 173.52 
L 60.464734 173.52 
L 60.464734 173.289432 
L 60.249702 173.289432 
z
" clip-path="url(#p2bc9e2fde2)" style="fill: #616161; opacity: 0.55"/>
   </g>
   <g id="patch_82">
    <path d="M 60.464734 173.52 
L 60.679766 173.52 
L 60.679766 173.289432 
L 60.464734 173.289432 
z
" clip-path="url(#p2bc9e2fde2)" style="fill: #616161; opacity: 0.55"/>
   </g>
   <g id="matplotlib.axis_1">
    <g id="xtick_1">
     <g id="line2d_1">
      <defs>
       <path id="mb5ad8cf9c8" d="M 0 0 
L 0 3.5 
" style="stroke: #000000; stroke-width: 0.8"/>
      </defs>
      <g>
       <use xlink:href="#mb5ad8cf9c8" x="70.773527" y="173.52" style="stroke: #000000; stroke-width: 0.8"/>
      </g>
     </g>
     <g id="text_1">
      <!-- 0.05 -->
      <g transform="translate(62.989152 186.344219) scale(0.08 -0.08)">
       <defs>
        <path id="ArialMT-13" d="M 266 2259 
Q 266 3072 433 3567 
Q 600 4063 929 4331 
Q 1259 4600 1759 4600 
Q 2128 4600 2406 4451 
Q 2684 4303 2865 4023 
Q 3047 3744 3150 3342 
Q 3253 2941 3253 2259 
Q 3253 1453 3087 958 
Q 2922 463 2592 192 
Q 2263 -78 1759 -78 
Q 1097 -78 719 397 
Q 266 969 266 2259 
z
M 844 2259 
Q 844 1131 1108 757 
Q 1372 384 1759 384 
Q 2147 384 2411 759 
Q 2675 1134 2675 2259 
Q 2675 3391 2411 3762 
Q 2147 4134 1753 4134 
Q 1366 4134 1134 3806 
Q 844 3388 844 2259 
z
" transform="scale(0.015625)"/>
        <path id="ArialMT-11" d="M 581 0 
L 581 641 
L 1222 641 
L 1222 0 
L 581 0 
z
" transform="scale(0.015625)"/>
        <path id="ArialMT-18" d="M 266 1200 
L 856 1250 
Q 922 819 1161 601 
Q 1400 384 1738 384 
Q 2144 384 2425 690 
Q 2706 997 2706 1503 
Q 2706 1984 2436 2262 
Q 2166 2541 1728 2541 
Q 1456 2541 1237 2417 
Q 1019 2294 894 2097 
L 366 2166 
L 809 4519 
L 3088 4519 
L 3088 3981 
L 1259 3981 
L 1013 2750 
Q 1425 3038 1878 3038 
Q 2478 3038 2890 2622 
Q 3303 2206 3303 1553 
Q 3303 931 2941 478 
Q 2500 -78 1738 -78 
Q 1113 -78 717 272 
Q 322 622 266 1200 
z
" transform="scale(0.015625)"/>
       </defs>
       <use xlink:href="#ArialMT-13"/>
       <use xlink:href="#ArialMT-11" transform="translate(55.609375 0)"/>
       <use xlink:href="#ArialMT-13" transform="translate(83.390625 0)"/>
       <use xlink:href="#ArialMT-18" transform="translate(139 0)"/>
      </g>
     </g>
    </g>
    <g id="xtick_2">
     <g id="line2d_2">
      <g>
       <use xlink:href="#mb5ad8cf9c8" x="112.219245" y="173.52" style="stroke: #000000; stroke-width: 0.8"/>
      </g>
     </g>
     <g id="text_2">
      <!-- 0.10 -->
      <g transform="translate(104.43487 186.344219) scale(0.08 -0.08)">
       <defs>
        <path id="ArialMT-14" d="M 2384 0 
L 1822 0 
L 1822 3584 
Q 1619 3391 1289 3197 
Q 959 3003 697 2906 
L 697 3450 
Q 1169 3672 1522 3987 
Q 1875 4303 2022 4600 
L 2384 4600 
L 2384 0 
z
" transform="scale(0.015625)"/>
       </defs>
       <use xlink:href="#ArialMT-13"/>
       <use xlink:href="#ArialMT-11" transform="translate(55.609375 0)"/>
       <use xlink:href="#ArialMT-14" transform="translate(83.390625 0)"/>
       <use xlink:href="#ArialMT-13" transform="translate(139 0)"/>
      </g>
     </g>
    </g>
    <g id="xtick_3">
     <g id="line2d_3">
      <g>
       <use xlink:href="#mb5ad8cf9c8" x="153.664962" y="173.52" style="stroke: #000000; stroke-width: 0.8"/>
      </g>
     </g>
     <g id="text_3">
      <!-- 0.15 -->
      <g transform="translate(145.880587 186.344219) scale(0.08 -0.08)">
       <use xlink:href="#ArialMT-13"/>
       <use xlink:href="#ArialMT-11" transform="translate(55.609375 0)"/>
       <use xlink:href="#ArialMT-14" transform="translate(83.390625 0)"/>
       <use xlink:href="#ArialMT-18" transform="translate(139 0)"/>
      </g>
     </g>
    </g>
    <g id="xtick_4">
     <g id="line2d_4">
      <g>
       <use xlink:href="#mb5ad8cf9c8" x="195.11068" y="173.52" style="stroke: #000000; stroke-width: 0.8"/>
      </g>
     </g>
     <g id="text_4">
      <!-- 0.20 -->
      <g transform="translate(187.326305 186.344219) scale(0.08 -0.08)">
       <defs>
        <path id="ArialMT-15" d="M 3222 541 
L 3222 0 
L 194 0 
Q 188 203 259 391 
Q 375 700 629 1000 
Q 884 1300 1366 1694 
Q 2113 2306 2375 2664 
Q 2638 3022 2638 3341 
Q 2638 3675 2398 3904 
Q 2159 4134 1775 4134 
Q 1369 4134 1125 3890 
Q 881 3647 878 3216 
L 300 3275 
Q 359 3922 746 4261 
Q 1134 4600 1788 4600 
Q 2447 4600 2831 4234 
Q 3216 3869 3216 3328 
Q 3216 3053 3103 2787 
Q 2991 2522 2730 2228 
Q 2469 1934 1863 1422 
Q 1356 997 1212 845 
Q 1069 694 975 541 
L 3222 541 
z
" transform="scale(0.015625)"/>
       </defs>
       <use xlink:href="#ArialMT-13"/>
       <use xlink:href="#ArialMT-11" transform="translate(55.609375 0)"/>
       <use xlink:href="#ArialMT-15" transform="translate(83.390625 0)"/>
       <use xlink:href="#ArialMT-13" transform="translate(139 0)"/>
      </g>
     </g>
    </g>
    <g id="text_5">
     <!-- cultural $F_{ST}$ -->
     <g transform="translate(115.232715 198.597813) scale(0.09 -0.09)">
      <defs>
       <path id="ArialMT-46" d="M 2588 1216 
L 3141 1144 
Q 3050 572 2676 248 
Q 2303 -75 1759 -75 
Q 1078 -75 664 370 
Q 250 816 250 1647 
Q 250 2184 428 2587 
Q 606 2991 970 3192 
Q 1334 3394 1763 3394 
Q 2303 3394 2647 3120 
Q 2991 2847 3088 2344 
L 2541 2259 
Q 2463 2594 2264 2762 
Q 2066 2931 1784 2931 
Q 1359 2931 1093 2626 
Q 828 2322 828 1663 
Q 828 994 1084 691 
Q 1341 388 1753 388 
Q 2084 388 2306 591 
Q 2528 794 2588 1216 
z
" transform="scale(0.015625)"/>
       <path id="ArialMT-58" d="M 2597 0 
L 2597 488 
Q 2209 -75 1544 -75 
Q 1250 -75 995 37 
Q 741 150 617 320 
Q 494 491 444 738 
Q 409 903 409 1263 
L 409 3319 
L 972 3319 
L 972 1478 
Q 972 1038 1006 884 
Q 1059 663 1231 536 
Q 1403 409 1656 409 
Q 1909 409 2131 539 
Q 2353 669 2445 892 
Q 2538 1116 2538 1541 
L 2538 3319 
L 3100 3319 
L 3100 0 
L 2597 0 
z
" transform="scale(0.015625)"/>
       <path id="ArialMT-4f" d="M 409 0 
L 409 4581 
L 972 4581 
L 972 0 
L 409 0 
z
" transform="scale(0.015625)"/>
       <path id="ArialMT-57" d="M 1650 503 
L 1731 6 
Q 1494 -44 1306 -44 
Q 1000 -44 831 53 
Q 663 150 594 308 
Q 525 466 525 972 
L 525 2881 
L 113 2881 
L 113 3319 
L 525 3319 
L 525 4141 
L 1084 4478 
L 1084 3319 
L 1650 3319 
L 1650 2881 
L 1084 2881 
L 1084 941 
Q 1084 700 1114 631 
Q 1144 563 1211 522 
Q 1278 481 1403 481 
Q 1497 481 1650 503 
z
" transform="scale(0.015625)"/>
       <path id="ArialMT-55" d="M 416 0 
L 416 3319 
L 922 3319 
L 922 2816 
Q 1116 3169 1280 3281 
Q 1444 3394 1641 3394 
Q 1925 3394 2219 3213 
L 2025 2691 
Q 1819 2813 1613 2813 
Q 1428 2813 1281 2702 
Q 1134 2591 1072 2394 
Q 978 2094 978 1738 
L 978 0 
L 416 0 
z
" transform="scale(0.015625)"/>
       <path id="ArialMT-44" d="M 2588 409 
Q 2275 144 1986 34 
Q 1697 -75 1366 -75 
Q 819 -75 525 192 
Q 231 459 231 875 
Q 231 1119 342 1320 
Q 453 1522 633 1644 
Q 813 1766 1038 1828 
Q 1203 1872 1538 1913 
Q 2219 1994 2541 2106 
Q 2544 2222 2544 2253 
Q 2544 2597 2384 2738 
Q 2169 2928 1744 2928 
Q 1347 2928 1158 2789 
Q 969 2650 878 2297 
L 328 2372 
Q 403 2725 575 2942 
Q 747 3159 1072 3276 
Q 1397 3394 1825 3394 
Q 2250 3394 2515 3294 
Q 2781 3194 2906 3042 
Q 3031 2891 3081 2659 
Q 3109 2516 3109 2141 
L 3109 1391 
Q 3109 606 3145 398 
Q 3181 191 3288 0 
L 2700 0 
Q 2613 175 2588 409 
z
M 2541 1666 
Q 2234 1541 1622 1453 
Q 1275 1403 1131 1340 
Q 988 1278 909 1158 
Q 831 1038 831 891 
Q 831 666 1001 516 
Q 1172 366 1500 366 
Q 1825 366 2078 508 
Q 2331 650 2450 897 
Q 2541 1088 2541 1459 
L 2541 1666 
z
" transform="scale(0.015625)"/>
       <path id="ArialMT-3" transform="scale(0.015625)"/>
       <path id="DejaVuSans-Oblique-29" d="M 1081 4666 
L 3756 4666 
L 3653 4134 
L 1606 4134 
L 1338 2759 
L 3188 2759 
L 3084 2228 
L 1234 2228 
L 800 0 
L 172 0 
L 1081 4666 
z
" transform="scale(0.015625)"/>
       <path id="DejaVuSans-Oblique-36" d="M 3859 4513 
L 3738 3897 
Q 3422 4066 3111 4152 
Q 2800 4238 2509 4238 
Q 1944 4238 1609 3991 
Q 1275 3744 1275 3334 
Q 1275 3109 1398 2989 
Q 1522 2869 2034 2731 
L 2413 2638 
Q 3053 2472 3303 2217 
Q 3553 1963 3553 1503 
Q 3553 797 2998 353 
Q 2444 -91 1538 -91 
Q 1166 -91 791 -17 
Q 416 56 38 206 
L 166 856 
Q 513 641 861 531 
Q 1209 422 1556 422 
Q 2147 422 2503 684 
Q 2859 947 2859 1369 
Q 2859 1650 2717 1795 
Q 2575 1941 2106 2059 
L 1728 2156 
Q 1081 2325 845 2545 
Q 609 2766 609 3163 
Q 609 3859 1145 4304 
Q 1681 4750 2541 4750 
Q 2875 4750 3203 4690 
Q 3531 4631 3859 4513 
z
" transform="scale(0.015625)"/>
       <path id="DejaVuSans-Oblique-37" d="M 378 4666 
L 4325 4666 
L 4225 4134 
L 2559 4134 
L 1759 0 
L 1125 0 
L 1925 4134 
L 275 4134 
L 378 4666 
z
" transform="scale(0.015625)"/>
      </defs>
      <use xlink:href="#ArialMT-46" transform="translate(0 0.09375)"/>
      <use xlink:href="#ArialMT-58" transform="translate(50 0.09375)"/>
      <use xlink:href="#ArialMT-4f" transform="translate(105.615234 0.09375)"/>
      <use xlink:href="#ArialMT-57" transform="translate(127.832031 0.09375)"/>
      <use xlink:href="#ArialMT-58" transform="translate(155.615234 0.09375)"/>
      <use xlink:href="#ArialMT-55" transform="translate(211.230469 0.09375)"/>
      <use xlink:href="#ArialMT-44" transform="translate(244.53125 0.09375)"/>
      <use xlink:href="#ArialMT-4f" transform="translate(300.146484 0.09375)"/>
      <use xlink:href="#ArialMT-3" transform="translate(322.363281 0.09375)"/>
      <use xlink:href="#DejaVuSans-Oblique-29" transform="translate(350.146484 0.09375)"/>
      <use xlink:href="#DejaVuSans-Oblique-36" transform="translate(407.666016 -14.906201) scale(0.7)"/>
      <use xlink:href="#DejaVuSans-Oblique-37" transform="translate(452.099609 -14.906201) scale(0.7)"/>
     </g>
    </g>
   </g>
   <g id="matplotlib.axis_2">
    <g id="ytick_1">
     <g id="line2d_5">
      <defs>
       <path id="m2537cabc9a" d="M 0 0 
L -3.5 0 
" style="stroke: #000000; stroke-width: 0.8"/>
      </defs>
      <g>
       <use xlink:href="#m2537cabc9a" x="39.992715" y="173.52" style="stroke: #000000; stroke-width: 0.8"/>
      </g>
     </g>
     <g id="text_6">
      <!-- 0 -->
      <g transform="translate(28.543965 176.432109) scale(0.08 -0.08)">
       <use xlink:href="#ArialMT-13"/>
      </g>
     </g>
    </g>
    <g id="ytick_2">
     <g id="line2d_6">
      <g>
       <use xlink:href="#m2537cabc9a" x="39.992715" y="149.595007" style="stroke: #000000; stroke-width: 0.8"/>
      </g>
     </g>
     <g id="text_7">
      <!-- 50 -->
      <g transform="translate(24.095215 152.507116) scale(0.08 -0.08)">
       <use xlink:href="#ArialMT-18"/>
       <use xlink:href="#ArialMT-13" transform="translate(55.609375 0)"/>
      </g>
     </g>
    </g>
    <g id="ytick_3">
     <g id="line2d_7">
      <g>
       <use xlink:href="#m2537cabc9a" x="39.992715" y="125.670013" style="stroke: #000000; stroke-width: 0.8"/>
      </g>
     </g>
     <g id="text_8">
      <!-- 100 -->
      <g transform="translate(19.646465 128.582123) scale(0.08 -0.08)">
       <use xlink:href="#ArialMT-14"/>
       <use xlink:href="#ArialMT-13" transform="translate(55.609375 0)"/>
       <use xlink:href="#ArialMT-13" transform="translate(111.21875 0)"/>
      </g>
     </g>
    </g>
    <g id="ytick_4">
     <g id="line2d_8">
      <g>
       <use xlink:href="#m2537cabc9a" x="39.992715" y="101.74502" style="stroke: #000000; stroke-width: 0.8"/>
      </g>
     </g>
     <g id="text_9">
      <!-- 150 -->
      <g transform="translate(19.646465 104.657129) scale(0.08 -0.08)">
       <use xlink:href="#ArialMT-14"/>
       <use xlink:href="#ArialMT-18" transform="translate(55.609375 0)"/>
       <use xlink:href="#ArialMT-13" transform="translate(111.21875 0)"/>
      </g>
     </g>
    </g>
    <g id="ytick_5">
     <g id="line2d_9">
      <g>
       <use xlink:href="#m2537cabc9a" x="39.992715" y="77.820027" style="stroke: #000000; stroke-width: 0.8"/>
      </g>
     </g>
     <g id="text_10">
      <!-- 200 -->
      <g transform="translate(19.646465 80.732136) scale(0.08 -0.08)">
       <use xlink:href="#ArialMT-15"/>
       <use xlink:href="#ArialMT-13" transform="translate(55.609375 0)"/>
       <use xlink:href="#ArialMT-13" transform="translate(111.21875 0)"/>
      </g>
     </g>
    </g>
    <g id="ytick_6">
     <g id="line2d_10">
      <g>
       <use xlink:href="#m2537cabc9a" x="39.992715" y="53.895034" style="stroke: #000000; stroke-width: 0.8"/>
      </g>
     </g>
     <g id="text_11">
      <!-- 250 -->
      <g transform="translate(19.646465 56.807143) scale(0.08 -0.08)">
       <use xlink:href="#ArialMT-15"/>
       <use xlink:href="#ArialMT-18" transform="translate(55.609375 0)"/>
       <use xlink:href="#ArialMT-13" transform="translate(111.21875 0)"/>
      </g>
     </g>
    </g>
    <g id="ytick_7">
     <g id="line2d_11">
      <g>
       <use xlink:href="#m2537cabc9a" x="39.992715" y="29.97004" style="stroke: #000000; stroke-width: 0.8"/>
      </g>
     </g>
     <g id="text_12">
      <!-- 300 -->
      <g transform="translate(19.646465 32.88215) scale(0.08 -0.08)">
       <defs>
        <path id="ArialMT-16" d="M 269 1209 
L 831 1284 
Q 928 806 1161 595 
Q 1394 384 1728 384 
Q 2125 384 2398 659 
Q 2672 934 2672 1341 
Q 2672 1728 2419 1979 
Q 2166 2231 1775 2231 
Q 1616 2231 1378 2169 
L 1441 2663 
Q 1497 2656 1531 2656 
Q 1891 2656 2178 2843 
Q 2466 3031 2466 3422 
Q 2466 3731 2256 3934 
Q 2047 4138 1716 4138 
Q 1388 4138 1169 3931 
Q 950 3725 888 3313 
L 325 3413 
Q 428 3978 793 4289 
Q 1159 4600 1703 4600 
Q 2078 4600 2393 4439 
Q 2709 4278 2876 4000 
Q 3044 3722 3044 3409 
Q 3044 3113 2884 2869 
Q 2725 2625 2413 2481 
Q 2819 2388 3044 2092 
Q 3269 1797 3269 1353 
Q 3269 753 2831 336 
Q 2394 -81 1725 -81 
Q 1122 -81 723 278 
Q 325 638 269 1209 
z
" transform="scale(0.015625)"/>
       </defs>
       <use xlink:href="#ArialMT-16"/>
       <use xlink:href="#ArialMT-13" transform="translate(55.609375 0)"/>
       <use xlink:href="#ArialMT-13" transform="translate(111.21875 0)"/>
      </g>
     </g>
    </g>
    <g id="text_13">
     <!-- posterior density -->
     <g transform="translate(13.752246 123.373828) rotate(-90) scale(0.09 -0.09)">
      <defs>
       <path id="ArialMT-53" d="M 422 -1272 
L 422 3319 
L 934 3319 
L 934 2888 
Q 1116 3141 1344 3267 
Q 1572 3394 1897 3394 
Q 2322 3394 2647 3175 
Q 2972 2956 3137 2557 
Q 3303 2159 3303 1684 
Q 3303 1175 3120 767 
Q 2938 359 2589 142 
Q 2241 -75 1856 -75 
Q 1575 -75 1351 44 
Q 1128 163 984 344 
L 984 -1272 
L 422 -1272 
z
M 931 1641 
Q 931 1000 1190 694 
Q 1450 388 1819 388 
Q 2194 388 2461 705 
Q 2728 1022 2728 1688 
Q 2728 2322 2467 2637 
Q 2206 2953 1844 2953 
Q 1484 2953 1207 2617 
Q 931 2281 931 1641 
z
" transform="scale(0.015625)"/>
       <path id="ArialMT-52" d="M 213 1659 
Q 213 2581 725 3025 
Q 1153 3394 1769 3394 
Q 2453 3394 2887 2945 
Q 3322 2497 3322 1706 
Q 3322 1066 3130 698 
Q 2938 331 2570 128 
Q 2203 -75 1769 -75 
Q 1072 -75 642 372 
Q 213 819 213 1659 
z
M 791 1659 
Q 791 1022 1069 705 
Q 1347 388 1769 388 
Q 2188 388 2466 706 
Q 2744 1025 2744 1678 
Q 2744 2294 2464 2611 
Q 2184 2928 1769 2928 
Q 1347 2928 1069 2612 
Q 791 2297 791 1659 
z
" transform="scale(0.015625)"/>
       <path id="ArialMT-56" d="M 197 991 
L 753 1078 
Q 800 744 1014 566 
Q 1228 388 1613 388 
Q 2000 388 2187 545 
Q 2375 703 2375 916 
Q 2375 1106 2209 1216 
Q 2094 1291 1634 1406 
Q 1016 1563 777 1677 
Q 538 1791 414 1992 
Q 291 2194 291 2438 
Q 291 2659 392 2848 
Q 494 3038 669 3163 
Q 800 3259 1026 3326 
Q 1253 3394 1513 3394 
Q 1903 3394 2198 3281 
Q 2494 3169 2634 2976 
Q 2775 2784 2828 2463 
L 2278 2388 
Q 2241 2644 2061 2787 
Q 1881 2931 1553 2931 
Q 1166 2931 1000 2803 
Q 834 2675 834 2503 
Q 834 2394 903 2306 
Q 972 2216 1119 2156 
Q 1203 2125 1616 2013 
Q 2213 1853 2448 1751 
Q 2684 1650 2818 1456 
Q 2953 1263 2953 975 
Q 2953 694 2789 445 
Q 2625 197 2315 61 
Q 2006 -75 1616 -75 
Q 969 -75 630 194 
Q 291 463 197 991 
z
" transform="scale(0.015625)"/>
       <path id="ArialMT-48" d="M 2694 1069 
L 3275 997 
Q 3138 488 2766 206 
Q 2394 -75 1816 -75 
Q 1088 -75 661 373 
Q 234 822 234 1631 
Q 234 2469 665 2931 
Q 1097 3394 1784 3394 
Q 2450 3394 2872 2941 
Q 3294 2488 3294 1666 
Q 3294 1616 3291 1516 
L 816 1516 
Q 847 969 1125 678 
Q 1403 388 1819 388 
Q 2128 388 2347 550 
Q 2566 713 2694 1069 
z
M 847 1978 
L 2700 1978 
Q 2663 2397 2488 2606 
Q 2219 2931 1791 2931 
Q 1403 2931 1139 2672 
Q 875 2413 847 1978 
z
" transform="scale(0.015625)"/>
       <path id="ArialMT-4c" d="M 425 3934 
L 425 4581 
L 988 4581 
L 988 3934 
L 425 3934 
z
M 425 0 
L 425 3319 
L 988 3319 
L 988 0 
L 425 0 
z
" transform="scale(0.015625)"/>
       <path id="ArialMT-47" d="M 2575 0 
L 2575 419 
Q 2259 -75 1647 -75 
Q 1250 -75 917 144 
Q 584 363 401 755 
Q 219 1147 219 1656 
Q 219 2153 384 2558 
Q 550 2963 881 3178 
Q 1213 3394 1622 3394 
Q 1922 3394 2156 3267 
Q 2391 3141 2538 2938 
L 2538 4581 
L 3097 4581 
L 3097 0 
L 2575 0 
z
M 797 1656 
Q 797 1019 1065 703 
Q 1334 388 1700 388 
Q 2069 388 2326 689 
Q 2584 991 2584 1609 
Q 2584 2291 2321 2609 
Q 2059 2928 1675 2928 
Q 1300 2928 1048 2622 
Q 797 2316 797 1656 
z
" transform="scale(0.015625)"/>
       <path id="ArialMT-51" d="M 422 0 
L 422 3319 
L 928 3319 
L 928 2847 
Q 1294 3394 1984 3394 
Q 2284 3394 2536 3286 
Q 2788 3178 2913 3003 
Q 3038 2828 3088 2588 
Q 3119 2431 3119 2041 
L 3119 0 
L 2556 0 
L 2556 2019 
Q 2556 2363 2490 2533 
Q 2425 2703 2258 2804 
Q 2091 2906 1866 2906 
Q 1506 2906 1245 2678 
Q 984 2450 984 1813 
L 984 0 
L 422 0 
z
" transform="scale(0.015625)"/>
       <path id="ArialMT-5c" d="M 397 -1278 
L 334 -750 
Q 519 -800 656 -800 
Q 844 -800 956 -737 
Q 1069 -675 1141 -563 
Q 1194 -478 1313 -144 
Q 1328 -97 1363 -6 
L 103 3319 
L 709 3319 
L 1400 1397 
Q 1534 1031 1641 628 
Q 1738 1016 1872 1384 
L 2581 3319 
L 3144 3319 
L 1881 -56 
Q 1678 -603 1566 -809 
Q 1416 -1088 1222 -1217 
Q 1028 -1347 759 -1347 
Q 597 -1347 397 -1278 
z
" transform="scale(0.015625)"/>
      </defs>
      <use xlink:href="#ArialMT-53"/>
      <use xlink:href="#ArialMT-52" transform="translate(55.609375 0)"/>
      <use xlink:href="#ArialMT-56" transform="translate(111.21875 0)"/>
      <use xlink:href="#ArialMT-57" transform="translate(161.21875 0)"/>
      <use xlink:href="#ArialMT-48" transform="translate(189 0)"/>
      <use xlink:href="#ArialMT-55" transform="translate(244.609375 0)"/>
      <use xlink:href="#ArialMT-4c" transform="translate(277.90625 0)"/>
      <use xlink:href="#ArialMT-52" transform="translate(300.125 0)"/>
      <use xlink:href="#ArialMT-55" transform="translate(355.734375 0)"/>
      <use xlink:href="#ArialMT-3" transform="translate(389.03125 0)"/>
      <use xlink:href="#ArialMT-47" transform="translate(416.8125 0)"/>
      <use xlink:href="#ArialMT-48" transform="translate(472.421875 0)"/>
      <use xlink:href="#ArialMT-51" transform="translate(528.03125 0)"/>
      <use xlink:href="#ArialMT-56" transform="translate(583.640625 0)"/>
      <use xlink:href="#ArialMT-4c" transform="translate(633.640625 0)"/>
      <use xlink:href="#ArialMT-57" transform="translate(655.859375 0)"/>
      <use xlink:href="#ArialMT-5c" transform="translate(683.640625 0)"/>
     </g>
    </g>
   </g>
   <g id="line2d_12">
    <path d="M 56.694142 173.52 
L 56.694142 7.2 
" clip-path="url(#p2bc9e2fde2)" style="fill: none; stroke: #000000; stroke-width: 1.4; stroke-linecap: square"/>
   </g>
   <g id="patch_83">
    <path d="M 39.992715 173.52 
L 39.992715 7.2 
" style="fill: none; stroke: #000000; stroke-width: 0.8; stroke-linejoin: miter; stroke-linecap: square"/>
   </g>
   <g id="patch_84">
    <path d="M 39.992715 173.52 
L 235.292715 173.52 
" style="fill: none; stroke: #000000; stroke-width: 0.8; stroke-linejoin: miter; stroke-linecap: square"/>
   </g>
   <g id="legend_1">
    <g id="patch_85">
     <path d="M 141.697246 18.596191 
L 155.697246 18.596191 
L 155.697246 13.696191 
L 141.697246 13.696191 
z
" style="fill: #333333; opacity: 0.65"/>
    </g>
    <g id="text_14">
     <!-- BN F_ST parameter -->
     <g transform="translate(161.297246 18.596191) scale(0.07 -0.07)">
      <defs>
       <path id="ArialMT-25" d="M 469 0 
L 469 4581 
L 2188 4581 
Q 2713 4581 3030 4442 
Q 3347 4303 3526 4014 
Q 3706 3725 3706 3409 
Q 3706 3116 3547 2856 
Q 3388 2597 3066 2438 
Q 3481 2316 3704 2022 
Q 3928 1728 3928 1328 
Q 3928 1006 3792 729 
Q 3656 453 3456 303 
Q 3256 153 2954 76 
Q 2653 0 2216 0 
L 469 0 
z
M 1075 2656 
L 2066 2656 
Q 2469 2656 2644 2709 
Q 2875 2778 2992 2937 
Q 3109 3097 3109 3338 
Q 3109 3566 3000 3739 
Q 2891 3913 2687 3977 
Q 2484 4041 1991 4041 
L 1075 4041 
L 1075 2656 
z
M 1075 541 
L 2216 541 
Q 2509 541 2628 563 
Q 2838 600 2978 687 
Q 3119 775 3209 942 
Q 3300 1109 3300 1328 
Q 3300 1584 3169 1773 
Q 3038 1963 2805 2039 
Q 2572 2116 2134 2116 
L 1075 2116 
L 1075 541 
z
" transform="scale(0.015625)"/>
       <path id="ArialMT-31" d="M 488 0 
L 488 4581 
L 1109 4581 
L 3516 984 
L 3516 4581 
L 4097 4581 
L 4097 0 
L 3475 0 
L 1069 3600 
L 1069 0 
L 488 0 
z
" transform="scale(0.015625)"/>
       <path id="ArialMT-29" d="M 525 0 
L 525 4581 
L 3616 4581 
L 3616 4041 
L 1131 4041 
L 1131 2622 
L 3281 2622 
L 3281 2081 
L 1131 2081 
L 1131 0 
L 525 0 
z
" transform="scale(0.015625)"/>
       <path id="ArialMT-42" d="M -97 -1272 
L -97 -866 
L 3631 -866 
L 3631 -1272 
L -97 -1272 
z
" transform="scale(0.015625)"/>
       <path id="ArialMT-36" d="M 288 1472 
L 859 1522 
Q 900 1178 1048 958 
Q 1197 738 1509 602 
Q 1822 466 2213 466 
Q 2559 466 2825 569 
Q 3091 672 3220 851 
Q 3350 1031 3350 1244 
Q 3350 1459 3225 1620 
Q 3100 1781 2813 1891 
Q 2628 1963 1997 2114 
Q 1366 2266 1113 2400 
Q 784 2572 623 2826 
Q 463 3081 463 3397 
Q 463 3744 659 4045 
Q 856 4347 1234 4503 
Q 1613 4659 2075 4659 
Q 2584 4659 2973 4495 
Q 3363 4331 3572 4012 
Q 3781 3694 3797 3291 
L 3216 3247 
Q 3169 3681 2898 3903 
Q 2628 4125 2100 4125 
Q 1550 4125 1298 3923 
Q 1047 3722 1047 3438 
Q 1047 3191 1225 3031 
Q 1400 2872 2139 2705 
Q 2878 2538 3153 2413 
Q 3553 2228 3743 1945 
Q 3934 1663 3934 1294 
Q 3934 928 3725 604 
Q 3516 281 3123 101 
Q 2731 -78 2241 -78 
Q 1619 -78 1198 103 
Q 778 284 539 648 
Q 300 1013 288 1472 
z
" transform="scale(0.015625)"/>
       <path id="ArialMT-37" d="M 1659 0 
L 1659 4041 
L 150 4041 
L 150 4581 
L 3781 4581 
L 3781 4041 
L 2266 4041 
L 2266 0 
L 1659 0 
z
" transform="scale(0.015625)"/>
       <path id="ArialMT-50" d="M 422 0 
L 422 3319 
L 925 3319 
L 925 2853 
Q 1081 3097 1340 3245 
Q 1600 3394 1931 3394 
Q 2300 3394 2536 3241 
Q 2772 3088 2869 2813 
Q 3263 3394 3894 3394 
Q 4388 3394 4653 3120 
Q 4919 2847 4919 2278 
L 4919 0 
L 4359 0 
L 4359 2091 
Q 4359 2428 4304 2576 
Q 4250 2725 4106 2815 
Q 3963 2906 3769 2906 
Q 3419 2906 3187 2673 
Q 2956 2441 2956 1928 
L 2956 0 
L 2394 0 
L 2394 2156 
Q 2394 2531 2256 2718 
Q 2119 2906 1806 2906 
Q 1569 2906 1367 2781 
Q 1166 2656 1075 2415 
Q 984 2175 984 1722 
L 984 0 
L 422 0 
z
" transform="scale(0.015625)"/>
      </defs>
      <use xlink:href="#ArialMT-25"/>
      <use xlink:href="#ArialMT-31" transform="translate(66.703125 0)"/>
      <use xlink:href="#ArialMT-3" transform="translate(138.921875 0)"/>
      <use xlink:href="#ArialMT-29" transform="translate(166.703125 0)"/>
      <use xlink:href="#ArialMT-42" transform="translate(227.78125 0)"/>
      <use xlink:href="#ArialMT-36" transform="translate(283.390625 0)"/>
      <use xlink:href="#ArialMT-37" transform="translate(350.09375 0)"/>
      <use xlink:href="#ArialMT-3" transform="translate(409.359375 0)"/>
      <use xlink:href="#ArialMT-53" transform="translate(437.140625 0)"/>
      <use xlink:href="#ArialMT-44" transform="translate(492.75 0)"/>
      <use xlink:href="#ArialMT-55" transform="translate(548.359375 0)"/>
      <use xlink:href="#ArialMT-44" transform="translate(581.65625 0)"/>
      <use xlink:href="#ArialMT-50" transform="translate(637.265625 0)"/>
      <use xlink:href="#ArialMT-48" transform="translate(720.5625 0)"/>
      <use xlink:href="#ArialMT-57" transform="translate(776.171875 0)"/>
      <use xlink:href="#ArialMT-48" transform="translate(803.953125 0)"/>
      <use xlink:href="#ArialMT-55" transform="translate(859.5625 0)"/>
     </g>
    </g>
    <g id="patch_86">
     <path d="M 141.697246 28.665527 
L 155.697246 28.665527 
L 155.697246 23.765527 
L 141.697246 23.765527 
z
" style="fill: #616161; opacity: 0.55"/>
    </g>
    <g id="text_15">
     <!-- Gini-Simpson readout -->
     <g transform="translate(161.297246 28.665527) scale(0.07 -0.07)">
      <defs>
       <path id="ArialMT-2a" d="M 2638 1797 
L 2638 2334 
L 4578 2338 
L 4578 638 
Q 4131 281 3656 101 
Q 3181 -78 2681 -78 
Q 2006 -78 1454 211 
Q 903 500 622 1047 
Q 341 1594 341 2269 
Q 341 2938 620 3517 
Q 900 4097 1425 4378 
Q 1950 4659 2634 4659 
Q 3131 4659 3532 4498 
Q 3934 4338 4162 4050 
Q 4391 3763 4509 3300 
L 3963 3150 
Q 3859 3500 3706 3700 
Q 3553 3900 3268 4020 
Q 2984 4141 2638 4141 
Q 2222 4141 1919 4014 
Q 1616 3888 1430 3681 
Q 1244 3475 1141 3228 
Q 966 2803 966 2306 
Q 966 1694 1177 1281 
Q 1388 869 1791 669 
Q 2194 469 2647 469 
Q 3041 469 3416 620 
Q 3791 772 3984 944 
L 3984 1797 
L 2638 1797 
z
" transform="scale(0.015625)"/>
       <path id="ArialMT-10" d="M 203 1375 
L 203 1941 
L 1931 1941 
L 1931 1375 
L 203 1375 
z
" transform="scale(0.015625)"/>
      </defs>
      <use xlink:href="#ArialMT-2a"/>
      <use xlink:href="#ArialMT-4c" transform="translate(77.78125 0)"/>
      <use xlink:href="#ArialMT-51" transform="translate(100 0)"/>
      <use xlink:href="#ArialMT-4c" transform="translate(155.609375 0)"/>
      <use xlink:href="#ArialMT-10" transform="translate(177.828125 0)"/>
      <use xlink:href="#ArialMT-36" transform="translate(211.125 0)"/>
      <use xlink:href="#ArialMT-4c" transform="translate(277.828125 0)"/>
      <use xlink:href="#ArialMT-50" transform="translate(300.046875 0)"/>
      <use xlink:href="#ArialMT-53" transform="translate(383.34375 0)"/>
      <use xlink:href="#ArialMT-56" transform="translate(438.953125 0)"/>
      <use xlink:href="#ArialMT-52" transform="translate(488.953125 0)"/>
      <use xlink:href="#ArialMT-51" transform="translate(544.5625 0)"/>
      <use xlink:href="#ArialMT-3" transform="translate(600.171875 0)"/>
      <use xlink:href="#ArialMT-55" transform="translate(627.953125 0)"/>
      <use xlink:href="#ArialMT-48" transform="translate(661.25 0)"/>
      <use xlink:href="#ArialMT-44" transform="translate(716.859375 0)"/>
      <use xlink:href="#ArialMT-47" transform="translate(772.46875 0)"/>
      <use xlink:href="#ArialMT-52" transform="translate(828.078125 0)"/>
      <use xlink:href="#ArialMT-58" transform="translate(883.6875 0)"/>
      <use xlink:href="#ArialMT-57" transform="translate(939.296875 0)"/>
     </g>
    </g>
    <g id="line2d_13">
     <path d="M 141.697246 36.284863 
L 148.697246 36.284863 
L 155.697246 36.284863 
" style="fill: none; stroke: #000000; stroke-width: 1.4; stroke-linecap: square"/>
    </g>
    <g id="text_16">
     <!-- frequentist plug-in -->
     <g transform="translate(161.297246 38.734863) scale(0.07 -0.07)">
      <defs>
       <path id="ArialMT-49" d="M 556 0 
L 556 2881 
L 59 2881 
L 59 3319 
L 556 3319 
L 556 3672 
Q 556 4006 616 4169 
Q 697 4388 901 4523 
Q 1106 4659 1475 4659 
Q 1713 4659 2000 4603 
L 1916 4113 
Q 1741 4144 1584 4144 
Q 1328 4144 1222 4034 
Q 1116 3925 1116 3625 
L 1116 3319 
L 1763 3319 
L 1763 2881 
L 1116 2881 
L 1116 0 
L 556 0 
z
" transform="scale(0.015625)"/>
       <path id="ArialMT-54" d="M 2538 -1272 
L 2538 353 
Q 2406 169 2170 47 
Q 1934 -75 1669 -75 
Q 1078 -75 651 397 
Q 225 869 225 1691 
Q 225 2191 398 2587 
Q 572 2984 901 3189 
Q 1231 3394 1625 3394 
Q 2241 3394 2594 2875 
L 2594 3319 
L 3100 3319 
L 3100 -1272 
L 2538 -1272 
z
M 803 1669 
Q 803 1028 1072 708 
Q 1341 388 1716 388 
Q 2075 388 2334 692 
Q 2594 997 2594 1619 
Q 2594 2281 2320 2615 
Q 2047 2950 1678 2950 
Q 1313 2950 1058 2639 
Q 803 2328 803 1669 
z
" transform="scale(0.015625)"/>
       <path id="ArialMT-4a" d="M 319 -275 
L 866 -356 
Q 900 -609 1056 -725 
Q 1266 -881 1628 -881 
Q 2019 -881 2231 -725 
Q 2444 -569 2519 -288 
Q 2563 -116 2559 434 
Q 2191 0 1641 0 
Q 956 0 581 494 
Q 206 988 206 1678 
Q 206 2153 378 2554 
Q 550 2956 876 3175 
Q 1203 3394 1644 3394 
Q 2231 3394 2613 2919 
L 2613 3319 
L 3131 3319 
L 3131 450 
Q 3131 -325 2973 -648 
Q 2816 -972 2473 -1159 
Q 2131 -1347 1631 -1347 
Q 1038 -1347 672 -1080 
Q 306 -813 319 -275 
z
M 784 1719 
Q 784 1066 1043 766 
Q 1303 466 1694 466 
Q 2081 466 2343 764 
Q 2606 1063 2606 1700 
Q 2606 2309 2336 2618 
Q 2066 2928 1684 2928 
Q 1309 2928 1046 2623 
Q 784 2319 784 1719 
z
" transform="scale(0.015625)"/>
      </defs>
      <use xlink:href="#ArialMT-49"/>
      <use xlink:href="#ArialMT-55" transform="translate(27.78125 0)"/>
      <use xlink:href="#ArialMT-48" transform="translate(61.078125 0)"/>
      <use xlink:href="#ArialMT-54" transform="translate(116.6875 0)"/>
      <use xlink:href="#ArialMT-58" transform="translate(172.296875 0)"/>
      <use xlink:href="#ArialMT-48" transform="translate(227.90625 0)"/>
      <use xlink:href="#ArialMT-51" transform="translate(283.515625 0)"/>
      <use xlink:href="#ArialMT-57" transform="translate(339.125 0)"/>
      <use xlink:href="#ArialMT-4c" transform="translate(366.90625 0)"/>
      <use xlink:href="#ArialMT-56" transform="translate(389.125 0)"/>
      <use xlink:href="#ArialMT-57" transform="translate(439.125 0)"/>
      <use xlink:href="#ArialMT-3" transform="translate(466.90625 0)"/>
      <use xlink:href="#ArialMT-53" transform="translate(494.6875 0)"/>
      <use xlink:href="#ArialMT-4f" transform="translate(550.296875 0)"/>
      <use xlink:href="#ArialMT-58" transform="translate(572.515625 0)"/>
      <use xlink:href="#ArialMT-4a" transform="translate(628.125 0)"/>
      <use xlink:href="#ArialMT-10" transform="translate(683.734375 0)"/>
      <use xlink:href="#ArialMT-4c" transform="translate(717.03125 0)"/>
      <use xlink:href="#ArialMT-51" transform="translate(739.25 0)"/>
     </g>
    </g>
   </g>
  </g>
 </g>
 <defs>
  <clipPath id="p2bc9e2fde2">
   <rect x="39.992715" y="7.2" width="195.3" height="166.32"/>
  </clipPath>
 </defs>
</svg>
