<?xml version="1.0" encoding="utf-8" standalone="no"?>
<!DOCTYPE svg PUBLIC "-//W3C//DTD SVG 1.1//EN"
  "http://www.w3.org/Graphics/SVG/1.1/DTD/svg11.dtd">
<svg xmlns:xlink="http://www.w3.org/1999/xlink" width="463.546258pt" height="233.917898pt" viewBox="0 0 463.546258 233.917898" xmlns="http://www.w3.org/2000/svg" version="1.1">
 <metadata>
  <rdf:RDF xmlns:dc="http://purl.org/dc/elements/1.1/" xmlns:cc="http://creativecommons.org/ns#" xmlns:rdf="http://www.w3.org/1999/02/22-rdf-syntax-ns#">
   <cc:Work>
    <dc:type rdf:resource="http://purl.org/dc/dcmitype/StillImage"/>
    <dc:date>2026-09-22T00:41:45.797945</dc:date>
    <dc:format>image/svg+xml</dc:format>
    <dc:creator>
     <cc:Agent>
      <dc:title>Matplotlib v3.11.1, https://matplotlib.org/</dc:title>
     </cc:Agent>
    </dc:creator>
   </cc:Work>
  </rdf:RDF>
 </metadata>
 <defs>
  <style type="text/css">*{stroke-linejoin: round; stroke-linecap: butt}</style>
 </defs>
 <g id="figure_1">
  <g id="patch_1">
   <path d="M 0 233.917898 
L 463.546258 233.917898 
L 463.546258 0 
L 0 0 
z
" style="fill: #ffffff"/>
  </g>
  <g id="axes_1">
   <g id="patch_2">
    <path d="M 48.911172 188.619089 
L 219.872874 188.619089 
L 219.872874 22.299089 
L 48.911172 22.299089 
z
" style="fill: #ffffff"/>
   </g>
   <g id="FillBetweenPolyCollection_1">
    <defs>
     <path id="me5f0f31188" d="M 56.682158 -177.84904 
L 56.682158 -160.308675 
L 82.585447 -157.045157 
L 108.488735 -157.045157 
L 134.392023 -158.935503 
L 160.295311 -133.104594 
L 186.198599 -106.17302 
L 212.101888 -52.858809 
L 212.101888 -141.516109 
L 212.101888 -141.516109 
L 186.198599 -158.968125 
L 160.295311 -204.058809 
L 134.392023 -204.058809 
L 108.488735 -184.708945 
L 82.585447 -184.708945 
L 56.682158 -177.84904 
z
" style="stroke: #d9d9d9; stroke-width: 0.8"/>
    </defs>
    <g clip-path="url(#p9ba8ee987d)">
     <use xlink:href="#me5f0f31188" x="0" y="233.917898" style="fill: #d9d9d9; stroke: #d9d9d9; stroke-width: 0.8"/>
    </g>
   </g>
   <g id="matplotlib.axis_1">
    <g id="xtick_1">
     <g id="line2d_1">
      <defs>
       <path id="m4bfc616cfa" d="M 0 0 
L 0 3.5 
" style="stroke: #000000; stroke-width: 0.8"/>
      </defs>
      <g>
       <use xlink:href="#m4bfc616cfa" x="56.682158" y="188.619089" style="stroke: #000000; stroke-width: 0.8"/>
      </g>
     </g>
     <g id="text_1">
      <!-- map -->
      <g transform="translate(50.84669 200.43696) scale(0.06 -0.06)">
       <defs>
        <path id="ArialMT-50" d="M 422 0 
L 422 3319 
L 925 3319 
L 925 2853 
Q 1081 3097 1340 3245 
Q 1600 3394 1931 3394 
Q 2300 3394 2536 3241 
Q 2772 3088 2869 2813 
Q 3263 3394 3894 3394 
Q 4388 3394 4653 3120 
Q 4919 2847 4919 2278 
L 4919 0 
L 4359 0 
L 4359 2091 
Q 4359 2428 4304 2576 
Q 4250 2725 4106 2815 
Q 3963 2906 3769 2906 
Q 3419 2906 3187 2673 
Q 2956 2441 2956 1928 
L 2956 0 
L 2394 0 
L 2394 2156 
Q 2394 2531 2256 2718 
Q 2119 2906 1806 2906 
Q 1569 2906 1367 2781 
Q 1166 2656 1075 2415 
Q 984 2175 984 1722 
L 984 0 
L 422 0 
z
" transform="scale(0.015625)"/>
        <path id="ArialMT-44" d="M 2588 409 
Q 2275 144 1986 34 
Q 1697 -75 1366 -75 
Q 819 -75 525 192 
Q 231 459 231 875 
Q 231 1119 342 1320 
Q 453 1522 633 1644 
Q 813 1766 1038 1828 
Q 1203 1872 1538 1913 
Q 2219 1994 2541 2106 
Q 2544 2222 2544 2253 
Q 2544 2597 2384 2738 
Q 2169 2928 1744 2928 
Q 1347 2928 1158 2789 
Q 969 2650 878 2297 
L 328 2372 
Q 403 2725 575 2942 
Q 747 3159 1072 3276 
Q 1397 3394 1825 3394 
Q 2250 3394 2515 3294 
Q 2781 3194 2906 3042 
Q 3031 2891 3081 2659 
Q 3109 2516 3109 2141 
L 3109 1391 
Q 3109 606 3145 398 
Q 3181 191 3288 0 
L 2700 0 
Q 2613 175 2588 409 
z
M 2541 1666 
Q 2234 1541 1622 1453 
Q 1275 1403 1131 1340 
Q 988 1278 909 1158 
Q 831 1038 831 891 
Q 831 666 1001 516 
Q 1172 366 1500 366 
Q 1825 366 2078 508 
Q 2331 650 2450 897 
Q 2541 1088 2541 1459 
L 2541 1666 
z
" transform="scale(0.015625)"/>
        <path id="ArialMT-53" d="M 422 -1272 
L 422 3319 
L 934 3319 
L 934 2888 
Q 1116 3141 1344 3267 
Q 1572 3394 1897 3394 
Q 2322 3394 2647 3175 
Q 2972 2956 3137 2557 
Q 3303 2159 3303 1684 
Q 3303 1175 3120 767 
Q 2938 359 2589 142 
Q 2241 -75 1856 -75 
Q 1575 -75 1351 44 
Q 1128 163 984 344 
L 984 -1272 
L 422 -1272 
z
M 931 1641 
Q 931 1000 1190 694 
Q 1450 388 1819 388 
Q 2194 388 2461 705 
Q 2728 1022 2728 1688 
Q 2728 2322 2467 2637 
Q 2206 2953 1844 2953 
Q 1484 2953 1207 2617 
Q 931 2281 931 1641 
z
" transform="scale(0.015625)"/>
       </defs>
       <use xlink:href="#ArialMT-50"/>
       <use xlink:href="#ArialMT-44" transform="translate(83.296875 0)"/>
       <use xlink:href="#ArialMT-53" transform="translate(138.90625 0)"/>
      </g>
      <!-- alone -->
      <g transform="translate(49.342471 206.967234) scale(0.06 -0.06)">
       <defs>
        <path id="ArialMT-4f" d="M 409 0 
L 409 4581 
L 972 4581 
L 972 0 
L 409 0 
z
" transform="scale(0.015625)"/>
        <path id="ArialMT-52" d="M 213 1659 
Q 213 2581 725 3025 
Q 1153 3394 1769 3394 
Q 2453 3394 2887 2945 
Q 3322 2497 3322 1706 
Q 3322 1066 3130 698 
Q 2938 331 2570 128 
Q 2203 -75 1769 -75 
Q 1072 -75 642 372 
Q 213 819 213 1659 
z
M 791 1659 
Q 791 1022 1069 705 
Q 1347 388 1769 388 
Q 2188 388 2466 706 
Q 2744 1025 2744 1678 
Q 2744 2294 2464 2611 
Q 2184 2928 1769 2928 
Q 1347 2928 1069 2612 
Q 791 2297 791 1659 
z
" transform="scale(0.015625)"/>
        <path id="ArialMT-51" d="M 422 0 
L 422 3319 
L 928 3319 
L 928 2847 
Q 1294 3394 1984 3394 
Q 2284 3394 2536 3286 
Q 2788 3178 2913 3003 
Q 3038 2828 3088 2588 
Q 3119 2431 3119 2041 
L 3119 0 
L 2556 0 
L 2556 2019 
Q 2556 2363 2490 2533 
Q 2425 2703 2258 2804 
Q 2091 2906 1866 2906 
Q 1506 2906 1245 2678 
Q 984 2450 984 1813 
L 984 0 
L 422 0 
z
" transform="scale(0.015625)"/>
        <path id="ArialMT-48" d="M 2694 1069 
L 3275 997 
Q 3138 488 2766 206 
Q 2394 -75 1816 -75 
Q 1088 -75 661 373 
Q 234 822 234 1631 
Q 234 2469 665 2931 
Q 1097 3394 1784 3394 
Q 2450 3394 2872 2941 
Q 3294 2488 3294 1666 
Q 3294 1616 3291 1516 
L 816 1516 
Q 847 969 1125 678 
Q 1403 388 1819 388 
Q 2128 388 2347 550 
Q 2566 713 2694 1069 
z
M 847 1978 
L 2700 1978 
Q 2663 2397 2488 2606 
Q 2219 2931 1791 2931 
Q 1403 2931 1139 2672 
Q 875 2413 847 1978 
z
" transform="scale(0.015625)"/>
       </defs>
       <use xlink:href="#ArialMT-44"/>
       <use xlink:href="#ArialMT-4f" transform="translate(55.609375 0)"/>
       <use xlink:href="#ArialMT-52" transform="translate(77.828125 0)"/>
       <use xlink:href="#ArialMT-51" transform="translate(133.4375 0)"/>
       <use xlink:href="#ArialMT-48" transform="translate(189.046875 0)"/>
      </g>
     </g>
    </g>
    <g id="xtick_2">
     <g id="line2d_2">
      <g>
       <use xlink:href="#m4bfc616cfa" x="82.585447" y="188.619089" style="stroke: #000000; stroke-width: 0.8"/>
      </g>
     </g>
     <g id="text_2">
      <!-- 0.1 -->
      <g transform="translate(78.415447 199.987253) scale(0.06 -0.06)">
       <defs>
        <path id="ArialMT-13" d="M 266 2259 
Q 266 3072 433 3567 
Q 600 4063 929 4331 
Q 1259 4600 1759 4600 
Q 2128 4600 2406 4451 
Q 2684 4303 2865 4023 
Q 3047 3744 3150 3342 
Q 3253 2941 3253 2259 
Q 3253 1453 3087 958 
Q 2922 463 2592 192 
Q 2263 -78 1759 -78 
Q 1097 -78 719 397 
Q 266 969 266 2259 
z
M 844 2259 
Q 844 1131 1108 757 
Q 1372 384 1759 384 
Q 2147 384 2411 759 
Q 2675 1134 2675 2259 
Q 2675 3391 2411 3762 
Q 2147 4134 1753 4134 
Q 1366 4134 1134 3806 
Q 844 3388 844 2259 
z
" transform="scale(0.015625)"/>
        <path id="ArialMT-11" d="M 581 0 
L 581 641 
L 1222 641 
L 1222 0 
L 581 0 
z
" transform="scale(0.015625)"/>
        <path id="ArialMT-14" d="M 2384 0 
L 1822 0 
L 1822 3584 
Q 1619 3391 1289 3197 
Q 959 3003 697 2906 
L 697 3450 
Q 1169 3672 1522 3987 
Q 1875 4303 2022 4600 
L 2384 4600 
L 2384 0 
z
" transform="scale(0.015625)"/>
       </defs>
       <use xlink:href="#ArialMT-13"/>
       <use xlink:href="#ArialMT-11" transform="translate(55.609375 0)"/>
       <use xlink:href="#ArialMT-14" transform="translate(83.390625 0)"/>
      </g>
     </g>
    </g>
    <g id="xtick_3">
     <g id="line2d_3">
      <g>
       <use xlink:href="#m4bfc616cfa" x="108.488735" y="188.619089" style="stroke: #000000; stroke-width: 0.8"/>
      </g>
     </g>
     <g id="text_3">
      <!-- 0.25 -->
      <g transform="translate(102.650453 199.987253) scale(0.06 -0.06)">
       <defs>
        <path id="ArialMT-15" d="M 3222 541 
L 3222 0 
L 194 0 
Q 188 203 259 391 
Q 375 700 629 1000 
Q 884 1300 1366 1694 
Q 2113 2306 2375 2664 
Q 2638 3022 2638 3341 
Q 2638 3675 2398 3904 
Q 2159 4134 1775 4134 
Q 1369 4134 1125 3890 
Q 881 3647 878 3216 
L 300 3275 
Q 359 3922 746 4261 
Q 1134 4600 1788 4600 
Q 2447 4600 2831 4234 
Q 3216 3869 3216 3328 
Q 3216 3053 3103 2787 
Q 2991 2522 2730 2228 
Q 2469 1934 1863 1422 
Q 1356 997 1212 845 
Q 1069 694 975 541 
L 3222 541 
z
" transform="scale(0.015625)"/>
        <path id="ArialMT-18" d="M 266 1200 
L 856 1250 
Q 922 819 1161 601 
Q 1400 384 1738 384 
Q 2144 384 2425 690 
Q 2706 997 2706 1503 
Q 2706 1984 2436 2262 
Q 2166 2541 1728 2541 
Q 1456 2541 1237 2417 
Q 1019 2294 894 2097 
L 366 2166 
L 809 4519 
L 3088 4519 
L 3088 3981 
L 1259 3981 
L 1013 2750 
Q 1425 3038 1878 3038 
Q 2478 3038 2890 2622 
Q 3303 2206 3303 1553 
Q 3303 931 2941 478 
Q 2500 -78 1738 -78 
Q 1113 -78 717 272 
Q 322 622 266 1200 
z
" transform="scale(0.015625)"/>
       </defs>
       <use xlink:href="#ArialMT-13"/>
       <use xlink:href="#ArialMT-11" transform="translate(55.609375 0)"/>
       <use xlink:href="#ArialMT-15" transform="translate(83.390625 0)"/>
       <use xlink:href="#ArialMT-18" transform="translate(139 0)"/>
      </g>
     </g>
    </g>
    <g id="xtick_4">
     <g id="line2d_4">
      <g>
       <use xlink:href="#m4bfc616cfa" x="134.392023" y="188.619089" style="stroke: #000000; stroke-width: 0.8"/>
      </g>
     </g>
     <g id="text_4">
      <!-- 0.5 -->
      <g transform="translate(130.222023 199.987253) scale(0.06 -0.06)">
       <use xlink:href="#ArialMT-13"/>
       <use xlink:href="#ArialMT-11" transform="translate(55.609375 0)"/>
       <use xlink:href="#ArialMT-18" transform="translate(83.390625 0)"/>
      </g>
     </g>
    </g>
    <g id="xtick_5">
     <g id="line2d_5">
      <g>
       <use xlink:href="#m4bfc616cfa" x="160.295311" y="188.619089" style="stroke: #000000; stroke-width: 0.8"/>
      </g>
     </g>
     <g id="text_5">
      <!-- 1 -->
      <g transform="translate(158.62703 199.987253) scale(0.06 -0.06)">
       <use xlink:href="#ArialMT-14"/>
      </g>
     </g>
    </g>
    <g id="xtick_6">
     <g id="line2d_6">
      <g>
       <use xlink:href="#m4bfc616cfa" x="186.198599" y="188.619089" style="stroke: #000000; stroke-width: 0.8"/>
      </g>
     </g>
     <g id="text_6">
      <!-- 2 -->
      <g transform="translate(184.530318 199.987253) scale(0.06 -0.06)">
       <use xlink:href="#ArialMT-15"/>
      </g>
     </g>
    </g>
    <g id="xtick_7">
     <g id="line2d_7">
      <g>
       <use xlink:href="#m4bfc616cfa" x="212.101888" y="188.619089" style="stroke: #000000; stroke-width: 0.8"/>
      </g>
     </g>
     <g id="text_7">
      <!-- pottery -->
      <g transform="translate(202.931263 200.43696) scale(0.06 -0.06)">
       <defs>
        <path id="ArialMT-57" d="M 1650 503 
L 1731 6 
Q 1494 -44 1306 -44 
Q 1000 -44 831 53 
Q 663 150 594 308 
Q 525 466 525 972 
L 525 2881 
L 113 2881 
L 113 3319 
L 525 3319 
L 525 4141 
L 1084 4478 
L 1084 3319 
L 1650 3319 
L 1650 2881 
L 1084 2881 
L 1084 941 
Q 1084 700 1114 631 
Q 1144 563 1211 522 
Q 1278 481 1403 481 
Q 1497 481 1650 503 
z
" transform="scale(0.015625)"/>
        <path id="ArialMT-55" d="M 416 0 
L 416 3319 
L 922 3319 
L 922 2816 
Q 1116 3169 1280 3281 
Q 1444 3394 1641 3394 
Q 1925 3394 2219 3213 
L 2025 2691 
Q 1819 2813 1613 2813 
Q 1428 2813 1281 2702 
Q 1134 2591 1072 2394 
Q 978 2094 978 1738 
L 978 0 
L 416 0 
z
" transform="scale(0.015625)"/>
        <path id="ArialMT-5c" d="M 397 -1278 
L 334 -750 
Q 519 -800 656 -800 
Q 844 -800 956 -737 
Q 1069 -675 1141 -563 
Q 1194 -478 1313 -144 
Q 1328 -97 1363 -6 
L 103 3319 
L 709 3319 
L 1400 1397 
Q 1534 1031 1641 628 
Q 1738 1016 1872 1384 
L 2581 3319 
L 3144 3319 
L 1881 -56 
Q 1678 -603 1566 -809 
Q 1416 -1088 1222 -1217 
Q 1028 -1347 759 -1347 
Q 597 -1347 397 -1278 
z
" transform="scale(0.015625)"/>
       </defs>
       <use xlink:href="#ArialMT-53"/>
       <use xlink:href="#ArialMT-52" transform="translate(55.609375 0)"/>
       <use xlink:href="#ArialMT-57" transform="translate(111.21875 0)"/>
       <use xlink:href="#ArialMT-57" transform="translate(139 0)"/>
       <use xlink:href="#ArialMT-48" transform="translate(166.78125 0)"/>
       <use xlink:href="#ArialMT-55" transform="translate(222.390625 0)"/>
       <use xlink:href="#ArialMT-5c" transform="translate(255.6875 0)"/>
      </g>
      <!-- alone -->
      <g transform="translate(204.7622 206.967351) scale(0.06 -0.06)">
       <use xlink:href="#ArialMT-44"/>
       <use xlink:href="#ArialMT-4f" transform="translate(55.609375 0)"/>
       <use xlink:href="#ArialMT-52" transform="translate(77.828125 0)"/>
       <use xlink:href="#ArialMT-51" transform="translate(133.4375 0)"/>
       <use xlink:href="#ArialMT-48" transform="translate(189.046875 0)"/>
      </g>
     </g>
    </g>
    <g id="text_8">
     <!-- weight on composition relative to geography -->
     <g transform="translate(46.595617 219.231999) scale(0.09 -0.09)">
      <defs>
       <path id="ArialMT-5a" d="M 1034 0 
L 19 3319 
L 600 3319 
L 1128 1403 
L 1325 691 
Q 1338 744 1497 1375 
L 2025 3319 
L 2603 3319 
L 3100 1394 
L 3266 759 
L 3456 1400 
L 4025 3319 
L 4572 3319 
L 3534 0 
L 2950 0 
L 2422 1988 
L 2294 2553 
L 1622 0 
L 1034 0 
z
" transform="scale(0.015625)"/>
       <path id="ArialMT-4c" d="M 425 3934 
L 425 4581 
L 988 4581 
L 988 3934 
L 425 3934 
z
M 425 0 
L 425 3319 
L 988 3319 
L 988 0 
L 425 0 
z
" transform="scale(0.015625)"/>
       <path id="ArialMT-4a" d="M 319 -275 
L 866 -356 
Q 900 -609 1056 -725 
Q 1266 -881 1628 -881 
Q 2019 -881 2231 -725 
Q 2444 -569 2519 -288 
Q 2563 -116 2559 434 
Q 2191 0 1641 0 
Q 956 0 581 494 
Q 206 988 206 1678 
Q 206 2153 378 2554 
Q 550 2956 876 3175 
Q 1203 3394 1644 3394 
Q 2231 3394 2613 2919 
L 2613 3319 
L 3131 3319 
L 3131 450 
Q 3131 -325 2973 -648 
Q 2816 -972 2473 -1159 
Q 2131 -1347 1631 -1347 
Q 1038 -1347 672 -1080 
Q 306 -813 319 -275 
z
M 784 1719 
Q 784 1066 1043 766 
Q 1303 466 1694 466 
Q 2081 466 2343 764 
Q 2606 1063 2606 1700 
Q 2606 2309 2336 2618 
Q 2066 2928 1684 2928 
Q 1309 2928 1046 2623 
Q 784 2319 784 1719 
z
" transform="scale(0.015625)"/>
       <path id="ArialMT-4b" d="M 422 0 
L 422 4581 
L 984 4581 
L 984 2938 
Q 1378 3394 1978 3394 
Q 2347 3394 2619 3248 
Q 2891 3103 3008 2847 
Q 3125 2591 3125 2103 
L 3125 0 
L 2563 0 
L 2563 2103 
Q 2563 2525 2380 2717 
Q 2197 2909 1863 2909 
Q 1613 2909 1392 2779 
Q 1172 2650 1078 2428 
Q 984 2206 984 1816 
L 984 0 
L 422 0 
z
" transform="scale(0.015625)"/>
       <path id="ArialMT-3" transform="scale(0.015625)"/>
       <path id="ArialMT-46" d="M 2588 1216 
L 3141 1144 
Q 3050 572 2676 248 
Q 2303 -75 1759 -75 
Q 1078 -75 664 370 
Q 250 816 250 1647 
Q 250 2184 428 2587 
Q 606 2991 970 3192 
Q 1334 3394 1763 3394 
Q 2303 3394 2647 3120 
Q 2991 2847 3088 2344 
L 2541 2259 
Q 2463 2594 2264 2762 
Q 2066 2931 1784 2931 
Q 1359 2931 1093 2626 
Q 828 2322 828 1663 
Q 828 994 1084 691 
Q 1341 388 1753 388 
Q 2084 388 2306 591 
Q 2528 794 2588 1216 
z
" transform="scale(0.015625)"/>
       <path id="ArialMT-56" d="M 197 991 
L 753 1078 
Q 800 744 1014 566 
Q 1228 388 1613 388 
Q 2000 388 2187 545 
Q 2375 703 2375 916 
Q 2375 1106 2209 1216 
Q 2094 1291 1634 1406 
Q 1016 1563 777 1677 
Q 538 1791 414 1992 
Q 291 2194 291 2438 
Q 291 2659 392 2848 
Q 494 3038 669 3163 
Q 800 3259 1026 3326 
Q 1253 3394 1513 3394 
Q 1903 3394 2198 3281 
Q 2494 3169 2634 2976 
Q 2775 2784 2828 2463 
L 2278 2388 
Q 2241 2644 2061 2787 
Q 1881 2931 1553 2931 
Q 1166 2931 1000 2803 
Q 834 2675 834 2503 
Q 834 2394 903 2306 
Q 972 2216 1119 2156 
Q 1203 2125 1616 2013 
Q 2213 1853 2448 1751 
Q 2684 1650 2818 1456 
Q 2953 1263 2953 975 
Q 2953 694 2789 445 
Q 2625 197 2315 61 
Q 2006 -75 1616 -75 
Q 969 -75 630 194 
Q 291 463 197 991 
z
" transform="scale(0.015625)"/>
       <path id="ArialMT-59" d="M 1344 0 
L 81 3319 
L 675 3319 
L 1388 1331 
Q 1503 1009 1600 663 
Q 1675 925 1809 1294 
L 2547 3319 
L 3125 3319 
L 1869 0 
L 1344 0 
z
" transform="scale(0.015625)"/>
      </defs>
      <use xlink:href="#ArialMT-5a"/>
      <use xlink:href="#ArialMT-48" transform="translate(72.21875 0)"/>
      <use xlink:href="#ArialMT-4c" transform="translate(127.828125 0)"/>
      <use xlink:href="#ArialMT-4a" transform="translate(150.046875 0)"/>
      <use xlink:href="#ArialMT-4b" transform="translate(205.65625 0)"/>
      <use xlink:href="#ArialMT-57" transform="translate(261.265625 0)"/>
      <use xlink:href="#ArialMT-3" transform="translate(289.046875 0)"/>
      <use xlink:href="#ArialMT-52" transform="translate(316.828125 0)"/>
      <use xlink:href="#ArialMT-51" transform="translate(372.4375 0)"/>
      <use xlink:href="#ArialMT-3" transform="translate(428.046875 0)"/>
      <use xlink:href="#ArialMT-46" transform="translate(455.828125 0)"/>
      <use xlink:href="#ArialMT-52" transform="translate(505.828125 0)"/>
      <use xlink:href="#ArialMT-50" transform="translate(561.4375 0)"/>
      <use xlink:href="#ArialMT-53" transform="translate(644.734375 0)"/>
      <use xlink:href="#ArialMT-52" transform="translate(700.34375 0)"/>
      <use xlink:href="#ArialMT-56" transform="translate(755.953125 0)"/>
      <use xlink:href="#ArialMT-4c" transform="translate(805.953125 0)"/>
      <use xlink:href="#ArialMT-57" transform="translate(828.171875 0)"/>
      <use xlink:href="#ArialMT-4c" transform="translate(855.953125 0)"/>
      <use xlink:href="#ArialMT-52" transform="translate(878.171875 0)"/>
      <use xlink:href="#ArialMT-51" transform="translate(933.78125 0)"/>
      <use xlink:href="#ArialMT-3" transform="translate(989.390625 0)"/>
      <use xlink:href="#ArialMT-55" transform="translate(1017.171875 0)"/>
      <use xlink:href="#ArialMT-48" transform="translate(1050.46875 0)"/>
      <use xlink:href="#ArialMT-4f" transform="translate(1106.078125 0)"/>
      <use xlink:href="#ArialMT-44" transform="translate(1128.296875 0)"/>
      <use xlink:href="#ArialMT-57" transform="translate(1183.90625 0)"/>
      <use xlink:href="#ArialMT-4c" transform="translate(1211.6875 0)"/>
      <use xlink:href="#ArialMT-59" transform="translate(1233.90625 0)"/>
      <use xlink:href="#ArialMT-48" transform="translate(1283.90625 0)"/>
      <use xlink:href="#ArialMT-3" transform="translate(1339.515625 0)"/>
      <use xlink:href="#ArialMT-57" transform="translate(1367.296875 0)"/>
      <use xlink:href="#ArialMT-52" transform="translate(1395.078125 0)"/>
      <use xlink:href="#ArialMT-3" transform="translate(1450.6875 0)"/>
      <use xlink:href="#ArialMT-4a" transform="translate(1478.46875 0)"/>
      <use xlink:href="#ArialMT-48" transform="translate(1534.078125 0)"/>
      <use xlink:href="#ArialMT-52" transform="translate(1589.6875 0)"/>
      <use xlink:href="#ArialMT-4a" transform="translate(1645.296875 0)"/>
      <use xlink:href="#ArialMT-55" transform="translate(1700.90625 0)"/>
      <use xlink:href="#ArialMT-44" transform="translate(1734.203125 0)"/>
      <use xlink:href="#ArialMT-53" transform="translate(1789.8125 0)"/>
      <use xlink:href="#ArialMT-4b" transform="translate(1845.421875 0)"/>
      <use xlink:href="#ArialMT-5c" transform="translate(1901.03125 0)"/>
     </g>
    </g>
   </g>
   <g id="matplotlib.axis_2">
    <g id="ytick_1">
     <g id="line2d_8">
      <defs>
       <path id="m2d814d3f9d" d="M 0 0 
L -3.5 0 
" style="stroke: #000000; stroke-width: 0.8"/>
      </defs>
      <g>
       <use xlink:href="#m2d814d3f9d" x="48.911172" y="165.258315" style="stroke: #000000; stroke-width: 0.8"/>
      </g>
     </g>
     <g id="text_9">
      <!-- 0.2 -->
      <g transform="translate(30.791172 168.170425) scale(0.08 -0.08)">
       <use xlink:href="#ArialMT-13"/>
       <use xlink:href="#ArialMT-11" transform="translate(55.609375 0)"/>
       <use xlink:href="#ArialMT-15" transform="translate(83.390625 0)"/>
      </g>
     </g>
    </g>
    <g id="ytick_2">
     <g id="line2d_9">
      <g>
       <use xlink:href="#m2d814d3f9d" x="48.911172" y="136.055758" style="stroke: #000000; stroke-width: 0.8"/>
      </g>
     </g>
     <g id="text_10">
      <!-- 0.3 -->
      <g transform="translate(30.791172 138.967867) scale(0.08 -0.08)">
       <defs>
        <path id="ArialMT-16" d="M 269 1209 
L 831 1284 
Q 928 806 1161 595 
Q 1394 384 1728 384 
Q 2125 384 2398 659 
Q 2672 934 2672 1341 
Q 2672 1728 2419 1979 
Q 2166 2231 1775 2231 
Q 1616 2231 1378 2169 
L 1441 2663 
Q 1497 2656 1531 2656 
Q 1891 2656 2178 2843 
Q 2466 3031 2466 3422 
Q 2466 3731 2256 3934 
Q 2047 4138 1716 4138 
Q 1388 4138 1169 3931 
Q 950 3725 888 3313 
L 325 3413 
Q 428 3978 793 4289 
Q 1159 4600 1703 4600 
Q 2078 4600 2393 4439 
Q 2709 4278 2876 4000 
Q 3044 3722 3044 3409 
Q 3044 3113 2884 2869 
Q 2725 2625 2413 2481 
Q 2819 2388 3044 2092 
Q 3269 1797 3269 1353 
Q 3269 753 2831 336 
Q 2394 -81 1725 -81 
Q 1122 -81 723 278 
Q 325 638 269 1209 
z
" transform="scale(0.015625)"/>
       </defs>
       <use xlink:href="#ArialMT-13"/>
       <use xlink:href="#ArialMT-11" transform="translate(55.609375 0)"/>
       <use xlink:href="#ArialMT-16" transform="translate(83.390625 0)"/>
      </g>
     </g>
    </g>
    <g id="ytick_3">
     <g id="line2d_10">
      <g>
       <use xlink:href="#m2d814d3f9d" x="48.911172" y="106.8532" style="stroke: #000000; stroke-width: 0.8"/>
      </g>
     </g>
     <g id="text_11">
      <!-- 0.4 -->
      <g transform="translate(30.791172 109.76531) scale(0.08 -0.08)">
       <defs>
        <path id="ArialMT-17" d="M 2069 0 
L 2069 1097 
L 81 1097 
L 81 1613 
L 2172 4581 
L 2631 4581 
L 2631 1613 
L 3250 1613 
L 3250 1097 
L 2631 1097 
L 2631 0 
L 2069 0 
z
M 2069 1613 
L 2069 3678 
L 634 1613 
L 2069 1613 
z
" transform="scale(0.015625)"/>
       </defs>
       <use xlink:href="#ArialMT-13"/>
       <use xlink:href="#ArialMT-11" transform="translate(55.609375 0)"/>
       <use xlink:href="#ArialMT-17" transform="translate(83.390625 0)"/>
      </g>
     </g>
    </g>
    <g id="ytick_4">
     <g id="line2d_11">
      <g>
       <use xlink:href="#m2d814d3f9d" x="48.911172" y="77.650643" style="stroke: #000000; stroke-width: 0.8"/>
      </g>
     </g>
     <g id="text_12">
      <!-- 0.5 -->
      <g transform="translate(30.791172 80.562752) scale(0.08 -0.08)">
       <use xlink:href="#ArialMT-13"/>
       <use xlink:href="#ArialMT-11" transform="translate(55.609375 0)"/>
       <use xlink:href="#ArialMT-18" transform="translate(83.390625 0)"/>
      </g>
     </g>
    </g>
    <g id="ytick_5">
     <g id="line2d_12">
      <g>
       <use xlink:href="#m2d814d3f9d" x="48.911172" y="48.448085" style="stroke: #000000; stroke-width: 0.8"/>
      </g>
     </g>
     <g id="text_13">
      <!-- 0.6 -->
      <g transform="translate(30.791172 51.360195) scale(0.08 -0.08)">
       <defs>
        <path id="ArialMT-19" d="M 3184 3459 
L 2625 3416 
Q 2550 3747 2413 3897 
Q 2184 4138 1850 4138 
Q 1581 4138 1378 3988 
Q 1113 3794 959 3422 
Q 806 3050 800 2363 
Q 1003 2672 1297 2822 
Q 1591 2972 1913 2972 
Q 2475 2972 2870 2558 
Q 3266 2144 3266 1488 
Q 3266 1056 3080 686 
Q 2894 316 2569 119 
Q 2244 -78 1831 -78 
Q 1128 -78 684 439 
Q 241 956 241 2144 
Q 241 3472 731 4075 
Q 1159 4600 1884 4600 
Q 2425 4600 2770 4297 
Q 3116 3994 3184 3459 
z
M 888 1484 
Q 888 1194 1011 928 
Q 1134 663 1356 523 
Q 1578 384 1822 384 
Q 2178 384 2434 671 
Q 2691 959 2691 1453 
Q 2691 1928 2437 2201 
Q 2184 2475 1800 2475 
Q 1419 2475 1153 2201 
Q 888 1928 888 1484 
z
" transform="scale(0.015625)"/>
       </defs>
       <use xlink:href="#ArialMT-13"/>
       <use xlink:href="#ArialMT-11" transform="translate(55.609375 0)"/>
       <use xlink:href="#ArialMT-19" transform="translate(83.390625 0)"/>
      </g>
     </g>
    </g>
    <g id="text_14">
     <!-- agreement with Mainfort's phases -->
     <g transform="translate(14.426807 172.596277) rotate(-90) scale(0.09 -0.09)">
      <defs>
       <path id="ArialMT-30" d="M 475 0 
L 475 4581 
L 1388 4581 
L 2472 1338 
Q 2622 884 2691 659 
Q 2769 909 2934 1394 
L 4031 4581 
L 4847 4581 
L 4847 0 
L 4263 0 
L 4263 3834 
L 2931 0 
L 2384 0 
L 1059 3900 
L 1059 0 
L 475 0 
z
" transform="scale(0.015625)"/>
       <path id="ArialMT-49" d="M 556 0 
L 556 2881 
L 59 2881 
L 59 3319 
L 556 3319 
L 556 3672 
Q 556 4006 616 4169 
Q 697 4388 901 4523 
Q 1106 4659 1475 4659 
Q 1713 4659 2000 4603 
L 1916 4113 
Q 1741 4144 1584 4144 
Q 1328 4144 1222 4034 
Q 1116 3925 1116 3625 
L 1116 3319 
L 1763 3319 
L 1763 2881 
L 1116 2881 
L 1116 0 
L 556 0 
z
" transform="scale(0.015625)"/>
       <path id="ArialMT-a" d="M 425 2959 
L 281 3816 
L 281 4581 
L 922 4581 
L 922 3816 
L 772 2959 
L 425 2959 
z
" transform="scale(0.015625)"/>
      </defs>
      <use xlink:href="#ArialMT-44"/>
      <use xlink:href="#ArialMT-4a" transform="translate(55.609375 0)"/>
      <use xlink:href="#ArialMT-55" transform="translate(111.21875 0)"/>
      <use xlink:href="#ArialMT-48" transform="translate(144.515625 0)"/>
      <use xlink:href="#ArialMT-48" transform="translate(200.125 0)"/>
      <use xlink:href="#ArialMT-50" transform="translate(255.734375 0)"/>
      <use xlink:href="#ArialMT-48" transform="translate(339.03125 0)"/>
      <use xlink:href="#ArialMT-51" transform="translate(394.640625 0)"/>
      <use xlink:href="#ArialMT-57" transform="translate(450.25 0)"/>
      <use xlink:href="#ArialMT-3" transform="translate(478.03125 0)"/>
      <use xlink:href="#ArialMT-5a" transform="translate(505.8125 0)"/>
      <use xlink:href="#ArialMT-4c" transform="translate(578.03125 0)"/>
      <use xlink:href="#ArialMT-57" transform="translate(600.25 0)"/>
      <use xlink:href="#ArialMT-4b" transform="translate(628.03125 0)"/>
      <use xlink:href="#ArialMT-3" transform="translate(683.640625 0)"/>
      <use xlink:href="#ArialMT-30" transform="translate(711.421875 0)"/>
      <use xlink:href="#ArialMT-44" transform="translate(794.71875 0)"/>
      <use xlink:href="#ArialMT-4c" transform="translate(850.328125 0)"/>
      <use xlink:href="#ArialMT-51" transform="translate(872.546875 0)"/>
      <use xlink:href="#ArialMT-49" transform="translate(928.15625 0)"/>
      <use xlink:href="#ArialMT-52" transform="translate(955.9375 0)"/>
      <use xlink:href="#ArialMT-55" transform="translate(1011.546875 0)"/>
      <use xlink:href="#ArialMT-57" transform="translate(1044.84375 0)"/>
      <use xlink:href="#ArialMT-a" transform="translate(1072.625 0)"/>
      <use xlink:href="#ArialMT-56" transform="translate(1091.71875 0)"/>
      <use xlink:href="#ArialMT-3" transform="translate(1141.71875 0)"/>
      <use xlink:href="#ArialMT-53" transform="translate(1169.5 0)"/>
      <use xlink:href="#ArialMT-4b" transform="translate(1225.109375 0)"/>
      <use xlink:href="#ArialMT-44" transform="translate(1280.71875 0)"/>
      <use xlink:href="#ArialMT-56" transform="translate(1336.328125 0)"/>
      <use xlink:href="#ArialMT-48" transform="translate(1386.328125 0)"/>
      <use xlink:href="#ArialMT-56" transform="translate(1441.9375 0)"/>
     </g>
     <!-- (adjusted Rand index) -->
     <g transform="translate(24.222393 149.482448) rotate(-90) scale(0.09 -0.09)">
      <defs>
       <path id="ArialMT-b" d="M 1497 -1347 
Q 1031 -759 709 28 
Q 388 816 388 1659 
Q 388 2403 628 3084 
Q 909 3875 1497 4659 
L 1900 4659 
Q 1522 4009 1400 3731 
Q 1209 3300 1100 2831 
Q 966 2247 966 1656 
Q 966 153 1900 -1347 
L 1497 -1347 
z
" transform="scale(0.015625)"/>
       <path id="ArialMT-47" d="M 2575 0 
L 2575 419 
Q 2259 -75 1647 -75 
Q 1250 -75 917 144 
Q 584 363 401 755 
Q 219 1147 219 1656 
Q 219 2153 384 2558 
Q 550 2963 881 3178 
Q 1213 3394 1622 3394 
Q 1922 3394 2156 3267 
Q 2391 3141 2538 2938 
L 2538 4581 
L 3097 4581 
L 3097 0 
L 2575 0 
z
M 797 1656 
Q 797 1019 1065 703 
Q 1334 388 1700 388 
Q 2069 388 2326 689 
Q 2584 991 2584 1609 
Q 2584 2291 2321 2609 
Q 2059 2928 1675 2928 
Q 1300 2928 1048 2622 
Q 797 2316 797 1656 
z
" transform="scale(0.015625)"/>
       <path id="ArialMT-4d" d="M 419 3928 
L 419 4581 
L 981 4581 
L 981 3928 
L 419 3928 
z
M -294 -1288 
L -188 -809 
Q -19 -853 78 -853 
Q 250 -853 334 -739 
Q 419 -625 419 -169 
L 419 3319 
L 981 3319 
L 981 -181 
Q 981 -794 822 -1034 
Q 619 -1347 147 -1347 
Q -81 -1347 -294 -1288 
z
" transform="scale(0.015625)"/>
       <path id="ArialMT-58" d="M 2597 0 
L 2597 488 
Q 2209 -75 1544 -75 
Q 1250 -75 995 37 
Q 741 150 617 320 
Q 494 491 444 738 
Q 409 903 409 1263 
L 409 3319 
L 972 3319 
L 972 1478 
Q 972 1038 1006 884 
Q 1059 663 1231 536 
Q 1403 409 1656 409 
Q 1909 409 2131 539 
Q 2353 669 2445 892 
Q 2538 1116 2538 1541 
L 2538 3319 
L 3100 3319 
L 3100 0 
L 2597 0 
z
" transform="scale(0.015625)"/>
       <path id="ArialMT-35" d="M 503 0 
L 503 4581 
L 2534 4581 
Q 3147 4581 3465 4457 
Q 3784 4334 3975 4021 
Q 4166 3709 4166 3331 
Q 4166 2844 3850 2509 
Q 3534 2175 2875 2084 
Q 3116 1969 3241 1856 
Q 3506 1613 3744 1247 
L 4541 0 
L 3778 0 
L 3172 953 
Q 2906 1366 2734 1584 
Q 2563 1803 2427 1890 
Q 2291 1978 2150 2013 
Q 2047 2034 1813 2034 
L 1109 2034 
L 1109 0 
L 503 0 
z
M 1109 2559 
L 2413 2559 
Q 2828 2559 3062 2645 
Q 3297 2731 3419 2920 
Q 3541 3109 3541 3331 
Q 3541 3656 3305 3865 
Q 3069 4075 2559 4075 
L 1109 4075 
L 1109 2559 
z
" transform="scale(0.015625)"/>
       <path id="ArialMT-5b" d="M 47 0 
L 1259 1725 
L 138 3319 
L 841 3319 
L 1350 2541 
Q 1494 2319 1581 2169 
Q 1719 2375 1834 2534 
L 2394 3319 
L 3066 3319 
L 1919 1756 
L 3153 0 
L 2463 0 
L 1781 1031 
L 1600 1309 
L 728 0 
L 47 0 
z
" transform="scale(0.015625)"/>
       <path id="ArialMT-c" d="M 791 -1347 
L 388 -1347 
Q 1322 153 1322 1656 
Q 1322 2244 1188 2822 
Q 1081 3291 891 3722 
Q 769 4003 388 4659 
L 791 4659 
Q 1378 3875 1659 3084 
Q 1900 2403 1900 1659 
Q 1900 816 1576 28 
Q 1253 -759 791 -1347 
z
" transform="scale(0.015625)"/>
      </defs>
      <use xlink:href="#ArialMT-b"/>
      <use xlink:href="#ArialMT-44" transform="translate(33.296875 0)"/>
      <use xlink:href="#ArialMT-47" transform="translate(88.90625 0)"/>
      <use xlink:href="#ArialMT-4d" transform="translate(144.515625 0)"/>
      <use xlink:href="#ArialMT-58" transform="translate(166.734375 0)"/>
      <use xlink:href="#ArialMT-56" transform="translate(222.34375 0)"/>
      <use xlink:href="#ArialMT-57" transform="translate(272.34375 0)"/>
      <use xlink:href="#ArialMT-48" transform="translate(300.125 0)"/>
      <use xlink:href="#ArialMT-47" transform="translate(355.734375 0)"/>
      <use xlink:href="#ArialMT-3" transform="translate(411.34375 0)"/>
      <use xlink:href="#ArialMT-35" transform="translate(439.125 0)"/>
      <use xlink:href="#ArialMT-44" transform="translate(511.34375 0)"/>
      <use xlink:href="#ArialMT-51" transform="translate(566.953125 0)"/>
      <use xlink:href="#ArialMT-47" transform="translate(622.5625 0)"/>
      <use xlink:href="#ArialMT-3" transform="translate(678.171875 0)"/>
      <use xlink:href="#ArialMT-4c" transform="translate(705.953125 0)"/>
      <use xlink:href="#ArialMT-51" transform="translate(728.171875 0)"/>
      <use xlink:href="#ArialMT-47" transform="translate(783.78125 0)"/>
      <use xlink:href="#ArialMT-48" transform="translate(839.390625 0)"/>
      <use xlink:href="#ArialMT-5b" transform="translate(895 0)"/>
      <use xlink:href="#ArialMT-c" transform="translate(945 0)"/>
     </g>
    </g>
   </g>
   <g id="line2d_13">
    <path d="M 56.682158 73.609223 
L 82.585447 73.609223 
L 108.488735 73.609223 
L 134.392023 47.027435 
L 160.295311 79.666373 
L 186.198599 82.581937 
L 212.101888 151.27772 
" clip-path="url(#p9ba8ee987d)" style="fill: none; stroke: #1a1a1a; stroke-width: 1.4; stroke-linecap: square"/>
    <defs>
     <path id="m14ee7acd1c" d="M 0 1.75 
C 0.464105 1.75 0.909265 1.565609 1.237437 1.237437 
C 1.565609 0.909265 1.75 0.464105 1.75 0 
C 1.75 -0.464105 1.565609 -0.909265 1.237437 -1.237437 
C 0.909265 -1.565609 0.464105 -1.75 0 -1.75 
C -0.464105 -1.75 -0.909265 -1.565609 -1.237437 -1.237437 
C -1.565609 -0.909265 -1.75 -0.464105 -1.75 0 
C -1.75 0.464105 -1.565609 0.909265 -1.237437 1.237437 
C -0.909265 1.565609 -0.464105 1.75 0 1.75 
z
" style="stroke: #1a1a1a"/>
    </defs>
    <g clip-path="url(#p9ba8ee987d)">
     <use xlink:href="#m14ee7acd1c" x="56.682158" y="73.609223" style="fill: #1a1a1a; stroke: #1a1a1a"/>
     <use xlink:href="#m14ee7acd1c" x="82.585447" y="73.609223" style="fill: #1a1a1a; stroke: #1a1a1a"/>
     <use xlink:href="#m14ee7acd1c" x="108.488735" y="73.609223" style="fill: #1a1a1a; stroke: #1a1a1a"/>
     <use xlink:href="#m14ee7acd1c" x="134.392023" y="47.027435" style="fill: #1a1a1a; stroke: #1a1a1a"/>
     <use xlink:href="#m14ee7acd1c" x="160.295311" y="79.666373" style="fill: #1a1a1a; stroke: #1a1a1a"/>
     <use xlink:href="#m14ee7acd1c" x="186.198599" y="82.581937" style="fill: #1a1a1a; stroke: #1a1a1a"/>
     <use xlink:href="#m14ee7acd1c" x="212.101888" y="151.27772" style="fill: #1a1a1a; stroke: #1a1a1a"/>
    </g>
   </g>
   <g id="line2d_14">
    <path d="M 48.911172 138.812391 
L 219.872874 138.812391 
" clip-path="url(#p9ba8ee987d)" style="fill: none; stroke-dasharray: 6.4,1.6,1,1.6; stroke-dashoffset: 0; stroke: #8c8c8c"/>
   </g>
   <g id="patch_3">
    <path d="M 48.911172 188.619089 
L 48.911172 22.299089 
" style="fill: none; stroke: #000000; stroke-width: 0.8; stroke-linejoin: miter; stroke-linecap: square"/>
   </g>
   <g id="patch_4">
    <path d="M 48.911172 188.619089 
L 219.872874 188.619089 
" style="fill: none; stroke: #000000; stroke-width: 0.8; stroke-linejoin: miter; stroke-linecap: square"/>
   </g>
   <g id="text_15">
    <!-- A -->
    <g transform="translate(38.99225 13.752246) scale(0.09 -0.09)">
     <defs>
      <path id="Arial-BoldMT-24" d="M 4597 0 
L 3591 0 
L 3191 1041 
L 1359 1041 
L 981 0 
L 0 0 
L 1784 4581 
L 2763 4581 
L 4597 0 
z
M 2894 1813 
L 2263 3513 
L 1644 1813 
L 2894 1813 
z
" transform="scale(0.015625)"/>
     </defs>
     <use xlink:href="#Arial-BoldMT-24"/>
    </g>
   </g>
   <g id="legend_1">
    <g id="line2d_15">
     <path d="M 53.861172 164.763269 
L 59.361172 164.763269 
L 64.861172 164.763269 
" style="fill: none; stroke: #1a1a1a; stroke-width: 1.4; stroke-linecap: square"/>
     <g>
      <use xlink:href="#m14ee7acd1c" x="59.361172" y="164.763269" style="fill: #1a1a1a; stroke: #1a1a1a"/>
     </g>
    </g>
    <g id="text_16">
     <!-- Mainfort's scheme -->
     <g transform="translate(69.261172 166.688269) scale(0.055 -0.055)">
      <use xlink:href="#ArialMT-30"/>
      <use xlink:href="#ArialMT-44" transform="translate(83.296875 0)"/>
      <use xlink:href="#ArialMT-4c" transform="translate(138.90625 0)"/>
      <use xlink:href="#ArialMT-51" transform="translate(161.125 0)"/>
      <use xlink:href="#ArialMT-49" transform="translate(216.734375 0)"/>
      <use xlink:href="#ArialMT-52" transform="translate(244.515625 0)"/>
      <use xlink:href="#ArialMT-55" transform="translate(300.125 0)"/>
      <use xlink:href="#ArialMT-57" transform="translate(333.421875 0)"/>
      <use xlink:href="#ArialMT-a" transform="translate(361.203125 0)"/>
      <use xlink:href="#ArialMT-56" transform="translate(380.296875 0)"/>
      <use xlink:href="#ArialMT-3" transform="translate(430.296875 0)"/>
      <use xlink:href="#ArialMT-56" transform="translate(458.078125 0)"/>
      <use xlink:href="#ArialMT-46" transform="translate(508.078125 0)"/>
      <use xlink:href="#ArialMT-4b" transform="translate(558.078125 0)"/>
      <use xlink:href="#ArialMT-48" transform="translate(613.6875 0)"/>
      <use xlink:href="#ArialMT-50" transform="translate(669.296875 0)"/>
      <use xlink:href="#ArialMT-48" transform="translate(752.59375 0)"/>
     </g>
    </g>
    <g id="patch_5">
     <path d="M 53.861172 174.59989 
L 64.861172 174.59989 
L 64.861172 170.74989 
L 53.861172 170.74989 
z
" style="fill: #d9d9d9; stroke: #d9d9d9; stroke-width: 0.8; stroke-linejoin: miter"/>
    </g>
    <g id="text_17">
     <!-- range over initializations -->
     <g transform="translate(69.261172 174.59989) scale(0.055 -0.055)">
      <defs>
       <path id="ArialMT-5d" d="M 125 0 
L 125 456 
L 2238 2881 
Q 1878 2863 1603 2863 
L 250 2863 
L 250 3319 
L 2963 3319 
L 2963 2947 
L 1166 841 
L 819 456 
Q 1197 484 1528 484 
L 3063 484 
L 3063 0 
L 125 0 
z
" transform="scale(0.015625)"/>
      </defs>
      <use xlink:href="#ArialMT-55"/>
      <use xlink:href="#ArialMT-44" transform="translate(33.296875 0)"/>
      <use xlink:href="#ArialMT-51" transform="translate(88.90625 0)"/>
      <use xlink:href="#ArialMT-4a" transform="translate(144.515625 0)"/>
      <use xlink:href="#ArialMT-48" transform="translate(200.125 0)"/>
      <use xlink:href="#ArialMT-3" transform="translate(255.734375 0)"/>
      <use xlink:href="#ArialMT-52" transform="translate(283.515625 0)"/>
      <use xlink:href="#ArialMT-59" transform="translate(339.125 0)"/>
      <use xlink:href="#ArialMT-48" transform="translate(389.125 0)"/>
      <use xlink:href="#ArialMT-55" transform="translate(444.734375 0)"/>
      <use xlink:href="#ArialMT-3" transform="translate(478.03125 0)"/>
      <use xlink:href="#ArialMT-4c" transform="translate(505.8125 0)"/>
      <use xlink:href="#ArialMT-51" transform="translate(528.03125 0)"/>
      <use xlink:href="#ArialMT-4c" transform="translate(583.640625 0)"/>
      <use xlink:href="#ArialMT-57" transform="translate(605.859375 0)"/>
      <use xlink:href="#ArialMT-4c" transform="translate(633.640625 0)"/>
      <use xlink:href="#ArialMT-44" transform="translate(655.859375 0)"/>
      <use xlink:href="#ArialMT-4f" transform="translate(711.46875 0)"/>
      <use xlink:href="#ArialMT-4c" transform="translate(733.6875 0)"/>
      <use xlink:href="#ArialMT-5d" transform="translate(755.90625 0)"/>
      <use xlink:href="#ArialMT-44" transform="translate(805.90625 0)"/>
      <use xlink:href="#ArialMT-57" transform="translate(861.515625 0)"/>
      <use xlink:href="#ArialMT-4c" transform="translate(889.296875 0)"/>
      <use xlink:href="#ArialMT-52" transform="translate(911.515625 0)"/>
      <use xlink:href="#ArialMT-51" transform="translate(967.125 0)"/>
      <use xlink:href="#ArialMT-56" transform="translate(1022.734375 0)"/>
     </g>
    </g>
    <g id="line2d_16">
     <path d="M 53.861172 180.586618 
L 59.361172 180.586618 
L 64.861172 180.586618 
" style="fill: none; stroke-dasharray: 6.4,1.6,1,1.6; stroke-dashoffset: 0; stroke: #8c8c8c"/>
    </g>
    <g id="text_18">
     <!-- same sizes, boundaries at random -->
     <g transform="translate(69.261172 182.511618) scale(0.055 -0.055)">
      <defs>
       <path id="ArialMT-f" d="M 569 0 
L 569 641 
L 1209 641 
L 1209 0 
Q 1209 -353 1084 -570 
Q 959 -788 688 -906 
L 531 -666 
Q 709 -588 793 -436 
Q 878 -284 888 0 
L 569 0 
z
" transform="scale(0.015625)"/>
       <path id="ArialMT-45" d="M 941 0 
L 419 0 
L 419 4581 
L 981 4581 
L 981 2947 
Q 1338 3394 1891 3394 
Q 2197 3394 2470 3270 
Q 2744 3147 2920 2923 
Q 3097 2700 3197 2384 
Q 3297 2069 3297 1709 
Q 3297 856 2875 390 
Q 2453 -75 1863 -75 
Q 1275 -75 941 416 
L 941 0 
z
M 934 1684 
Q 934 1088 1097 822 
Q 1363 388 1816 388 
Q 2184 388 2453 708 
Q 2722 1028 2722 1663 
Q 2722 2313 2464 2622 
Q 2206 2931 1841 2931 
Q 1472 2931 1203 2611 
Q 934 2291 934 1684 
z
" transform="scale(0.015625)"/>
      </defs>
      <use xlink:href="#ArialMT-56"/>
      <use xlink:href="#ArialMT-44" transform="translate(50 0)"/>
      <use xlink:href="#ArialMT-50" transform="translate(105.609375 0)"/>
      <use xlink:href="#ArialMT-48" transform="translate(188.90625 0)"/>
      <use xlink:href="#ArialMT-3" transform="translate(244.515625 0)"/>
      <use xlink:href="#ArialMT-56" transform="translate(272.296875 0)"/>
      <use xlink:href="#ArialMT-4c" transform="translate(322.296875 0)"/>
      <use xlink:href="#ArialMT-5d" transform="translate(344.515625 0)"/>
      <use xlink:href="#ArialMT-48" transform="translate(394.515625 0)"/>
      <use xlink:href="#ArialMT-56" transform="translate(450.125 0)"/>
      <use xlink:href="#ArialMT-f" transform="translate(500.125 0)"/>
      <use xlink:href="#ArialMT-3" transform="translate(527.90625 0)"/>
      <use xlink:href="#ArialMT-45" transform="translate(555.6875 0)"/>
      <use xlink:href="#ArialMT-52" transform="translate(611.296875 0)"/>
      <use xlink:href="#ArialMT-58" transform="translate(666.90625 0)"/>
      <use xlink:href="#ArialMT-51" transform="translate(722.515625 0)"/>
      <use xlink:href="#ArialMT-47" transform="translate(778.125 0)"/>
      <use xlink:href="#ArialMT-44" transform="translate(833.734375 0)"/>
      <use xlink:href="#ArialMT-55" transform="translate(889.34375 0)"/>
      <use xlink:href="#ArialMT-4c" transform="translate(922.640625 0)"/>
      <use xlink:href="#ArialMT-48" transform="translate(944.859375 0)"/>
      <use xlink:href="#ArialMT-56" transform="translate(1000.46875 0)"/>
      <use xlink:href="#ArialMT-3" transform="translate(1050.46875 0)"/>
      <use xlink:href="#ArialMT-44" transform="translate(1078.25 0)"/>
      <use xlink:href="#ArialMT-57" transform="translate(1133.859375 0)"/>
      <use xlink:href="#ArialMT-3" transform="translate(1161.640625 0)"/>
      <use xlink:href="#ArialMT-55" transform="translate(1189.421875 0)"/>
      <use xlink:href="#ArialMT-44" transform="translate(1222.71875 0)"/>
      <use xlink:href="#ArialMT-51" transform="translate(1278.328125 0)"/>
      <use xlink:href="#ArialMT-47" transform="translate(1333.9375 0)"/>
      <use xlink:href="#ArialMT-52" transform="translate(1389.546875 0)"/>
      <use xlink:href="#ArialMT-50" transform="translate(1445.15625 0)"/>
     </g>
    </g>
   </g>
  </g>
  <g id="axes_2">
   <g id="patch_6">
    <path d="M 279.70947 188.619089 
L 450.671172 188.619089 
L 450.671172 22.299089 
L 279.70947 22.299089 
z
" style="fill: #ffffff"/>
   </g>
   <g id="patch_7">
    <path d="M 279.70947 29.859089 
L 328.999727 29.859089 
L 328.999727 37.959089 
L 279.70947 37.959089 
z
" clip-path="url(#pae74f75ac1)" style="fill: #404040"/>
   </g>
   <g id="patch_8">
    <path d="M 279.70947 52.359089 
L 317.60228 52.359089 
L 317.60228 60.459089 
L 279.70947 60.459089 
z
" clip-path="url(#pae74f75ac1)" style="fill: #404040"/>
   </g>
   <g id="patch_9">
    <path d="M 279.70947 74.859089 
L 376.069702 74.859089 
L 376.069702 82.959089 
L 279.70947 82.959089 
z
" clip-path="url(#pae74f75ac1)" style="fill: #404040"/>
   </g>
   <g id="patch_10">
    <path d="M 279.70947 97.359089 
L 348.834245 97.359089 
L 348.834245 105.459089 
L 279.70947 105.459089 
z
" clip-path="url(#pae74f75ac1)" style="fill: #404040"/>
   </g>
   <g id="patch_11">
    <path d="M 279.70947 119.859089 
L 328.259633 119.859089 
L 328.259633 127.959089 
L 279.70947 127.959089 
z
" clip-path="url(#pae74f75ac1)" style="fill: #404040"/>
   </g>
   <g id="patch_12">
    <path d="M 279.70947 142.359089 
L 369.852913 142.359089 
L 369.852913 150.459089 
L 279.70947 150.459089 
z
" clip-path="url(#pae74f75ac1)" style="fill: #404040"/>
   </g>
   <g id="patch_13">
    <path d="M 279.70947 164.859089 
L 362.155936 164.859089 
L 362.155936 172.959089 
L 279.70947 172.959089 
z
" clip-path="url(#pae74f75ac1)" style="fill: #404040"/>
   </g>
   <g id="patch_14">
    <path d="M 279.70947 37.959089 
L 385.246867 37.959089 
L 385.246867 46.059089 
L 279.70947 46.059089 
z
" clip-path="url(#pae74f75ac1)" style="fill: #b2b2b2"/>
   </g>
   <g id="patch_15">
    <path d="M 279.70947 60.459089 
L 379.91819 60.459089 
L 379.91819 68.559089 
L 279.70947 68.559089 
z
" clip-path="url(#pae74f75ac1)" style="fill: #b2b2b2"/>
   </g>
   <g id="patch_16">
    <path d="M 279.70947 82.959089 
L 394.868088 82.959089 
L 394.868088 91.059089 
L 279.70947 91.059089 
z
" clip-path="url(#pae74f75ac1)" style="fill: #b2b2b2"/>
   </g>
   <g id="patch_17">
    <path d="M 279.70947 105.459089 
L 345.281794 105.459089 
L 345.281794 113.559089 
L 279.70947 113.559089 
z
" clip-path="url(#pae74f75ac1)" style="fill: #b2b2b2"/>
   </g>
   <g id="patch_18">
    <path d="M 279.70947 127.959089 
L 414.850625 127.959089 
L 414.850625 136.059089 
L 279.70947 136.059089 
z
" clip-path="url(#pae74f75ac1)" style="fill: #b2b2b2"/>
   </g>
   <g id="patch_19">
    <path d="M 279.70947 150.459089 
L 442.530138 150.459089 
L 442.530138 158.559089 
L 279.70947 158.559089 
z
" clip-path="url(#pae74f75ac1)" style="fill: #b2b2b2"/>
   </g>
   <g id="patch_20">
    <path d="M 279.70947 172.959089 
L 364.228199 172.959089 
L 364.228199 181.059089 
L 279.70947 181.059089 
z
" clip-path="url(#pae74f75ac1)" style="fill: #b2b2b2"/>
   </g>
   <g id="matplotlib.axis_3">
    <g id="xtick_8">
     <g id="line2d_17">
      <g>
       <use xlink:href="#m4bfc616cfa" x="279.70947" y="188.619089" style="stroke: #000000; stroke-width: 0.8"/>
      </g>
     </g>
     <g id="text_19">
      <!-- 0.0 -->
      <g transform="translate(274.14947 201.443308) scale(0.08 -0.08)">
       <use xlink:href="#ArialMT-13"/>
       <use xlink:href="#ArialMT-11" transform="translate(55.609375 0)"/>
       <use xlink:href="#ArialMT-13" transform="translate(83.390625 0)"/>
      </g>
     </g>
    </g>
    <g id="xtick_9">
     <g id="line2d_18">
      <g>
       <use xlink:href="#m4bfc616cfa" x="309.313228" y="188.619089" style="stroke: #000000; stroke-width: 0.8"/>
      </g>
     </g>
     <g id="text_20">
      <!-- 0.2 -->
      <g transform="translate(303.753228 201.443308) scale(0.08 -0.08)">
       <use xlink:href="#ArialMT-13"/>
       <use xlink:href="#ArialMT-11" transform="translate(55.609375 0)"/>
       <use xlink:href="#ArialMT-15" transform="translate(83.390625 0)"/>
      </g>
     </g>
    </g>
    <g id="xtick_10">
     <g id="line2d_19">
      <g>
       <use xlink:href="#m4bfc616cfa" x="338.916986" y="188.619089" style="stroke: #000000; stroke-width: 0.8"/>
      </g>
     </g>
     <g id="text_21">
      <!-- 0.4 -->
      <g transform="translate(333.356986 201.443308) scale(0.08 -0.08)">
       <use xlink:href="#ArialMT-13"/>
       <use xlink:href="#ArialMT-11" transform="translate(55.609375 0)"/>
       <use xlink:href="#ArialMT-17" transform="translate(83.390625 0)"/>
      </g>
     </g>
    </g>
    <g id="xtick_11">
     <g id="line2d_20">
      <g>
       <use xlink:href="#m4bfc616cfa" x="368.520744" y="188.619089" style="stroke: #000000; stroke-width: 0.8"/>
      </g>
     </g>
     <g id="text_22">
      <!-- 0.6 -->
      <g transform="translate(362.960744 201.443308) scale(0.08 -0.08)">
       <use xlink:href="#ArialMT-13"/>
       <use xlink:href="#ArialMT-11" transform="translate(55.609375 0)"/>
       <use xlink:href="#ArialMT-19" transform="translate(83.390625 0)"/>
      </g>
     </g>
    </g>
    <g id="xtick_12">
     <g id="line2d_21">
      <g>
       <use xlink:href="#m4bfc616cfa" x="398.124502" y="188.619089" style="stroke: #000000; stroke-width: 0.8"/>
      </g>
     </g>
     <g id="text_23">
      <!-- 0.8 -->
      <g transform="translate(392.564502 201.443308) scale(0.08 -0.08)">
       <defs>
        <path id="ArialMT-1b" d="M 1131 2484 
Q 781 2613 612 2850 
Q 444 3088 444 3419 
Q 444 3919 803 4259 
Q 1163 4600 1759 4600 
Q 2359 4600 2725 4251 
Q 3091 3903 3091 3403 
Q 3091 3084 2923 2848 
Q 2756 2613 2416 2484 
Q 2838 2347 3058 2040 
Q 3278 1734 3278 1309 
Q 3278 722 2862 322 
Q 2447 -78 1769 -78 
Q 1091 -78 675 323 
Q 259 725 259 1325 
Q 259 1772 486 2073 
Q 713 2375 1131 2484 
z
M 1019 3438 
Q 1019 3113 1228 2906 
Q 1438 2700 1772 2700 
Q 2097 2700 2305 2904 
Q 2513 3109 2513 3406 
Q 2513 3716 2298 3927 
Q 2084 4138 1766 4138 
Q 1444 4138 1231 3931 
Q 1019 3725 1019 3438 
z
M 838 1322 
Q 838 1081 952 856 
Q 1066 631 1291 507 
Q 1516 384 1775 384 
Q 2178 384 2440 643 
Q 2703 903 2703 1303 
Q 2703 1709 2433 1975 
Q 2163 2241 1756 2241 
Q 1359 2241 1098 1978 
Q 838 1716 838 1322 
z
" transform="scale(0.015625)"/>
       </defs>
       <use xlink:href="#ArialMT-13"/>
       <use xlink:href="#ArialMT-11" transform="translate(55.609375 0)"/>
       <use xlink:href="#ArialMT-1b" transform="translate(83.390625 0)"/>
      </g>
     </g>
    </g>
    <g id="xtick_13">
     <g id="line2d_22">
      <g>
       <use xlink:href="#m4bfc616cfa" x="427.728259" y="188.619089" style="stroke: #000000; stroke-width: 0.8"/>
      </g>
     </g>
     <g id="text_24">
      <!-- 1.0 -->
      <g transform="translate(422.168259 201.443308) scale(0.08 -0.08)">
       <use xlink:href="#ArialMT-14"/>
       <use xlink:href="#ArialMT-11" transform="translate(55.609375 0)"/>
       <use xlink:href="#ArialMT-13" transform="translate(83.390625 0)"/>
      </g>
     </g>
    </g>
    <g id="text_25">
     <!-- ceramic distance to the phase's pooled profile -->
     <g transform="translate(274.034383 214.353708) scale(0.09 -0.09)">
      <use xlink:href="#ArialMT-46"/>
      <use xlink:href="#ArialMT-48" transform="translate(50 0)"/>
      <use xlink:href="#ArialMT-55" transform="translate(105.609375 0)"/>
      <use xlink:href="#ArialMT-44" transform="translate(138.90625 0)"/>
      <use xlink:href="#ArialMT-50" transform="translate(194.515625 0)"/>
      <use xlink:href="#ArialMT-4c" transform="translate(277.8125 0)"/>
      <use xlink:href="#ArialMT-46" transform="translate(300.03125 0)"/>
      <use xlink:href="#ArialMT-3" transform="translate(350.03125 0)"/>
      <use xlink:href="#ArialMT-47" transform="translate(377.8125 0)"/>
      <use xlink:href="#ArialMT-4c" transform="translate(433.421875 0)"/>
      <use xlink:href="#ArialMT-56" transform="translate(455.640625 0)"/>
      <use xlink:href="#ArialMT-57" transform="translate(505.640625 0)"/>
      <use xlink:href="#ArialMT-44" transform="translate(533.421875 0)"/>
      <use xlink:href="#ArialMT-51" transform="translate(589.03125 0)"/>
      <use xlink:href="#ArialMT-46" transform="translate(644.640625 0)"/>
      <use xlink:href="#ArialMT-48" transform="translate(694.640625 0)"/>
      <use xlink:href="#ArialMT-3" transform="translate(750.25 0)"/>
      <use xlink:href="#ArialMT-57" transform="translate(778.03125 0)"/>
      <use xlink:href="#ArialMT-52" transform="translate(805.8125 0)"/>
      <use xlink:href="#ArialMT-3" transform="translate(861.421875 0)"/>
      <use xlink:href="#ArialMT-57" transform="translate(889.203125 0)"/>
      <use xlink:href="#ArialMT-4b" transform="translate(916.984375 0)"/>
      <use xlink:href="#ArialMT-48" transform="translate(972.59375 0)"/>
      <use xlink:href="#ArialMT-3" transform="translate(1028.203125 0)"/>
      <use xlink:href="#ArialMT-53" transform="translate(1055.984375 0)"/>
      <use xlink:href="#ArialMT-4b" transform="translate(1111.59375 0)"/>
      <use xlink:href="#ArialMT-44" transform="translate(1167.203125 0)"/>
      <use xlink:href="#ArialMT-56" transform="translate(1222.8125 0)"/>
      <use xlink:href="#ArialMT-48" transform="translate(1272.8125 0)"/>
      <use xlink:href="#ArialMT-a" transform="translate(1328.421875 0)"/>
      <use xlink:href="#ArialMT-56" transform="translate(1347.515625 0)"/>
      <use xlink:href="#ArialMT-3" transform="translate(1397.515625 0)"/>
      <use xlink:href="#ArialMT-53" transform="translate(1425.296875 0)"/>
      <use xlink:href="#ArialMT-52" transform="translate(1480.90625 0)"/>
      <use xlink:href="#ArialMT-52" transform="translate(1536.515625 0)"/>
      <use xlink:href="#ArialMT-4f" transform="translate(1592.125 0)"/>
      <use xlink:href="#ArialMT-48" transform="translate(1614.34375 0)"/>
      <use xlink:href="#ArialMT-47" transform="translate(1669.953125 0)"/>
      <use xlink:href="#ArialMT-3" transform="translate(1725.5625 0)"/>
      <use xlink:href="#ArialMT-53" transform="translate(1753.34375 0)"/>
      <use xlink:href="#ArialMT-55" transform="translate(1808.953125 0)"/>
      <use xlink:href="#ArialMT-52" transform="translate(1842.25 0)"/>
      <use xlink:href="#ArialMT-49" transform="translate(1897.859375 0)"/>
      <use xlink:href="#ArialMT-4c" transform="translate(1925.640625 0)"/>
      <use xlink:href="#ArialMT-4f" transform="translate(1947.859375 0)"/>
      <use xlink:href="#ArialMT-48" transform="translate(1970.078125 0)"/>
     </g>
     <!-- (site left out) -->
     <g transform="translate(340.43329 224.149118) scale(0.09 -0.09)">
      <use xlink:href="#ArialMT-b"/>
      <use xlink:href="#ArialMT-56" transform="translate(33.296875 0)"/>
      <use xlink:href="#ArialMT-4c" transform="translate(83.296875 0)"/>
      <use xlink:href="#ArialMT-57" transform="translate(105.515625 0)"/>
      <use xlink:href="#ArialMT-48" transform="translate(133.296875 0)"/>
      <use xlink:href="#ArialMT-3" transform="translate(188.90625 0)"/>
      <use xlink:href="#ArialMT-4f" transform="translate(216.6875 0)"/>
      <use xlink:href="#ArialMT-48" transform="translate(238.90625 0)"/>
      <use xlink:href="#ArialMT-49" transform="translate(294.515625 0)"/>
      <use xlink:href="#ArialMT-57" transform="translate(322.296875 0)"/>
      <use xlink:href="#ArialMT-3" transform="translate(350.078125 0)"/>
      <use xlink:href="#ArialMT-52" transform="translate(377.859375 0)"/>
      <use xlink:href="#ArialMT-58" transform="translate(433.46875 0)"/>
      <use xlink:href="#ArialMT-57" transform="translate(489.078125 0)"/>
      <use xlink:href="#ArialMT-c" transform="translate(516.859375 0)"/>
     </g>
    </g>
   </g>
   <g id="matplotlib.axis_4">
    <g id="ytick_6">
     <g id="line2d_23">
      <g>
       <use xlink:href="#m2d814d3f9d" x="279.70947" y="37.959089" style="stroke: #000000; stroke-width: 0.8"/>
      </g>
     </g>
     <g id="text_26">
      <!-- Beck -->
      <g transform="translate(260.482282 37.174238) scale(0.055 -0.055)">
       <defs>
        <path id="ArialMT-25" d="M 469 0 
L 469 4581 
L 2188 4581 
Q 2713 4581 3030 4442 
Q 3347 4303 3526 4014 
Q 3706 3725 3706 3409 
Q 3706 3116 3547 2856 
Q 3388 2597 3066 2438 
Q 3481 2316 3704 2022 
Q 3928 1728 3928 1328 
Q 3928 1006 3792 729 
Q 3656 453 3456 303 
Q 3256 153 2954 76 
Q 2653 0 2216 0 
L 469 0 
z
M 1075 2656 
L 2066 2656 
Q 2469 2656 2644 2709 
Q 2875 2778 2992 2937 
Q 3109 3097 3109 3338 
Q 3109 3566 3000 3739 
Q 2891 3913 2687 3977 
Q 2484 4041 1991 4041 
L 1075 4041 
L 1075 2656 
z
M 1075 541 
L 2216 541 
Q 2509 541 2628 563 
Q 2838 600 2978 687 
Q 3119 775 3209 942 
Q 3300 1109 3300 1328 
Q 3300 1584 3169 1773 
Q 3038 1963 2805 2039 
Q 2572 2116 2134 2116 
L 1075 2116 
L 1075 541 
z
" transform="scale(0.015625)"/>
        <path id="ArialMT-4e" d="M 425 0 
L 425 4581 
L 988 4581 
L 988 1969 
L 2319 3319 
L 3047 3319 
L 1778 2088 
L 3175 0 
L 2481 0 
L 1384 1697 
L 988 1316 
L 988 0 
L 425 0 
z
" transform="scale(0.015625)"/>
       </defs>
       <use xlink:href="#ArialMT-25"/>
       <use xlink:href="#ArialMT-48" transform="translate(66.703125 0)"/>
       <use xlink:href="#ArialMT-46" transform="translate(122.3125 0)"/>
       <use xlink:href="#ArialMT-4e" transform="translate(172.3125 0)"/>
      </g>
      <!-- (Horseshoe Lake / Walls) -->
      <g transform="translate(211.173063 43.160322) scale(0.055 -0.055)">
       <defs>
        <path id="ArialMT-2b" d="M 513 0 
L 513 4581 
L 1119 4581 
L 1119 2700 
L 3500 2700 
L 3500 4581 
L 4106 4581 
L 4106 0 
L 3500 0 
L 3500 2159 
L 1119 2159 
L 1119 0 
L 513 0 
z
" transform="scale(0.015625)"/>
        <path id="ArialMT-2f" d="M 469 0 
L 469 4581 
L 1075 4581 
L 1075 541 
L 3331 541 
L 3331 0 
L 469 0 
z
" transform="scale(0.015625)"/>
        <path id="ArialMT-12" d="M 0 -78 
L 1328 4659 
L 1778 4659 
L 453 -78 
L 0 -78 
z
" transform="scale(0.015625)"/>
        <path id="ArialMT-3a" d="M 1294 0 
L 78 4581 
L 700 4581 
L 1397 1578 
Q 1509 1106 1591 641 
Q 1766 1375 1797 1488 
L 2669 4581 
L 3400 4581 
L 4056 2263 
Q 4303 1400 4413 641 
Q 4500 1075 4641 1638 
L 5359 4581 
L 5969 4581 
L 4713 0 
L 4128 0 
L 3163 3491 
Q 3041 3928 3019 4028 
Q 2947 3713 2884 3491 
L 1913 0 
L 1294 0 
z
" transform="scale(0.015625)"/>
       </defs>
       <use xlink:href="#ArialMT-b"/>
       <use xlink:href="#ArialMT-2b" transform="translate(33.296875 0)"/>
       <use xlink:href="#ArialMT-52" transform="translate(105.515625 0)"/>
       <use xlink:href="#ArialMT-55" transform="translate(161.125 0)"/>
       <use xlink:href="#ArialMT-56" transform="translate(194.421875 0)"/>
       <use xlink:href="#ArialMT-48" transform="translate(244.421875 0)"/>
       <use xlink:href="#ArialMT-56" transform="translate(300.03125 0)"/>
       <use xlink:href="#ArialMT-4b" transform="translate(350.03125 0)"/>
       <use xlink:href="#ArialMT-52" transform="translate(405.640625 0)"/>
       <use xlink:href="#ArialMT-48" transform="translate(461.25 0)"/>
       <use xlink:href="#ArialMT-3" transform="translate(516.859375 0)"/>
       <use xlink:href="#ArialMT-2f" transform="translate(544.640625 0)"/>
       <use xlink:href="#ArialMT-44" transform="translate(600.25 0)"/>
       <use xlink:href="#ArialMT-4e" transform="translate(655.859375 0)"/>
       <use xlink:href="#ArialMT-48" transform="translate(705.859375 0)"/>
       <use xlink:href="#ArialMT-3" transform="translate(761.46875 0)"/>
       <use xlink:href="#ArialMT-12" transform="translate(789.25 0)"/>
       <use xlink:href="#ArialMT-3" transform="translate(817.03125 0)"/>
       <use xlink:href="#ArialMT-3a" transform="translate(844.8125 0)"/>
       <use xlink:href="#ArialMT-44" transform="translate(935.5 0)"/>
       <use xlink:href="#ArialMT-4f" transform="translate(991.109375 0)"/>
       <use xlink:href="#ArialMT-4f" transform="translate(1013.328125 0)"/>
       <use xlink:href="#ArialMT-56" transform="translate(1035.546875 0)"/>
       <use xlink:href="#ArialMT-c" transform="translate(1085.546875 0)"/>
      </g>
     </g>
    </g>
    <g id="ytick_7">
     <g id="line2d_24">
      <g>
       <use xlink:href="#m2d814d3f9d" x="279.70947" y="60.459089" style="stroke: #000000; stroke-width: 0.8"/>
      </g>
     </g>
     <g id="text_27">
      <!-- Belle Meade -->
      <g transform="translate(242.136345 59.674238) scale(0.055 -0.055)">
       <use xlink:href="#ArialMT-25"/>
       <use xlink:href="#ArialMT-48" transform="translate(66.703125 0)"/>
       <use xlink:href="#ArialMT-4f" transform="translate(122.3125 0)"/>
       <use xlink:href="#ArialMT-4f" transform="translate(144.53125 0)"/>
       <use xlink:href="#ArialMT-48" transform="translate(166.75 0)"/>
       <use xlink:href="#ArialMT-3" transform="translate(222.359375 0)"/>
       <use xlink:href="#ArialMT-30" transform="translate(250.140625 0)"/>
       <use xlink:href="#ArialMT-48" transform="translate(333.4375 0)"/>
       <use xlink:href="#ArialMT-44" transform="translate(389.046875 0)"/>
       <use xlink:href="#ArialMT-47" transform="translate(444.65625 0)"/>
       <use xlink:href="#ArialMT-48" transform="translate(500.265625 0)"/>
      </g>
      <!-- (Horseshoe Lake / Walls) -->
      <g transform="translate(211.173063 65.660322) scale(0.055 -0.055)">
       <use xlink:href="#ArialMT-b"/>
       <use xlink:href="#ArialMT-2b" transform="translate(33.296875 0)"/>
       <use xlink:href="#ArialMT-52" transform="translate(105.515625 0)"/>
       <use xlink:href="#ArialMT-55" transform="translate(161.125 0)"/>
       <use xlink:href="#ArialMT-56" transform="translate(194.421875 0)"/>
       <use xlink:href="#ArialMT-48" transform="translate(244.421875 0)"/>
       <use xlink:href="#ArialMT-56" transform="translate(300.03125 0)"/>
       <use xlink:href="#ArialMT-4b" transform="translate(350.03125 0)"/>
       <use xlink:href="#ArialMT-52" transform="translate(405.640625 0)"/>
       <use xlink:href="#ArialMT-48" transform="translate(461.25 0)"/>
       <use xlink:href="#ArialMT-3" transform="translate(516.859375 0)"/>
       <use xlink:href="#ArialMT-2f" transform="translate(544.640625 0)"/>
       <use xlink:href="#ArialMT-44" transform="translate(600.25 0)"/>
       <use xlink:href="#ArialMT-4e" transform="translate(655.859375 0)"/>
       <use xlink:href="#ArialMT-48" transform="translate(705.859375 0)"/>
       <use xlink:href="#ArialMT-3" transform="translate(761.46875 0)"/>
       <use xlink:href="#ArialMT-12" transform="translate(789.25 0)"/>
       <use xlink:href="#ArialMT-3" transform="translate(817.03125 0)"/>
       <use xlink:href="#ArialMT-3a" transform="translate(844.8125 0)"/>
       <use xlink:href="#ArialMT-44" transform="translate(935.5 0)"/>
       <use xlink:href="#ArialMT-4f" transform="translate(991.109375 0)"/>
       <use xlink:href="#ArialMT-4f" transform="translate(1013.328125 0)"/>
       <use xlink:href="#ArialMT-56" transform="translate(1035.546875 0)"/>
       <use xlink:href="#ArialMT-c" transform="translate(1085.546875 0)"/>
      </g>
     </g>
    </g>
    <g id="ytick_8">
     <g id="line2d_25">
      <g>
       <use xlink:href="#m2d814d3f9d" x="279.70947" y="82.959089" style="stroke: #000000; stroke-width: 0.8"/>
      </g>
     </g>
     <g id="text_28">
      <!-- Mound Place -->
      <g transform="translate(240.608376 82.174238) scale(0.055 -0.055)">
       <defs>
        <path id="ArialMT-33" d="M 494 0 
L 494 4581 
L 2222 4581 
Q 2678 4581 2919 4538 
Q 3256 4481 3484 4323 
Q 3713 4166 3852 3881 
Q 3991 3597 3991 3256 
Q 3991 2672 3619 2267 
Q 3247 1863 2275 1863 
L 1100 1863 
L 1100 0 
L 494 0 
z
M 1100 2403 
L 2284 2403 
Q 2872 2403 3119 2622 
Q 3366 2841 3366 3238 
Q 3366 3525 3220 3729 
Q 3075 3934 2838 4000 
Q 2684 4041 2272 4041 
L 1100 4041 
L 1100 2403 
z
" transform="scale(0.015625)"/>
       </defs>
       <use xlink:href="#ArialMT-30"/>
       <use xlink:href="#ArialMT-52" transform="translate(83.296875 0)"/>
       <use xlink:href="#ArialMT-58" transform="translate(138.90625 0)"/>
       <use xlink:href="#ArialMT-51" transform="translate(194.515625 0)"/>
       <use xlink:href="#ArialMT-47" transform="translate(250.125 0)"/>
       <use xlink:href="#ArialMT-3" transform="translate(305.734375 0)"/>
       <use xlink:href="#ArialMT-33" transform="translate(333.515625 0)"/>
       <use xlink:href="#ArialMT-4f" transform="translate(400.21875 0)"/>
       <use xlink:href="#ArialMT-44" transform="translate(422.4375 0)"/>
       <use xlink:href="#ArialMT-46" transform="translate(478.046875 0)"/>
       <use xlink:href="#ArialMT-48" transform="translate(528.046875 0)"/>
      </g>
      <!-- (Horseshoe Lake / Walls) -->
      <g transform="translate(211.173063 88.160322) scale(0.055 -0.055)">
       <use xlink:href="#ArialMT-b"/>
       <use xlink:href="#ArialMT-2b" transform="translate(33.296875 0)"/>
       <use xlink:href="#ArialMT-52" transform="translate(105.515625 0)"/>
       <use xlink:href="#ArialMT-55" transform="translate(161.125 0)"/>
       <use xlink:href="#ArialMT-56" transform="translate(194.421875 0)"/>
       <use xlink:href="#ArialMT-48" transform="translate(244.421875 0)"/>
       <use xlink:href="#ArialMT-56" transform="translate(300.03125 0)"/>
       <use xlink:href="#ArialMT-4b" transform="translate(350.03125 0)"/>
       <use xlink:href="#ArialMT-52" transform="translate(405.640625 0)"/>
       <use xlink:href="#ArialMT-48" transform="translate(461.25 0)"/>
       <use xlink:href="#ArialMT-3" transform="translate(516.859375 0)"/>
       <use xlink:href="#ArialMT-2f" transform="translate(544.640625 0)"/>
       <use xlink:href="#ArialMT-44" transform="translate(600.25 0)"/>
       <use xlink:href="#ArialMT-4e" transform="translate(655.859375 0)"/>
       <use xlink:href="#ArialMT-48" transform="translate(705.859375 0)"/>
       <use xlink:href="#ArialMT-3" transform="translate(761.46875 0)"/>
       <use xlink:href="#ArialMT-12" transform="translate(789.25 0)"/>
       <use xlink:href="#ArialMT-3" transform="translate(817.03125 0)"/>
       <use xlink:href="#ArialMT-3a" transform="translate(844.8125 0)"/>
       <use xlink:href="#ArialMT-44" transform="translate(935.5 0)"/>
       <use xlink:href="#ArialMT-4f" transform="translate(991.109375 0)"/>
       <use xlink:href="#ArialMT-4f" transform="translate(1013.328125 0)"/>
       <use xlink:href="#ArialMT-56" transform="translate(1035.546875 0)"/>
       <use xlink:href="#ArialMT-c" transform="translate(1085.546875 0)"/>
      </g>
     </g>
    </g>
    <g id="ytick_9">
     <g id="line2d_26">
      <g>
       <use xlink:href="#m2d814d3f9d" x="279.70947" y="105.459089" style="stroke: #000000; stroke-width: 0.8"/>
      </g>
     </g>
     <g id="text_29">
      <!-- Young -->
      <g transform="translate(257.311188 104.674184) scale(0.055 -0.055)">
       <defs>
        <path id="ArialMT-3c" d="M 1784 0 
L 1784 1941 
L 19 4581 
L 756 4581 
L 1659 3200 
Q 1909 2813 2125 2425 
Q 2331 2784 2625 3234 
L 3513 4581 
L 4219 4581 
L 2391 1941 
L 2391 0 
L 1784 0 
z
" transform="scale(0.015625)"/>
       </defs>
       <use xlink:href="#ArialMT-3c"/>
       <use xlink:href="#ArialMT-52" transform="translate(57.53125 0)"/>
       <use xlink:href="#ArialMT-58" transform="translate(113.140625 0)"/>
       <use xlink:href="#ArialMT-51" transform="translate(168.75 0)"/>
       <use xlink:href="#ArialMT-4a" transform="translate(224.359375 0)"/>
      </g>
      <!-- (Horseshoe Lake / Walls) -->
      <g transform="translate(211.173063 110.660376) scale(0.055 -0.055)">
       <use xlink:href="#ArialMT-b"/>
       <use xlink:href="#ArialMT-2b" transform="translate(33.296875 0)"/>
       <use xlink:href="#ArialMT-52" transform="translate(105.515625 0)"/>
       <use xlink:href="#ArialMT-55" transform="translate(161.125 0)"/>
       <use xlink:href="#ArialMT-56" transform="translate(194.421875 0)"/>
       <use xlink:href="#ArialMT-48" transform="translate(244.421875 0)"/>
       <use xlink:href="#ArialMT-56" transform="translate(300.03125 0)"/>
       <use xlink:href="#ArialMT-4b" transform="translate(350.03125 0)"/>
       <use xlink:href="#ArialMT-52" transform="translate(405.640625 0)"/>
       <use xlink:href="#ArialMT-48" transform="translate(461.25 0)"/>
       <use xlink:href="#ArialMT-3" transform="translate(516.859375 0)"/>
       <use xlink:href="#ArialMT-2f" transform="translate(544.640625 0)"/>
       <use xlink:href="#ArialMT-44" transform="translate(600.25 0)"/>
       <use xlink:href="#ArialMT-4e" transform="translate(655.859375 0)"/>
       <use xlink:href="#ArialMT-48" transform="translate(705.859375 0)"/>
       <use xlink:href="#ArialMT-3" transform="translate(761.46875 0)"/>
       <use xlink:href="#ArialMT-12" transform="translate(789.25 0)"/>
       <use xlink:href="#ArialMT-3" transform="translate(817.03125 0)"/>
       <use xlink:href="#ArialMT-3a" transform="translate(844.8125 0)"/>
       <use xlink:href="#ArialMT-44" transform="translate(935.5 0)"/>
       <use xlink:href="#ArialMT-4f" transform="translate(991.109375 0)"/>
       <use xlink:href="#ArialMT-4f" transform="translate(1013.328125 0)"/>
       <use xlink:href="#ArialMT-56" transform="translate(1035.546875 0)"/>
       <use xlink:href="#ArialMT-c" transform="translate(1085.546875 0)"/>
      </g>
     </g>
    </g>
    <g id="ytick_10">
     <g id="line2d_27">
      <g>
       <use xlink:href="#m2d814d3f9d" x="279.70947" y="127.959089" style="stroke: #000000; stroke-width: 0.8"/>
      </g>
     </g>
     <g id="text_30">
      <!-- Hollywood -->
      <g transform="translate(247.337282 127.174184) scale(0.055 -0.055)">
       <use xlink:href="#ArialMT-2b"/>
       <use xlink:href="#ArialMT-52" transform="translate(72.21875 0)"/>
       <use xlink:href="#ArialMT-4f" transform="translate(127.828125 0)"/>
       <use xlink:href="#ArialMT-4f" transform="translate(150.046875 0)"/>
       <use xlink:href="#ArialMT-5c" transform="translate(172.265625 0)"/>
       <use xlink:href="#ArialMT-5a" transform="translate(222.265625 0)"/>
       <use xlink:href="#ArialMT-52" transform="translate(294.484375 0)"/>
       <use xlink:href="#ArialMT-52" transform="translate(350.09375 0)"/>
       <use xlink:href="#ArialMT-47" transform="translate(405.703125 0)"/>
      </g>
      <!-- (Kent / Walls) -->
      <g transform="translate(239.908845 133.160376) scale(0.055 -0.055)">
       <defs>
        <path id="ArialMT-2e" d="M 469 0 
L 469 4581 
L 1075 4581 
L 1075 2309 
L 3350 4581 
L 4172 4581 
L 2250 2725 
L 4256 0 
L 3456 0 
L 1825 2319 
L 1075 1588 
L 1075 0 
L 469 0 
z
" transform="scale(0.015625)"/>
       </defs>
       <use xlink:href="#ArialMT-b"/>
       <use xlink:href="#ArialMT-2e" transform="translate(33.296875 0)"/>
       <use xlink:href="#ArialMT-48" transform="translate(100 0)"/>
       <use xlink:href="#ArialMT-51" transform="translate(155.609375 0)"/>
       <use xlink:href="#ArialMT-57" transform="translate(211.21875 0)"/>
       <use xlink:href="#ArialMT-3" transform="translate(239 0)"/>
       <use xlink:href="#ArialMT-12" transform="translate(266.78125 0)"/>
       <use xlink:href="#ArialMT-3" transform="translate(294.5625 0)"/>
       <use xlink:href="#ArialMT-3a" transform="translate(322.34375 0)"/>
       <use xlink:href="#ArialMT-44" transform="translate(413.03125 0)"/>
       <use xlink:href="#ArialMT-4f" transform="translate(468.640625 0)"/>
       <use xlink:href="#ArialMT-4f" transform="translate(490.859375 0)"/>
       <use xlink:href="#ArialMT-56" transform="translate(513.078125 0)"/>
       <use xlink:href="#ArialMT-c" transform="translate(563.078125 0)"/>
      </g>
     </g>
    </g>
    <g id="ytick_11">
     <g id="line2d_28">
      <g>
       <use xlink:href="#m2d814d3f9d" x="279.70947" y="150.459089" style="stroke: #000000; stroke-width: 0.8"/>
      </g>
     </g>
     <g id="text_31">
      <!-- Commerce -->
      <g transform="translate(245.817907 149.674238) scale(0.055 -0.055)">
       <defs>
        <path id="ArialMT-26" d="M 3763 1606 
L 4369 1453 
Q 4178 706 3683 314 
Q 3188 -78 2472 -78 
Q 1731 -78 1267 223 
Q 803 525 561 1097 
Q 319 1669 319 2325 
Q 319 3041 592 3573 
Q 866 4106 1370 4382 
Q 1875 4659 2481 4659 
Q 3169 4659 3637 4309 
Q 4106 3959 4291 3325 
L 3694 3184 
Q 3534 3684 3231 3912 
Q 2928 4141 2469 4141 
Q 1941 4141 1586 3887 
Q 1231 3634 1087 3207 
Q 944 2781 944 2328 
Q 944 1744 1114 1308 
Q 1284 872 1643 656 
Q 2003 441 2422 441 
Q 2931 441 3284 734 
Q 3638 1028 3763 1606 
z
" transform="scale(0.015625)"/>
       </defs>
       <use xlink:href="#ArialMT-26"/>
       <use xlink:href="#ArialMT-52" transform="translate(72.21875 0)"/>
       <use xlink:href="#ArialMT-50" transform="translate(127.828125 0)"/>
       <use xlink:href="#ArialMT-50" transform="translate(211.125 0)"/>
       <use xlink:href="#ArialMT-48" transform="translate(294.421875 0)"/>
       <use xlink:href="#ArialMT-55" transform="translate(350.03125 0)"/>
       <use xlink:href="#ArialMT-46" transform="translate(383.328125 0)"/>
       <use xlink:href="#ArialMT-48" transform="translate(433.328125 0)"/>
      </g>
      <!-- (Kent / Walls) -->
      <g transform="translate(239.908845 155.660322) scale(0.055 -0.055)">
       <use xlink:href="#ArialMT-b"/>
       <use xlink:href="#ArialMT-2e" transform="translate(33.296875 0)"/>
       <use xlink:href="#ArialMT-48" transform="translate(100 0)"/>
       <use xlink:href="#ArialMT-51" transform="translate(155.609375 0)"/>
       <use xlink:href="#ArialMT-57" transform="translate(211.21875 0)"/>
       <use xlink:href="#ArialMT-3" transform="translate(239 0)"/>
       <use xlink:href="#ArialMT-12" transform="translate(266.78125 0)"/>
       <use xlink:href="#ArialMT-3" transform="translate(294.5625 0)"/>
       <use xlink:href="#ArialMT-3a" transform="translate(322.34375 0)"/>
       <use xlink:href="#ArialMT-44" transform="translate(413.03125 0)"/>
       <use xlink:href="#ArialMT-4f" transform="translate(468.640625 0)"/>
       <use xlink:href="#ArialMT-4f" transform="translate(490.859375 0)"/>
       <use xlink:href="#ArialMT-56" transform="translate(513.078125 0)"/>
       <use xlink:href="#ArialMT-c" transform="translate(563.078125 0)"/>
      </g>
     </g>
    </g>
    <g id="ytick_12">
     <g id="line2d_29">
      <g>
       <use xlink:href="#m2d814d3f9d" x="279.70947" y="172.959089" style="stroke: #000000; stroke-width: 0.8"/>
      </g>
     </g>
     <g id="text_32">
      <!-- Castile Lg. -->
      <g transform="translate(246.725407 172.174184) scale(0.055 -0.055)">
       <use xlink:href="#ArialMT-26"/>
       <use xlink:href="#ArialMT-44" transform="translate(72.21875 0)"/>
       <use xlink:href="#ArialMT-56" transform="translate(127.828125 0)"/>
       <use xlink:href="#ArialMT-57" transform="translate(177.828125 0)"/>
       <use xlink:href="#ArialMT-4c" transform="translate(205.609375 0)"/>
       <use xlink:href="#ArialMT-4f" transform="translate(227.828125 0)"/>
       <use xlink:href="#ArialMT-48" transform="translate(250.046875 0)"/>
       <use xlink:href="#ArialMT-3" transform="translate(305.65625 0)"/>
       <use xlink:href="#ArialMT-2f" transform="translate(333.4375 0)"/>
       <use xlink:href="#ArialMT-4a" transform="translate(389.046875 0)"/>
       <use xlink:href="#ArialMT-11" transform="translate(444.65625 0)"/>
      </g>
      <!-- (Parkin / Kent) -->
      <g transform="translate(237.560173 178.160376) scale(0.055 -0.055)">
       <use xlink:href="#ArialMT-b"/>
       <use xlink:href="#ArialMT-33" transform="translate(33.296875 0)"/>
       <use xlink:href="#ArialMT-44" transform="translate(100 0)"/>
       <use xlink:href="#ArialMT-55" transform="translate(155.609375 0)"/>
       <use xlink:href="#ArialMT-4e" transform="translate(188.90625 0)"/>
       <use xlink:href="#ArialMT-4c" transform="translate(238.90625 0)"/>
       <use xlink:href="#ArialMT-51" transform="translate(261.125 0)"/>
       <use xlink:href="#ArialMT-3" transform="translate(316.734375 0)"/>
       <use xlink:href="#ArialMT-12" transform="translate(344.515625 0)"/>
       <use xlink:href="#ArialMT-3" transform="translate(372.296875 0)"/>
       <use xlink:href="#ArialMT-2e" transform="translate(400.078125 0)"/>
       <use xlink:href="#ArialMT-48" transform="translate(466.78125 0)"/>
       <use xlink:href="#ArialMT-51" transform="translate(522.390625 0)"/>
       <use xlink:href="#ArialMT-57" transform="translate(578 0)"/>
       <use xlink:href="#ArialMT-c" transform="translate(605.78125 0)"/>
      </g>
     </g>
    </g>
   </g>
   <g id="patch_21">
    <path d="M 279.70947 188.619089 
L 279.70947 22.299089 
" style="fill: none; stroke: #000000; stroke-width: 0.8; stroke-linejoin: miter; stroke-linecap: square"/>
   </g>
   <g id="patch_22">
    <path d="M 279.70947 188.619089 
L 450.671172 188.619089 
" style="fill: none; stroke: #000000; stroke-width: 0.8; stroke-linejoin: miter; stroke-linecap: square"/>
   </g>
   <g id="text_33">
    <!-- B -->
    <g transform="translate(269.790548 13.752246) scale(0.09 -0.09)">
     <defs>
      <path id="Arial-BoldMT-25" d="M 469 4581 
L 2300 4581 
Q 2844 4581 3111 4536 
Q 3378 4491 3589 4347 
Q 3800 4203 3940 3964 
Q 4081 3725 4081 3428 
Q 4081 3106 3907 2837 
Q 3734 2569 3438 2434 
Q 3856 2313 4081 2019 
Q 4306 1725 4306 1328 
Q 4306 1016 4161 720 
Q 4016 425 3764 248 
Q 3513 72 3144 31 
Q 2913 6 2028 0 
L 469 0 
L 469 4581 
z
M 1394 3819 
L 1394 2759 
L 2000 2759 
Q 2541 2759 2672 2775 
Q 2909 2803 3045 2939 
Q 3181 3075 3181 3297 
Q 3181 3509 3064 3642 
Q 2947 3775 2716 3803 
Q 2578 3819 1925 3819 
L 1394 3819 
z
M 1394 1997 
L 1394 772 
L 2250 772 
Q 2750 772 2884 800 
Q 3091 838 3220 983 
Q 3350 1128 3350 1372 
Q 3350 1578 3250 1722 
Q 3150 1866 2961 1931 
Q 2772 1997 2141 1997 
L 1394 1997 
z
" transform="scale(0.015625)"/>
     </defs>
     <use xlink:href="#Arial-BoldMT-25"/>
    </g>
   </g>
   <g id="legend_2">
    <g id="patch_23">
     <path d="M 378.347031 174.59989 
L 389.347031 174.59989 
L 389.347031 170.74989 
L 378.347031 170.74989 
z
" style="fill: #404040"/>
    </g>
    <g id="text_34">
     <!-- to Mainfort's phase -->
     <g transform="translate(393.747031 174.59989) scale(0.055 -0.055)">
      <use xlink:href="#ArialMT-57"/>
      <use xlink:href="#ArialMT-52" transform="translate(27.78125 0)"/>
      <use xlink:href="#ArialMT-3" transform="translate(83.390625 0)"/>
      <use xlink:href="#ArialMT-30" transform="translate(111.171875 0)"/>
      <use xlink:href="#ArialMT-44" transform="translate(194.46875 0)"/>
      <use xlink:href="#ArialMT-4c" transform="translate(250.078125 0)"/>
      <use xlink:href="#ArialMT-51" transform="translate(272.296875 0)"/>
      <use xlink:href="#ArialMT-49" transform="translate(327.90625 0)"/>
      <use xlink:href="#ArialMT-52" transform="translate(355.6875 0)"/>
      <use xlink:href="#ArialMT-55" transform="translate(411.296875 0)"/>
      <use xlink:href="#ArialMT-57" transform="translate(444.59375 0)"/>
      <use xlink:href="#ArialMT-a" transform="translate(472.375 0)"/>
      <use xlink:href="#ArialMT-56" transform="translate(491.46875 0)"/>
      <use xlink:href="#ArialMT-3" transform="translate(541.46875 0)"/>
      <use xlink:href="#ArialMT-53" transform="translate(569.25 0)"/>
      <use xlink:href="#ArialMT-4b" transform="translate(624.859375 0)"/>
      <use xlink:href="#ArialMT-44" transform="translate(680.46875 0)"/>
      <use xlink:href="#ArialMT-56" transform="translate(736.078125 0)"/>
      <use xlink:href="#ArialMT-48" transform="translate(786.078125 0)"/>
     </g>
    </g>
    <g id="patch_24">
     <path d="M 378.347031 182.511511 
L 389.347031 182.511511 
L 389.347031 178.661511 
L 378.347031 178.661511 
z
" style="fill: #b2b2b2"/>
    </g>
    <g id="text_35">
     <!-- to the Figure 1 phase -->
     <g transform="translate(393.747031 182.511511) scale(0.055 -0.055)">
      <defs>
       <path id="ArialMT-29" d="M 525 0 
L 525 4581 
L 3616 4581 
L 3616 4041 
L 1131 4041 
L 1131 2622 
L 3281 2622 
L 3281 2081 
L 1131 2081 
L 1131 0 
L 525 0 
z
" transform="scale(0.015625)"/>
      </defs>
      <use xlink:href="#ArialMT-57"/>
      <use xlink:href="#ArialMT-52" transform="translate(27.78125 0)"/>
      <use xlink:href="#ArialMT-3" transform="translate(83.390625 0)"/>
      <use xlink:href="#ArialMT-57" transform="translate(111.171875 0)"/>
      <use xlink:href="#ArialMT-4b" transform="translate(138.953125 0)"/>
      <use xlink:href="#ArialMT-48" transform="translate(194.5625 0)"/>
      <use xlink:href="#ArialMT-3" transform="translate(250.171875 0)"/>
      <use xlink:href="#ArialMT-29" transform="translate(277.953125 0)"/>
      <use xlink:href="#ArialMT-4c" transform="translate(339.03125 0)"/>
      <use xlink:href="#ArialMT-4a" transform="translate(361.25 0)"/>
      <use xlink:href="#ArialMT-58" transform="translate(416.859375 0)"/>
      <use xlink:href="#ArialMT-55" transform="translate(472.46875 0)"/>
      <use xlink:href="#ArialMT-48" transform="translate(505.765625 0)"/>
      <use xlink:href="#ArialMT-3" transform="translate(561.375 0)"/>
      <use xlink:href="#ArialMT-14" transform="translate(589.15625 0)"/>
      <use xlink:href="#ArialMT-3" transform="translate(644.765625 0)"/>
      <use xlink:href="#ArialMT-53" transform="translate(672.546875 0)"/>
      <use xlink:href="#ArialMT-4b" transform="translate(728.15625 0)"/>
      <use xlink:href="#ArialMT-44" transform="translate(783.765625 0)"/>
      <use xlink:href="#ArialMT-56" transform="translate(839.375 0)"/>
      <use xlink:href="#ArialMT-48" transform="translate(889.375 0)"/>
     </g>
    </g>
   </g>
  </g>
 </g>
 <defs>
  <clipPath id="p9ba8ee987d">
   <rect x="48.911172" y="22.299089" width="170.961702" height="166.32"/>
  </clipPath>
  <clipPath id="pae74f75ac1">
   <rect x="279.70947" y="22.299089" width="170.961702" height="166.32"/>
  </clipPath>
 </defs>
</svg>
