<?xml version="1.0" encoding="utf-8" standalone="no"?>
<!DOCTYPE svg PUBLIC "-//W3C//DTD SVG 1.1//EN"
  "http://www.w3.org/Graphics/SVG/1.1/DTD/svg11.dtd">
<svg xmlns:xlink="http://www.w3.org/1999/xlink" width="435.45625pt" height="224.57825pt" viewBox="0 0 435.45625 224.57825" xmlns="http://www.w3.org/2000/svg" version="1.1">
 <metadata>
  <rdf:RDF xmlns:dc="http://purl.org/dc/elements/1.1/" xmlns:cc="http://creativecommons.org/ns#" xmlns:rdf="http://www.w3.org/1999/02/22-rdf-syntax-ns#">
   <cc:Work>
    <dc:type rdf:resource="http://purl.org/dc/dcmitype/StillImage"/>
    <dc:date>2026-06-15T21:41:07.268046</dc:date>
    <dc:format>image/svg+xml</dc:format>
    <dc:creator>
     <cc:Agent>
      <dc:title>Matplotlib v3.10.8, https://matplotlib.org/</dc:title>
     </cc:Agent>
    </dc:creator>
   </cc:Work>
  </rdf:RDF>
 </metadata>
 <defs>
  <style type="text/css">*{stroke-linejoin: round; stroke-linecap: butt}</style>
 </defs>
 <g id="figure_1">
  <g id="patch_1">
   <path d="M 0 224.57825 
L 435.45625 224.57825 
L 435.45625 0 
L 0 0 
z
" style="fill: #ffffff"/>
  </g>
  <g id="axes_1">
   <g id="patch_2">
    <path d="M 37.65625 190.152 
L 215.201705 190.152 
L 215.201705 7.2 
L 37.65625 7.2 
z
" style="fill: #ffffff"/>
   </g>
   <g id="PathCollection_1">
    <defs>
     <path id="C0_0_c4684e1a22" d="M 0 2.236068 
C 0.593012 2.236068 1.161816 2.000462 1.581139 1.581139 
C 2.000462 1.161816 2.236068 0.593012 2.236068 -0 
C 2.236068 -0.593012 2.000462 -1.161816 1.581139 -1.581139 
C 1.161816 -2.000462 0.593012 -2.236068 0 -2.236068 
C -0.593012 -2.236068 -1.161816 -2.000462 -1.581139 -1.581139 
C -2.000462 -1.161816 -2.236068 -0.593012 -2.236068 0 
C -2.236068 0.593012 -2.000462 1.161816 -1.581139 1.581139 
C -1.161816 2.000462 -0.593012 2.236068 0 2.236068 
z
"/>
    </defs>
    <g clip-path="url(#pd8e07deb5c)">
     <use xlink:href="#C0_0_c4684e1a22" x="75.326124" y="162.825139" style="fill: #333333; fill-opacity: 0.8"/>
    </g>
    <g clip-path="url(#pd8e07deb5c)">
     <use xlink:href="#C0_0_c4684e1a22" x="131.704712" y="177.73203" style="fill: #333333; fill-opacity: 0.8"/>
    </g>
    <g clip-path="url(#pd8e07deb5c)">
     <use xlink:href="#C0_0_c4684e1a22" x="93.835832" y="161.33726" style="fill: #333333; fill-opacity: 0.8"/>
    </g>
    <g clip-path="url(#pd8e07deb5c)">
     <use xlink:href="#C0_0_c4684e1a22" x="91.191186" y="171.53899" style="fill: #333333; fill-opacity: 0.8"/>
    </g>
    <g clip-path="url(#pd8e07deb5c)">
     <use xlink:href="#C0_0_c4684e1a22" x="121.648729" y="152.23879" style="fill: #333333; fill-opacity: 0.8"/>
    </g>
    <g clip-path="url(#pd8e07deb5c)">
     <use xlink:href="#C0_0_c4684e1a22" x="83.02028" y="178.37789" style="fill: #333333; fill-opacity: 0.8"/>
    </g>
    <g clip-path="url(#pd8e07deb5c)">
     <use xlink:href="#C0_0_c4684e1a22" x="112.6447" y="168.130228" style="fill: #333333; fill-opacity: 0.8"/>
    </g>
    <g clip-path="url(#pd8e07deb5c)">
     <use xlink:href="#C0_0_c4684e1a22" x="45.726498" y="123.290362" style="fill: #333333; fill-opacity: 0.8"/>
    </g>
    <g clip-path="url(#pd8e07deb5c)">
     <use xlink:href="#C0_0_c4684e1a22" x="133.817073" y="180.858874" style="fill: #333333; fill-opacity: 0.8"/>
    </g>
    <g clip-path="url(#pd8e07deb5c)">
     <use xlink:href="#C0_0_c4684e1a22" x="86.991342" y="119.745865" style="fill: #333333; fill-opacity: 0.8"/>
    </g>
    <g clip-path="url(#pd8e07deb5c)">
     <use xlink:href="#C0_0_c4684e1a22" x="55.824709" y="168.2071" style="fill: #333333; fill-opacity: 0.8"/>
    </g>
    <g clip-path="url(#pd8e07deb5c)">
     <use xlink:href="#C0_0_c4684e1a22" x="69.22463" y="68.324842" style="fill: #333333; fill-opacity: 0.8"/>
    </g>
    <g clip-path="url(#pd8e07deb5c)">
     <use xlink:href="#C0_0_c4684e1a22" x="55.873152" y="136.573142" style="fill: #333333; fill-opacity: 0.8"/>
    </g>
    <g clip-path="url(#pd8e07deb5c)">
     <use xlink:href="#C0_0_c4684e1a22" x="79.197627" y="123.724181" style="fill: #333333; fill-opacity: 0.8"/>
    </g>
    <g clip-path="url(#pd8e07deb5c)">
     <use xlink:href="#C0_0_c4684e1a22" x="147.845459" y="15.516" style="fill: #333333; fill-opacity: 0.8"/>
    </g>
    <g clip-path="url(#pd8e07deb5c)">
     <use xlink:href="#C0_0_c4684e1a22" x="103.295382" y="170.48075" style="fill: #333333; fill-opacity: 0.8"/>
    </g>
    <g clip-path="url(#pd8e07deb5c)">
     <use xlink:href="#C0_0_c4684e1a22" x="112.759483" y="178.665371" style="fill: #333333; fill-opacity: 0.8"/>
    </g>
    <g clip-path="url(#pd8e07deb5c)">
     <use xlink:href="#C0_0_c4684e1a22" x="70.769448" y="166.767107" style="fill: #333333; fill-opacity: 0.8"/>
    </g>
    <g clip-path="url(#pd8e07deb5c)">
     <use xlink:href="#C0_0_c4684e1a22" x="148.188495" y="181.836" style="fill: #333333; fill-opacity: 0.8"/>
    </g>
    <g clip-path="url(#pd8e07deb5c)">
     <use xlink:href="#C0_0_c4684e1a22" x="169.662225" y="173.694624" style="fill: #333333; fill-opacity: 0.8"/>
    </g>
    <g clip-path="url(#pd8e07deb5c)">
     <use xlink:href="#C0_0_c4684e1a22" x="104.428924" y="163.318837" style="fill: #333333; fill-opacity: 0.8"/>
    </g>
    <g clip-path="url(#pd8e07deb5c)">
     <use xlink:href="#C0_0_c4684e1a22" x="120.410036" y="178.800808" style="fill: #333333; fill-opacity: 0.8"/>
    </g>
    <g clip-path="url(#pd8e07deb5c)">
     <use xlink:href="#C0_0_c4684e1a22" x="90.839972" y="159.184818" style="fill: #333333; fill-opacity: 0.8"/>
    </g>
    <g clip-path="url(#pd8e07deb5c)">
     <use xlink:href="#C0_0_c4684e1a22" x="120.576533" y="171.266588" style="fill: #333333; fill-opacity: 0.8"/>
    </g>
    <g clip-path="url(#pd8e07deb5c)">
     <use xlink:href="#C0_0_c4684e1a22" x="104.252257" y="130.71692" style="fill: #333333; fill-opacity: 0.8"/>
    </g>
    <g clip-path="url(#pd8e07deb5c)">
     <use xlink:href="#C0_0_c4684e1a22" x="207.131457" y="84.346052" style="fill: #333333; fill-opacity: 0.8"/>
    </g>
    <g clip-path="url(#pd8e07deb5c)">
     <use xlink:href="#C0_0_c4684e1a22" x="87.098351" y="152.338581" style="fill: #333333; fill-opacity: 0.8"/>
    </g>
    <g clip-path="url(#pd8e07deb5c)">
     <use xlink:href="#C0_0_c4684e1a22" x="121.591362" y="72.548773" style="fill: #333333; fill-opacity: 0.8"/>
    </g>
    <g clip-path="url(#pd8e07deb5c)">
     <use xlink:href="#C0_0_c4684e1a22" x="78.636012" y="151.304444" style="fill: #333333; fill-opacity: 0.8"/>
    </g>
   </g>
   <g id="matplotlib.axis_1">
    <g id="xtick_1">
     <g id="line2d_1">
      <defs>
       <path id="m8ece3446cd" d="M 0 0 
L 0 3.5 
" style="stroke: #000000; stroke-width: 0.8"/>
      </defs>
      <g>
       <use xlink:href="#m8ece3446cd" x="71.139451" y="190.152" style="stroke: #000000; stroke-width: 0.8"/>
      </g>
     </g>
     <g id="text_1">
      <!-- 0.5 -->
      <g transform="translate(65.579451 202.87825) scale(0.08 -0.08)">
       <defs>
        <path id="ArialMT-30" d="M 266 2259 
Q 266 3072 433 3567 
Q 600 4063 929 4331 
Q 1259 4600 1759 4600 
Q 2128 4600 2406 4451 
Q 2684 4303 2865 4023 
Q 3047 3744 3150 3342 
Q 3253 2941 3253 2259 
Q 3253 1453 3087 958 
Q 2922 463 2592 192 
Q 2263 -78 1759 -78 
Q 1097 -78 719 397 
Q 266 969 266 2259 
z
M 844 2259 
Q 844 1131 1108 757 
Q 1372 384 1759 384 
Q 2147 384 2411 759 
Q 2675 1134 2675 2259 
Q 2675 3391 2411 3762 
Q 2147 4134 1753 4134 
Q 1366 4134 1134 3806 
Q 844 3388 844 2259 
z
" transform="scale(0.015625)"/>
        <path id="ArialMT-2e" d="M 581 0 
L 581 641 
L 1222 641 
L 1222 0 
L 581 0 
z
" transform="scale(0.015625)"/>
        <path id="ArialMT-35" d="M 266 1200 
L 856 1250 
Q 922 819 1161 601 
Q 1400 384 1738 384 
Q 2144 384 2425 690 
Q 2706 997 2706 1503 
Q 2706 1984 2436 2262 
Q 2166 2541 1728 2541 
Q 1456 2541 1237 2417 
Q 1019 2294 894 2097 
L 366 2166 
L 809 4519 
L 3088 4519 
L 3088 3981 
L 1259 3981 
L 1013 2750 
Q 1425 3038 1878 3038 
Q 2478 3038 2890 2622 
Q 3303 2206 3303 1553 
Q 3303 931 2941 478 
Q 2500 -78 1738 -78 
Q 1113 -78 717 272 
Q 322 622 266 1200 
z
" transform="scale(0.015625)"/>
       </defs>
       <use xlink:href="#ArialMT-30"/>
       <use xlink:href="#ArialMT-2e" transform="translate(55.615234 0)"/>
       <use xlink:href="#ArialMT-35" transform="translate(83.398438 0)"/>
      </g>
     </g>
    </g>
    <g id="xtick_2">
     <g id="line2d_2">
      <g>
       <use xlink:href="#m8ece3446cd" x="117.49529" y="190.152" style="stroke: #000000; stroke-width: 0.8"/>
      </g>
     </g>
     <g id="text_2">
      <!-- 1.0 -->
      <g transform="translate(111.93529 202.87825) scale(0.08 -0.08)">
       <defs>
        <path id="ArialMT-31" d="M 2384 0 
L 1822 0 
L 1822 3584 
Q 1619 3391 1289 3197 
Q 959 3003 697 2906 
L 697 3450 
Q 1169 3672 1522 3987 
Q 1875 4303 2022 4600 
L 2384 4600 
L 2384 0 
z
" transform="scale(0.015625)"/>
       </defs>
       <use xlink:href="#ArialMT-31"/>
       <use xlink:href="#ArialMT-2e" transform="translate(55.615234 0)"/>
       <use xlink:href="#ArialMT-30" transform="translate(83.398438 0)"/>
      </g>
     </g>
    </g>
    <g id="xtick_3">
     <g id="line2d_3">
      <g>
       <use xlink:href="#m8ece3446cd" x="163.851128" y="190.152" style="stroke: #000000; stroke-width: 0.8"/>
      </g>
     </g>
     <g id="text_3">
      <!-- 1.5 -->
      <g transform="translate(158.291128 202.87825) scale(0.08 -0.08)">
       <use xlink:href="#ArialMT-31"/>
       <use xlink:href="#ArialMT-2e" transform="translate(55.615234 0)"/>
       <use xlink:href="#ArialMT-35" transform="translate(83.398438 0)"/>
      </g>
     </g>
    </g>
    <g id="xtick_4">
     <g id="line2d_4">
      <g>
       <use xlink:href="#m8ece3446cd" x="210.206967" y="190.152" style="stroke: #000000; stroke-width: 0.8"/>
      </g>
     </g>
     <g id="text_4">
      <!-- 2.0 -->
      <g transform="translate(204.646967 202.87825) scale(0.08 -0.08)">
       <defs>
        <path id="ArialMT-32" d="M 3222 541 
L 3222 0 
L 194 0 
Q 188 203 259 391 
Q 375 700 629 1000 
Q 884 1300 1366 1694 
Q 2113 2306 2375 2664 
Q 2638 3022 2638 3341 
Q 2638 3675 2398 3904 
Q 2159 4134 1775 4134 
Q 1369 4134 1125 3890 
Q 881 3647 878 3216 
L 300 3275 
Q 359 3922 746 4261 
Q 1134 4600 1788 4600 
Q 2447 4600 2831 4234 
Q 3216 3869 3216 3328 
Q 3216 3053 3103 2787 
Q 2991 2522 2730 2228 
Q 2469 1934 1863 1422 
Q 1356 997 1212 845 
Q 1069 694 975 541 
L 3222 541 
z
" transform="scale(0.015625)"/>
       </defs>
       <use xlink:href="#ArialMT-32"/>
       <use xlink:href="#ArialMT-2e" transform="translate(55.615234 0)"/>
       <use xlink:href="#ArialMT-30" transform="translate(83.398438 0)"/>
      </g>
     </g>
    </g>
    <g id="text_5">
     <!-- within-assemblage diversity ($\theta_E$) -->
     <g transform="translate(62.258977 215.39825) scale(0.09 -0.09)">
      <defs>
       <path id="ArialMT-77" d="M 1034 0 
L 19 3319 
L 600 3319 
L 1128 1403 
L 1325 691 
Q 1338 744 1497 1375 
L 2025 3319 
L 2603 3319 
L 3100 1394 
L 3266 759 
L 3456 1400 
L 4025 3319 
L 4572 3319 
L 3534 0 
L 2950 0 
L 2422 1988 
L 2294 2553 
L 1622 0 
L 1034 0 
z
" transform="scale(0.015625)"/>
       <path id="ArialMT-69" d="M 425 3934 
L 425 4581 
L 988 4581 
L 988 3934 
L 425 3934 
z
M 425 0 
L 425 3319 
L 988 3319 
L 988 0 
L 425 0 
z
" transform="scale(0.015625)"/>
       <path id="ArialMT-74" d="M 1650 503 
L 1731 6 
Q 1494 -44 1306 -44 
Q 1000 -44 831 53 
Q 663 150 594 308 
Q 525 466 525 972 
L 525 2881 
L 113 2881 
L 113 3319 
L 525 3319 
L 525 4141 
L 1084 4478 
L 1084 3319 
L 1650 3319 
L 1650 2881 
L 1084 2881 
L 1084 941 
Q 1084 700 1114 631 
Q 1144 563 1211 522 
Q 1278 481 1403 481 
Q 1497 481 1650 503 
z
" transform="scale(0.015625)"/>
       <path id="ArialMT-68" d="M 422 0 
L 422 4581 
L 984 4581 
L 984 2938 
Q 1378 3394 1978 3394 
Q 2347 3394 2619 3248 
Q 2891 3103 3008 2847 
Q 3125 2591 3125 2103 
L 3125 0 
L 2563 0 
L 2563 2103 
Q 2563 2525 2380 2717 
Q 2197 2909 1863 2909 
Q 1613 2909 1392 2779 
Q 1172 2650 1078 2428 
Q 984 2206 984 1816 
L 984 0 
L 422 0 
z
" transform="scale(0.015625)"/>
       <path id="ArialMT-6e" d="M 422 0 
L 422 3319 
L 928 3319 
L 928 2847 
Q 1294 3394 1984 3394 
Q 2284 3394 2536 3286 
Q 2788 3178 2913 3003 
Q 3038 2828 3088 2588 
Q 3119 2431 3119 2041 
L 3119 0 
L 2556 0 
L 2556 2019 
Q 2556 2363 2490 2533 
Q 2425 2703 2258 2804 
Q 2091 2906 1866 2906 
Q 1506 2906 1245 2678 
Q 984 2450 984 1813 
L 984 0 
L 422 0 
z
" transform="scale(0.015625)"/>
       <path id="ArialMT-2d" d="M 203 1375 
L 203 1941 
L 1931 1941 
L 1931 1375 
L 203 1375 
z
" transform="scale(0.015625)"/>
       <path id="ArialMT-61" d="M 2588 409 
Q 2275 144 1986 34 
Q 1697 -75 1366 -75 
Q 819 -75 525 192 
Q 231 459 231 875 
Q 231 1119 342 1320 
Q 453 1522 633 1644 
Q 813 1766 1038 1828 
Q 1203 1872 1538 1913 
Q 2219 1994 2541 2106 
Q 2544 2222 2544 2253 
Q 2544 2597 2384 2738 
Q 2169 2928 1744 2928 
Q 1347 2928 1158 2789 
Q 969 2650 878 2297 
L 328 2372 
Q 403 2725 575 2942 
Q 747 3159 1072 3276 
Q 1397 3394 1825 3394 
Q 2250 3394 2515 3294 
Q 2781 3194 2906 3042 
Q 3031 2891 3081 2659 
Q 3109 2516 3109 2141 
L 3109 1391 
Q 3109 606 3145 398 
Q 3181 191 3288 0 
L 2700 0 
Q 2613 175 2588 409 
z
M 2541 1666 
Q 2234 1541 1622 1453 
Q 1275 1403 1131 1340 
Q 988 1278 909 1158 
Q 831 1038 831 891 
Q 831 666 1001 516 
Q 1172 366 1500 366 
Q 1825 366 2078 508 
Q 2331 650 2450 897 
Q 2541 1088 2541 1459 
L 2541 1666 
z
" transform="scale(0.015625)"/>
       <path id="ArialMT-73" d="M 197 991 
L 753 1078 
Q 800 744 1014 566 
Q 1228 388 1613 388 
Q 2000 388 2187 545 
Q 2375 703 2375 916 
Q 2375 1106 2209 1216 
Q 2094 1291 1634 1406 
Q 1016 1563 777 1677 
Q 538 1791 414 1992 
Q 291 2194 291 2438 
Q 291 2659 392 2848 
Q 494 3038 669 3163 
Q 800 3259 1026 3326 
Q 1253 3394 1513 3394 
Q 1903 3394 2198 3281 
Q 2494 3169 2634 2976 
Q 2775 2784 2828 2463 
L 2278 2388 
Q 2241 2644 2061 2787 
Q 1881 2931 1553 2931 
Q 1166 2931 1000 2803 
Q 834 2675 834 2503 
Q 834 2394 903 2306 
Q 972 2216 1119 2156 
Q 1203 2125 1616 2013 
Q 2213 1853 2448 1751 
Q 2684 1650 2818 1456 
Q 2953 1263 2953 975 
Q 2953 694 2789 445 
Q 2625 197 2315 61 
Q 2006 -75 1616 -75 
Q 969 -75 630 194 
Q 291 463 197 991 
z
" transform="scale(0.015625)"/>
       <path id="ArialMT-65" d="M 2694 1069 
L 3275 997 
Q 3138 488 2766 206 
Q 2394 -75 1816 -75 
Q 1088 -75 661 373 
Q 234 822 234 1631 
Q 234 2469 665 2931 
Q 1097 3394 1784 3394 
Q 2450 3394 2872 2941 
Q 3294 2488 3294 1666 
Q 3294 1616 3291 1516 
L 816 1516 
Q 847 969 1125 678 
Q 1403 388 1819 388 
Q 2128 388 2347 550 
Q 2566 713 2694 1069 
z
M 847 1978 
L 2700 1978 
Q 2663 2397 2488 2606 
Q 2219 2931 1791 2931 
Q 1403 2931 1139 2672 
Q 875 2413 847 1978 
z
" transform="scale(0.015625)"/>
       <path id="ArialMT-6d" d="M 422 0 
L 422 3319 
L 925 3319 
L 925 2853 
Q 1081 3097 1340 3245 
Q 1600 3394 1931 3394 
Q 2300 3394 2536 3241 
Q 2772 3088 2869 2813 
Q 3263 3394 3894 3394 
Q 4388 3394 4653 3120 
Q 4919 2847 4919 2278 
L 4919 0 
L 4359 0 
L 4359 2091 
Q 4359 2428 4304 2576 
Q 4250 2725 4106 2815 
Q 3963 2906 3769 2906 
Q 3419 2906 3187 2673 
Q 2956 2441 2956 1928 
L 2956 0 
L 2394 0 
L 2394 2156 
Q 2394 2531 2256 2718 
Q 2119 2906 1806 2906 
Q 1569 2906 1367 2781 
Q 1166 2656 1075 2415 
Q 984 2175 984 1722 
L 984 0 
L 422 0 
z
" transform="scale(0.015625)"/>
       <path id="ArialMT-62" d="M 941 0 
L 419 0 
L 419 4581 
L 981 4581 
L 981 2947 
Q 1338 3394 1891 3394 
Q 2197 3394 2470 3270 
Q 2744 3147 2920 2923 
Q 3097 2700 3197 2384 
Q 3297 2069 3297 1709 
Q 3297 856 2875 390 
Q 2453 -75 1863 -75 
Q 1275 -75 941 416 
L 941 0 
z
M 934 1684 
Q 934 1088 1097 822 
Q 1363 388 1816 388 
Q 2184 388 2453 708 
Q 2722 1028 2722 1663 
Q 2722 2313 2464 2622 
Q 2206 2931 1841 2931 
Q 1472 2931 1203 2611 
Q 934 2291 934 1684 
z
" transform="scale(0.015625)"/>
       <path id="ArialMT-6c" d="M 409 0 
L 409 4581 
L 972 4581 
L 972 0 
L 409 0 
z
" transform="scale(0.015625)"/>
       <path id="ArialMT-67" d="M 319 -275 
L 866 -356 
Q 900 -609 1056 -725 
Q 1266 -881 1628 -881 
Q 2019 -881 2231 -725 
Q 2444 -569 2519 -288 
Q 2563 -116 2559 434 
Q 2191 0 1641 0 
Q 956 0 581 494 
Q 206 988 206 1678 
Q 206 2153 378 2554 
Q 550 2956 876 3175 
Q 1203 3394 1644 3394 
Q 2231 3394 2613 2919 
L 2613 3319 
L 3131 3319 
L 3131 450 
Q 3131 -325 2973 -648 
Q 2816 -972 2473 -1159 
Q 2131 -1347 1631 -1347 
Q 1038 -1347 672 -1080 
Q 306 -813 319 -275 
z
M 784 1719 
Q 784 1066 1043 766 
Q 1303 466 1694 466 
Q 2081 466 2343 764 
Q 2606 1063 2606 1700 
Q 2606 2309 2336 2618 
Q 2066 2928 1684 2928 
Q 1309 2928 1046 2623 
Q 784 2319 784 1719 
z
" transform="scale(0.015625)"/>
       <path id="ArialMT-20" transform="scale(0.015625)"/>
       <path id="ArialMT-64" d="M 2575 0 
L 2575 419 
Q 2259 -75 1647 -75 
Q 1250 -75 917 144 
Q 584 363 401 755 
Q 219 1147 219 1656 
Q 219 2153 384 2558 
Q 550 2963 881 3178 
Q 1213 3394 1622 3394 
Q 1922 3394 2156 3267 
Q 2391 3141 2538 2938 
L 2538 4581 
L 3097 4581 
L 3097 0 
L 2575 0 
z
M 797 1656 
Q 797 1019 1065 703 
Q 1334 388 1700 388 
Q 2069 388 2326 689 
Q 2584 991 2584 1609 
Q 2584 2291 2321 2609 
Q 2059 2928 1675 2928 
Q 1300 2928 1048 2622 
Q 797 2316 797 1656 
z
" transform="scale(0.015625)"/>
       <path id="ArialMT-76" d="M 1344 0 
L 81 3319 
L 675 3319 
L 1388 1331 
Q 1503 1009 1600 663 
Q 1675 925 1809 1294 
L 2547 3319 
L 3125 3319 
L 1869 0 
L 1344 0 
z
" transform="scale(0.015625)"/>
       <path id="ArialMT-72" d="M 416 0 
L 416 3319 
L 922 3319 
L 922 2816 
Q 1116 3169 1280 3281 
Q 1444 3394 1641 3394 
Q 1925 3394 2219 3213 
L 2025 2691 
Q 1819 2813 1613 2813 
Q 1428 2813 1281 2702 
Q 1134 2591 1072 2394 
Q 978 2094 978 1738 
L 978 0 
L 416 0 
z
" transform="scale(0.015625)"/>
       <path id="ArialMT-79" d="M 397 -1278 
L 334 -750 
Q 519 -800 656 -800 
Q 844 -800 956 -737 
Q 1069 -675 1141 -563 
Q 1194 -478 1313 -144 
Q 1328 -97 1363 -6 
L 103 3319 
L 709 3319 
L 1400 1397 
Q 1534 1031 1641 628 
Q 1738 1016 1872 1384 
L 2581 3319 
L 3144 3319 
L 1881 -56 
Q 1678 -603 1566 -809 
Q 1416 -1088 1222 -1217 
Q 1028 -1347 759 -1347 
Q 597 -1347 397 -1278 
z
" transform="scale(0.015625)"/>
       <path id="ArialMT-28" d="M 1497 -1347 
Q 1031 -759 709 28 
Q 388 816 388 1659 
Q 388 2403 628 3084 
Q 909 3875 1497 4659 
L 1900 4659 
Q 1522 4009 1400 3731 
Q 1209 3300 1100 2831 
Q 966 2247 966 1656 
Q 966 153 1900 -1347 
L 1497 -1347 
z
" transform="scale(0.015625)"/>
       <path id="DejaVuSans-Oblique-3b8" d="M 2913 2219 
L 925 2219 
Q 791 1284 928 888 
Q 1100 400 1566 400 
Q 2034 400 2391 891 
Q 2703 1322 2913 2219 
z
M 3009 2750 
Q 3094 3638 2984 3950 
Q 2813 4444 2353 4444 
Q 1875 4444 1525 3956 
Q 1250 3563 1034 2750 
L 3009 2750 
z
M 2444 4913 
Q 3194 4913 3494 4250 
Q 3794 3591 3566 2422 
Q 3341 1256 2781 594 
Q 2225 -72 1475 -72 
Q 722 -72 425 594 
Q 128 1256 353 2422 
Q 581 3591 1134 4250 
Q 1691 4913 2444 4913 
z
" transform="scale(0.015625)"/>
       <path id="DejaVuSans-Oblique-45" d="M 1081 4666 
L 4031 4666 
L 3928 4134 
L 1606 4134 
L 1338 2753 
L 3566 2753 
L 3463 2222 
L 1234 2222 
L 909 531 
L 3284 531 
L 3181 0 
L 172 0 
L 1081 4666 
z
" transform="scale(0.015625)"/>
       <path id="ArialMT-29" d="M 791 -1347 
L 388 -1347 
Q 1322 153 1322 1656 
Q 1322 2244 1188 2822 
Q 1081 3291 891 3722 
Q 769 4003 388 4659 
L 791 4659 
Q 1378 3875 1659 3084 
Q 1900 2403 1900 1659 
Q 1900 816 1576 28 
Q 1253 -759 791 -1347 
z
" transform="scale(0.015625)"/>
      </defs>
      <use xlink:href="#ArialMT-77" transform="translate(0 0.234375)"/>
      <use xlink:href="#ArialMT-69" transform="translate(72.216797 0.234375)"/>
      <use xlink:href="#ArialMT-74" transform="translate(94.433594 0.234375)"/>
      <use xlink:href="#ArialMT-68" transform="translate(122.216797 0.234375)"/>
      <use xlink:href="#ArialMT-69" transform="translate(177.832031 0.234375)"/>
      <use xlink:href="#ArialMT-6e" transform="translate(200.048828 0.234375)"/>
      <use xlink:href="#ArialMT-2d" transform="translate(255.664062 0.234375)"/>
      <use xlink:href="#ArialMT-61" transform="translate(288.964844 0.234375)"/>
      <use xlink:href="#ArialMT-73" transform="translate(344.580078 0.234375)"/>
      <use xlink:href="#ArialMT-73" transform="translate(394.580078 0.234375)"/>
      <use xlink:href="#ArialMT-65" transform="translate(444.580078 0.234375)"/>
      <use xlink:href="#ArialMT-6d" transform="translate(500.195312 0.234375)"/>
      <use xlink:href="#ArialMT-62" transform="translate(583.496094 0.234375)"/>
      <use xlink:href="#ArialMT-6c" transform="translate(639.111328 0.234375)"/>
      <use xlink:href="#ArialMT-61" transform="translate(661.328125 0.234375)"/>
      <use xlink:href="#ArialMT-67" transform="translate(716.943359 0.234375)"/>
      <use xlink:href="#ArialMT-65" transform="translate(772.558594 0.234375)"/>
      <use xlink:href="#ArialMT-20" transform="translate(828.173828 0.234375)"/>
      <use xlink:href="#ArialMT-64" transform="translate(855.957031 0.234375)"/>
      <use xlink:href="#ArialMT-69" transform="translate(911.572266 0.234375)"/>
      <use xlink:href="#ArialMT-76" transform="translate(933.789062 0.234375)"/>
      <use xlink:href="#ArialMT-65" transform="translate(983.789062 0.234375)"/>
      <use xlink:href="#ArialMT-72" transform="translate(1039.404297 0.234375)"/>
      <use xlink:href="#ArialMT-73" transform="translate(1072.705078 0.234375)"/>
      <use xlink:href="#ArialMT-69" transform="translate(1122.705078 0.234375)"/>
      <use xlink:href="#ArialMT-74" transform="translate(1144.921875 0.234375)"/>
      <use xlink:href="#ArialMT-79" transform="translate(1172.705078 0.234375)"/>
      <use xlink:href="#ArialMT-20" transform="translate(1222.705078 0.234375)"/>
      <use xlink:href="#ArialMT-28" transform="translate(1250.488281 0.234375)"/>
      <use xlink:href="#DejaVuSans-Oblique-3b8" transform="translate(1283.789062 0.234375)"/>
      <use xlink:href="#DejaVuSans-Oblique-45" transform="translate(1344.970703 -16.171875) scale(0.7)"/>
      <use xlink:href="#ArialMT-29" transform="translate(1391.933594 0.234375)"/>
     </g>
    </g>
   </g>
   <g id="matplotlib.axis_2">
    <g id="ytick_1">
     <g id="line2d_5">
      <defs>
       <path id="m469327d899" d="M 0 0 
L -3.5 0 
" style="stroke: #000000; stroke-width: 0.8"/>
      </defs>
      <g>
       <use xlink:href="#m469327d899" x="37.65625" y="158.314092" style="stroke: #000000; stroke-width: 0.8"/>
      </g>
     </g>
     <g id="text_6">
      <!-- 0.2 -->
      <g transform="translate(19.53625 161.177217) scale(0.08 -0.08)">
       <use xlink:href="#ArialMT-30"/>
       <use xlink:href="#ArialMT-2e" transform="translate(55.615234 0)"/>
       <use xlink:href="#ArialMT-32" transform="translate(83.398438 0)"/>
      </g>
     </g>
    </g>
    <g id="ytick_2">
     <g id="line2d_6">
      <g>
       <use xlink:href="#m469327d899" x="37.65625" y="125.410821" style="stroke: #000000; stroke-width: 0.8"/>
      </g>
     </g>
     <g id="text_7">
      <!-- 0.3 -->
      <g transform="translate(19.53625 128.273946) scale(0.08 -0.08)">
       <defs>
        <path id="ArialMT-33" d="M 269 1209 
L 831 1284 
Q 928 806 1161 595 
Q 1394 384 1728 384 
Q 2125 384 2398 659 
Q 2672 934 2672 1341 
Q 2672 1728 2419 1979 
Q 2166 2231 1775 2231 
Q 1616 2231 1378 2169 
L 1441 2663 
Q 1497 2656 1531 2656 
Q 1891 2656 2178 2843 
Q 2466 3031 2466 3422 
Q 2466 3731 2256 3934 
Q 2047 4138 1716 4138 
Q 1388 4138 1169 3931 
Q 950 3725 888 3313 
L 325 3413 
Q 428 3978 793 4289 
Q 1159 4600 1703 4600 
Q 2078 4600 2393 4439 
Q 2709 4278 2876 4000 
Q 3044 3722 3044 3409 
Q 3044 3113 2884 2869 
Q 2725 2625 2413 2481 
Q 2819 2388 3044 2092 
Q 3269 1797 3269 1353 
Q 3269 753 2831 336 
Q 2394 -81 1725 -81 
Q 1122 -81 723 278 
Q 325 638 269 1209 
z
" transform="scale(0.015625)"/>
       </defs>
       <use xlink:href="#ArialMT-30"/>
       <use xlink:href="#ArialMT-2e" transform="translate(55.615234 0)"/>
       <use xlink:href="#ArialMT-33" transform="translate(83.398438 0)"/>
      </g>
     </g>
    </g>
    <g id="ytick_3">
     <g id="line2d_7">
      <g>
       <use xlink:href="#m469327d899" x="37.65625" y="92.507551" style="stroke: #000000; stroke-width: 0.8"/>
      </g>
     </g>
     <g id="text_8">
      <!-- 0.4 -->
      <g transform="translate(19.53625 95.370676) scale(0.08 -0.08)">
       <defs>
        <path id="ArialMT-34" d="M 2069 0 
L 2069 1097 
L 81 1097 
L 81 1613 
L 2172 4581 
L 2631 4581 
L 2631 1613 
L 3250 1613 
L 3250 1097 
L 2631 1097 
L 2631 0 
L 2069 0 
z
M 2069 1613 
L 2069 3678 
L 634 1613 
L 2069 1613 
z
" transform="scale(0.015625)"/>
       </defs>
       <use xlink:href="#ArialMT-30"/>
       <use xlink:href="#ArialMT-2e" transform="translate(55.615234 0)"/>
       <use xlink:href="#ArialMT-34" transform="translate(83.398438 0)"/>
      </g>
     </g>
    </g>
    <g id="ytick_4">
     <g id="line2d_8">
      <g>
       <use xlink:href="#m469327d899" x="37.65625" y="59.60428" style="stroke: #000000; stroke-width: 0.8"/>
      </g>
     </g>
     <g id="text_9">
      <!-- 0.5 -->
      <g transform="translate(19.53625 62.467405) scale(0.08 -0.08)">
       <use xlink:href="#ArialMT-30"/>
       <use xlink:href="#ArialMT-2e" transform="translate(55.615234 0)"/>
       <use xlink:href="#ArialMT-35" transform="translate(83.398438 0)"/>
      </g>
     </g>
    </g>
    <g id="ytick_5">
     <g id="line2d_9">
      <g>
       <use xlink:href="#m469327d899" x="37.65625" y="26.70101" style="stroke: #000000; stroke-width: 0.8"/>
      </g>
     </g>
     <g id="text_10">
      <!-- 0.6 -->
      <g transform="translate(19.53625 29.564135) scale(0.08 -0.08)">
       <defs>
        <path id="ArialMT-36" d="M 3184 3459 
L 2625 3416 
Q 2550 3747 2413 3897 
Q 2184 4138 1850 4138 
Q 1581 4138 1378 3988 
Q 1113 3794 959 3422 
Q 806 3050 800 2363 
Q 1003 2672 1297 2822 
Q 1591 2972 1913 2972 
Q 2475 2972 2870 2558 
Q 3266 2144 3266 1488 
Q 3266 1056 3080 686 
Q 2894 316 2569 119 
Q 2244 -78 1831 -78 
Q 1128 -78 684 439 
Q 241 956 241 2144 
Q 241 3472 731 4075 
Q 1159 4600 1884 4600 
Q 2425 4600 2770 4297 
Q 3116 3994 3184 3459 
z
M 888 1484 
Q 888 1194 1011 928 
Q 1134 663 1356 523 
Q 1578 384 1822 384 
Q 2178 384 2434 671 
Q 2691 959 2691 1453 
Q 2691 1928 2437 2201 
Q 2184 2475 1800 2475 
Q 1419 2475 1153 2201 
Q 888 1928 888 1484 
z
" transform="scale(0.015625)"/>
       </defs>
       <use xlink:href="#ArialMT-30"/>
       <use xlink:href="#ArialMT-2e" transform="translate(55.615234 0)"/>
       <use xlink:href="#ArialMT-36" transform="translate(83.398438 0)"/>
      </g>
     </g>
    </g>
    <g id="text_11">
     <!-- mean interassemblage distance -->
     <g transform="translate(13.642031 162.207563) rotate(-90) scale(0.09 -0.09)">
      <defs>
       <path id="ArialMT-63" d="M 2588 1216 
L 3141 1144 
Q 3050 572 2676 248 
Q 2303 -75 1759 -75 
Q 1078 -75 664 370 
Q 250 816 250 1647 
Q 250 2184 428 2587 
Q 606 2991 970 3192 
Q 1334 3394 1763 3394 
Q 2303 3394 2647 3120 
Q 2991 2847 3088 2344 
L 2541 2259 
Q 2463 2594 2264 2762 
Q 2066 2931 1784 2931 
Q 1359 2931 1093 2626 
Q 828 2322 828 1663 
Q 828 994 1084 691 
Q 1341 388 1753 388 
Q 2084 388 2306 591 
Q 2528 794 2588 1216 
z
" transform="scale(0.015625)"/>
      </defs>
      <use xlink:href="#ArialMT-6d"/>
      <use xlink:href="#ArialMT-65" transform="translate(83.300781 0)"/>
      <use xlink:href="#ArialMT-61" transform="translate(138.916016 0)"/>
      <use xlink:href="#ArialMT-6e" transform="translate(194.53125 0)"/>
      <use xlink:href="#ArialMT-20" transform="translate(250.146484 0)"/>
      <use xlink:href="#ArialMT-69" transform="translate(277.929688 0)"/>
      <use xlink:href="#ArialMT-6e" transform="translate(300.146484 0)"/>
      <use xlink:href="#ArialMT-74" transform="translate(355.761719 0)"/>
      <use xlink:href="#ArialMT-65" transform="translate(383.544922 0)"/>
      <use xlink:href="#ArialMT-72" transform="translate(439.160156 0)"/>
      <use xlink:href="#ArialMT-61" transform="translate(472.460938 0)"/>
      <use xlink:href="#ArialMT-73" transform="translate(528.076172 0)"/>
      <use xlink:href="#ArialMT-73" transform="translate(578.076172 0)"/>
      <use xlink:href="#ArialMT-65" transform="translate(628.076172 0)"/>
      <use xlink:href="#ArialMT-6d" transform="translate(683.691406 0)"/>
      <use xlink:href="#ArialMT-62" transform="translate(766.992188 0)"/>
      <use xlink:href="#ArialMT-6c" transform="translate(822.607422 0)"/>
      <use xlink:href="#ArialMT-61" transform="translate(844.824219 0)"/>
      <use xlink:href="#ArialMT-67" transform="translate(900.439453 0)"/>
      <use xlink:href="#ArialMT-65" transform="translate(956.054688 0)"/>
      <use xlink:href="#ArialMT-20" transform="translate(1011.669922 0)"/>
      <use xlink:href="#ArialMT-64" transform="translate(1039.453125 0)"/>
      <use xlink:href="#ArialMT-69" transform="translate(1095.068359 0)"/>
      <use xlink:href="#ArialMT-73" transform="translate(1117.285156 0)"/>
      <use xlink:href="#ArialMT-74" transform="translate(1167.285156 0)"/>
      <use xlink:href="#ArialMT-61" transform="translate(1195.068359 0)"/>
      <use xlink:href="#ArialMT-6e" transform="translate(1250.683594 0)"/>
      <use xlink:href="#ArialMT-63" transform="translate(1306.298828 0)"/>
      <use xlink:href="#ArialMT-65" transform="translate(1356.298828 0)"/>
     </g>
    </g>
   </g>
   <g id="patch_3">
    <path d="M 37.65625 190.152 
L 37.65625 7.2 
" style="fill: none; stroke: #000000; stroke-width: 0.8; stroke-linejoin: miter; stroke-linecap: square"/>
   </g>
   <g id="patch_4">
    <path d="M 37.65625 190.152 
L 215.201705 190.152 
" style="fill: none; stroke: #000000; stroke-width: 0.8; stroke-linejoin: miter; stroke-linecap: square"/>
   </g>
   <g id="text_12">
    <!-- Parkin -->
    <g transform="translate(108.428924 159.318837) scale(0.07 -0.07)">
     <defs>
      <path id="ArialMT-50" d="M 494 0 
L 494 4581 
L 2222 4581 
Q 2678 4581 2919 4538 
Q 3256 4481 3484 4323 
Q 3713 4166 3852 3881 
Q 3991 3597 3991 3256 
Q 3991 2672 3619 2267 
Q 3247 1863 2275 1863 
L 1100 1863 
L 1100 0 
L 494 0 
z
M 1100 2403 
L 2284 2403 
Q 2872 2403 3119 2622 
Q 3366 2841 3366 3238 
Q 3366 3525 3220 3729 
Q 3075 3934 2838 4000 
Q 2684 4041 2272 4041 
L 1100 4041 
L 1100 2403 
z
" transform="scale(0.015625)"/>
      <path id="ArialMT-6b" d="M 425 0 
L 425 4581 
L 988 4581 
L 988 1969 
L 2319 3319 
L 3047 3319 
L 1778 2088 
L 3175 0 
L 2481 0 
L 1384 1697 
L 988 1316 
L 988 0 
L 425 0 
z
" transform="scale(0.015625)"/>
     </defs>
     <use xlink:href="#ArialMT-50"/>
     <use xlink:href="#ArialMT-61" transform="translate(66.699219 0)"/>
     <use xlink:href="#ArialMT-72" transform="translate(122.314453 0)"/>
     <use xlink:href="#ArialMT-6b" transform="translate(155.615234 0)"/>
     <use xlink:href="#ArialMT-69" transform="translate(205.615234 0)"/>
     <use xlink:href="#ArialMT-6e" transform="translate(227.832031 0)"/>
    </g>
   </g>
   <g id="text_13">
    <!-- $\rho$ = -0.28 (n.s.) -->
    <g transform="translate(146.834432 22.9176) scale(0.09 -0.09)">
     <defs>
      <path id="DejaVuSans-Oblique-3c1" d="M 1203 2875 
Q 1453 3194 1981 3475 
Q 2188 3584 2756 3584 
Q 3394 3584 3694 3078 
Q 3994 2572 3834 1747 
Q 3672 922 3175 415 
Q 2678 -91 2041 -91 
Q 1656 -91 1409 63 
Q 1163 213 1044 525 
L 681 -1331 
L 103 -1331 
L 697 1716 
Q 838 2438 1203 2875 
z
M 3238 1747 
Q 3359 2381 3169 2744 
Q 2978 3103 2522 3103 
Q 2066 3103 1734 2744 
Q 1403 2381 1281 1747 
Q 1156 1113 1347 750 
Q 1538 391 1994 391 
Q 2450 391 2781 750 
Q 3113 1113 3238 1747 
z
" transform="scale(0.015625)"/>
      <path id="ArialMT-3d" d="M 3381 2694 
L 356 2694 
L 356 3219 
L 3381 3219 
L 3381 2694 
z
M 3381 1303 
L 356 1303 
L 356 1828 
L 3381 1828 
L 3381 1303 
z
" transform="scale(0.015625)"/>
      <path id="ArialMT-38" d="M 1131 2484 
Q 781 2613 612 2850 
Q 444 3088 444 3419 
Q 444 3919 803 4259 
Q 1163 4600 1759 4600 
Q 2359 4600 2725 4251 
Q 3091 3903 3091 3403 
Q 3091 3084 2923 2848 
Q 2756 2613 2416 2484 
Q 2838 2347 3058 2040 
Q 3278 1734 3278 1309 
Q 3278 722 2862 322 
Q 2447 -78 1769 -78 
Q 1091 -78 675 323 
Q 259 725 259 1325 
Q 259 1772 486 2073 
Q 713 2375 1131 2484 
z
M 1019 3438 
Q 1019 3113 1228 2906 
Q 1438 2700 1772 2700 
Q 2097 2700 2305 2904 
Q 2513 3109 2513 3406 
Q 2513 3716 2298 3927 
Q 2084 4138 1766 4138 
Q 1444 4138 1231 3931 
Q 1019 3725 1019 3438 
z
M 838 1322 
Q 838 1081 952 856 
Q 1066 631 1291 507 
Q 1516 384 1775 384 
Q 2178 384 2440 643 
Q 2703 903 2703 1303 
Q 2703 1709 2433 1975 
Q 2163 2241 1756 2241 
Q 1359 2241 1098 1978 
Q 838 1716 838 1322 
z
" transform="scale(0.015625)"/>
     </defs>
     <use xlink:href="#DejaVuSans-Oblique-3c1" transform="translate(0 0.203125)"/>
     <use xlink:href="#ArialMT-20" transform="translate(63.476562 0.203125)"/>
     <use xlink:href="#ArialMT-3d" transform="translate(91.259766 0.203125)"/>
     <use xlink:href="#ArialMT-20" transform="translate(149.658203 0.203125)"/>
     <use xlink:href="#ArialMT-2d" transform="translate(177.441406 0.203125)"/>
     <use xlink:href="#ArialMT-30" transform="translate(210.742188 0.203125)"/>
     <use xlink:href="#ArialMT-2e" transform="translate(266.357422 0.203125)"/>
     <use xlink:href="#ArialMT-32" transform="translate(294.140625 0.203125)"/>
     <use xlink:href="#ArialMT-38" transform="translate(349.755859 0.203125)"/>
     <use xlink:href="#ArialMT-20" transform="translate(405.371094 0.203125)"/>
     <use xlink:href="#ArialMT-28" transform="translate(433.154297 0.203125)"/>
     <use xlink:href="#ArialMT-6e" transform="translate(466.455078 0.203125)"/>
     <use xlink:href="#ArialMT-2e" transform="translate(522.070312 0.203125)"/>
     <use xlink:href="#ArialMT-73" transform="translate(549.853516 0.203125)"/>
     <use xlink:href="#ArialMT-2e" transform="translate(599.853516 0.203125)"/>
     <use xlink:href="#ArialMT-29" transform="translate(627.636719 0.203125)"/>
    </g>
   </g>
   <g id="PathCollection_2">
    <defs>
     <path id="me991958cc8" d="M 0 -4.472136 
L -1.004057 -1.381966 
L -4.253254 -1.381966 
L -1.624598 0.527864 
L -2.628656 3.618034 
L -0 1.708204 
L 2.628656 3.618034 
L 1.624598 0.527864 
L 4.253254 -1.381966 
L 1.004057 -1.381966 
z
" style="stroke: #333333; stroke-width: 0.4"/>
    </defs>
    <g clip-path="url(#pd8e07deb5c)">
     <use xlink:href="#me991958cc8" x="104.428924" y="163.318837" style="fill: #808080; stroke: #333333; stroke-width: 0.4"/>
    </g>
   </g>
  </g>
  <g id="axes_2">
   <g id="patch_5">
    <path d="M 250.710795 190.152 
L 428.25625 190.152 
L 428.25625 7.2 
L 250.710795 7.2 
z
" style="fill: #ffffff"/>
   </g>
   <g id="matplotlib.axis_3">
    <g id="xtick_5">
     <g id="line2d_10">
      <g>
       <use xlink:href="#m8ece3446cd" x="258.781043" y="190.152" style="stroke: #000000; stroke-width: 0.8"/>
      </g>
     </g>
     <g id="text_14">
      <!-- 0 -->
      <g transform="translate(256.556668 202.87825) scale(0.08 -0.08)">
       <use xlink:href="#ArialMT-30"/>
      </g>
     </g>
    </g>
    <g id="xtick_6">
     <g id="line2d_11">
      <g>
       <use xlink:href="#m8ece3446cd" x="291.062035" y="190.152" style="stroke: #000000; stroke-width: 0.8"/>
      </g>
     </g>
     <g id="text_15">
      <!-- 1 -->
      <g transform="translate(288.83766 202.87825) scale(0.08 -0.08)">
       <use xlink:href="#ArialMT-31"/>
      </g>
     </g>
    </g>
    <g id="xtick_7">
     <g id="line2d_12">
      <g>
       <use xlink:href="#m8ece3446cd" x="323.343027" y="190.152" style="stroke: #000000; stroke-width: 0.8"/>
      </g>
     </g>
     <g id="text_16">
      <!-- 2 -->
      <g transform="translate(321.118652 202.87825) scale(0.08 -0.08)">
       <use xlink:href="#ArialMT-32"/>
      </g>
     </g>
    </g>
    <g id="xtick_8">
     <g id="line2d_13">
      <g>
       <use xlink:href="#m8ece3446cd" x="355.624019" y="190.152" style="stroke: #000000; stroke-width: 0.8"/>
      </g>
     </g>
     <g id="text_17">
      <!-- 3 -->
      <g transform="translate(353.399644 202.87825) scale(0.08 -0.08)">
       <use xlink:href="#ArialMT-33"/>
      </g>
     </g>
    </g>
    <g id="xtick_9">
     <g id="line2d_14">
      <g>
       <use xlink:href="#m8ece3446cd" x="387.90501" y="190.152" style="stroke: #000000; stroke-width: 0.8"/>
      </g>
     </g>
     <g id="text_18">
      <!-- 4 -->
      <g transform="translate(385.680635 202.87825) scale(0.08 -0.08)">
       <use xlink:href="#ArialMT-34"/>
      </g>
     </g>
    </g>
    <g id="xtick_10">
     <g id="line2d_15">
      <g>
       <use xlink:href="#m8ece3446cd" x="420.186002" y="190.152" style="stroke: #000000; stroke-width: 0.8"/>
      </g>
     </g>
     <g id="text_19">
      <!-- 5 -->
      <g transform="translate(417.961627 202.87825) scale(0.08 -0.08)">
       <use xlink:href="#ArialMT-35"/>
      </g>
     </g>
    </g>
    <g id="text_20">
     <!-- CA seriation bin (early to late) -->
     <g transform="translate(280.458991 215.019969) scale(0.09 -0.09)">
      <defs>
       <path id="ArialMT-43" d="M 3763 1606 
L 4369 1453 
Q 4178 706 3683 314 
Q 3188 -78 2472 -78 
Q 1731 -78 1267 223 
Q 803 525 561 1097 
Q 319 1669 319 2325 
Q 319 3041 592 3573 
Q 866 4106 1370 4382 
Q 1875 4659 2481 4659 
Q 3169 4659 3637 4309 
Q 4106 3959 4291 3325 
L 3694 3184 
Q 3534 3684 3231 3912 
Q 2928 4141 2469 4141 
Q 1941 4141 1586 3887 
Q 1231 3634 1087 3207 
Q 944 2781 944 2328 
Q 944 1744 1114 1308 
Q 1284 872 1643 656 
Q 2003 441 2422 441 
Q 2931 441 3284 734 
Q 3638 1028 3763 1606 
z
" transform="scale(0.015625)"/>
       <path id="ArialMT-41" d="M -9 0 
L 1750 4581 
L 2403 4581 
L 4278 0 
L 3588 0 
L 3053 1388 
L 1138 1388 
L 634 0 
L -9 0 
z
M 1313 1881 
L 2866 1881 
L 2388 3150 
Q 2169 3728 2063 4100 
Q 1975 3659 1816 3225 
L 1313 1881 
z
" transform="scale(0.015625)"/>
       <path id="ArialMT-6f" d="M 213 1659 
Q 213 2581 725 3025 
Q 1153 3394 1769 3394 
Q 2453 3394 2887 2945 
Q 3322 2497 3322 1706 
Q 3322 1066 3130 698 
Q 2938 331 2570 128 
Q 2203 -75 1769 -75 
Q 1072 -75 642 372 
Q 213 819 213 1659 
z
M 791 1659 
Q 791 1022 1069 705 
Q 1347 388 1769 388 
Q 2188 388 2466 706 
Q 2744 1025 2744 1678 
Q 2744 2294 2464 2611 
Q 2184 2928 1769 2928 
Q 1347 2928 1069 2612 
Q 791 2297 791 1659 
z
" transform="scale(0.015625)"/>
      </defs>
      <use xlink:href="#ArialMT-43"/>
      <use xlink:href="#ArialMT-41" transform="translate(72.216797 0)"/>
      <use xlink:href="#ArialMT-20" transform="translate(133.416016 0)"/>
      <use xlink:href="#ArialMT-73" transform="translate(161.199219 0)"/>
      <use xlink:href="#ArialMT-65" transform="translate(211.199219 0)"/>
      <use xlink:href="#ArialMT-72" transform="translate(266.814453 0)"/>
      <use xlink:href="#ArialMT-69" transform="translate(300.115234 0)"/>
      <use xlink:href="#ArialMT-61" transform="translate(322.332031 0)"/>
      <use xlink:href="#ArialMT-74" transform="translate(377.947266 0)"/>
      <use xlink:href="#ArialMT-69" transform="translate(405.730469 0)"/>
      <use xlink:href="#ArialMT-6f" transform="translate(427.947266 0)"/>
      <use xlink:href="#ArialMT-6e" transform="translate(483.5625 0)"/>
      <use xlink:href="#ArialMT-20" transform="translate(539.177734 0)"/>
      <use xlink:href="#ArialMT-62" transform="translate(566.960938 0)"/>
      <use xlink:href="#ArialMT-69" transform="translate(622.576172 0)"/>
      <use xlink:href="#ArialMT-6e" transform="translate(644.792969 0)"/>
      <use xlink:href="#ArialMT-20" transform="translate(700.408203 0)"/>
      <use xlink:href="#ArialMT-28" transform="translate(728.191406 0)"/>
      <use xlink:href="#ArialMT-65" transform="translate(761.492188 0)"/>
      <use xlink:href="#ArialMT-61" transform="translate(817.107422 0)"/>
      <use xlink:href="#ArialMT-72" transform="translate(872.722656 0)"/>
      <use xlink:href="#ArialMT-6c" transform="translate(906.023438 0)"/>
      <use xlink:href="#ArialMT-79" transform="translate(928.240234 0)"/>
      <use xlink:href="#ArialMT-20" transform="translate(978.240234 0)"/>
      <use xlink:href="#ArialMT-74" transform="translate(1006.023438 0)"/>
      <use xlink:href="#ArialMT-6f" transform="translate(1033.806641 0)"/>
      <use xlink:href="#ArialMT-20" transform="translate(1089.421875 0)"/>
      <use xlink:href="#ArialMT-6c" transform="translate(1117.205078 0)"/>
      <use xlink:href="#ArialMT-61" transform="translate(1139.421875 0)"/>
      <use xlink:href="#ArialMT-74" transform="translate(1195.037109 0)"/>
      <use xlink:href="#ArialMT-65" transform="translate(1222.820312 0)"/>
      <use xlink:href="#ArialMT-29" transform="translate(1278.435547 0)"/>
     </g>
    </g>
   </g>
   <g id="matplotlib.axis_4">
    <g id="ytick_6">
     <g id="line2d_16">
      <g>
       <use xlink:href="#m469327d899" x="250.710795" y="187.216605" style="stroke: #000000; stroke-width: 0.8"/>
      </g>
     </g>
     <g id="text_21">
      <!-- 0.00 -->
      <g transform="translate(228.142045 190.07973) scale(0.08 -0.08)">
       <use xlink:href="#ArialMT-30"/>
       <use xlink:href="#ArialMT-2e" transform="translate(55.615234 0)"/>
       <use xlink:href="#ArialMT-30" transform="translate(83.398438 0)"/>
       <use xlink:href="#ArialMT-30" transform="translate(139.013672 0)"/>
      </g>
     </g>
    </g>
    <g id="ytick_7">
     <g id="line2d_17">
      <g>
       <use xlink:href="#m469327d899" x="250.710795" y="166.190776" style="stroke: #000000; stroke-width: 0.8"/>
      </g>
     </g>
     <g id="text_22">
      <!-- 0.05 -->
      <g transform="translate(228.142045 169.053901) scale(0.08 -0.08)">
       <use xlink:href="#ArialMT-30"/>
       <use xlink:href="#ArialMT-2e" transform="translate(55.615234 0)"/>
       <use xlink:href="#ArialMT-30" transform="translate(83.398438 0)"/>
       <use xlink:href="#ArialMT-35" transform="translate(139.013672 0)"/>
      </g>
     </g>
    </g>
    <g id="ytick_8">
     <g id="line2d_18">
      <g>
       <use xlink:href="#m469327d899" x="250.710795" y="145.164946" style="stroke: #000000; stroke-width: 0.8"/>
      </g>
     </g>
     <g id="text_23">
      <!-- 0.10 -->
      <g transform="translate(228.142045 148.028071) scale(0.08 -0.08)">
       <use xlink:href="#ArialMT-30"/>
       <use xlink:href="#ArialMT-2e" transform="translate(55.615234 0)"/>
       <use xlink:href="#ArialMT-31" transform="translate(83.398438 0)"/>
       <use xlink:href="#ArialMT-30" transform="translate(139.013672 0)"/>
      </g>
     </g>
    </g>
    <g id="ytick_9">
     <g id="line2d_19">
      <g>
       <use xlink:href="#m469327d899" x="250.710795" y="124.139117" style="stroke: #000000; stroke-width: 0.8"/>
      </g>
     </g>
     <g id="text_24">
      <!-- 0.15 -->
      <g transform="translate(228.142045 127.002242) scale(0.08 -0.08)">
       <use xlink:href="#ArialMT-30"/>
       <use xlink:href="#ArialMT-2e" transform="translate(55.615234 0)"/>
       <use xlink:href="#ArialMT-31" transform="translate(83.398438 0)"/>
       <use xlink:href="#ArialMT-35" transform="translate(139.013672 0)"/>
      </g>
     </g>
    </g>
    <g id="ytick_10">
     <g id="line2d_20">
      <g>
       <use xlink:href="#m469327d899" x="250.710795" y="103.113288" style="stroke: #000000; stroke-width: 0.8"/>
      </g>
     </g>
     <g id="text_25">
      <!-- 0.20 -->
      <g transform="translate(228.142045 105.976413) scale(0.08 -0.08)">
       <use xlink:href="#ArialMT-30"/>
       <use xlink:href="#ArialMT-2e" transform="translate(55.615234 0)"/>
       <use xlink:href="#ArialMT-32" transform="translate(83.398438 0)"/>
       <use xlink:href="#ArialMT-30" transform="translate(139.013672 0)"/>
      </g>
     </g>
    </g>
    <g id="ytick_11">
     <g id="line2d_21">
      <g>
       <use xlink:href="#m469327d899" x="250.710795" y="82.087458" style="stroke: #000000; stroke-width: 0.8"/>
      </g>
     </g>
     <g id="text_26">
      <!-- 0.25 -->
      <g transform="translate(228.142045 84.950583) scale(0.08 -0.08)">
       <use xlink:href="#ArialMT-30"/>
       <use xlink:href="#ArialMT-2e" transform="translate(55.615234 0)"/>
       <use xlink:href="#ArialMT-32" transform="translate(83.398438 0)"/>
       <use xlink:href="#ArialMT-35" transform="translate(139.013672 0)"/>
      </g>
     </g>
    </g>
    <g id="ytick_12">
     <g id="line2d_22">
      <g>
       <use xlink:href="#m469327d899" x="250.710795" y="61.061629" style="stroke: #000000; stroke-width: 0.8"/>
      </g>
     </g>
     <g id="text_27">
      <!-- 0.30 -->
      <g transform="translate(228.142045 63.924754) scale(0.08 -0.08)">
       <use xlink:href="#ArialMT-30"/>
       <use xlink:href="#ArialMT-2e" transform="translate(55.615234 0)"/>
       <use xlink:href="#ArialMT-33" transform="translate(83.398438 0)"/>
       <use xlink:href="#ArialMT-30" transform="translate(139.013672 0)"/>
      </g>
     </g>
    </g>
    <g id="ytick_13">
     <g id="line2d_23">
      <g>
       <use xlink:href="#m469327d899" x="250.710795" y="40.0358" style="stroke: #000000; stroke-width: 0.8"/>
      </g>
     </g>
     <g id="text_28">
      <!-- 0.35 -->
      <g transform="translate(228.142045 42.898925) scale(0.08 -0.08)">
       <use xlink:href="#ArialMT-30"/>
       <use xlink:href="#ArialMT-2e" transform="translate(55.615234 0)"/>
       <use xlink:href="#ArialMT-33" transform="translate(83.398438 0)"/>
       <use xlink:href="#ArialMT-35" transform="translate(139.013672 0)"/>
      </g>
     </g>
    </g>
    <g id="ytick_14">
     <g id="line2d_24">
      <g>
       <use xlink:href="#m469327d899" x="250.710795" y="19.00997" style="stroke: #000000; stroke-width: 0.8"/>
      </g>
     </g>
     <g id="text_29">
      <!-- 0.40 -->
      <g transform="translate(228.142045 21.873095) scale(0.08 -0.08)">
       <use xlink:href="#ArialMT-30"/>
       <use xlink:href="#ArialMT-2e" transform="translate(55.615234 0)"/>
       <use xlink:href="#ArialMT-34" transform="translate(83.398438 0)"/>
       <use xlink:href="#ArialMT-30" transform="translate(139.013672 0)"/>
      </g>
     </g>
    </g>
    <g id="text_30">
     <!-- mean within-bin distance -->
     <g transform="translate(222.353295 148.199203) rotate(-90) scale(0.09 -0.09)">
      <use xlink:href="#ArialMT-6d"/>
      <use xlink:href="#ArialMT-65" transform="translate(83.300781 0)"/>
      <use xlink:href="#ArialMT-61" transform="translate(138.916016 0)"/>
      <use xlink:href="#ArialMT-6e" transform="translate(194.53125 0)"/>
      <use xlink:href="#ArialMT-20" transform="translate(250.146484 0)"/>
      <use xlink:href="#ArialMT-77" transform="translate(277.929688 0)"/>
      <use xlink:href="#ArialMT-69" transform="translate(350.146484 0)"/>
      <use xlink:href="#ArialMT-74" transform="translate(372.363281 0)"/>
      <use xlink:href="#ArialMT-68" transform="translate(400.146484 0)"/>
      <use xlink:href="#ArialMT-69" transform="translate(455.761719 0)"/>
      <use xlink:href="#ArialMT-6e" transform="translate(477.978516 0)"/>
      <use xlink:href="#ArialMT-2d" transform="translate(533.59375 0)"/>
      <use xlink:href="#ArialMT-62" transform="translate(566.894531 0)"/>
      <use xlink:href="#ArialMT-69" transform="translate(622.509766 0)"/>
      <use xlink:href="#ArialMT-6e" transform="translate(644.726562 0)"/>
      <use xlink:href="#ArialMT-20" transform="translate(700.341797 0)"/>
      <use xlink:href="#ArialMT-64" transform="translate(728.125 0)"/>
      <use xlink:href="#ArialMT-69" transform="translate(783.740234 0)"/>
      <use xlink:href="#ArialMT-73" transform="translate(805.957031 0)"/>
      <use xlink:href="#ArialMT-74" transform="translate(855.957031 0)"/>
      <use xlink:href="#ArialMT-61" transform="translate(883.740234 0)"/>
      <use xlink:href="#ArialMT-6e" transform="translate(939.355469 0)"/>
      <use xlink:href="#ArialMT-63" transform="translate(994.970703 0)"/>
      <use xlink:href="#ArialMT-65" transform="translate(1044.970703 0)"/>
     </g>
    </g>
   </g>
   <g id="line2d_25">
    <path d="M 258.781043 181.263631 
L 291.062035 181.836 
L 323.343027 15.516 
L 355.624019 109.08897 
L 387.90501 116.187039 
L 420.186002 164.152768 
" clip-path="url(#p603e9bab1a)" style="fill: none; stroke: #333333; stroke-width: 1.3; stroke-linecap: square"/>
    <defs>
     <path id="mc9ab7cf058" d="M 0 2.5 
C 0.663008 2.5 1.29895 2.236584 1.767767 1.767767 
C 2.236584 1.29895 2.5 0.663008 2.5 0 
C 2.5 -0.663008 2.236584 -1.29895 1.767767 -1.767767 
C 1.29895 -2.236584 0.663008 -2.5 0 -2.5 
C -0.663008 -2.5 -1.29895 -2.236584 -1.767767 -1.767767 
C -2.236584 -1.29895 -2.5 -0.663008 -2.5 0 
C -2.5 0.663008 -2.236584 1.29895 -1.767767 1.767767 
C -1.29895 2.236584 -0.663008 2.5 0 2.5 
z
" style="stroke: #333333"/>
    </defs>
    <g clip-path="url(#p603e9bab1a)">
     <use xlink:href="#mc9ab7cf058" x="258.781043" y="181.263631" style="fill: #333333; stroke: #333333"/>
     <use xlink:href="#mc9ab7cf058" x="291.062035" y="181.836" style="fill: #333333; stroke: #333333"/>
     <use xlink:href="#mc9ab7cf058" x="323.343027" y="15.516" style="fill: #333333; stroke: #333333"/>
     <use xlink:href="#mc9ab7cf058" x="355.624019" y="109.08897" style="fill: #333333; stroke: #333333"/>
     <use xlink:href="#mc9ab7cf058" x="387.90501" y="116.187039" style="fill: #333333; stroke: #333333"/>
     <use xlink:href="#mc9ab7cf058" x="420.186002" y="164.152768" style="fill: #333333; stroke: #333333"/>
    </g>
   </g>
   <g id="patch_6">
    <path d="M 250.710795 190.152 
L 250.710795 7.2 
" style="fill: none; stroke: #000000; stroke-width: 0.8; stroke-linejoin: miter; stroke-linecap: square"/>
   </g>
   <g id="patch_7">
    <path d="M 250.710795 190.152 
L 428.25625 190.152 
" style="fill: none; stroke: #000000; stroke-width: 0.8; stroke-linejoin: miter; stroke-linecap: square"/>
   </g>
   <g id="text_31">
    <!-- $\rho$ = +0.37 (n.s.) -->
    <g transform="translate(259.588068 22.9176) scale(0.09 -0.09)">
     <defs>
      <path id="ArialMT-2b" d="M 1603 741 
L 1603 1997 
L 356 1997 
L 356 2522 
L 1603 2522 
L 1603 3769 
L 2134 3769 
L 2134 2522 
L 3381 2522 
L 3381 1997 
L 2134 1997 
L 2134 741 
L 1603 741 
z
" transform="scale(0.015625)"/>
      <path id="ArialMT-37" d="M 303 3981 
L 303 4522 
L 3269 4522 
L 3269 4084 
Q 2831 3619 2401 2847 
Q 1972 2075 1738 1259 
Q 1569 684 1522 0 
L 944 0 
Q 953 541 1156 1306 
Q 1359 2072 1739 2783 
Q 2119 3494 2547 3981 
L 303 3981 
z
" transform="scale(0.015625)"/>
     </defs>
     <use xlink:href="#DejaVuSans-Oblique-3c1" transform="translate(0 0.203125)"/>
     <use xlink:href="#ArialMT-20" transform="translate(63.476562 0.203125)"/>
     <use xlink:href="#ArialMT-3d" transform="translate(91.259766 0.203125)"/>
     <use xlink:href="#ArialMT-20" transform="translate(149.658203 0.203125)"/>
     <use xlink:href="#ArialMT-2b" transform="translate(177.441406 0.203125)"/>
     <use xlink:href="#ArialMT-30" transform="translate(235.839844 0.203125)"/>
     <use xlink:href="#ArialMT-2e" transform="translate(291.455078 0.203125)"/>
     <use xlink:href="#ArialMT-33" transform="translate(319.238281 0.203125)"/>
     <use xlink:href="#ArialMT-37" transform="translate(374.853516 0.203125)"/>
     <use xlink:href="#ArialMT-20" transform="translate(430.46875 0.203125)"/>
     <use xlink:href="#ArialMT-28" transform="translate(458.251953 0.203125)"/>
     <use xlink:href="#ArialMT-6e" transform="translate(491.552734 0.203125)"/>
     <use xlink:href="#ArialMT-2e" transform="translate(547.167969 0.203125)"/>
     <use xlink:href="#ArialMT-73" transform="translate(574.951172 0.203125)"/>
     <use xlink:href="#ArialMT-2e" transform="translate(624.951172 0.203125)"/>
     <use xlink:href="#ArialMT-29" transform="translate(652.734375 0.203125)"/>
    </g>
   </g>
  </g>
 </g>
 <defs>
  <clipPath id="pd8e07deb5c">
   <rect x="37.65625" y="7.2" width="177.545455" height="182.952"/>
  </clipPath>
  <clipPath id="p603e9bab1a">
   <rect x="250.710795" y="7.2" width="177.545455" height="182.952"/>
  </clipPath>
 </defs>
</svg>
