<?xml version="1.0" encoding="utf-8" standalone="no"?>
<!DOCTYPE svg PUBLIC "-//W3C//DTD SVG 1.1//EN"
  "http://www.w3.org/Graphics/SVG/1.1/DTD/svg11.dtd">
<svg xmlns:xlink="http://www.w3.org/1999/xlink" width="413.569336pt" height="290.325705pt" viewBox="0 0 413.569336 290.325705" xmlns="http://www.w3.org/2000/svg" version="1.1">
 <metadata>
  <rdf:RDF xmlns:dc="http://purl.org/dc/elements/1.1/" xmlns:cc="http://creativecommons.org/ns#" xmlns:rdf="http://www.w3.org/1999/02/22-rdf-syntax-ns#">
   <cc:Work>
    <dc:type rdf:resource="http://purl.org/dc/dcmitype/StillImage"/>
    <dc:date>2026-09-22T06:52:55.165747</dc:date>
    <dc:format>image/svg+xml</dc:format>
    <dc:creator>
     <cc:Agent>
      <dc:title>Matplotlib v3.11.1, https://matplotlib.org/</dc:title>
     </cc:Agent>
    </dc:creator>
   </cc:Work>
  </rdf:RDF>
 </metadata>
 <defs>
  <style type="text/css">*{stroke-linejoin: round; stroke-linecap: butt}</style>
 </defs>
 <g id="figure_1">
  <g id="patch_1">
   <path d="M 0 290.325705 
L 413.569336 290.325705 
L 413.569336 0 
L 0 0 
z
" style="fill: #ffffff"/>
  </g>
  <g id="axes_1">
   <g id="patch_2">
    <path d="M 15.769336 116.684369 
L 84.902079 116.684369 
L 84.902079 19.532369 
L 15.769336 19.532369 
z
" style="fill: #ffffff"/>
   </g>
   <g id="patch_3">
    <path d="M 22.625884 116.684369 
L 25.911095 116.684369 
L 25.911095 115.39929 
L 22.625884 115.39929 
z
" clip-path="url(#p217bbde0c3)" style="fill: #404040; opacity: 0.55"/>
   </g>
   <g id="patch_4">
    <path d="M 25.911095 116.684369 
L 29.196306 116.684369 
L 29.196306 115.39929 
L 25.911095 115.39929 
z
" clip-path="url(#p217bbde0c3)" style="fill: #404040; opacity: 0.55"/>
   </g>
   <g id="patch_5">
    <path d="M 29.196306 116.684369 
L 32.481517 116.684369 
L 32.481517 114.11421 
L 29.196306 114.11421 
z
" clip-path="url(#p217bbde0c3)" style="fill: #404040; opacity: 0.55"/>
   </g>
   <g id="patch_6">
    <path d="M 32.481517 116.684369 
L 35.766728 116.684369 
L 35.766728 112.829131 
L 32.481517 112.829131 
z
" clip-path="url(#p217bbde0c3)" style="fill: #404040; opacity: 0.55"/>
   </g>
   <g id="patch_7">
    <path d="M 35.766728 116.684369 
L 39.051939 116.684369 
L 39.051939 105.118655 
L 35.766728 105.118655 
z
" clip-path="url(#p217bbde0c3)" style="fill: #404040; opacity: 0.55"/>
   </g>
   <g id="patch_8">
    <path d="M 39.051939 116.684369 
L 42.33715 116.684369 
L 42.33715 88.412623 
L 39.051939 88.412623 
z
" clip-path="url(#p217bbde0c3)" style="fill: #404040; opacity: 0.55"/>
   </g>
   <g id="patch_9">
    <path d="M 42.33715 116.684369 
L 45.622361 116.684369 
L 45.622361 83.272306 
L 42.33715 83.272306 
z
" clip-path="url(#p217bbde0c3)" style="fill: #404040; opacity: 0.55"/>
   </g>
   <g id="patch_10">
    <path d="M 45.622361 116.684369 
L 48.907572 116.684369 
L 48.907572 51.145321 
L 45.622361 51.145321 
z
" clip-path="url(#p217bbde0c3)" style="fill: #404040; opacity: 0.55"/>
   </g>
   <g id="patch_11">
    <path d="M 48.907572 116.684369 
L 52.192783 116.684369 
L 52.192783 44.719925 
L 48.907572 44.719925 
z
" clip-path="url(#p217bbde0c3)" style="fill: #404040; opacity: 0.55"/>
   </g>
   <g id="patch_12">
    <path d="M 52.192783 116.684369 
L 55.477994 116.684369 
L 55.477994 33.15421 
L 52.192783 33.15421 
z
" clip-path="url(#p217bbde0c3)" style="fill: #404040; opacity: 0.55"/>
   </g>
   <g id="patch_13">
    <path d="M 55.477994 116.684369 
L 58.763205 116.684369 
L 58.763205 24.158655 
L 55.477994 24.158655 
z
" clip-path="url(#p217bbde0c3)" style="fill: #404040; opacity: 0.55"/>
   </g>
   <g id="patch_14">
    <path d="M 58.763205 116.684369 
L 62.048416 116.684369 
L 62.048416 30.584052 
L 58.763205 30.584052 
z
" clip-path="url(#p217bbde0c3)" style="fill: #404040; opacity: 0.55"/>
   </g>
   <g id="patch_15">
    <path d="M 62.048416 116.684369 
L 65.333627 116.684369 
L 65.333627 47.290083 
L 62.048416 47.290083 
z
" clip-path="url(#p217bbde0c3)" style="fill: #404040; opacity: 0.55"/>
   </g>
   <g id="patch_16">
    <path d="M 65.333627 116.684369 
L 68.618838 116.684369 
L 68.618838 80.702147 
L 65.333627 80.702147 
z
" clip-path="url(#p217bbde0c3)" style="fill: #404040; opacity: 0.55"/>
   </g>
   <g id="patch_17">
    <path d="M 68.618838 116.684369 
L 71.904049 116.684369 
L 71.904049 85.842464 
L 68.618838 85.842464 
z
" clip-path="url(#p217bbde0c3)" style="fill: #404040; opacity: 0.55"/>
   </g>
   <g id="patch_18">
    <path d="M 71.904049 116.684369 
L 75.18926 116.684369 
L 75.18926 98.693258 
L 71.904049 98.693258 
z
" clip-path="url(#p217bbde0c3)" style="fill: #404040; opacity: 0.55"/>
   </g>
   <g id="patch_19">
    <path d="M 75.18926 116.684369 
L 78.474471 116.684369 
L 78.474471 111.544052 
L 75.18926 111.544052 
z
" clip-path="url(#p217bbde0c3)" style="fill: #404040; opacity: 0.55"/>
   </g>
   <g id="patch_20">
    <path d="M 78.474471 116.684369 
L 81.759682 116.684369 
L 81.759682 115.39929 
L 78.474471 115.39929 
z
" clip-path="url(#p217bbde0c3)" style="fill: #404040; opacity: 0.55"/>
   </g>
   <g id="patch_21">
    <path d="M 18.911733 116.684369 
L 23.672195 116.684369 
L 23.672195 101.90374 
L 18.911733 101.90374 
z
" clip-path="url(#p217bbde0c3)" style="fill: #d1d1d1; opacity: 0.8"/>
   </g>
   <g id="patch_22">
    <path d="M 23.672195 116.684369 
L 28.432656 116.684369 
L 28.432656 116.684369 
L 23.672195 116.684369 
z
" clip-path="url(#p217bbde0c3)" style="fill: #d1d1d1; opacity: 0.8"/>
   </g>
   <g id="patch_23">
    <path d="M 28.432656 116.684369 
L 33.193118 116.684369 
L 33.193118 116.684369 
L 28.432656 116.684369 
z
" clip-path="url(#p217bbde0c3)" style="fill: #d1d1d1; opacity: 0.8"/>
   </g>
   <g id="patch_24">
    <path d="M 33.193118 116.684369 
L 37.953579 116.684369 
L 37.953579 87.123111 
L 33.193118 87.123111 
z
" clip-path="url(#p217bbde0c3)" style="fill: #d1d1d1; opacity: 0.8"/>
   </g>
   <g id="patch_25">
    <path d="M 37.953579 116.684369 
L 42.714041 116.684369 
L 42.714041 87.123111 
L 37.953579 87.123111 
z
" clip-path="url(#p217bbde0c3)" style="fill: #d1d1d1; opacity: 0.8"/>
   </g>
   <g id="patch_26">
    <path d="M 42.714041 116.684369 
L 47.474502 116.684369 
L 47.474502 72.342482 
L 42.714041 72.342482 
z
" clip-path="url(#p217bbde0c3)" style="fill: #d1d1d1; opacity: 0.8"/>
   </g>
   <g id="patch_27">
    <path d="M 47.474502 116.684369 
L 52.234964 116.684369 
L 52.234964 57.561854 
L 47.474502 57.561854 
z
" clip-path="url(#p217bbde0c3)" style="fill: #d1d1d1; opacity: 0.8"/>
   </g>
   <g id="patch_28">
    <path d="M 52.234964 116.684369 
L 56.995425 116.684369 
L 56.995425 42.781225 
L 52.234964 42.781225 
z
" clip-path="url(#p217bbde0c3)" style="fill: #d1d1d1; opacity: 0.8"/>
   </g>
   <g id="patch_29">
    <path d="M 56.995425 116.684369 
L 61.755887 116.684369 
L 61.755887 87.123111 
L 56.995425 87.123111 
z
" clip-path="url(#p217bbde0c3)" style="fill: #d1d1d1; opacity: 0.8"/>
   </g>
   <g id="patch_30">
    <path d="M 61.755887 116.684369 
L 66.516348 116.684369 
L 66.516348 42.781225 
L 61.755887 42.781225 
z
" clip-path="url(#p217bbde0c3)" style="fill: #d1d1d1; opacity: 0.8"/>
   </g>
   <g id="patch_31">
    <path d="M 66.516348 116.684369 
L 71.27681 116.684369 
L 71.27681 72.342482 
L 66.516348 72.342482 
z
" clip-path="url(#p217bbde0c3)" style="fill: #d1d1d1; opacity: 0.8"/>
   </g>
   <g id="patch_32">
    <path d="M 71.27681 116.684369 
L 76.037271 116.684369 
L 76.037271 72.342482 
L 71.27681 72.342482 
z
" clip-path="url(#p217bbde0c3)" style="fill: #d1d1d1; opacity: 0.8"/>
   </g>
   <g id="matplotlib.axis_1">
    <g id="xtick_1">
     <g id="line2d_1">
      <defs>
       <path id="m92d413d345" d="M 0 0 
L 0 3.5 
" style="stroke: #000000; stroke-width: 0.8"/>
      </defs>
      <g>
       <use xlink:href="#m92d413d345" x="23.804763" y="116.684369" style="stroke: #000000; stroke-width: 0.8"/>
      </g>
     </g>
     <g id="text_1">
      <!-- −0.25 -->
      <g transform="translate(13.684138 129.508588) scale(0.08 -0.08)">
       <defs>
        <path id="ArialMT-ed" d="M 3381 1997 
L 356 1997 
L 356 2522 
L 3381 2522 
L 3381 1997 
z
" transform="scale(0.015625)"/>
        <path id="ArialMT-13" d="M 266 2259 
Q 266 3072 433 3567 
Q 600 4063 929 4331 
Q 1259 4600 1759 4600 
Q 2128 4600 2406 4451 
Q 2684 4303 2865 4023 
Q 3047 3744 3150 3342 
Q 3253 2941 3253 2259 
Q 3253 1453 3087 958 
Q 2922 463 2592 192 
Q 2263 -78 1759 -78 
Q 1097 -78 719 397 
Q 266 969 266 2259 
z
M 844 2259 
Q 844 1131 1108 757 
Q 1372 384 1759 384 
Q 2147 384 2411 759 
Q 2675 1134 2675 2259 
Q 2675 3391 2411 3762 
Q 2147 4134 1753 4134 
Q 1366 4134 1134 3806 
Q 844 3388 844 2259 
z
" transform="scale(0.015625)"/>
        <path id="ArialMT-11" d="M 581 0 
L 581 641 
L 1222 641 
L 1222 0 
L 581 0 
z
" transform="scale(0.015625)"/>
        <path id="ArialMT-15" d="M 3222 541 
L 3222 0 
L 194 0 
Q 188 203 259 391 
Q 375 700 629 1000 
Q 884 1300 1366 1694 
Q 2113 2306 2375 2664 
Q 2638 3022 2638 3341 
Q 2638 3675 2398 3904 
Q 2159 4134 1775 4134 
Q 1369 4134 1125 3890 
Q 881 3647 878 3216 
L 300 3275 
Q 359 3922 746 4261 
Q 1134 4600 1788 4600 
Q 2447 4600 2831 4234 
Q 3216 3869 3216 3328 
Q 3216 3053 3103 2787 
Q 2991 2522 2730 2228 
Q 2469 1934 1863 1422 
Q 1356 997 1212 845 
Q 1069 694 975 541 
L 3222 541 
z
" transform="scale(0.015625)"/>
        <path id="ArialMT-18" d="M 266 1200 
L 856 1250 
Q 922 819 1161 601 
Q 1400 384 1738 384 
Q 2144 384 2425 690 
Q 2706 997 2706 1503 
Q 2706 1984 2436 2262 
Q 2166 2541 1728 2541 
Q 1456 2541 1237 2417 
Q 1019 2294 894 2097 
L 366 2166 
L 809 4519 
L 3088 4519 
L 3088 3981 
L 1259 3981 
L 1013 2750 
Q 1425 3038 1878 3038 
Q 2478 3038 2890 2622 
Q 3303 2206 3303 1553 
Q 3303 931 2941 478 
Q 2500 -78 1738 -78 
Q 1113 -78 717 272 
Q 322 622 266 1200 
z
" transform="scale(0.015625)"/>
       </defs>
       <use xlink:href="#ArialMT-ed"/>
       <use xlink:href="#ArialMT-13" transform="translate(58.40625 0)"/>
       <use xlink:href="#ArialMT-11" transform="translate(114.015625 0)"/>
       <use xlink:href="#ArialMT-15" transform="translate(141.796875 0)"/>
       <use xlink:href="#ArialMT-18" transform="translate(197.40625 0)"/>
      </g>
     </g>
    </g>
    <g id="xtick_2">
     <g id="line2d_2">
      <g>
       <use xlink:href="#m92d413d345" x="56.588791" y="116.684369" style="stroke: #000000; stroke-width: 0.8"/>
      </g>
     </g>
     <g id="text_2">
      <!-- 0.00 -->
      <g transform="translate(48.804416 129.508588) scale(0.08 -0.08)">
       <use xlink:href="#ArialMT-13"/>
       <use xlink:href="#ArialMT-11" transform="translate(55.609375 0)"/>
       <use xlink:href="#ArialMT-13" transform="translate(83.390625 0)"/>
       <use xlink:href="#ArialMT-13" transform="translate(139 0)"/>
      </g>
     </g>
    </g>
    <g id="text_3">
     <!-- distance-decay r -->
     <g transform="translate(17.321879 141.744428) scale(0.09 -0.09)">
      <defs>
       <path id="ArialMT-47" d="M 2575 0 
L 2575 419 
Q 2259 -75 1647 -75 
Q 1250 -75 917 144 
Q 584 363 401 755 
Q 219 1147 219 1656 
Q 219 2153 384 2558 
Q 550 2963 881 3178 
Q 1213 3394 1622 3394 
Q 1922 3394 2156 3267 
Q 2391 3141 2538 2938 
L 2538 4581 
L 3097 4581 
L 3097 0 
L 2575 0 
z
M 797 1656 
Q 797 1019 1065 703 
Q 1334 388 1700 388 
Q 2069 388 2326 689 
Q 2584 991 2584 1609 
Q 2584 2291 2321 2609 
Q 2059 2928 1675 2928 
Q 1300 2928 1048 2622 
Q 797 2316 797 1656 
z
" transform="scale(0.015625)"/>
       <path id="ArialMT-4c" d="M 425 3934 
L 425 4581 
L 988 4581 
L 988 3934 
L 425 3934 
z
M 425 0 
L 425 3319 
L 988 3319 
L 988 0 
L 425 0 
z
" transform="scale(0.015625)"/>
       <path id="ArialMT-56" d="M 197 991 
L 753 1078 
Q 800 744 1014 566 
Q 1228 388 1613 388 
Q 2000 388 2187 545 
Q 2375 703 2375 916 
Q 2375 1106 2209 1216 
Q 2094 1291 1634 1406 
Q 1016 1563 777 1677 
Q 538 1791 414 1992 
Q 291 2194 291 2438 
Q 291 2659 392 2848 
Q 494 3038 669 3163 
Q 800 3259 1026 3326 
Q 1253 3394 1513 3394 
Q 1903 3394 2198 3281 
Q 2494 3169 2634 2976 
Q 2775 2784 2828 2463 
L 2278 2388 
Q 2241 2644 2061 2787 
Q 1881 2931 1553 2931 
Q 1166 2931 1000 2803 
Q 834 2675 834 2503 
Q 834 2394 903 2306 
Q 972 2216 1119 2156 
Q 1203 2125 1616 2013 
Q 2213 1853 2448 1751 
Q 2684 1650 2818 1456 
Q 2953 1263 2953 975 
Q 2953 694 2789 445 
Q 2625 197 2315 61 
Q 2006 -75 1616 -75 
Q 969 -75 630 194 
Q 291 463 197 991 
z
" transform="scale(0.015625)"/>
       <path id="ArialMT-57" d="M 1650 503 
L 1731 6 
Q 1494 -44 1306 -44 
Q 1000 -44 831 53 
Q 663 150 594 308 
Q 525 466 525 972 
L 525 2881 
L 113 2881 
L 113 3319 
L 525 3319 
L 525 4141 
L 1084 4478 
L 1084 3319 
L 1650 3319 
L 1650 2881 
L 1084 2881 
L 1084 941 
Q 1084 700 1114 631 
Q 1144 563 1211 522 
Q 1278 481 1403 481 
Q 1497 481 1650 503 
z
" transform="scale(0.015625)"/>
       <path id="ArialMT-44" d="M 2588 409 
Q 2275 144 1986 34 
Q 1697 -75 1366 -75 
Q 819 -75 525 192 
Q 231 459 231 875 
Q 231 1119 342 1320 
Q 453 1522 633 1644 
Q 813 1766 1038 1828 
Q 1203 1872 1538 1913 
Q 2219 1994 2541 2106 
Q 2544 2222 2544 2253 
Q 2544 2597 2384 2738 
Q 2169 2928 1744 2928 
Q 1347 2928 1158 2789 
Q 969 2650 878 2297 
L 328 2372 
Q 403 2725 575 2942 
Q 747 3159 1072 3276 
Q 1397 3394 1825 3394 
Q 2250 3394 2515 3294 
Q 2781 3194 2906 3042 
Q 3031 2891 3081 2659 
Q 3109 2516 3109 2141 
L 3109 1391 
Q 3109 606 3145 398 
Q 3181 191 3288 0 
L 2700 0 
Q 2613 175 2588 409 
z
M 2541 1666 
Q 2234 1541 1622 1453 
Q 1275 1403 1131 1340 
Q 988 1278 909 1158 
Q 831 1038 831 891 
Q 831 666 1001 516 
Q 1172 366 1500 366 
Q 1825 366 2078 508 
Q 2331 650 2450 897 
Q 2541 1088 2541 1459 
L 2541 1666 
z
" transform="scale(0.015625)"/>
       <path id="ArialMT-51" d="M 422 0 
L 422 3319 
L 928 3319 
L 928 2847 
Q 1294 3394 1984 3394 
Q 2284 3394 2536 3286 
Q 2788 3178 2913 3003 
Q 3038 2828 3088 2588 
Q 3119 2431 3119 2041 
L 3119 0 
L 2556 0 
L 2556 2019 
Q 2556 2363 2490 2533 
Q 2425 2703 2258 2804 
Q 2091 2906 1866 2906 
Q 1506 2906 1245 2678 
Q 984 2450 984 1813 
L 984 0 
L 422 0 
z
" transform="scale(0.015625)"/>
       <path id="ArialMT-46" d="M 2588 1216 
L 3141 1144 
Q 3050 572 2676 248 
Q 2303 -75 1759 -75 
Q 1078 -75 664 370 
Q 250 816 250 1647 
Q 250 2184 428 2587 
Q 606 2991 970 3192 
Q 1334 3394 1763 3394 
Q 2303 3394 2647 3120 
Q 2991 2847 3088 2344 
L 2541 2259 
Q 2463 2594 2264 2762 
Q 2066 2931 1784 2931 
Q 1359 2931 1093 2626 
Q 828 2322 828 1663 
Q 828 994 1084 691 
Q 1341 388 1753 388 
Q 2084 388 2306 591 
Q 2528 794 2588 1216 
z
" transform="scale(0.015625)"/>
       <path id="ArialMT-48" d="M 2694 1069 
L 3275 997 
Q 3138 488 2766 206 
Q 2394 -75 1816 -75 
Q 1088 -75 661 373 
Q 234 822 234 1631 
Q 234 2469 665 2931 
Q 1097 3394 1784 3394 
Q 2450 3394 2872 2941 
Q 3294 2488 3294 1666 
Q 3294 1616 3291 1516 
L 816 1516 
Q 847 969 1125 678 
Q 1403 388 1819 388 
Q 2128 388 2347 550 
Q 2566 713 2694 1069 
z
M 847 1978 
L 2700 1978 
Q 2663 2397 2488 2606 
Q 2219 2931 1791 2931 
Q 1403 2931 1139 2672 
Q 875 2413 847 1978 
z
" transform="scale(0.015625)"/>
       <path id="ArialMT-10" d="M 203 1375 
L 203 1941 
L 1931 1941 
L 1931 1375 
L 203 1375 
z
" transform="scale(0.015625)"/>
       <path id="ArialMT-5c" d="M 397 -1278 
L 334 -750 
Q 519 -800 656 -800 
Q 844 -800 956 -737 
Q 1069 -675 1141 -563 
Q 1194 -478 1313 -144 
Q 1328 -97 1363 -6 
L 103 3319 
L 709 3319 
L 1400 1397 
Q 1534 1031 1641 628 
Q 1738 1016 1872 1384 
L 2581 3319 
L 3144 3319 
L 1881 -56 
Q 1678 -603 1566 -809 
Q 1416 -1088 1222 -1217 
Q 1028 -1347 759 -1347 
Q 597 -1347 397 -1278 
z
" transform="scale(0.015625)"/>
       <path id="ArialMT-3" transform="scale(0.015625)"/>
       <path id="ArialMT-55" d="M 416 0 
L 416 3319 
L 922 3319 
L 922 2816 
Q 1116 3169 1280 3281 
Q 1444 3394 1641 3394 
Q 1925 3394 2219 3213 
L 2025 2691 
Q 1819 2813 1613 2813 
Q 1428 2813 1281 2702 
Q 1134 2591 1072 2394 
Q 978 2094 978 1738 
L 978 0 
L 416 0 
z
" transform="scale(0.015625)"/>
      </defs>
      <use xlink:href="#ArialMT-47"/>
      <use xlink:href="#ArialMT-4c" transform="translate(55.609375 0)"/>
      <use xlink:href="#ArialMT-56" transform="translate(77.828125 0)"/>
      <use xlink:href="#ArialMT-57" transform="translate(127.828125 0)"/>
      <use xlink:href="#ArialMT-44" transform="translate(155.609375 0)"/>
      <use xlink:href="#ArialMT-51" transform="translate(211.21875 0)"/>
      <use xlink:href="#ArialMT-46" transform="translate(266.828125 0)"/>
      <use xlink:href="#ArialMT-48" transform="translate(316.828125 0)"/>
      <use xlink:href="#ArialMT-10" transform="translate(372.4375 0)"/>
      <use xlink:href="#ArialMT-47" transform="translate(405.734375 0)"/>
      <use xlink:href="#ArialMT-48" transform="translate(461.34375 0)"/>
      <use xlink:href="#ArialMT-46" transform="translate(516.953125 0)"/>
      <use xlink:href="#ArialMT-44" transform="translate(566.953125 0)"/>
      <use xlink:href="#ArialMT-5c" transform="translate(622.5625 0)"/>
      <use xlink:href="#ArialMT-3" transform="translate(672.5625 0)"/>
      <use xlink:href="#ArialMT-55" transform="translate(700.34375 0)"/>
     </g>
    </g>
   </g>
   <g id="matplotlib.axis_2"/>
   <g id="line2d_3">
    <path d="M 29.270288 116.684369 
L 29.270288 19.532369 
" clip-path="url(#p217bbde0c3)" style="fill: none; stroke: #000000; stroke-width: 1.4; stroke-linecap: square"/>
   </g>
   <g id="patch_33">
    <path d="M 15.769336 116.684369 
L 15.769336 19.532369 
" style="fill: none; stroke: #000000; stroke-width: 0.8; stroke-linejoin: miter; stroke-linecap: square"/>
   </g>
   <g id="patch_34">
    <path d="M 15.769336 116.684369 
L 84.902079 116.684369 
" style="fill: none; stroke: #000000; stroke-width: 0.8; stroke-linejoin: miter; stroke-linecap: square"/>
   </g>
   <g id="text_4">
    <!-- A -->
    <g transform="translate(7.886994 13.752246) scale(0.09 -0.09)">
     <defs>
      <path id="Arial-BoldMT-24" d="M 4597 0 
L 3591 0 
L 3191 1041 
L 1359 1041 
L 981 0 
L 0 0 
L 1784 4581 
L 2763 4581 
L 4597 0 
z
M 2894 1813 
L 2263 3513 
L 1644 1813 
L 2894 1813 
z
" transform="scale(0.015625)"/>
     </defs>
     <use xlink:href="#Arial-BoldMT-24"/>
    </g>
   </g>
   <g id="legend_1">
    <g id="patch_35">
     <path d="M 21.169336 29.300533 
L 33.169336 29.300533 
L 33.169336 25.100533 
L 21.169336 25.100533 
z
" style="fill: #404040; opacity: 0.55"/>
    </g>
    <g id="text_5">
     <!-- spatial drift -->
     <g transform="translate(37.969336 29.300533) scale(0.06 -0.06)">
      <defs>
       <path id="ArialMT-53" d="M 422 -1272 
L 422 3319 
L 934 3319 
L 934 2888 
Q 1116 3141 1344 3267 
Q 1572 3394 1897 3394 
Q 2322 3394 2647 3175 
Q 2972 2956 3137 2557 
Q 3303 2159 3303 1684 
Q 3303 1175 3120 767 
Q 2938 359 2589 142 
Q 2241 -75 1856 -75 
Q 1575 -75 1351 44 
Q 1128 163 984 344 
L 984 -1272 
L 422 -1272 
z
M 931 1641 
Q 931 1000 1190 694 
Q 1450 388 1819 388 
Q 2194 388 2461 705 
Q 2728 1022 2728 1688 
Q 2728 2322 2467 2637 
Q 2206 2953 1844 2953 
Q 1484 2953 1207 2617 
Q 931 2281 931 1641 
z
" transform="scale(0.015625)"/>
       <path id="ArialMT-4f" d="M 409 0 
L 409 4581 
L 972 4581 
L 972 0 
L 409 0 
z
" transform="scale(0.015625)"/>
       <path id="ArialMT-49" d="M 556 0 
L 556 2881 
L 59 2881 
L 59 3319 
L 556 3319 
L 556 3672 
Q 556 4006 616 4169 
Q 697 4388 901 4523 
Q 1106 4659 1475 4659 
Q 1713 4659 2000 4603 
L 1916 4113 
Q 1741 4144 1584 4144 
Q 1328 4144 1222 4034 
Q 1116 3925 1116 3625 
L 1116 3319 
L 1763 3319 
L 1763 2881 
L 1116 2881 
L 1116 0 
L 556 0 
z
" transform="scale(0.015625)"/>
      </defs>
      <use xlink:href="#ArialMT-56"/>
      <use xlink:href="#ArialMT-53" transform="translate(50 0)"/>
      <use xlink:href="#ArialMT-44" transform="translate(105.609375 0)"/>
      <use xlink:href="#ArialMT-57" transform="translate(161.21875 0)"/>
      <use xlink:href="#ArialMT-4c" transform="translate(189 0)"/>
      <use xlink:href="#ArialMT-44" transform="translate(211.21875 0)"/>
      <use xlink:href="#ArialMT-4f" transform="translate(266.828125 0)"/>
      <use xlink:href="#ArialMT-3" transform="translate(289.046875 0)"/>
      <use xlink:href="#ArialMT-47" transform="translate(316.828125 0)"/>
      <use xlink:href="#ArialMT-55" transform="translate(372.4375 0)"/>
      <use xlink:href="#ArialMT-4c" transform="translate(405.734375 0)"/>
      <use xlink:href="#ArialMT-49" transform="translate(427.953125 0)"/>
      <use xlink:href="#ArialMT-57" transform="translate(455.734375 0)"/>
     </g>
    </g>
    <g id="patch_36">
     <path d="M 21.169336 37.931393 
L 33.169336 37.931393 
L 33.169336 33.731393 
L 21.169336 33.731393 
z
" style="fill: #d1d1d1; opacity: 0.8"/>
    </g>
    <g id="text_6">
     <!-- bounded groups -->
     <g transform="translate(37.969336 37.931393) scale(0.06 -0.06)">
      <defs>
       <path id="ArialMT-45" d="M 941 0 
L 419 0 
L 419 4581 
L 981 4581 
L 981 2947 
Q 1338 3394 1891 3394 
Q 2197 3394 2470 3270 
Q 2744 3147 2920 2923 
Q 3097 2700 3197 2384 
Q 3297 2069 3297 1709 
Q 3297 856 2875 390 
Q 2453 -75 1863 -75 
Q 1275 -75 941 416 
L 941 0 
z
M 934 1684 
Q 934 1088 1097 822 
Q 1363 388 1816 388 
Q 2184 388 2453 708 
Q 2722 1028 2722 1663 
Q 2722 2313 2464 2622 
Q 2206 2931 1841 2931 
Q 1472 2931 1203 2611 
Q 934 2291 934 1684 
z
" transform="scale(0.015625)"/>
       <path id="ArialMT-52" d="M 213 1659 
Q 213 2581 725 3025 
Q 1153 3394 1769 3394 
Q 2453 3394 2887 2945 
Q 3322 2497 3322 1706 
Q 3322 1066 3130 698 
Q 2938 331 2570 128 
Q 2203 -75 1769 -75 
Q 1072 -75 642 372 
Q 213 819 213 1659 
z
M 791 1659 
Q 791 1022 1069 705 
Q 1347 388 1769 388 
Q 2188 388 2466 706 
Q 2744 1025 2744 1678 
Q 2744 2294 2464 2611 
Q 2184 2928 1769 2928 
Q 1347 2928 1069 2612 
Q 791 2297 791 1659 
z
" transform="scale(0.015625)"/>
       <path id="ArialMT-58" d="M 2597 0 
L 2597 488 
Q 2209 -75 1544 -75 
Q 1250 -75 995 37 
Q 741 150 617 320 
Q 494 491 444 738 
Q 409 903 409 1263 
L 409 3319 
L 972 3319 
L 972 1478 
Q 972 1038 1006 884 
Q 1059 663 1231 536 
Q 1403 409 1656 409 
Q 1909 409 2131 539 
Q 2353 669 2445 892 
Q 2538 1116 2538 1541 
L 2538 3319 
L 3100 3319 
L 3100 0 
L 2597 0 
z
" transform="scale(0.015625)"/>
       <path id="ArialMT-4a" d="M 319 -275 
L 866 -356 
Q 900 -609 1056 -725 
Q 1266 -881 1628 -881 
Q 2019 -881 2231 -725 
Q 2444 -569 2519 -288 
Q 2563 -116 2559 434 
Q 2191 0 1641 0 
Q 956 0 581 494 
Q 206 988 206 1678 
Q 206 2153 378 2554 
Q 550 2956 876 3175 
Q 1203 3394 1644 3394 
Q 2231 3394 2613 2919 
L 2613 3319 
L 3131 3319 
L 3131 450 
Q 3131 -325 2973 -648 
Q 2816 -972 2473 -1159 
Q 2131 -1347 1631 -1347 
Q 1038 -1347 672 -1080 
Q 306 -813 319 -275 
z
M 784 1719 
Q 784 1066 1043 766 
Q 1303 466 1694 466 
Q 2081 466 2343 764 
Q 2606 1063 2606 1700 
Q 2606 2309 2336 2618 
Q 2066 2928 1684 2928 
Q 1309 2928 1046 2623 
Q 784 2319 784 1719 
z
" transform="scale(0.015625)"/>
      </defs>
      <use xlink:href="#ArialMT-45"/>
      <use xlink:href="#ArialMT-52" transform="translate(55.609375 0)"/>
      <use xlink:href="#ArialMT-58" transform="translate(111.21875 0)"/>
      <use xlink:href="#ArialMT-51" transform="translate(166.828125 0)"/>
      <use xlink:href="#ArialMT-47" transform="translate(222.4375 0)"/>
      <use xlink:href="#ArialMT-48" transform="translate(278.046875 0)"/>
      <use xlink:href="#ArialMT-47" transform="translate(333.65625 0)"/>
      <use xlink:href="#ArialMT-3" transform="translate(389.265625 0)"/>
      <use xlink:href="#ArialMT-4a" transform="translate(417.046875 0)"/>
      <use xlink:href="#ArialMT-55" transform="translate(472.65625 0)"/>
      <use xlink:href="#ArialMT-52" transform="translate(505.953125 0)"/>
      <use xlink:href="#ArialMT-58" transform="translate(561.5625 0)"/>
      <use xlink:href="#ArialMT-53" transform="translate(617.171875 0)"/>
      <use xlink:href="#ArialMT-56" transform="translate(672.78125 0)"/>
     </g>
    </g>
   </g>
  </g>
  <g id="axes_2">
   <g id="patch_37">
    <path d="M 122.925088 116.684369 
L 192.057832 116.684369 
L 192.057832 19.532369 
L 122.925088 19.532369 
z
" style="fill: #ffffff"/>
   </g>
   <g id="patch_38">
    <path d="M 126.067486 116.684369 
L 127.729693 116.684369 
L 127.729693 24.158655 
L 126.067486 24.158655 
z
" clip-path="url(#paf14d3db44)" style="fill: #404040; opacity: 0.55"/>
   </g>
   <g id="patch_39">
    <path d="M 127.729693 116.684369 
L 129.3919 116.684369 
L 129.3919 106.603746 
L 127.729693 106.603746 
z
" clip-path="url(#paf14d3db44)" style="fill: #404040; opacity: 0.55"/>
   </g>
   <g id="patch_40">
    <path d="M 129.3919 116.684369 
L 131.054108 116.684369 
L 131.054108 106.603746 
L 129.3919 106.603746 
z
" clip-path="url(#paf14d3db44)" style="fill: #404040; opacity: 0.55"/>
   </g>
   <g id="patch_41">
    <path d="M 131.054108 116.684369 
L 132.716315 116.684369 
L 132.716315 105.163658 
L 131.054108 105.163658 
z
" clip-path="url(#paf14d3db44)" style="fill: #404040; opacity: 0.55"/>
   </g>
   <g id="patch_42">
    <path d="M 132.716315 116.684369 
L 134.378523 116.684369 
L 134.378523 105.883702 
L 132.716315 105.883702 
z
" clip-path="url(#paf14d3db44)" style="fill: #404040; opacity: 0.55"/>
   </g>
   <g id="patch_43">
    <path d="M 134.378523 116.684369 
L 136.04073 116.684369 
L 136.04073 109.483924 
L 134.378523 109.483924 
z
" clip-path="url(#paf14d3db44)" style="fill: #404040; opacity: 0.55"/>
   </g>
   <g id="patch_44">
    <path d="M 136.04073 116.684369 
L 137.702938 116.684369 
L 137.702938 110.203969 
L 136.04073 110.203969 
z
" clip-path="url(#paf14d3db44)" style="fill: #404040; opacity: 0.55"/>
   </g>
   <g id="patch_45">
    <path d="M 137.702938 116.684369 
L 139.365145 116.684369 
L 139.365145 110.563991 
L 137.702938 110.563991 
z
" clip-path="url(#paf14d3db44)" style="fill: #404040; opacity: 0.55"/>
   </g>
   <g id="patch_46">
    <path d="M 139.365145 116.684369 
L 141.027353 116.684369 
L 141.027353 107.683813 
L 139.365145 107.683813 
z
" clip-path="url(#paf14d3db44)" style="fill: #404040; opacity: 0.55"/>
   </g>
   <g id="patch_47">
    <path d="M 141.027353 116.684369 
L 142.68956 116.684369 
L 142.68956 113.804191 
L 141.027353 113.804191 
z
" clip-path="url(#paf14d3db44)" style="fill: #404040; opacity: 0.55"/>
   </g>
   <g id="patch_48">
    <path d="M 142.68956 116.684369 
L 144.351768 116.684369 
L 144.351768 113.444169 
L 142.68956 113.444169 
z
" clip-path="url(#paf14d3db44)" style="fill: #404040; opacity: 0.55"/>
   </g>
   <g id="patch_49">
    <path d="M 144.351768 116.684369 
L 146.013975 116.684369 
L 146.013975 113.804191 
L 144.351768 113.804191 
z
" clip-path="url(#paf14d3db44)" style="fill: #404040; opacity: 0.55"/>
   </g>
   <g id="patch_50">
    <path d="M 146.013975 116.684369 
L 147.676182 116.684369 
L 147.676182 113.444169 
L 146.013975 113.444169 
z
" clip-path="url(#paf14d3db44)" style="fill: #404040; opacity: 0.55"/>
   </g>
   <g id="patch_51">
    <path d="M 147.676182 116.684369 
L 149.33839 116.684369 
L 149.33839 115.604302 
L 147.676182 115.604302 
z
" clip-path="url(#paf14d3db44)" style="fill: #404040; opacity: 0.55"/>
   </g>
   <g id="patch_52">
    <path d="M 149.33839 116.684369 
L 151.000597 116.684369 
L 151.000597 115.24428 
L 149.33839 115.24428 
z
" clip-path="url(#paf14d3db44)" style="fill: #404040; opacity: 0.55"/>
   </g>
   <g id="patch_53">
    <path d="M 151.000597 116.684369 
L 152.662805 116.684369 
L 152.662805 116.324347 
L 151.000597 116.324347 
z
" clip-path="url(#paf14d3db44)" style="fill: #404040; opacity: 0.55"/>
   </g>
   <g id="patch_54">
    <path d="M 152.662805 116.684369 
L 154.325012 116.684369 
L 154.325012 116.684369 
L 152.662805 116.684369 
z
" clip-path="url(#paf14d3db44)" style="fill: #404040; opacity: 0.55"/>
   </g>
   <g id="patch_55">
    <path d="M 154.325012 116.684369 
L 155.98722 116.684369 
L 155.98722 115.604302 
L 154.325012 115.604302 
z
" clip-path="url(#paf14d3db44)" style="fill: #404040; opacity: 0.55"/>
   </g>
   <g id="patch_56">
    <path d="M 126.067486 116.684369 
L 128.418687 116.684369 
L 128.418687 31.843816 
L 126.067486 31.843816 
z
" clip-path="url(#paf14d3db44)" style="fill: #d1d1d1; opacity: 0.8"/>
   </g>
   <g id="patch_57">
    <path d="M 128.418687 116.684369 
L 130.769888 116.684369 
L 130.769888 116.684369 
L 128.418687 116.684369 
z
" clip-path="url(#paf14d3db44)" style="fill: #d1d1d1; opacity: 0.8"/>
   </g>
   <g id="patch_58">
    <path d="M 130.769888 116.684369 
L 133.121089 116.684369 
L 133.121089 108.200314 
L 130.769888 108.200314 
z
" clip-path="url(#paf14d3db44)" style="fill: #d1d1d1; opacity: 0.8"/>
   </g>
   <g id="patch_59">
    <path d="M 133.121089 116.684369 
L 135.472291 116.684369 
L 135.472291 112.442341 
L 133.121089 112.442341 
z
" clip-path="url(#paf14d3db44)" style="fill: #d1d1d1; opacity: 0.8"/>
   </g>
   <g id="patch_60">
    <path d="M 135.472291 116.684369 
L 137.823492 116.684369 
L 137.823492 112.442341 
L 135.472291 112.442341 
z
" clip-path="url(#paf14d3db44)" style="fill: #d1d1d1; opacity: 0.8"/>
   </g>
   <g id="patch_61">
    <path d="M 137.823492 116.684369 
L 140.174693 116.684369 
L 140.174693 103.958286 
L 137.823492 103.958286 
z
" clip-path="url(#paf14d3db44)" style="fill: #d1d1d1; opacity: 0.8"/>
   </g>
   <g id="patch_62">
    <path d="M 140.174693 116.684369 
L 142.525894 116.684369 
L 142.525894 116.684369 
L 140.174693 116.684369 
z
" clip-path="url(#paf14d3db44)" style="fill: #d1d1d1; opacity: 0.8"/>
   </g>
   <g id="patch_63">
    <path d="M 142.525894 116.684369 
L 144.877095 116.684369 
L 144.877095 108.200314 
L 142.525894 108.200314 
z
" clip-path="url(#paf14d3db44)" style="fill: #d1d1d1; opacity: 0.8"/>
   </g>
   <g id="patch_64">
    <path d="M 144.877095 116.684369 
L 147.228297 116.684369 
L 147.228297 116.684369 
L 144.877095 116.684369 
z
" clip-path="url(#paf14d3db44)" style="fill: #d1d1d1; opacity: 0.8"/>
   </g>
   <g id="patch_65">
    <path d="M 147.228297 116.684369 
L 149.579498 116.684369 
L 149.579498 116.684369 
L 147.228297 116.684369 
z
" clip-path="url(#paf14d3db44)" style="fill: #d1d1d1; opacity: 0.8"/>
   </g>
   <g id="patch_66">
    <path d="M 149.579498 116.684369 
L 151.930699 116.684369 
L 151.930699 116.684369 
L 149.579498 116.684369 
z
" clip-path="url(#paf14d3db44)" style="fill: #d1d1d1; opacity: 0.8"/>
   </g>
   <g id="patch_67">
    <path d="M 151.930699 116.684369 
L 154.2819 116.684369 
L 154.2819 112.442341 
L 151.930699 112.442341 
z
" clip-path="url(#paf14d3db44)" style="fill: #d1d1d1; opacity: 0.8"/>
   </g>
   <g id="matplotlib.axis_3">
    <g id="xtick_3">
     <g id="line2d_4">
      <g>
       <use xlink:href="#m92d413d345" x="126.067486" y="116.684369" style="stroke: #000000; stroke-width: 0.8"/>
      </g>
     </g>
     <g id="text_7">
      <!-- 0.00 -->
      <g transform="translate(118.283111 129.508588) scale(0.08 -0.08)">
       <use xlink:href="#ArialMT-13"/>
       <use xlink:href="#ArialMT-11" transform="translate(55.609375 0)"/>
       <use xlink:href="#ArialMT-13" transform="translate(83.390625 0)"/>
       <use xlink:href="#ArialMT-13" transform="translate(139 0)"/>
      </g>
     </g>
    </g>
    <g id="xtick_4">
     <g id="line2d_5">
      <g>
       <use xlink:href="#m92d413d345" x="139.928983" y="116.684369" style="stroke: #000000; stroke-width: 0.8"/>
      </g>
     </g>
     <g id="text_8">
      <!-- 0.01 -->
      <g transform="translate(132.144608 129.508588) scale(0.08 -0.08)">
       <defs>
        <path id="ArialMT-14" d="M 2384 0 
L 1822 0 
L 1822 3584 
Q 1619 3391 1289 3197 
Q 959 3003 697 2906 
L 697 3450 
Q 1169 3672 1522 3987 
Q 1875 4303 2022 4600 
L 2384 4600 
L 2384 0 
z
" transform="scale(0.015625)"/>
       </defs>
       <use xlink:href="#ArialMT-13"/>
       <use xlink:href="#ArialMT-11" transform="translate(55.609375 0)"/>
       <use xlink:href="#ArialMT-13" transform="translate(83.390625 0)"/>
       <use xlink:href="#ArialMT-14" transform="translate(139 0)"/>
      </g>
     </g>
    </g>
    <g id="xtick_5">
     <g id="line2d_6">
      <g>
       <use xlink:href="#m92d413d345" x="153.79048" y="116.684369" style="stroke: #000000; stroke-width: 0.8"/>
      </g>
     </g>
     <g id="text_9">
      <!-- 0.02 -->
      <g transform="translate(146.006105 129.508588) scale(0.08 -0.08)">
       <use xlink:href="#ArialMT-13"/>
       <use xlink:href="#ArialMT-11" transform="translate(55.609375 0)"/>
       <use xlink:href="#ArialMT-13" transform="translate(83.390625 0)"/>
       <use xlink:href="#ArialMT-15" transform="translate(139 0)"/>
      </g>
     </g>
    </g>
    <g id="xtick_6">
     <g id="line2d_7">
      <g>
       <use xlink:href="#m92d413d345" x="167.651977" y="116.684369" style="stroke: #000000; stroke-width: 0.8"/>
      </g>
     </g>
     <g id="text_10">
      <!-- 0.03 -->
      <g transform="translate(159.867602 129.508588) scale(0.08 -0.08)">
       <defs>
        <path id="ArialMT-16" d="M 269 1209 
L 831 1284 
Q 928 806 1161 595 
Q 1394 384 1728 384 
Q 2125 384 2398 659 
Q 2672 934 2672 1341 
Q 2672 1728 2419 1979 
Q 2166 2231 1775 2231 
Q 1616 2231 1378 2169 
L 1441 2663 
Q 1497 2656 1531 2656 
Q 1891 2656 2178 2843 
Q 2466 3031 2466 3422 
Q 2466 3731 2256 3934 
Q 2047 4138 1716 4138 
Q 1388 4138 1169 3931 
Q 950 3725 888 3313 
L 325 3413 
Q 428 3978 793 4289 
Q 1159 4600 1703 4600 
Q 2078 4600 2393 4439 
Q 2709 4278 2876 4000 
Q 3044 3722 3044 3409 
Q 3044 3113 2884 2869 
Q 2725 2625 2413 2481 
Q 2819 2388 3044 2092 
Q 3269 1797 3269 1353 
Q 3269 753 2831 336 
Q 2394 -81 1725 -81 
Q 1122 -81 723 278 
Q 325 638 269 1209 
z
" transform="scale(0.015625)"/>
       </defs>
       <use xlink:href="#ArialMT-13"/>
       <use xlink:href="#ArialMT-11" transform="translate(55.609375 0)"/>
       <use xlink:href="#ArialMT-13" transform="translate(83.390625 0)"/>
       <use xlink:href="#ArialMT-16" transform="translate(139 0)"/>
      </g>
     </g>
    </g>
    <g id="xtick_7">
     <g id="line2d_8">
      <g>
       <use xlink:href="#m92d413d345" x="181.513474" y="116.684369" style="stroke: #000000; stroke-width: 0.8"/>
      </g>
     </g>
     <g id="text_11">
      <!-- 0.04 -->
      <g transform="translate(173.729099 129.508588) scale(0.08 -0.08)">
       <defs>
        <path id="ArialMT-17" d="M 2069 0 
L 2069 1097 
L 81 1097 
L 81 1613 
L 2172 4581 
L 2631 4581 
L 2631 1613 
L 3250 1613 
L 3250 1097 
L 2631 1097 
L 2631 0 
L 2069 0 
z
M 2069 1613 
L 2069 3678 
L 634 1613 
L 2069 1613 
z
" transform="scale(0.015625)"/>
       </defs>
       <use xlink:href="#ArialMT-13"/>
       <use xlink:href="#ArialMT-11" transform="translate(55.609375 0)"/>
       <use xlink:href="#ArialMT-13" transform="translate(83.390625 0)"/>
       <use xlink:href="#ArialMT-17" transform="translate(139 0)"/>
      </g>
     </g>
    </g>
    <g id="text_12">
     <!-- modularity Q -->
     <g transform="translate(131.984897 141.749525) scale(0.09 -0.09)">
      <defs>
       <path id="ArialMT-50" d="M 422 0 
L 422 3319 
L 925 3319 
L 925 2853 
Q 1081 3097 1340 3245 
Q 1600 3394 1931 3394 
Q 2300 3394 2536 3241 
Q 2772 3088 2869 2813 
Q 3263 3394 3894 3394 
Q 4388 3394 4653 3120 
Q 4919 2847 4919 2278 
L 4919 0 
L 4359 0 
L 4359 2091 
Q 4359 2428 4304 2576 
Q 4250 2725 4106 2815 
Q 3963 2906 3769 2906 
Q 3419 2906 3187 2673 
Q 2956 2441 2956 1928 
L 2956 0 
L 2394 0 
L 2394 2156 
Q 2394 2531 2256 2718 
Q 2119 2906 1806 2906 
Q 1569 2906 1367 2781 
Q 1166 2656 1075 2415 
Q 984 2175 984 1722 
L 984 0 
L 422 0 
z
" transform="scale(0.015625)"/>
       <path id="ArialMT-34" d="M 3966 491 
Q 4388 200 4744 66 
L 4566 -356 
Q 4072 -178 3581 206 
Q 3072 -78 2456 -78 
Q 1834 -78 1328 222 
Q 822 522 548 1065 
Q 275 1609 275 2291 
Q 275 2969 550 3525 
Q 825 4081 1333 4372 
Q 1841 4663 2469 4663 
Q 3103 4663 3612 4361 
Q 4122 4059 4389 3517 
Q 4656 2975 4656 2294 
Q 4656 1728 4484 1276 
Q 4313 825 3966 491 
z
M 2631 1266 
Q 3156 1119 3497 828 
Q 4031 1316 4031 2294 
Q 4031 2850 3842 3265 
Q 3653 3681 3289 3911 
Q 2925 4141 2472 4141 
Q 1794 4141 1347 3677 
Q 900 3213 900 2291 
Q 900 1397 1342 919 
Q 1784 441 2472 441 
Q 2797 441 3084 563 
Q 2800 747 2484 825 
L 2631 1266 
z
" transform="scale(0.015625)"/>
      </defs>
      <use xlink:href="#ArialMT-50"/>
      <use xlink:href="#ArialMT-52" transform="translate(83.296875 0)"/>
      <use xlink:href="#ArialMT-47" transform="translate(138.90625 0)"/>
      <use xlink:href="#ArialMT-58" transform="translate(194.515625 0)"/>
      <use xlink:href="#ArialMT-4f" transform="translate(250.125 0)"/>
      <use xlink:href="#ArialMT-44" transform="translate(272.34375 0)"/>
      <use xlink:href="#ArialMT-55" transform="translate(327.953125 0)"/>
      <use xlink:href="#ArialMT-4c" transform="translate(361.25 0)"/>
      <use xlink:href="#ArialMT-57" transform="translate(383.46875 0)"/>
      <use xlink:href="#ArialMT-5c" transform="translate(411.25 0)"/>
      <use xlink:href="#ArialMT-3" transform="translate(461.25 0)"/>
      <use xlink:href="#ArialMT-34" transform="translate(489.03125 0)"/>
     </g>
    </g>
   </g>
   <g id="matplotlib.axis_4"/>
   <g id="line2d_9">
    <path d="M 188.915434 116.684369 
L 188.915434 19.532369 
" clip-path="url(#paf14d3db44)" style="fill: none; stroke: #000000; stroke-width: 1.4; stroke-linecap: square"/>
   </g>
   <g id="patch_68">
    <path d="M 122.925088 116.684369 
L 122.925088 19.532369 
" style="fill: none; stroke: #000000; stroke-width: 0.8; stroke-linejoin: miter; stroke-linecap: square"/>
   </g>
   <g id="patch_69">
    <path d="M 122.925088 116.684369 
L 192.057832 116.684369 
" style="fill: none; stroke: #000000; stroke-width: 0.8; stroke-linejoin: miter; stroke-linecap: square"/>
   </g>
   <g id="text_13">
    <!-- B -->
    <g transform="translate(115.042746 13.752246) scale(0.09 -0.09)">
     <defs>
      <path id="Arial-BoldMT-25" d="M 469 4581 
L 2300 4581 
Q 2844 4581 3111 4536 
Q 3378 4491 3589 4347 
Q 3800 4203 3940 3964 
Q 4081 3725 4081 3428 
Q 4081 3106 3907 2837 
Q 3734 2569 3438 2434 
Q 3856 2313 4081 2019 
Q 4306 1725 4306 1328 
Q 4306 1016 4161 720 
Q 4016 425 3764 248 
Q 3513 72 3144 31 
Q 2913 6 2028 0 
L 469 0 
L 469 4581 
z
M 1394 3819 
L 1394 2759 
L 2000 2759 
Q 2541 2759 2672 2775 
Q 2909 2803 3045 2939 
Q 3181 3075 3181 3297 
Q 3181 3509 3064 3642 
Q 2947 3775 2716 3803 
Q 2578 3819 1925 3819 
L 1394 3819 
z
M 1394 1997 
L 1394 772 
L 2250 772 
Q 2750 772 2884 800 
Q 3091 838 3220 983 
Q 3350 1128 3350 1372 
Q 3350 1578 3250 1722 
Q 3150 1866 2961 1931 
Q 2772 1997 2141 1997 
L 1394 1997 
z
" transform="scale(0.015625)"/>
     </defs>
     <use xlink:href="#Arial-BoldMT-25"/>
    </g>
   </g>
  </g>
  <g id="axes_3">
   <g id="patch_70">
    <path d="M 230.08084 116.684369 
L 299.213584 116.684369 
L 299.213584 19.532369 
L 230.08084 19.532369 
z
" style="fill: #ffffff"/>
   </g>
   <g id="patch_71">
    <path d="M 233.223238 116.684369 
L 236.71479 116.684369 
L 236.71479 115.740229 
L 233.223238 115.740229 
z
" clip-path="url(#p8e8e4af9c8)" style="fill: #404040; opacity: 0.55"/>
   </g>
   <g id="patch_72">
    <path d="M 236.71479 116.684369 
L 240.206343 116.684369 
L 240.206343 116.684369 
L 236.71479 116.684369 
z
" clip-path="url(#p8e8e4af9c8)" style="fill: #404040; opacity: 0.55"/>
   </g>
   <g id="patch_73">
    <path d="M 240.206343 116.684369 
L 243.697896 116.684369 
L 243.697896 116.684369 
L 240.206343 116.684369 
z
" clip-path="url(#p8e8e4af9c8)" style="fill: #404040; opacity: 0.55"/>
   </g>
   <g id="patch_74">
    <path d="M 243.697896 116.684369 
L 247.189449 116.684369 
L 247.189449 114.796089 
L 243.697896 114.796089 
z
" clip-path="url(#p8e8e4af9c8)" style="fill: #404040; opacity: 0.55"/>
   </g>
   <g id="patch_75">
    <path d="M 247.189449 116.684369 
L 250.681001 116.684369 
L 250.681001 111.019529 
L 247.189449 111.019529 
z
" clip-path="url(#p8e8e4af9c8)" style="fill: #404040; opacity: 0.55"/>
   </g>
   <g id="patch_76">
    <path d="M 250.681001 116.684369 
L 254.172554 116.684369 
L 254.172554 111.019529 
L 250.681001 111.019529 
z
" clip-path="url(#p8e8e4af9c8)" style="fill: #404040; opacity: 0.55"/>
   </g>
   <g id="patch_77">
    <path d="M 254.172554 116.684369 
L 257.664107 116.684369 
L 257.664107 92.136731 
L 254.172554 92.136731 
z
" clip-path="url(#p8e8e4af9c8)" style="fill: #404040; opacity: 0.55"/>
   </g>
   <g id="patch_78">
    <path d="M 257.664107 116.684369 
L 261.155659 116.684369 
L 261.155659 95.91329 
L 257.664107 95.91329 
z
" clip-path="url(#p8e8e4af9c8)" style="fill: #404040; opacity: 0.55"/>
   </g>
   <g id="patch_79">
    <path d="M 261.155659 116.684369 
L 264.647212 116.684369 
L 264.647212 65.700812 
L 261.155659 65.700812 
z
" clip-path="url(#p8e8e4af9c8)" style="fill: #404040; opacity: 0.55"/>
   </g>
   <g id="patch_80">
    <path d="M 264.647212 116.684369 
L 268.138765 116.684369 
L 268.138765 52.482853 
L 264.647212 52.482853 
z
" clip-path="url(#p8e8e4af9c8)" style="fill: #404040; opacity: 0.55"/>
   </g>
   <g id="patch_81">
    <path d="M 268.138765 116.684369 
L 271.630317 116.684369 
L 271.630317 62.868392 
L 268.138765 62.868392 
z
" clip-path="url(#p8e8e4af9c8)" style="fill: #404040; opacity: 0.55"/>
   </g>
   <g id="patch_82">
    <path d="M 271.630317 116.684369 
L 275.12187 116.684369 
L 275.12187 24.158655 
L 271.630317 24.158655 
z
" clip-path="url(#p8e8e4af9c8)" style="fill: #404040; opacity: 0.55"/>
   </g>
   <g id="patch_83">
    <path d="M 275.12187 116.684369 
L 278.613423 116.684369 
L 278.613423 60.035973 
L 275.12187 60.035973 
z
" clip-path="url(#p8e8e4af9c8)" style="fill: #404040; opacity: 0.55"/>
   </g>
   <g id="patch_84">
    <path d="M 278.613423 116.684369 
L 282.104976 116.684369 
L 282.104976 67.589092 
L 278.613423 67.589092 
z
" clip-path="url(#p8e8e4af9c8)" style="fill: #404040; opacity: 0.55"/>
   </g>
   <g id="patch_85">
    <path d="M 282.104976 116.684369 
L 285.596528 116.684369 
L 285.596528 90.248451 
L 282.104976 90.248451 
z
" clip-path="url(#p8e8e4af9c8)" style="fill: #404040; opacity: 0.55"/>
   </g>
   <g id="patch_86">
    <path d="M 285.596528 116.684369 
L 289.088081 116.684369 
L 289.088081 102.52227 
L 285.596528 102.52227 
z
" clip-path="url(#p8e8e4af9c8)" style="fill: #404040; opacity: 0.55"/>
   </g>
   <g id="patch_87">
    <path d="M 289.088081 116.684369 
L 292.579634 116.684369 
L 292.579634 113.851949 
L 289.088081 113.851949 
z
" clip-path="url(#p8e8e4af9c8)" style="fill: #404040; opacity: 0.55"/>
   </g>
   <g id="patch_88">
    <path d="M 292.579634 116.684369 
L 296.071186 116.684369 
L 296.071186 114.796089 
L 292.579634 114.796089 
z
" clip-path="url(#p8e8e4af9c8)" style="fill: #404040; opacity: 0.55"/>
   </g>
   <g id="patch_89">
    <path d="M 252.020982 116.684369 
L 255.029729 116.684369 
L 255.029729 80.162921 
L 252.020982 80.162921 
z
" clip-path="url(#p8e8e4af9c8)" style="fill: #d1d1d1; opacity: 0.8"/>
   </g>
   <g id="patch_90">
    <path d="M 255.029729 116.684369 
L 258.038477 116.684369 
L 258.038477 98.423645 
L 255.029729 98.423645 
z
" clip-path="url(#p8e8e4af9c8)" style="fill: #d1d1d1; opacity: 0.8"/>
   </g>
   <g id="patch_91">
    <path d="M 258.038477 116.684369 
L 261.047224 116.684369 
L 261.047224 80.162921 
L 258.038477 80.162921 
z
" clip-path="url(#p8e8e4af9c8)" style="fill: #d1d1d1; opacity: 0.8"/>
   </g>
   <g id="patch_92">
    <path d="M 261.047224 116.684369 
L 264.055972 116.684369 
L 264.055972 80.162921 
L 261.047224 80.162921 
z
" clip-path="url(#p8e8e4af9c8)" style="fill: #d1d1d1; opacity: 0.8"/>
   </g>
   <g id="patch_93">
    <path d="M 264.055972 116.684369 
L 267.064719 116.684369 
L 267.064719 25.380749 
L 264.055972 25.380749 
z
" clip-path="url(#p8e8e4af9c8)" style="fill: #d1d1d1; opacity: 0.8"/>
   </g>
   <g id="patch_94">
    <path d="M 267.064719 116.684369 
L 270.073466 116.684369 
L 270.073466 61.902197 
L 267.064719 61.902197 
z
" clip-path="url(#p8e8e4af9c8)" style="fill: #d1d1d1; opacity: 0.8"/>
   </g>
   <g id="patch_95">
    <path d="M 270.073466 116.684369 
L 273.082214 116.684369 
L 273.082214 25.380749 
L 270.073466 25.380749 
z
" clip-path="url(#p8e8e4af9c8)" style="fill: #d1d1d1; opacity: 0.8"/>
   </g>
   <g id="patch_96">
    <path d="M 273.082214 116.684369 
L 276.090961 116.684369 
L 276.090961 43.641473 
L 273.082214 43.641473 
z
" clip-path="url(#p8e8e4af9c8)" style="fill: #d1d1d1; opacity: 0.8"/>
   </g>
   <g id="patch_97">
    <path d="M 276.090961 116.684369 
L 279.099708 116.684369 
L 279.099708 80.162921 
L 276.090961 80.162921 
z
" clip-path="url(#p8e8e4af9c8)" style="fill: #d1d1d1; opacity: 0.8"/>
   </g>
   <g id="patch_98">
    <path d="M 279.099708 116.684369 
L 282.108456 116.684369 
L 282.108456 98.423645 
L 279.099708 98.423645 
z
" clip-path="url(#p8e8e4af9c8)" style="fill: #d1d1d1; opacity: 0.8"/>
   </g>
   <g id="patch_99">
    <path d="M 282.108456 116.684369 
L 285.117203 116.684369 
L 285.117203 80.162921 
L 282.108456 80.162921 
z
" clip-path="url(#p8e8e4af9c8)" style="fill: #d1d1d1; opacity: 0.8"/>
   </g>
   <g id="patch_100">
    <path d="M 285.117203 116.684369 
L 288.125951 116.684369 
L 288.125951 98.423645 
L 285.117203 98.423645 
z
" clip-path="url(#p8e8e4af9c8)" style="fill: #d1d1d1; opacity: 0.8"/>
   </g>
   <g id="matplotlib.axis_5">
    <g id="xtick_8">
     <g id="line2d_10">
      <g>
       <use xlink:href="#m92d413d345" x="232.891157" y="116.684369" style="stroke: #000000; stroke-width: 0.8"/>
      </g>
     </g>
     <g id="text_14">
      <!-- −20 -->
      <g transform="translate(226.106157 129.508588) scale(0.08 -0.08)">
       <use xlink:href="#ArialMT-ed"/>
       <use xlink:href="#ArialMT-15" transform="translate(58.40625 0)"/>
       <use xlink:href="#ArialMT-13" transform="translate(114.015625 0)"/>
      </g>
     </g>
    </g>
    <g id="xtick_9">
     <g id="line2d_11">
      <g>
       <use xlink:href="#m92d413d345" x="271.789723" y="116.684369" style="stroke: #000000; stroke-width: 0.8"/>
      </g>
     </g>
     <g id="text_15">
      <!-- 0 -->
      <g transform="translate(269.565348 129.508588) scale(0.08 -0.08)">
       <use xlink:href="#ArialMT-13"/>
      </g>
     </g>
    </g>
    <g id="text_16">
     <!-- boundary excess (BR) -->
     <g transform="translate(220.130962 141.744428) scale(0.09 -0.09)">
      <defs>
       <path id="ArialMT-5b" d="M 47 0 
L 1259 1725 
L 138 3319 
L 841 3319 
L 1350 2541 
Q 1494 2319 1581 2169 
Q 1719 2375 1834 2534 
L 2394 3319 
L 3066 3319 
L 1919 1756 
L 3153 0 
L 2463 0 
L 1781 1031 
L 1600 1309 
L 728 0 
L 47 0 
z
" transform="scale(0.015625)"/>
       <path id="ArialMT-b" d="M 1497 -1347 
Q 1031 -759 709 28 
Q 388 816 388 1659 
Q 388 2403 628 3084 
Q 909 3875 1497 4659 
L 1900 4659 
Q 1522 4009 1400 3731 
Q 1209 3300 1100 2831 
Q 966 2247 966 1656 
Q 966 153 1900 -1347 
L 1497 -1347 
z
" transform="scale(0.015625)"/>
       <path id="ArialMT-25" d="M 469 0 
L 469 4581 
L 2188 4581 
Q 2713 4581 3030 4442 
Q 3347 4303 3526 4014 
Q 3706 3725 3706 3409 
Q 3706 3116 3547 2856 
Q 3388 2597 3066 2438 
Q 3481 2316 3704 2022 
Q 3928 1728 3928 1328 
Q 3928 1006 3792 729 
Q 3656 453 3456 303 
Q 3256 153 2954 76 
Q 2653 0 2216 0 
L 469 0 
z
M 1075 2656 
L 2066 2656 
Q 2469 2656 2644 2709 
Q 2875 2778 2992 2937 
Q 3109 3097 3109 3338 
Q 3109 3566 3000 3739 
Q 2891 3913 2687 3977 
Q 2484 4041 1991 4041 
L 1075 4041 
L 1075 2656 
z
M 1075 541 
L 2216 541 
Q 2509 541 2628 563 
Q 2838 600 2978 687 
Q 3119 775 3209 942 
Q 3300 1109 3300 1328 
Q 3300 1584 3169 1773 
Q 3038 1963 2805 2039 
Q 2572 2116 2134 2116 
L 1075 2116 
L 1075 541 
z
" transform="scale(0.015625)"/>
       <path id="ArialMT-35" d="M 503 0 
L 503 4581 
L 2534 4581 
Q 3147 4581 3465 4457 
Q 3784 4334 3975 4021 
Q 4166 3709 4166 3331 
Q 4166 2844 3850 2509 
Q 3534 2175 2875 2084 
Q 3116 1969 3241 1856 
Q 3506 1613 3744 1247 
L 4541 0 
L 3778 0 
L 3172 953 
Q 2906 1366 2734 1584 
Q 2563 1803 2427 1890 
Q 2291 1978 2150 2013 
Q 2047 2034 1813 2034 
L 1109 2034 
L 1109 0 
L 503 0 
z
M 1109 2559 
L 2413 2559 
Q 2828 2559 3062 2645 
Q 3297 2731 3419 2920 
Q 3541 3109 3541 3331 
Q 3541 3656 3305 3865 
Q 3069 4075 2559 4075 
L 1109 4075 
L 1109 2559 
z
" transform="scale(0.015625)"/>
       <path id="ArialMT-c" d="M 791 -1347 
L 388 -1347 
Q 1322 153 1322 1656 
Q 1322 2244 1188 2822 
Q 1081 3291 891 3722 
Q 769 4003 388 4659 
L 791 4659 
Q 1378 3875 1659 3084 
Q 1900 2403 1900 1659 
Q 1900 816 1576 28 
Q 1253 -759 791 -1347 
z
" transform="scale(0.015625)"/>
      </defs>
      <use xlink:href="#ArialMT-45"/>
      <use xlink:href="#ArialMT-52" transform="translate(55.609375 0)"/>
      <use xlink:href="#ArialMT-58" transform="translate(111.21875 0)"/>
      <use xlink:href="#ArialMT-51" transform="translate(166.828125 0)"/>
      <use xlink:href="#ArialMT-47" transform="translate(222.4375 0)"/>
      <use xlink:href="#ArialMT-44" transform="translate(278.046875 0)"/>
      <use xlink:href="#ArialMT-55" transform="translate(333.65625 0)"/>
      <use xlink:href="#ArialMT-5c" transform="translate(366.953125 0)"/>
      <use xlink:href="#ArialMT-3" transform="translate(416.953125 0)"/>
      <use xlink:href="#ArialMT-48" transform="translate(444.734375 0)"/>
      <use xlink:href="#ArialMT-5b" transform="translate(500.34375 0)"/>
      <use xlink:href="#ArialMT-46" transform="translate(550.34375 0)"/>
      <use xlink:href="#ArialMT-48" transform="translate(600.34375 0)"/>
      <use xlink:href="#ArialMT-56" transform="translate(655.953125 0)"/>
      <use xlink:href="#ArialMT-56" transform="translate(705.953125 0)"/>
      <use xlink:href="#ArialMT-3" transform="translate(755.953125 0)"/>
      <use xlink:href="#ArialMT-b" transform="translate(783.734375 0)"/>
      <use xlink:href="#ArialMT-25" transform="translate(817.03125 0)"/>
      <use xlink:href="#ArialMT-35" transform="translate(883.734375 0)"/>
      <use xlink:href="#ArialMT-c" transform="translate(955.953125 0)"/>
     </g>
    </g>
   </g>
   <g id="matplotlib.axis_6"/>
   <g id="line2d_12">
    <path d="M 299.045755 116.684369 
L 299.045755 19.532369 
" clip-path="url(#p8e8e4af9c8)" style="fill: none; stroke: #000000; stroke-width: 1.4; stroke-linecap: square"/>
   </g>
   <g id="patch_101">
    <path d="M 230.08084 116.684369 
L 230.08084 19.532369 
" style="fill: none; stroke: #000000; stroke-width: 0.8; stroke-linejoin: miter; stroke-linecap: square"/>
   </g>
   <g id="patch_102">
    <path d="M 230.08084 116.684369 
L 299.213584 116.684369 
" style="fill: none; stroke: #000000; stroke-width: 0.8; stroke-linejoin: miter; stroke-linecap: square"/>
   </g>
   <g id="text_17">
    <!-- C -->
    <g transform="translate(222.198498 13.752246) scale(0.09 -0.09)">
     <defs>
      <path id="Arial-BoldMT-26" d="M 3397 1684 
L 4294 1400 
Q 4088 650 3608 286 
Q 3128 -78 2391 -78 
Q 1478 -78 890 545 
Q 303 1169 303 2250 
Q 303 3394 893 4026 
Q 1484 4659 2447 4659 
Q 3288 4659 3813 4163 
Q 4125 3869 4281 3319 
L 3366 3100 
Q 3284 3456 3026 3662 
Q 2769 3869 2400 3869 
Q 1891 3869 1573 3503 
Q 1256 3138 1256 2319 
Q 1256 1450 1568 1081 
Q 1881 713 2381 713 
Q 2750 713 3015 947 
Q 3281 1181 3397 1684 
z
" transform="scale(0.015625)"/>
     </defs>
     <use xlink:href="#Arial-BoldMT-26"/>
    </g>
   </g>
  </g>
  <g id="axes_4">
   <g id="patch_103">
    <path d="M 337.236593 116.684369 
L 406.369336 116.684369 
L 406.369336 19.532369 
L 337.236593 19.532369 
z
" style="fill: #ffffff"/>
   </g>
   <g id="patch_104">
    <path d="M 340.441406 116.684369 
L 343.929491 116.684369 
L 343.929491 54.994138 
L 340.441406 54.994138 
z
" clip-path="url(#pa99959e974)" style="fill: #404040; opacity: 0.55"/>
   </g>
   <g id="patch_105">
    <path d="M 343.929491 116.684369 
L 347.417576 116.684369 
L 347.417576 51.566903 
L 343.929491 51.566903 
z
" clip-path="url(#pa99959e974)" style="fill: #404040; opacity: 0.55"/>
   </g>
   <g id="patch_106">
    <path d="M 347.417576 116.684369 
L 350.905661 116.684369 
L 350.905661 83.391228 
L 347.417576 83.391228 
z
" clip-path="url(#pa99959e974)" style="fill: #404040; opacity: 0.55"/>
   </g>
   <g id="patch_107">
    <path d="M 350.905661 116.684369 
L 354.393746 116.684369 
L 354.393746 92.204119 
L 350.905661 92.204119 
z
" clip-path="url(#pa99959e974)" style="fill: #404040; opacity: 0.55"/>
   </g>
   <g id="patch_108">
    <path d="M 354.393746 116.684369 
L 357.881831 116.684369 
L 357.881831 99.058589 
L 354.393746 99.058589 
z
" clip-path="url(#pa99959e974)" style="fill: #404040; opacity: 0.55"/>
   </g>
   <g id="patch_109">
    <path d="M 357.881831 116.684369 
L 361.369917 116.684369 
L 361.369917 101.506614 
L 357.881831 101.506614 
z
" clip-path="url(#pa99959e974)" style="fill: #404040; opacity: 0.55"/>
   </g>
   <g id="patch_110">
    <path d="M 361.369917 116.684369 
L 364.858002 116.684369 
L 364.858002 108.850689 
L 361.369917 108.850689 
z
" clip-path="url(#pa99959e974)" style="fill: #404040; opacity: 0.55"/>
   </g>
   <g id="patch_111">
    <path d="M 364.858002 116.684369 
L 368.346087 116.684369 
L 368.346087 111.788319 
L 364.858002 111.788319 
z
" clip-path="url(#pa99959e974)" style="fill: #404040; opacity: 0.55"/>
   </g>
   <g id="patch_112">
    <path d="M 368.346087 116.684369 
L 371.834172 116.684369 
L 371.834172 113.257134 
L 368.346087 113.257134 
z
" clip-path="url(#pa99959e974)" style="fill: #404040; opacity: 0.55"/>
   </g>
   <g id="patch_113">
    <path d="M 371.834172 116.684369 
L 375.322257 116.684369 
L 375.322257 115.215554 
L 371.834172 115.215554 
z
" clip-path="url(#pa99959e974)" style="fill: #404040; opacity: 0.55"/>
   </g>
   <g id="patch_114">
    <path d="M 375.322257 116.684369 
L 378.810342 116.684369 
L 378.810342 113.257134 
L 375.322257 113.257134 
z
" clip-path="url(#pa99959e974)" style="fill: #404040; opacity: 0.55"/>
   </g>
   <g id="patch_115">
    <path d="M 378.810342 116.684369 
L 382.298428 116.684369 
L 382.298428 115.215554 
L 378.810342 115.215554 
z
" clip-path="url(#pa99959e974)" style="fill: #404040; opacity: 0.55"/>
   </g>
   <g id="patch_116">
    <path d="M 382.298428 116.684369 
L 385.786513 116.684369 
L 385.786513 116.194764 
L 382.298428 116.194764 
z
" clip-path="url(#pa99959e974)" style="fill: #404040; opacity: 0.55"/>
   </g>
   <g id="patch_117">
    <path d="M 385.786513 116.684369 
L 389.274598 116.684369 
L 389.274598 116.194764 
L 385.786513 116.194764 
z
" clip-path="url(#pa99959e974)" style="fill: #404040; opacity: 0.55"/>
   </g>
   <g id="patch_118">
    <path d="M 389.274598 116.684369 
L 392.762683 116.684369 
L 392.762683 115.215554 
L 389.274598 115.215554 
z
" clip-path="url(#pa99959e974)" style="fill: #404040; opacity: 0.55"/>
   </g>
   <g id="patch_119">
    <path d="M 392.762683 116.684369 
L 396.250768 116.684369 
L 396.250768 115.705159 
L 392.762683 115.705159 
z
" clip-path="url(#pa99959e974)" style="fill: #404040; opacity: 0.55"/>
   </g>
   <g id="patch_120">
    <path d="M 396.250768 116.684369 
L 399.738853 116.684369 
L 399.738853 116.684369 
L 396.250768 116.684369 
z
" clip-path="url(#pa99959e974)" style="fill: #404040; opacity: 0.55"/>
   </g>
   <g id="patch_121">
    <path d="M 399.738853 116.684369 
L 403.226939 116.684369 
L 403.226939 115.215554 
L 399.738853 115.215554 
z
" clip-path="url(#pa99959e974)" style="fill: #404040; opacity: 0.55"/>
   </g>
   <g id="patch_122">
    <path d="M 340.37899 116.684369 
L 343.455223 116.684369 
L 343.455223 24.158655 
L 340.37899 24.158655 
z
" clip-path="url(#pa99959e974)" style="fill: #d1d1d1; opacity: 0.8"/>
   </g>
   <g id="patch_123">
    <path d="M 343.455223 116.684369 
L 346.531456 116.684369 
L 346.531456 51.916369 
L 343.455223 51.916369 
z
" clip-path="url(#pa99959e974)" style="fill: #d1d1d1; opacity: 0.8"/>
   </g>
   <g id="patch_124">
    <path d="M 346.531456 116.684369 
L 349.607689 116.684369 
L 349.607689 116.684369 
L 346.531456 116.684369 
z
" clip-path="url(#pa99959e974)" style="fill: #d1d1d1; opacity: 0.8"/>
   </g>
   <g id="patch_125">
    <path d="M 349.607689 116.684369 
L 352.683922 116.684369 
L 352.683922 88.926655 
L 349.607689 88.926655 
z
" clip-path="url(#pa99959e974)" style="fill: #d1d1d1; opacity: 0.8"/>
   </g>
   <g id="patch_126">
    <path d="M 352.683922 116.684369 
L 355.760155 116.684369 
L 355.760155 79.674083 
L 352.683922 79.674083 
z
" clip-path="url(#pa99959e974)" style="fill: #d1d1d1; opacity: 0.8"/>
   </g>
   <g id="patch_127">
    <path d="M 355.760155 116.684369 
L 358.836388 116.684369 
L 358.836388 107.431798 
L 355.760155 107.431798 
z
" clip-path="url(#pa99959e974)" style="fill: #d1d1d1; opacity: 0.8"/>
   </g>
   <g id="patch_128">
    <path d="M 358.836388 116.684369 
L 361.912621 116.684369 
L 361.912621 98.179226 
L 358.836388 98.179226 
z
" clip-path="url(#pa99959e974)" style="fill: #d1d1d1; opacity: 0.8"/>
   </g>
   <g id="patch_129">
    <path d="M 361.912621 116.684369 
L 364.988854 116.684369 
L 364.988854 116.684369 
L 361.912621 116.684369 
z
" clip-path="url(#pa99959e974)" style="fill: #d1d1d1; opacity: 0.8"/>
   </g>
   <g id="patch_130">
    <path d="M 364.988854 116.684369 
L 368.065088 116.684369 
L 368.065088 98.179226 
L 364.988854 98.179226 
z
" clip-path="url(#pa99959e974)" style="fill: #d1d1d1; opacity: 0.8"/>
   </g>
   <g id="patch_131">
    <path d="M 368.065088 116.684369 
L 371.141321 116.684369 
L 371.141321 116.684369 
L 368.065088 116.684369 
z
" clip-path="url(#pa99959e974)" style="fill: #d1d1d1; opacity: 0.8"/>
   </g>
   <g id="patch_132">
    <path d="M 371.141321 116.684369 
L 374.217554 116.684369 
L 374.217554 116.684369 
L 371.141321 116.684369 
z
" clip-path="url(#pa99959e974)" style="fill: #d1d1d1; opacity: 0.8"/>
   </g>
   <g id="patch_133">
    <path d="M 374.217554 116.684369 
L 377.293787 116.684369 
L 377.293787 107.431798 
L 374.217554 107.431798 
z
" clip-path="url(#pa99959e974)" style="fill: #d1d1d1; opacity: 0.8"/>
   </g>
   <g id="matplotlib.axis_7">
    <g id="xtick_10">
     <g id="line2d_13">
      <g>
       <use xlink:href="#m92d413d345" x="340.074305" y="116.684369" style="stroke: #000000; stroke-width: 0.8"/>
      </g>
     </g>
     <g id="text_18">
      <!-- 0.00 -->
      <g transform="translate(332.28993 129.508588) scale(0.08 -0.08)">
       <use xlink:href="#ArialMT-13"/>
       <use xlink:href="#ArialMT-11" transform="translate(55.609375 0)"/>
       <use xlink:href="#ArialMT-13" transform="translate(83.390625 0)"/>
       <use xlink:href="#ArialMT-13" transform="translate(139 0)"/>
      </g>
     </g>
    </g>
    <g id="xtick_11">
     <g id="line2d_14">
      <g>
       <use xlink:href="#m92d413d345" x="379.595474" y="116.684369" style="stroke: #000000; stroke-width: 0.8"/>
      </g>
     </g>
     <g id="text_19">
      <!-- 0.01 -->
      <g transform="translate(371.811099 129.508588) scale(0.08 -0.08)">
       <use xlink:href="#ArialMT-13"/>
       <use xlink:href="#ArialMT-11" transform="translate(55.609375 0)"/>
       <use xlink:href="#ArialMT-13" transform="translate(83.390625 0)"/>
       <use xlink:href="#ArialMT-14" transform="translate(139 0)"/>
      </g>
     </g>
    </g>
    <g id="text_20">
     <!-- cultural $F_{ST}$ -->
     <g transform="translate(349.392964 141.762182) scale(0.09 -0.09)">
      <defs>
       <path id="DejaVuSans-Oblique-29" d="M 1081 4666 
L 3756 4666 
L 3653 4134 
L 1606 4134 
L 1338 2759 
L 3188 2759 
L 3084 2228 
L 1234 2228 
L 800 0 
L 172 0 
L 1081 4666 
z
" transform="scale(0.015625)"/>
       <path id="DejaVuSans-Oblique-36" d="M 3859 4513 
L 3738 3897 
Q 3422 4066 3111 4152 
Q 2800 4238 2509 4238 
Q 1944 4238 1609 3991 
Q 1275 3744 1275 3334 
Q 1275 3109 1398 2989 
Q 1522 2869 2034 2731 
L 2413 2638 
Q 3053 2472 3303 2217 
Q 3553 1963 3553 1503 
Q 3553 797 2998 353 
Q 2444 -91 1538 -91 
Q 1166 -91 791 -17 
Q 416 56 38 206 
L 166 856 
Q 513 641 861 531 
Q 1209 422 1556 422 
Q 2147 422 2503 684 
Q 2859 947 2859 1369 
Q 2859 1650 2717 1795 
Q 2575 1941 2106 2059 
L 1728 2156 
Q 1081 2325 845 2545 
Q 609 2766 609 3163 
Q 609 3859 1145 4304 
Q 1681 4750 2541 4750 
Q 2875 4750 3203 4690 
Q 3531 4631 3859 4513 
z
" transform="scale(0.015625)"/>
       <path id="DejaVuSans-Oblique-37" d="M 378 4666 
L 4325 4666 
L 4225 4134 
L 2559 4134 
L 1759 0 
L 1125 0 
L 1925 4134 
L 275 4134 
L 378 4666 
z
" transform="scale(0.015625)"/>
      </defs>
      <use xlink:href="#ArialMT-46" transform="translate(0 0.09375)"/>
      <use xlink:href="#ArialMT-58" transform="translate(50 0.09375)"/>
      <use xlink:href="#ArialMT-4f" transform="translate(105.615234 0.09375)"/>
      <use xlink:href="#ArialMT-57" transform="translate(127.832031 0.09375)"/>
      <use xlink:href="#ArialMT-58" transform="translate(155.615234 0.09375)"/>
      <use xlink:href="#ArialMT-55" transform="translate(211.230469 0.09375)"/>
      <use xlink:href="#ArialMT-44" transform="translate(244.53125 0.09375)"/>
      <use xlink:href="#ArialMT-4f" transform="translate(300.146484 0.09375)"/>
      <use xlink:href="#ArialMT-3" transform="translate(322.363281 0.09375)"/>
      <use xlink:href="#DejaVuSans-Oblique-29" transform="translate(350.146484 0.09375)"/>
      <use xlink:href="#DejaVuSans-Oblique-36" transform="translate(407.666016 -14.906201) scale(0.7)"/>
      <use xlink:href="#DejaVuSans-Oblique-37" transform="translate(452.099609 -14.906201) scale(0.7)"/>
     </g>
    </g>
   </g>
   <g id="matplotlib.axis_8"/>
   <g id="line2d_15">
    <path d="M 364.733716 116.684369 
L 364.733716 19.532369 
" clip-path="url(#pa99959e974)" style="fill: none; stroke: #000000; stroke-width: 1.4; stroke-linecap: square"/>
   </g>
   <g id="patch_134">
    <path d="M 337.236593 116.684369 
L 337.236593 19.532369 
" style="fill: none; stroke: #000000; stroke-width: 0.8; stroke-linejoin: miter; stroke-linecap: square"/>
   </g>
   <g id="patch_135">
    <path d="M 337.236593 116.684369 
L 406.369336 116.684369 
" style="fill: none; stroke: #000000; stroke-width: 0.8; stroke-linejoin: miter; stroke-linecap: square"/>
   </g>
   <g id="text_21">
    <!-- D -->
    <g transform="translate(329.35425 13.752246) scale(0.09 -0.09)">
     <defs>
      <path id="Arial-BoldMT-27" d="M 463 4581 
L 2153 4581 
Q 2725 4581 3025 4494 
Q 3428 4375 3715 4072 
Q 4003 3769 4153 3330 
Q 4303 2891 4303 2247 
Q 4303 1681 4163 1272 
Q 3991 772 3672 463 
Q 3431 228 3022 97 
Q 2716 0 2203 0 
L 463 0 
L 463 4581 
z
M 1388 3806 
L 1388 772 
L 2078 772 
Q 2466 772 2638 816 
Q 2863 872 3011 1006 
Q 3159 1141 3253 1448 
Q 3347 1756 3347 2288 
Q 3347 2819 3253 3103 
Q 3159 3388 2990 3547 
Q 2822 3706 2563 3763 
Q 2369 3806 1803 3806 
L 1388 3806 
z
" transform="scale(0.015625)"/>
     </defs>
     <use xlink:href="#Arial-BoldMT-27"/>
    </g>
   </g>
  </g>
  <g id="axes_5">
   <g id="patch_136">
    <path d="M 15.769336 274.556369 
L 84.902079 274.556369 
L 84.902079 167.689169 
L 15.769336 167.689169 
z
" style="fill: #ffffff"/>
   </g>
   <g id="PathCollection_1">
    <defs>
     <path id="m5c2762d7c4" d="M 0 2.12132 
C 0.562581 2.12132 1.102195 1.897805 1.5 1.5 
C 1.897805 1.102195 2.12132 0.562581 2.12132 0 
C 2.12132 -0.562581 1.897805 -1.102195 1.5 -1.5 
C 1.102195 -1.897805 0.562581 -2.12132 0 -2.12132 
C -0.562581 -2.12132 -1.102195 -1.897805 -1.5 -1.5 
C -1.897805 -1.102195 -2.12132 -0.562581 -2.12132 0 
C -2.12132 0.562581 -1.897805 1.102195 -1.5 1.5 
C -1.102195 1.897805 -0.562581 2.12132 0 2.12132 
z
" style="stroke: #ffffff; stroke-width: 0.4"/>
    </defs>
    <g clip-path="url(#pe2fc315c30)">
     <use xlink:href="#m5c2762d7c4" x="47.05627" y="218.189883" style="fill: #262626; stroke: #ffffff; stroke-width: 0.4"/>
     <use xlink:href="#m5c2762d7c4" x="42.216419" y="216.95403" style="fill: #262626; stroke: #ffffff; stroke-width: 0.4"/>
     <use xlink:href="#m5c2762d7c4" x="28.621296" y="245.770388" style="fill: #262626; stroke: #ffffff; stroke-width: 0.4"/>
     <use xlink:href="#m5c2762d7c4" x="57.341735" y="251.347019" style="fill: #262626; stroke: #ffffff; stroke-width: 0.4"/>
     <use xlink:href="#m5c2762d7c4" x="68.126899" y="225.743915" style="fill: #262626; stroke: #ffffff; stroke-width: 0.4"/>
     <use xlink:href="#m5c2762d7c4" x="48.271161" y="224.236226" style="fill: #262626; stroke: #ffffff; stroke-width: 0.4"/>
     <use xlink:href="#m5c2762d7c4" x="51.160431" y="269.698769" style="fill: #262626; stroke: #ffffff; stroke-width: 0.4"/>
     <use xlink:href="#m5c2762d7c4" x="81.759682" y="254.849424" style="fill: #262626; stroke: #ffffff; stroke-width: 0.4"/>
     <use xlink:href="#m5c2762d7c4" x="67.270171" y="248.591957" style="fill: #262626; stroke: #ffffff; stroke-width: 0.4"/>
     <use xlink:href="#m5c2762d7c4" x="46.311909" y="256.599019" style="fill: #262626; stroke: #ffffff; stroke-width: 0.4"/>
     <use xlink:href="#m5c2762d7c4" x="65.124727" y="255.20113" style="fill: #262626; stroke: #ffffff; stroke-width: 0.4"/>
     <use xlink:href="#m5c2762d7c4" x="42.622321" y="264.791085" style="fill: #262626; stroke: #ffffff; stroke-width: 0.4"/>
     <use xlink:href="#m5c2762d7c4" x="34.932793" y="235.983046" style="fill: #262626; stroke: #ffffff; stroke-width: 0.4"/>
     <use xlink:href="#m5c2762d7c4" x="42.025896" y="232.079493" style="fill: #262626; stroke: #ffffff; stroke-width: 0.4"/>
     <use xlink:href="#m5c2762d7c4" x="70.942128" y="249.210343" style="fill: #262626; stroke: #ffffff; stroke-width: 0.4"/>
     <use xlink:href="#m5c2762d7c4" x="19.305358" y="237.727087" style="fill: #262626; stroke: #ffffff; stroke-width: 0.4"/>
     <use xlink:href="#m5c2762d7c4" x="18.911733" y="238.947941" style="fill: #262626; stroke: #ffffff; stroke-width: 0.4"/>
    </g>
   </g>
   <g id="PathCollection_2">
    <defs>
     <path id="m62d3ac9166" d="M -2.12132 2.12132 
L 2.12132 2.12132 
L 2.12132 -2.12132 
L -2.12132 -2.12132 
z
" style="stroke: #ffffff; stroke-width: 0.4"/>
    </defs>
    <g clip-path="url(#pe2fc315c30)">
     <use xlink:href="#m62d3ac9166" x="36.970278" y="216.29746" style="fill: #8c8c8c; stroke: #ffffff; stroke-width: 0.4"/>
     <use xlink:href="#m62d3ac9166" x="75.300371" y="248.018883" style="fill: #8c8c8c; stroke: #ffffff; stroke-width: 0.4"/>
     <use xlink:href="#m62d3ac9166" x="22.30218" y="225.860602" style="fill: #8c8c8c; stroke: #ffffff; stroke-width: 0.4"/>
     <use xlink:href="#m62d3ac9166" x="30.958168" y="222.363075" style="fill: #8c8c8c; stroke: #ffffff; stroke-width: 0.4"/>
     <use xlink:href="#m62d3ac9166" x="79.299988" y="172.546769" style="fill: #8c8c8c; stroke: #ffffff; stroke-width: 0.4"/>
     <use xlink:href="#m62d3ac9166" x="39.22414" y="214.337143" style="fill: #8c8c8c; stroke: #ffffff; stroke-width: 0.4"/>
     <use xlink:href="#m62d3ac9166" x="32.074916" y="225.626917" style="fill: #8c8c8c; stroke: #ffffff; stroke-width: 0.4"/>
     <use xlink:href="#m62d3ac9166" x="43.039574" y="222.688345" style="fill: #8c8c8c; stroke: #ffffff; stroke-width: 0.4"/>
     <use xlink:href="#m62d3ac9166" x="76.388898" y="197.896258" style="fill: #8c8c8c; stroke: #ffffff; stroke-width: 0.4"/>
     <use xlink:href="#m62d3ac9166" x="30.707083" y="223.865175" style="fill: #8c8c8c; stroke: #ffffff; stroke-width: 0.4"/>
     <use xlink:href="#m62d3ac9166" x="35.912362" y="215.756538" style="fill: #8c8c8c; stroke: #ffffff; stroke-width: 0.4"/>
    </g>
   </g>
   <g id="matplotlib.axis_9">
    <g id="text_22">
     <!-- MDS 1 -->
     <g transform="translate(39.639379 281.65256) scale(0.07 -0.07)">
      <defs>
       <path id="ArialMT-30" d="M 475 0 
L 475 4581 
L 1388 4581 
L 2472 1338 
Q 2622 884 2691 659 
Q 2769 909 2934 1394 
L 4031 4581 
L 4847 4581 
L 4847 0 
L 4263 0 
L 4263 3834 
L 2931 0 
L 2384 0 
L 1059 3900 
L 1059 0 
L 475 0 
z
" transform="scale(0.015625)"/>
       <path id="ArialMT-27" d="M 494 0 
L 494 4581 
L 2072 4581 
Q 2606 4581 2888 4516 
Q 3281 4425 3559 4188 
Q 3922 3881 4101 3404 
Q 4281 2928 4281 2316 
Q 4281 1794 4159 1391 
Q 4038 988 3847 723 
Q 3656 459 3429 307 
Q 3203 156 2883 78 
Q 2563 0 2147 0 
L 494 0 
z
M 1100 541 
L 2078 541 
Q 2531 541 2789 625 
Q 3047 709 3200 863 
Q 3416 1078 3536 1442 
Q 3656 1806 3656 2325 
Q 3656 3044 3420 3430 
Q 3184 3816 2847 3947 
Q 2603 4041 2063 4041 
L 1100 4041 
L 1100 541 
z
" transform="scale(0.015625)"/>
       <path id="ArialMT-36" d="M 288 1472 
L 859 1522 
Q 900 1178 1048 958 
Q 1197 738 1509 602 
Q 1822 466 2213 466 
Q 2559 466 2825 569 
Q 3091 672 3220 851 
Q 3350 1031 3350 1244 
Q 3350 1459 3225 1620 
Q 3100 1781 2813 1891 
Q 2628 1963 1997 2114 
Q 1366 2266 1113 2400 
Q 784 2572 623 2826 
Q 463 3081 463 3397 
Q 463 3744 659 4045 
Q 856 4347 1234 4503 
Q 1613 4659 2075 4659 
Q 2584 4659 2973 4495 
Q 3363 4331 3572 4012 
Q 3781 3694 3797 3291 
L 3216 3247 
Q 3169 3681 2898 3903 
Q 2628 4125 2100 4125 
Q 1550 4125 1298 3923 
Q 1047 3722 1047 3438 
Q 1047 3191 1225 3031 
Q 1400 2872 2139 2705 
Q 2878 2538 3153 2413 
Q 3553 2228 3743 1945 
Q 3934 1663 3934 1294 
Q 3934 928 3725 604 
Q 3516 281 3123 101 
Q 2731 -78 2241 -78 
Q 1619 -78 1198 103 
Q 778 284 539 648 
Q 300 1013 288 1472 
z
" transform="scale(0.015625)"/>
      </defs>
      <use xlink:href="#ArialMT-30"/>
      <use xlink:href="#ArialMT-27" transform="translate(83.296875 0)"/>
      <use xlink:href="#ArialMT-36" transform="translate(155.515625 0)"/>
      <use xlink:href="#ArialMT-3" transform="translate(222.21875 0)"/>
      <use xlink:href="#ArialMT-14" transform="translate(250 0)"/>
     </g>
    </g>
   </g>
   <g id="matplotlib.axis_10">
    <g id="text_23">
     <!-- MDS 2 -->
     <g transform="translate(12.296191 231.819097) rotate(-90) scale(0.07 -0.07)">
      <use xlink:href="#ArialMT-30"/>
      <use xlink:href="#ArialMT-27" transform="translate(83.296875 0)"/>
      <use xlink:href="#ArialMT-36" transform="translate(155.515625 0)"/>
      <use xlink:href="#ArialMT-3" transform="translate(222.21875 0)"/>
      <use xlink:href="#ArialMT-15" transform="translate(250 0)"/>
     </g>
    </g>
   </g>
   <g id="patch_137">
    <path d="M 15.769336 274.556369 
L 15.769336 167.689169 
" style="fill: none; stroke: #000000; stroke-width: 0.8; stroke-linejoin: miter; stroke-linecap: square"/>
   </g>
   <g id="patch_138">
    <path d="M 15.769336 274.556369 
L 84.902079 274.556369 
" style="fill: none; stroke: #000000; stroke-width: 0.8; stroke-linejoin: miter; stroke-linecap: square"/>
   </g>
   <g id="text_24">
    <!-- observed -->
    <g transform="translate(17.151991 174.922704) scale(0.07 -0.07)">
     <defs>
      <path id="ArialMT-59" d="M 1344 0 
L 81 3319 
L 675 3319 
L 1388 1331 
Q 1503 1009 1600 663 
Q 1675 925 1809 1294 
L 2547 3319 
L 3125 3319 
L 1869 0 
L 1344 0 
z
" transform="scale(0.015625)"/>
     </defs>
     <use xlink:href="#ArialMT-52"/>
     <use xlink:href="#ArialMT-45" transform="translate(55.609375 0)"/>
     <use xlink:href="#ArialMT-56" transform="translate(111.21875 0)"/>
     <use xlink:href="#ArialMT-48" transform="translate(161.21875 0)"/>
     <use xlink:href="#ArialMT-55" transform="translate(216.828125 0)"/>
     <use xlink:href="#ArialMT-59" transform="translate(250.125 0)"/>
     <use xlink:href="#ArialMT-48" transform="translate(300.125 0)"/>
     <use xlink:href="#ArialMT-47" transform="translate(355.734375 0)"/>
    </g>
   </g>
   <g id="text_25">
    <!-- E -->
    <g transform="translate(8.3834 161.520438) scale(0.09 -0.09)">
     <defs>
      <path id="Arial-BoldMT-28" d="M 466 0 
L 466 4581 
L 3863 4581 
L 3863 3806 
L 1391 3806 
L 1391 2791 
L 3691 2791 
L 3691 2019 
L 1391 2019 
L 1391 772 
L 3950 772 
L 3950 0 
L 466 0 
z
" transform="scale(0.015625)"/>
     </defs>
     <use xlink:href="#Arial-BoldMT-28"/>
    </g>
   </g>
   <g id="PathCollection_3">
    <defs>
     <path id="md237b467f6" d="M 0 -5.477226 
L -1.229714 -1.692556 
L -5.209151 -1.692556 
L -1.989719 0.646499 
L -3.219432 4.431169 
L -0 2.092114 
L 3.219432 4.431169 
L 1.989719 0.646499 
L 5.209151 -1.692556 
L 1.229714 -1.692556 
z
" style="stroke: #000000; stroke-width: 0.8"/>
    </defs>
    <g clip-path="url(#pe2fc315c30)">
     <use xlink:href="#md237b467f6" x="32.074916" y="225.626917" style="fill: #ffffff; stroke: #000000; stroke-width: 0.8"/>
    </g>
   </g>
  </g>
  <g id="axes_6">
   <g id="patch_139">
    <path d="M 122.925088 274.556369 
L 192.057832 274.556369 
L 192.057832 167.689169 
L 122.925088 167.689169 
z
" style="fill: #ffffff"/>
   </g>
   <g id="PathCollection_4">
    <g clip-path="url(#p17d1b581da)">
     <use xlink:href="#m5c2762d7c4" x="159.267858" y="253.654854" style="fill: #262626; stroke: #ffffff; stroke-width: 0.4"/>
     <use xlink:href="#m5c2762d7c4" x="126.856376" y="230.483657" style="fill: #262626; stroke: #ffffff; stroke-width: 0.4"/>
     <use xlink:href="#m5c2762d7c4" x="152.154023" y="245.416586" style="fill: #262626; stroke: #ffffff; stroke-width: 0.4"/>
     <use xlink:href="#m5c2762d7c4" x="167.838914" y="225.236745" style="fill: #262626; stroke: #ffffff; stroke-width: 0.4"/>
     <use xlink:href="#m5c2762d7c4" x="132.488543" y="214.558542" style="fill: #262626; stroke: #ffffff; stroke-width: 0.4"/>
     <use xlink:href="#m5c2762d7c4" x="157.279069" y="247.615765" style="fill: #262626; stroke: #ffffff; stroke-width: 0.4"/>
     <use xlink:href="#m5c2762d7c4" x="170.31876" y="269.698769" style="fill: #262626; stroke: #ffffff; stroke-width: 0.4"/>
     <use xlink:href="#m5c2762d7c4" x="174.738908" y="232.49949" style="fill: #262626; stroke: #ffffff; stroke-width: 0.4"/>
     <use xlink:href="#m5c2762d7c4" x="177.621204" y="223.21399" style="fill: #262626; stroke: #ffffff; stroke-width: 0.4"/>
     <use xlink:href="#m5c2762d7c4" x="135.070484" y="223.17375" style="fill: #262626; stroke: #ffffff; stroke-width: 0.4"/>
     <use xlink:href="#m5c2762d7c4" x="186.285477" y="246.197649" style="fill: #262626; stroke: #ffffff; stroke-width: 0.4"/>
     <use xlink:href="#m5c2762d7c4" x="152.207606" y="211.976929" style="fill: #262626; stroke: #ffffff; stroke-width: 0.4"/>
     <use xlink:href="#m5c2762d7c4" x="174.812917" y="197.300863" style="fill: #262626; stroke: #ffffff; stroke-width: 0.4"/>
     <use xlink:href="#m5c2762d7c4" x="167.763486" y="232.664278" style="fill: #262626; stroke: #ffffff; stroke-width: 0.4"/>
     <use xlink:href="#m5c2762d7c4" x="156.798021" y="172.546769" style="fill: #262626; stroke: #ffffff; stroke-width: 0.4"/>
     <use xlink:href="#m5c2762d7c4" x="136.387467" y="241.428743" style="fill: #262626; stroke: #ffffff; stroke-width: 0.4"/>
     <use xlink:href="#m5c2762d7c4" x="140.486882" y="228.696434" style="fill: #262626; stroke: #ffffff; stroke-width: 0.4"/>
    </g>
   </g>
   <g id="PathCollection_5">
    <g clip-path="url(#p17d1b581da)">
     <use xlink:href="#m62d3ac9166" x="126.067486" y="239.915927" style="fill: #8c8c8c; stroke: #ffffff; stroke-width: 0.4"/>
     <use xlink:href="#m62d3ac9166" x="178.505982" y="248.158663" style="fill: #8c8c8c; stroke: #ffffff; stroke-width: 0.4"/>
     <use xlink:href="#m62d3ac9166" x="131.183457" y="245.353266" style="fill: #8c8c8c; stroke: #ffffff; stroke-width: 0.4"/>
     <use xlink:href="#m62d3ac9166" x="131.254689" y="215.261686" style="fill: #8c8c8c; stroke: #ffffff; stroke-width: 0.4"/>
     <use xlink:href="#m62d3ac9166" x="170.268729" y="240.768033" style="fill: #8c8c8c; stroke: #ffffff; stroke-width: 0.4"/>
     <use xlink:href="#m62d3ac9166" x="147.195759" y="232.497168" style="fill: #8c8c8c; stroke: #ffffff; stroke-width: 0.4"/>
     <use xlink:href="#m62d3ac9166" x="164.402841" y="195.507476" style="fill: #8c8c8c; stroke: #ffffff; stroke-width: 0.4"/>
     <use xlink:href="#m62d3ac9166" x="188.915434" y="220.036332" style="fill: #8c8c8c; stroke: #ffffff; stroke-width: 0.4"/>
     <use xlink:href="#m62d3ac9166" x="160.382469" y="236.781458" style="fill: #8c8c8c; stroke: #ffffff; stroke-width: 0.4"/>
     <use xlink:href="#m62d3ac9166" x="142.375612" y="245.293925" style="fill: #8c8c8c; stroke: #ffffff; stroke-width: 0.4"/>
     <use xlink:href="#m62d3ac9166" x="138.86181" y="236.389624" style="fill: #8c8c8c; stroke: #ffffff; stroke-width: 0.4"/>
    </g>
   </g>
   <g id="matplotlib.axis_11">
    <g id="text_26">
     <!-- MDS 1 -->
     <g transform="translate(146.795132 281.65256) scale(0.07 -0.07)">
      <use xlink:href="#ArialMT-30"/>
      <use xlink:href="#ArialMT-27" transform="translate(83.296875 0)"/>
      <use xlink:href="#ArialMT-36" transform="translate(155.515625 0)"/>
      <use xlink:href="#ArialMT-3" transform="translate(222.21875 0)"/>
      <use xlink:href="#ArialMT-14" transform="translate(250 0)"/>
     </g>
    </g>
   </g>
   <g id="matplotlib.axis_12">
    <g id="text_27">
     <!-- MDS 2 -->
     <g transform="translate(119.451944 231.819097) rotate(-90) scale(0.07 -0.07)">
      <use xlink:href="#ArialMT-30"/>
      <use xlink:href="#ArialMT-27" transform="translate(83.296875 0)"/>
      <use xlink:href="#ArialMT-36" transform="translate(155.515625 0)"/>
      <use xlink:href="#ArialMT-3" transform="translate(222.21875 0)"/>
      <use xlink:href="#ArialMT-15" transform="translate(250 0)"/>
     </g>
    </g>
   </g>
   <g id="patch_140">
    <path d="M 122.925088 274.556369 
L 122.925088 167.689169 
" style="fill: none; stroke: #000000; stroke-width: 0.8; stroke-linejoin: miter; stroke-linecap: square"/>
   </g>
   <g id="patch_141">
    <path d="M 122.925088 274.556369 
L 192.057832 274.556369 
" style="fill: none; stroke: #000000; stroke-width: 0.8; stroke-linejoin: miter; stroke-linecap: square"/>
   </g>
   <g id="text_28">
    <!-- one spatial-drift realization -->
    <g transform="translate(124.307743 174.922704) scale(0.07 -0.07)">
     <defs>
      <path id="ArialMT-5d" d="M 125 0 
L 125 456 
L 2238 2881 
Q 1878 2863 1603 2863 
L 250 2863 
L 250 3319 
L 2963 3319 
L 2963 2947 
L 1166 841 
L 819 456 
Q 1197 484 1528 484 
L 3063 484 
L 3063 0 
L 125 0 
z
" transform="scale(0.015625)"/>
     </defs>
     <use xlink:href="#ArialMT-52"/>
     <use xlink:href="#ArialMT-51" transform="translate(55.609375 0)"/>
     <use xlink:href="#ArialMT-48" transform="translate(111.21875 0)"/>
     <use xlink:href="#ArialMT-3" transform="translate(166.828125 0)"/>
     <use xlink:href="#ArialMT-56" transform="translate(194.609375 0)"/>
     <use xlink:href="#ArialMT-53" transform="translate(244.609375 0)"/>
     <use xlink:href="#ArialMT-44" transform="translate(300.21875 0)"/>
     <use xlink:href="#ArialMT-57" transform="translate(355.828125 0)"/>
     <use xlink:href="#ArialMT-4c" transform="translate(383.609375 0)"/>
     <use xlink:href="#ArialMT-44" transform="translate(405.828125 0)"/>
     <use xlink:href="#ArialMT-4f" transform="translate(461.4375 0)"/>
     <use xlink:href="#ArialMT-10" transform="translate(483.65625 0)"/>
     <use xlink:href="#ArialMT-47" transform="translate(516.953125 0)"/>
     <use xlink:href="#ArialMT-55" transform="translate(572.5625 0)"/>
     <use xlink:href="#ArialMT-4c" transform="translate(605.859375 0)"/>
     <use xlink:href="#ArialMT-49" transform="translate(628.078125 0)"/>
     <use xlink:href="#ArialMT-57" transform="translate(655.859375 0)"/>
     <use xlink:href="#ArialMT-3" transform="translate(683.640625 0)"/>
     <use xlink:href="#ArialMT-55" transform="translate(711.421875 0)"/>
     <use xlink:href="#ArialMT-48" transform="translate(744.71875 0)"/>
     <use xlink:href="#ArialMT-44" transform="translate(800.328125 0)"/>
     <use xlink:href="#ArialMT-4f" transform="translate(855.9375 0)"/>
     <use xlink:href="#ArialMT-4c" transform="translate(878.15625 0)"/>
     <use xlink:href="#ArialMT-5d" transform="translate(900.375 0)"/>
     <use xlink:href="#ArialMT-44" transform="translate(950.375 0)"/>
     <use xlink:href="#ArialMT-57" transform="translate(1005.984375 0)"/>
     <use xlink:href="#ArialMT-4c" transform="translate(1033.765625 0)"/>
     <use xlink:href="#ArialMT-52" transform="translate(1055.984375 0)"/>
     <use xlink:href="#ArialMT-51" transform="translate(1111.59375 0)"/>
    </g>
   </g>
   <g id="text_29">
    <!-- F -->
    <g transform="translate(116.045402 161.520438) scale(0.09 -0.09)">
     <defs>
      <path id="Arial-BoldMT-29" d="M 472 0 
L 472 4581 
L 3613 4581 
L 3613 3806 
L 1397 3806 
L 1397 2722 
L 3309 2722 
L 3309 1947 
L 1397 1947 
L 1397 0 
L 472 0 
z
" transform="scale(0.015625)"/>
     </defs>
     <use xlink:href="#Arial-BoldMT-29"/>
    </g>
   </g>
  </g>
  <g id="axes_7">
   <g id="patch_142">
    <path d="M 230.08084 274.556369 
L 299.213584 274.556369 
L 299.213584 167.689169 
L 230.08084 167.689169 
z
" style="fill: #ffffff"/>
   </g>
   <g id="PathCollection_6">
    <g clip-path="url(#p58e0c4b28d)">
     <use xlink:href="#m5c2762d7c4" x="268.940008" y="211.886447" style="fill: #262626; stroke: #ffffff; stroke-width: 0.4"/>
     <use xlink:href="#m5c2762d7c4" x="296.071186" y="244.952154" style="fill: #262626; stroke: #ffffff; stroke-width: 0.4"/>
     <use xlink:href="#m5c2762d7c4" x="272.041425" y="221.307897" style="fill: #262626; stroke: #ffffff; stroke-width: 0.4"/>
     <use xlink:href="#m5c2762d7c4" x="233.223238" y="263.658919" style="fill: #262626; stroke: #ffffff; stroke-width: 0.4"/>
     <use xlink:href="#m5c2762d7c4" x="276.796522" y="264.348329" style="fill: #262626; stroke: #ffffff; stroke-width: 0.4"/>
     <use xlink:href="#m5c2762d7c4" x="238.774836" y="244.221043" style="fill: #262626; stroke: #ffffff; stroke-width: 0.4"/>
     <use xlink:href="#m5c2762d7c4" x="263.190533" y="261.03018" style="fill: #262626; stroke: #ffffff; stroke-width: 0.4"/>
     <use xlink:href="#m5c2762d7c4" x="263.458947" y="236.563074" style="fill: #262626; stroke: #ffffff; stroke-width: 0.4"/>
     <use xlink:href="#m5c2762d7c4" x="293.090331" y="226.260392" style="fill: #262626; stroke: #ffffff; stroke-width: 0.4"/>
     <use xlink:href="#m5c2762d7c4" x="260.796975" y="269.698769" style="fill: #262626; stroke: #ffffff; stroke-width: 0.4"/>
     <use xlink:href="#m5c2762d7c4" x="273.995563" y="227.156165" style="fill: #262626; stroke: #ffffff; stroke-width: 0.4"/>
     <use xlink:href="#m5c2762d7c4" x="256.136699" y="212.551546" style="fill: #262626; stroke: #ffffff; stroke-width: 0.4"/>
     <use xlink:href="#m5c2762d7c4" x="278.904766" y="254.122848" style="fill: #262626; stroke: #ffffff; stroke-width: 0.4"/>
     <use xlink:href="#m5c2762d7c4" x="250.970712" y="251.458778" style="fill: #262626; stroke: #ffffff; stroke-width: 0.4"/>
     <use xlink:href="#m5c2762d7c4" x="250.108598" y="256.193608" style="fill: #262626; stroke: #ffffff; stroke-width: 0.4"/>
     <use xlink:href="#m5c2762d7c4" x="237.620469" y="254.951757" style="fill: #262626; stroke: #ffffff; stroke-width: 0.4"/>
     <use xlink:href="#m5c2762d7c4" x="247.464413" y="247.950024" style="fill: #262626; stroke: #ffffff; stroke-width: 0.4"/>
    </g>
   </g>
   <g id="PathCollection_7">
    <g clip-path="url(#p58e0c4b28d)">
     <use xlink:href="#m62d3ac9166" x="281.203172" y="265.058909" style="fill: #8c8c8c; stroke: #ffffff; stroke-width: 0.4"/>
     <use xlink:href="#m62d3ac9166" x="265.491749" y="195.815568" style="fill: #8c8c8c; stroke: #ffffff; stroke-width: 0.4"/>
     <use xlink:href="#m62d3ac9166" x="237.728899" y="269.217519" style="fill: #8c8c8c; stroke: #ffffff; stroke-width: 0.4"/>
     <use xlink:href="#m62d3ac9166" x="257.431628" y="250.685893" style="fill: #8c8c8c; stroke: #ffffff; stroke-width: 0.4"/>
     <use xlink:href="#m62d3ac9166" x="271.811342" y="230.181458" style="fill: #8c8c8c; stroke: #ffffff; stroke-width: 0.4"/>
     <use xlink:href="#m62d3ac9166" x="245.997879" y="233.935494" style="fill: #8c8c8c; stroke: #ffffff; stroke-width: 0.4"/>
     <use xlink:href="#m62d3ac9166" x="242.238808" y="252.623597" style="fill: #8c8c8c; stroke: #ffffff; stroke-width: 0.4"/>
     <use xlink:href="#m62d3ac9166" x="273.401856" y="255.495278" style="fill: #8c8c8c; stroke: #ffffff; stroke-width: 0.4"/>
     <use xlink:href="#m62d3ac9166" x="276.77713" y="251.254825" style="fill: #8c8c8c; stroke: #ffffff; stroke-width: 0.4"/>
     <use xlink:href="#m62d3ac9166" x="233.445037" y="172.546769" style="fill: #8c8c8c; stroke: #ffffff; stroke-width: 0.4"/>
     <use xlink:href="#m62d3ac9166" x="259.786091" y="246.20548" style="fill: #8c8c8c; stroke: #ffffff; stroke-width: 0.4"/>
    </g>
   </g>
   <g id="matplotlib.axis_13">
    <g id="text_30">
     <!-- MDS 1 -->
     <g transform="translate(253.950884 281.65256) scale(0.07 -0.07)">
      <use xlink:href="#ArialMT-30"/>
      <use xlink:href="#ArialMT-27" transform="translate(83.296875 0)"/>
      <use xlink:href="#ArialMT-36" transform="translate(155.515625 0)"/>
      <use xlink:href="#ArialMT-3" transform="translate(222.21875 0)"/>
      <use xlink:href="#ArialMT-14" transform="translate(250 0)"/>
     </g>
    </g>
   </g>
   <g id="matplotlib.axis_14">
    <g id="text_31">
     <!-- MDS 2 -->
     <g transform="translate(226.607696 231.819097) rotate(-90) scale(0.07 -0.07)">
      <use xlink:href="#ArialMT-30"/>
      <use xlink:href="#ArialMT-27" transform="translate(83.296875 0)"/>
      <use xlink:href="#ArialMT-36" transform="translate(155.515625 0)"/>
      <use xlink:href="#ArialMT-3" transform="translate(222.21875 0)"/>
      <use xlink:href="#ArialMT-15" transform="translate(250 0)"/>
     </g>
    </g>
   </g>
   <g id="patch_143">
    <path d="M 230.08084 274.556369 
L 230.08084 167.689169 
" style="fill: none; stroke: #000000; stroke-width: 0.8; stroke-linejoin: miter; stroke-linecap: square"/>
   </g>
   <g id="patch_144">
    <path d="M 230.08084 274.556369 
L 299.213584 274.556369 
" style="fill: none; stroke: #000000; stroke-width: 0.8; stroke-linejoin: miter; stroke-linecap: square"/>
   </g>
   <g id="text_32">
    <!-- one bounded-groups realization -->
    <g transform="translate(231.463495 174.922704) scale(0.07 -0.07)">
     <use xlink:href="#ArialMT-52"/>
     <use xlink:href="#ArialMT-51" transform="translate(55.609375 0)"/>
     <use xlink:href="#ArialMT-48" transform="translate(111.21875 0)"/>
     <use xlink:href="#ArialMT-3" transform="translate(166.828125 0)"/>
     <use xlink:href="#ArialMT-45" transform="translate(194.609375 0)"/>
     <use xlink:href="#ArialMT-52" transform="translate(250.21875 0)"/>
     <use xlink:href="#ArialMT-58" transform="translate(305.828125 0)"/>
     <use xlink:href="#ArialMT-51" transform="translate(361.4375 0)"/>
     <use xlink:href="#ArialMT-47" transform="translate(417.046875 0)"/>
     <use xlink:href="#ArialMT-48" transform="translate(472.65625 0)"/>
     <use xlink:href="#ArialMT-47" transform="translate(528.265625 0)"/>
     <use xlink:href="#ArialMT-10" transform="translate(583.875 0)"/>
     <use xlink:href="#ArialMT-4a" transform="translate(617.171875 0)"/>
     <use xlink:href="#ArialMT-55" transform="translate(672.78125 0)"/>
     <use xlink:href="#ArialMT-52" transform="translate(706.078125 0)"/>
     <use xlink:href="#ArialMT-58" transform="translate(761.6875 0)"/>
     <use xlink:href="#ArialMT-53" transform="translate(817.296875 0)"/>
     <use xlink:href="#ArialMT-56" transform="translate(872.90625 0)"/>
     <use xlink:href="#ArialMT-3" transform="translate(922.90625 0)"/>
     <use xlink:href="#ArialMT-55" transform="translate(950.6875 0)"/>
     <use xlink:href="#ArialMT-48" transform="translate(983.984375 0)"/>
     <use xlink:href="#ArialMT-44" transform="translate(1039.59375 0)"/>
     <use xlink:href="#ArialMT-4f" transform="translate(1095.203125 0)"/>
     <use xlink:href="#ArialMT-4c" transform="translate(1117.421875 0)"/>
     <use xlink:href="#ArialMT-5d" transform="translate(1139.640625 0)"/>
     <use xlink:href="#ArialMT-44" transform="translate(1189.640625 0)"/>
     <use xlink:href="#ArialMT-57" transform="translate(1245.25 0)"/>
     <use xlink:href="#ArialMT-4c" transform="translate(1273.03125 0)"/>
     <use xlink:href="#ArialMT-52" transform="translate(1295.25 0)"/>
     <use xlink:href="#ArialMT-51" transform="translate(1350.859375 0)"/>
    </g>
   </g>
   <g id="text_33">
    <!-- G -->
    <g transform="translate(221.697873 161.520438) scale(0.09 -0.09)">
     <defs>
      <path id="Arial-BoldMT-2a" d="M 2597 1684 
L 2597 2456 
L 4591 2456 
L 4591 631 
Q 4300 350 3748 136 
Q 3197 -78 2631 -78 
Q 1913 -78 1378 223 
Q 844 525 575 1086 
Q 306 1647 306 2306 
Q 306 3022 606 3578 
Q 906 4134 1484 4431 
Q 1925 4659 2581 4659 
Q 3434 4659 3914 4301 
Q 4394 3944 4531 3313 
L 3613 3141 
Q 3516 3478 3248 3673 
Q 2981 3869 2581 3869 
Q 1975 3869 1617 3484 
Q 1259 3100 1259 2344 
Q 1259 1528 1621 1120 
Q 1984 713 2572 713 
Q 2863 713 3155 827 
Q 3447 941 3656 1103 
L 3656 1684 
L 2597 1684 
z
" transform="scale(0.015625)"/>
     </defs>
     <use xlink:href="#Arial-BoldMT-2a"/>
    </g>
   </g>
  </g>
 </g>
 <defs>
  <clipPath id="p217bbde0c3">
   <rect x="15.769336" y="19.532369" width="69.132743" height="97.152"/>
  </clipPath>
  <clipPath id="paf14d3db44">
   <rect x="122.925088" y="19.532369" width="69.132743" height="97.152"/>
  </clipPath>
  <clipPath id="p8e8e4af9c8">
   <rect x="230.08084" y="19.532369" width="69.132743" height="97.152"/>
  </clipPath>
  <clipPath id="pa99959e974">
   <rect x="337.236593" y="19.532369" width="69.132743" height="97.152"/>
  </clipPath>
  <clipPath id="pe2fc315c30">
   <rect x="15.769336" y="167.689169" width="69.132743" height="106.8672"/>
  </clipPath>
  <clipPath id="p17d1b581da">
   <rect x="122.925088" y="167.689169" width="69.132743" height="106.8672"/>
  </clipPath>
  <clipPath id="p58e0c4b28d">
   <rect x="230.08084" y="167.689169" width="69.132743" height="106.8672"/>
  </clipPath>
 </defs>
</svg>
