<?xml version="1.0" encoding="utf-8" standalone="no"?>
<!DOCTYPE svg PUBLIC "-//W3C//DTD SVG 1.1//EN"
  "http://www.w3.org/Graphics/SVG/1.1/DTD/svg11.dtd">
<svg xmlns:xlink="http://www.w3.org/1999/xlink" width="451.198212pt" height="229.658187pt" viewBox="0 0 451.198212 229.658187" xmlns="http://www.w3.org/2000/svg" version="1.1">
 <metadata>
  <rdf:RDF xmlns:dc="http://purl.org/dc/elements/1.1/" xmlns:cc="http://creativecommons.org/ns#" xmlns:rdf="http://www.w3.org/1999/02/22-rdf-syntax-ns#">
   <cc:Work>
    <dc:type rdf:resource="http://purl.org/dc/dcmitype/StillImage"/>
    <dc:date>2026-06-17T20:56:54.399537</dc:date>
    <dc:format>image/svg+xml</dc:format>
    <dc:creator>
     <cc:Agent>
      <dc:title>Matplotlib v3.10.8, https://matplotlib.org/</dc:title>
     </cc:Agent>
    </dc:creator>
   </cc:Work>
  </rdf:RDF>
 </metadata>
 <defs>
  <style type="text/css">*{stroke-linejoin: round; stroke-linecap: butt}</style>
 </defs>
 <g id="figure_1">
  <g id="patch_1">
   <path d="M 0 229.658187 
L 451.198212 229.658187 
L 451.198212 0 
L 0 0 
z
" style="fill: #ffffff"/>
  </g>
  <g id="axes_1">
   <g id="patch_2">
    <path d="M 19.645938 195.696 
L 186.569014 195.696 
L 186.569014 7.2 
L 19.645938 7.2 
z
" style="fill: #ffffff"/>
   </g>
   <g id="FillBetweenPolyCollection_1">
    <defs>
     <path id="m53939e47e8" d="M 27.23335 -42.530187 
L 27.23335 -96.980672 
L 27.435951 -98.065023 
L 27.638552 -99.736846 
L 27.841153 -101.458219 
L 28.043755 -103.820234 
L 28.246356 -106.244536 
L 28.448957 -108.093584 
L 28.651558 -109.960636 
L 28.854159 -110.585613 
L 29.05676 -111.211395 
L 29.259361 -110.585613 
L 29.461963 -109.960636 
L 29.664564 -109.336772 
L 29.867165 -108.714322 
L 30.069766 -108.093584 
L 30.272367 -107.47485 
L 30.474968 -107.47485 
L 30.677569 -106.244536 
L 30.880171 -105.025616 
L 31.082772 -103.223267 
L 31.285373 -100.879275 
L 31.487974 -98.065023 
L 31.690575 -95.403093 
L 31.893176 -92.440025 
L 32.095777 -90.183779 
L 32.298379 -88.135281 
L 32.50098 -87.00997 
L 32.703581 -85.633721 
L 32.906182 -84.695919 
L 33.108783 -83.572368 
L 33.311384 -82.825001 
L 33.513985 -81.955097 
L 33.716586 -81.228545 
L 33.919188 -80.64316 
L 34.121789 -80.196056 
L 34.32439 -79.883743 
L 34.526991 -79.735576 
L 34.729592 -79.659138 
L 34.932193 -79.652459 
L 35.134794 -79.685744 
L 35.337396 -79.748479 
L 35.539997 -79.840014 
L 35.742598 -79.896374 
L 35.945199 -79.959685 
L 36.1478 -80.101016 
L 36.350401 -80.259813 
L 36.553002 -80.377496 
L 36.755604 -80.655941 
L 36.958205 -81.090156 
L 37.160806 -81.684491 
L 37.363407 -82.367585 
L 37.566008 -83.337703 
L 37.768609 -84.426985 
L 37.97121 -85.625191 
L 38.173811 -86.655769 
L 38.376413 -87.467779 
L 38.579014 -87.467779 
L 38.781615 -87.193517 
L 38.984216 -86.655769 
L 39.186817 -86.39241 
L 39.389418 -85.877052 
L 39.592019 -85.625191 
L 39.794621 -85.377305 
L 39.997222 -85.377305 
L 40.199823 -85.377305 
L 40.402424 -85.377305 
L 40.605025 -85.377305 
L 40.807626 -85.625191 
L 41.010227 -85.625191 
L 41.212829 -85.625191 
L 41.41543 -85.625191 
L 41.618031 -85.625191 
L 41.820632 -85.625191 
L 42.023233 -85.625191 
L 42.225834 -85.625191 
L 42.428435 -85.625191 
L 42.631037 -85.377305 
L 42.833638 -84.893748 
L 43.036239 -84.426985 
L 43.23884 -83.546362 
L 43.441441 -82.551566 
L 43.644042 -81.847165 
L 43.846643 -81.230108 
L 44.049244 -80.706068 
L 44.251846 -80.377496 
L 44.454447 -80.190464 
L 44.657048 -80.02986 
L 44.859649 -79.896374 
L 45.06225 -79.840014 
L 45.264851 -79.840014 
L 45.467452 -79.913833 
L 45.670054 -79.896374 
L 45.872655 -79.959685 
L 46.075256 -80.106815 
L 46.277857 -80.377496 
L 46.480458 -80.770826 
L 46.683059 -81.019008 
L 46.88566 -81.152129 
L 47.088262 -81.291151 
L 47.290863 -81.291151 
L 47.493464 -81.152129 
L 47.696065 -81.019008 
L 47.898666 -80.706068 
L 48.101267 -80.480704 
L 48.303868 -80.28072 
L 48.506469 -80.106815 
L 48.709071 -79.959685 
L 48.911672 -79.913833 
L 49.114273 -79.824035 
L 49.316874 -79.789883 
L 49.519475 -79.763002 
L 49.722076 -79.763002 
L 49.924677 -79.685744 
L 50.127279 -79.713471 
L 50.32988 -79.748479 
L 50.532481 -79.840014 
L 50.735082 -79.896374 
L 50.937683 -79.959685 
L 51.140284 -80.02986 
L 51.342885 -80.106815 
L 51.545487 -80.190464 
L 51.748088 -80.190464 
L 51.950689 -80.28072 
L 52.15329 -80.377496 
L 52.355891 -80.480704 
L 52.558492 -80.706068 
L 52.761093 -80.828047 
L 52.963695 -81.090156 
L 53.166296 -81.090156 
L 53.368897 -81.230108 
L 53.571498 -81.230108 
L 53.774099 -81.375874 
L 53.9767 -81.375874 
L 54.179301 -81.527365 
L 54.381902 -81.684491 
L 54.584504 -81.847165 
L 54.787105 -81.847165 
L 54.989706 -81.684491 
L 55.192307 -81.435987 
L 55.394908 -81.152129 
L 55.597509 -80.891878 
L 55.80011 -80.655941 
L 56.002712 -80.445019 
L 56.205313 -80.445019 
L 56.407914 -80.445019 
L 56.610515 -80.445019 
L 56.813116 -80.547309 
L 57.015717 -80.655941 
L 57.218318 -80.770826 
L 57.42092 -81.019008 
L 57.623521 -81.152129 
L 57.826122 -81.435987 
L 58.028723 -81.742747 
L 58.231324 -82.1888 
L 58.433925 -82.934764 
L 58.636526 -84.025113 
L 58.839127 -85.176824 
L 59.041729 -86.173152 
L 59.24433 -87.504777 
L 59.446931 -88.634138 
L 59.649532 -89.783776 
L 59.852133 -90.705035 
L 60.054734 -91.975679 
L 60.257335 -92.959677 
L 60.459937 -93.970014 
L 60.662538 -95.358366 
L 60.865139 -96.43123 
L 61.06774 -97.195915 
L 61.270341 -97.94065 
L 61.472942 -97.94065 
L 61.675543 -97.94065 
L 61.878145 -97.56663 
L 62.080746 -97.56663 
L 62.283347 -97.56663 
L 62.485948 -97.56663 
L 62.688549 -98.31803 
L 62.89115 -99.083115 
L 63.093751 -99.862417 
L 63.296353 -101.059344 
L 63.498954 -102.291887 
L 63.701555 -103.562616 
L 63.904156 -104.432374 
L 64.106757 -105.321258 
L 64.309358 -105.773163 
L 64.511959 -105.773163 
L 64.71456 -105.321258 
L 64.917162 -104.874368 
L 65.119763 -103.995162 
L 65.322364 -103.562616 
L 65.524965 -103.134627 
L 65.727566 -102.711086 
L 65.930167 -101.876929 
L 66.132768 -101.059344 
L 66.33537 -100.257582 
L 66.537971 -99.083115 
L 66.740572 -98.31803 
L 66.943173 -97.94065 
L 67.145774 -97.56663 
L 67.348375 -97.94065 
L 67.550976 -98.31803 
L 67.753578 -99.083115 
L 67.956179 -100.257582 
L 68.15878 -101.059344 
L 68.361381 -101.876929 
L 68.563982 -102.291887 
L 68.766583 -102.291887 
L 68.969184 -102.291887 
L 69.171785 -102.291887 
L 69.374387 -102.711086 
L 69.576988 -103.134627 
L 69.779589 -103.562616 
L 69.98219 -103.946307 
L 70.184791 -104.382316 
L 70.387392 -105.268716 
L 70.589993 -106.175091 
L 70.792595 -107.102429 
L 70.995196 -108.534966 
L 71.197797 -110.527987 
L 71.400398 -113.237989 
L 71.602999 -116.561029 
L 71.8056 -120.96112 
L 72.008201 -124.892575 
L 72.210803 -128.472474 
L 72.413404 -132.261299 
L 72.616005 -135.437431 
L 72.818606 -137.899547 
L 73.021207 -140.493983 
L 73.223808 -141.347217 
L 73.426409 -143.072178 
L 73.629011 -143.943456 
L 73.831612 -145.702408 
L 74.034213 -146.589574 
L 74.236814 -148.377938 
L 74.439415 -149.278571 
L 74.642016 -151.09126 
L 74.844617 -151.09126 
L 75.047218 -151.09126 
L 75.24982 -151.09126 
L 75.452421 -150.183113 
L 75.655022 -149.278571 
L 75.857623 -148.377938 
L 76.060224 -147.48151 
L 76.262825 -146.589574 
L 76.465426 -145.702408 
L 76.668028 -144.820282 
L 76.870629 -143.943456 
L 77.07323 -143.072178 
L 77.275831 -142.206688 
L 77.478432 -141.347217 
L 77.681033 -141.347217 
L 77.883634 -140.493983 
L 78.086236 -140.493983 
L 78.288837 -141.347217 
L 78.491438 -142.206688 
L 78.694039 -143.072178 
L 78.89664 -143.943456 
L 79.099241 -143.943456 
L 79.301842 -144.820282 
L 79.504443 -145.702408 
L 79.707045 -146.589574 
L 79.909646 -148.377938 
L 80.112247 -151.09126 
L 80.314848 -152.91711 
L 80.517449 -155.674874 
L 80.72005 -159.372936 
L 80.922651 -162.149728 
L 81.125253 -165.837417 
L 81.327854 -168.578978 
L 81.530455 -172.182839 
L 81.733056 -174.8342 
L 81.935657 -178.282522 
L 82.138258 -180.792034 
L 82.340859 -183.226583 
L 82.543461 -185.578691 
L 82.746062 -188.575248 
L 82.948663 -191.400352 
L 83.151264 -194.67554 
L 83.353865 -198.214302 
L 83.556466 -201.795561 
L 83.759067 -204.801306 
L 83.961668 -207.267472 
L 84.16427 -208.990563 
L 84.366871 -210.179198 
L 84.569472 -210.984135 
L 84.772073 -211.671146 
L 84.974674 -212.11515 
L 85.177275 -212.379422 
L 85.379876 -212.61956 
L 85.582478 -212.936646 
L 85.785079 -213.031285 
L 85.98768 -213.204578 
L 86.190281 -213.35715 
L 86.392882 -213.425867 
L 86.595483 -213.548517 
L 86.798084 -213.602576 
L 87.000686 -213.696435 
L 87.203287 -213.802252 
L 87.405888 -213.866928 
L 87.608489 -213.890187 
L 87.81109 -213.818865 
L 88.013691 -213.68143 
L 88.216292 -213.456103 
L 88.418894 -213.156422 
L 88.621495 -212.631993 
L 88.824096 -212.169848 
L 89.026697 -211.637511 
L 89.229298 -211.037577 
L 89.431899 -210.545475 
L 89.6345 -210.198425 
L 89.837101 -210.01946 
L 90.039703 -209.836991 
L 90.242304 -209.651119 
L 90.444905 -209.651119 
L 90.647506 -209.686033 
L 90.850107 -209.686033 
L 91.052708 -209.686033 
L 91.255309 -209.686033 
L 91.457911 -209.686033 
L 91.660512 -209.302167 
L 91.863113 -208.905799 
L 92.065714 -208.289931 
L 92.268315 -207.434554 
L 92.470916 -206.548538 
L 92.673517 -205.641816 
L 92.876119 -204.49523 
L 93.07872 -203.580418 
L 93.281321 -202.45724 
L 93.483922 -201.587139 
L 93.686523 -200.752197 
L 93.889124 -200.350438 
L 94.091725 -199.960332 
L 94.294326 -199.960332 
L 94.496928 -199.960332 
L 94.699529 -200.153878 
L 94.90213 -200.350438 
L 95.104731 -200.549912 
L 95.307332 -200.957181 
L 95.509933 -201.164748 
L 95.712534 -201.374776 
L 95.915136 -201.374776 
L 96.117737 -201.374776 
L 96.320338 -201.374776 
L 96.522939 -201.374776 
L 96.72554 -201.374776 
L 96.928141 -201.374776 
L 97.130742 -201.587139 
L 97.333344 -201.801705 
L 97.535945 -201.801705 
L 97.738546 -202.018338 
L 97.941147 -202.018338 
L 98.143748 -202.018338 
L 98.346349 -202.236897 
L 98.54895 -202.45724 
L 98.751552 -203.127473 
L 98.954153 -204.036774 
L 99.156754 -204.954457 
L 99.359355 -205.869873 
L 99.561956 -206.977972 
L 99.764557 -207.843613 
L 99.967158 -208.470507 
L 100.169759 -209.26958 
L 100.372361 -209.836991 
L 100.574962 -210.198425 
L 100.777563 -210.713385 
L 100.980164 -211.345787 
L 101.182765 -211.777053 
L 101.385366 -212.292042 
L 101.587967 -212.631993 
L 101.790569 -213.022385 
L 101.99317 -213.34033 
L 102.195771 -213.531201 
L 102.398372 -213.722509 
L 102.600973 -213.791219 
L 102.803574 -213.842045 
L 103.006175 -213.860765 
L 103.208777 -213.860765 
L 103.411378 -213.865676 
L 103.613979 -213.728604 
L 103.81658 -213.519652 
L 104.019181 -213.238176 
L 104.221782 -212.783832 
L 104.424383 -212.456732 
L 104.626984 -212.08926 
L 104.829586 -211.682187 
L 105.032187 -211.389342 
L 105.234788 -211.079811 
L 105.437389 -210.754095 
L 105.63999 -210.236464 
L 105.842591 -209.49572 
L 106.045192 -208.703225 
L 106.247794 -207.651644 
L 106.450395 -206.548538 
L 106.652996 -205.413117 
L 106.855597 -204.036774 
L 107.058198 -202.90268 
L 107.260799 -201.801705 
L 107.4634 -200.549912 
L 107.666002 -199.582646 
L 107.868603 -198.867071 
L 108.071204 -198.207654 
L 108.273805 -197.89971 
L 108.476406 -197.606401 
L 108.679007 -197.327657 
L 108.881608 -196.936371 
L 109.08421 -196.576128 
L 109.286811 -196.245027 
L 109.489412 -195.844397 
L 109.692013 -195.398067 
L 109.894614 -195.072796 
L 110.097215 -194.763647 
L 110.299816 -194.458228 
L 110.502417 -194.223735 
L 110.705019 -194.061678 
L 110.90762 -193.893076 
L 111.110221 -193.8058 
L 111.312822 -193.8058 
L 111.515423 -193.8058 
L 111.718024 -193.8058 
L 111.920625 -193.716265 
L 112.123227 -193.624269 
L 112.325828 -193.432097 
L 112.528429 -193.009678 
L 112.73103 -192.527041 
L 112.933631 -191.824232 
L 113.136232 -190.997617 
L 113.338833 -190.241663 
L 113.541435 -189.400889 
L 113.744036 -188.716429 
L 113.946637 -188.235896 
L 114.149238 -187.988768 
L 114.351839 -187.737282 
L 114.55444 -187.481624 
L 114.757041 -186.958613 
L 114.959642 -186.421545 
L 115.162244 -185.872502 
L 115.364845 -184.748167 
L 115.567446 -183.892912 
L 115.770047 -182.757094 
L 115.972648 -181.924434 
L 116.175249 -181.12306 
L 116.37785 -180.613223 
L 116.580452 -179.896089 
L 116.783053 -179.249657 
L 116.985654 -178.689308 
L 117.188255 -178.102253 
L 117.390856 -177.729297 
L 117.593457 -177.608519 
L 117.796058 -177.679715 
L 117.99866 -178.032922 
L 118.201261 -178.488768 
L 118.403862 -179.108296 
L 118.606463 -179.610332 
L 118.809064 -180.181045 
L 119.011665 -180.817315 
L 119.214266 -181.88573 
L 119.416868 -183.495771 
L 119.619469 -185.732871 
L 119.82207 -188.104476 
L 120.024671 -190.471748 
L 120.227272 -192.265636 
L 120.429873 -193.89423 
L 120.632474 -194.268007 
L 120.835075 -194.626626 
L 121.037677 -194.268007 
L 121.240278 -193.89423 
L 121.442879 -193.506165 
L 121.64548 -193.10473 
L 121.848081 -193.506165 
L 122.050682 -193.89423 
L 122.253283 -194.268007 
L 122.455885 -194.626626 
L 122.658486 -194.626626 
L 122.861087 -194.969265 
L 123.063688 -195.603599 
L 123.266289 -196.165583 
L 123.46889 -196.863496 
L 123.671491 -197.378463 
L 123.874093 -197.70569 
L 124.076694 -197.819754 
L 124.279295 -197.852297 
L 124.481896 -197.805989 
L 124.684497 -197.754366 
L 124.887098 -197.854759 
L 125.089699 -197.760936 
L 125.2923 -197.760936 
L 125.494902 -197.760936 
L 125.697503 -197.760936 
L 125.900104 -197.760936 
L 126.102705 -197.492228 
L 126.305306 -197.371217 
L 126.507907 -197.234563 
L 126.710508 -197.083028 
L 126.91311 -196.917406 
L 127.115711 -196.547226 
L 127.318312 -196.344389 
L 127.520913 -195.907658 
L 127.723514 -195.675576 
L 127.926115 -195.435569 
L 128.128716 -195.435569 
L 128.331318 -195.188552 
L 128.533919 -195.188552 
L 128.73652 -195.188552 
L 128.939121 -194.935441 
L 129.141722 -194.677143 
L 129.344323 -194.414555 
L 129.546924 -194.148563 
L 129.749526 -193.880035 
L 129.952127 -193.609821 
L 130.154728 -193.338748 
L 130.357329 -192.797207 
L 130.55993 -192.528262 
L 130.762531 -191.997597 
L 130.965132 -191.696311 
L 131.167733 -191.434534 
L 131.370335 -191.434534 
L 131.572936 -191.480948 
L 131.775537 -191.480948 
L 131.978138 -191.480948 
L 132.180739 -191.229389 
L 132.38334 -190.983072 
L 132.585941 -190.28041 
L 132.788543 -189.846372 
L 132.991144 -189.25355 
L 133.193745 -188.736148 
L 133.396346 -188.297855 
L 133.598947 -187.754272 
L 133.801548 -187.43941 
L 134.004149 -187.25744 
L 134.206751 -187.194426 
L 134.409352 -187.215021 
L 134.611953 -187.327125 
L 134.814554 -187.390105 
L 135.017155 -187.468014 
L 135.219756 -187.511677 
L 135.422357 -187.511677 
L 135.624958 -187.468014 
L 135.82756 -187.42737 
L 136.030161 -187.317469 
L 136.232762 -187.302096 
L 136.435363 -187.266616 
L 136.637964 -187.19531 
L 136.840565 -187.254571 
L 137.043166 -187.199918 
L 137.245768 -187.277463 
L 137.448369 -187.262736 
L 137.65097 -187.254571 
L 137.853571 -187.25269 
L 138.056172 -187.256804 
L 138.258773 -187.256804 
L 138.461374 -187.256804 
L 138.663976 -187.254571 
L 138.866577 -187.277463 
L 139.069178 -187.327661 
L 139.271779 -187.407167 
L 139.47438 -187.458478 
L 139.676981 -187.51777 
L 139.879582 -187.585229 
L 140.082183 -187.745304 
L 140.284785 -187.838203 
L 140.487386 -188.050276 
L 140.689987 -188.297855 
L 140.892588 -188.435042 
L 141.095189 -188.581154 
L 141.29779 -188.435042 
L 141.500391 -188.297855 
L 141.702993 -188.050276 
L 141.905594 -187.939831 
L 142.108195 -187.838203 
L 142.310796 -187.754272 
L 142.513397 -187.838203 
L 142.715998 -188.050276 
L 142.918599 -188.169604 
L 143.121201 -188.435042 
L 143.323802 -188.581154 
L 143.526403 -188.899953 
L 143.729004 -189.072466 
L 143.931605 -189.443038 
L 144.134206 -189.640725 
L 144.336807 -189.846372 
L 144.539409 -189.846372 
L 144.74201 -190.059705 
L 144.944611 -190.059705 
L 145.147212 -190.059705 
L 145.349813 -190.059705 
L 145.552414 -190.059705 
L 145.755015 -189.846372 
L 145.957616 -189.846372 
L 146.160218 -190.059705 
L 146.362819 -190.28041 
L 146.56542 -190.742501 
L 146.768021 -191.229389 
L 146.970622 -191.997597 
L 147.173223 -192.528262 
L 147.375824 -193.067618 
L 147.578426 -193.609821 
L 147.781027 -194.148563 
L 147.983628 -194.148563 
L 148.186229 -194.414555 
L 148.38883 -194.677143 
L 148.591431 -194.935441 
L 148.794032 -195.188552 
L 148.996634 -195.675576 
L 149.199235 -196.344389 
L 149.401836 -196.917406 
L 149.604437 -197.234563 
L 149.807038 -197.371217 
L 150.009639 -197.371217 
L 150.21224 -197.083028 
L 150.414841 -196.738522 
L 150.617443 -196.344389 
L 150.820044 -195.907658 
L 151.022645 -195.675576 
L 151.225246 -195.675576 
L 151.427847 -195.675576 
L 151.630448 -195.675576 
L 151.833049 -195.435569 
L 152.035651 -195.188552 
L 152.238252 -194.414555 
L 152.440853 -193.338748 
L 152.643454 -192.528262 
L 152.846055 -191.480948 
L 153.048656 -190.508138 
L 153.251257 -189.640725 
L 153.453859 -189.25355 
L 153.65646 -189.072466 
L 153.859061 -188.899953 
L 154.061662 -188.899953 
L 154.264263 -189.072466 
L 154.466864 -189.072466 
L 154.669465 -188.736148 
L 154.872067 -188.435042 
L 155.074668 -188.169604 
L 155.277269 -187.745304 
L 155.47987 -187.407167 
L 155.682471 -187.277463 
L 155.885072 -187.266616 
L 156.087673 -187.356575 
L 156.290274 -187.511677 
L 156.492876 -187.657057 
L 156.695477 -187.869977 
L 156.898078 -188.080652 
L 157.100679 -188.298074 
L 157.30328 -188.398811 
L 157.505881 -188.400402 
L 157.708482 -188.270396 
L 157.911084 -188.0669 
L 158.113685 -187.757524 
L 158.316286 -187.329281 
L 158.518887 -186.552492 
L 158.721488 -185.80148 
L 158.924089 -185.215369 
L 159.12669 -184.558186 
L 159.329292 -183.828018 
L 159.531893 -183.435079 
L 159.734494 -182.592748 
L 159.937095 -182.143144 
L 160.139696 -181.186739 
L 160.342297 -179.609062 
L 160.544898 -177.861173 
L 160.747499 -175.946924 
L 160.950101 -173.146822 
L 161.152702 -170.082907 
L 161.355303 -166.782002 
L 161.557904 -163.275948 
L 161.760505 -160.533046 
L 161.963106 -156.754827 
L 162.165707 -152.873524 
L 162.368309 -147.93462 
L 162.57091 -142.963742 
L 162.773511 -139.006085 
L 162.976112 -134.127275 
L 163.178713 -130.305322 
L 163.381314 -126.573265 
L 163.583915 -124.744651 
L 163.786517 -123.840171 
L 163.989118 -123.840171 
L 164.191719 -123.840171 
L 164.39432 -123.840171 
L 164.596921 -122.942374 
L 164.799522 -121.167141 
L 165.002123 -119.419411 
L 165.204725 -116.849828 
L 165.407326 -115.171412 
L 165.609927 -112.705143 
L 165.812528 -109.510262 
L 166.015129 -107.181529 
L 166.21773 -104.852534 
L 166.420331 -102.63419 
L 166.622932 -100.465429 
L 166.825534 -98.343525 
L 167.028135 -96.265967 
L 167.230736 -94.23054 
L 167.433337 -92.235383 
L 167.635938 -90.279029 
L 167.838539 -88.360416 
L 168.04114 -85.859906 
L 168.243742 -84.027494 
L 168.446343 -81.641973 
L 168.648944 -79.896835 
L 168.851545 -78.190342 
L 169.054146 -77.074656 
L 169.256747 -75.97695 
L 169.459348 -75.434952 
L 169.66195 -75.434952 
L 169.864551 -75.97695 
L 170.067152 -75.97695 
L 170.269753 -75.97695 
L 170.472354 -75.97695 
L 170.674955 -75.434952 
L 170.877556 -74.364898 
L 171.080157 -73.313752 
L 171.282759 -72.281893 
L 171.48536 -71.2697 
L 171.687961 -70.771093 
L 171.890562 -70.277539 
L 172.093163 -69.789082 
L 172.295764 -69.789082 
L 172.498365 -70.277539 
L 172.700967 -71.773315 
L 172.903568 -73.313752 
L 173.106169 -75.434952 
L 173.30877 -77.630274 
L 173.511371 -79.896835 
L 173.713972 -82.232119 
L 173.916573 -84.6342 
L 174.119175 -87.141067 
L 174.321776 -89.675088 
L 174.524377 -92.27653 
L 174.726978 -95.626853 
L 174.929579 -99.093567 
L 175.13218 -101.957325 
L 175.334781 -105.659792 
L 175.537383 -107.951528 
L 175.739984 -109.510262 
L 175.942585 -110.299181 
L 176.145186 -111.094581 
L 176.347787 -111.896544 
L 176.550388 -112.705143 
L 176.752989 -114.34252 
L 176.95559 -116.00717 
L 177.158192 -118.555939 
L 177.360793 -121.167141 
L 177.563394 -123.840171 
L 177.765995 -125.655721 
L 177.968596 -127.497155 
L 178.171197 -127.497155 
L 178.373798 -127.497155 
L 178.5764 -127.497155 
L 178.779001 -126.573265 
L 178.981602 -125.655721 
L 178.981602 -42.530187 
L 178.981602 -42.530187 
L 178.779001 -42.530187 
L 178.5764 -42.530187 
L 178.373798 -42.530187 
L 178.171197 -42.530187 
L 177.968596 -42.530187 
L 177.765995 -42.530187 
L 177.563394 -42.530187 
L 177.360793 -42.530187 
L 177.158192 -42.530187 
L 176.95559 -42.530187 
L 176.752989 -42.530187 
L 176.550388 -42.530187 
L 176.347787 -42.530187 
L 176.145186 -42.530187 
L 175.942585 -42.530187 
L 175.739984 -42.530187 
L 175.537383 -42.530187 
L 175.334781 -42.530187 
L 175.13218 -42.530187 
L 174.929579 -42.530187 
L 174.726978 -42.530187 
L 174.524377 -42.530187 
L 174.321776 -42.530187 
L 174.119175 -42.530187 
L 173.916573 -42.530187 
L 173.713972 -42.530187 
L 173.511371 -42.530187 
L 173.30877 -42.530187 
L 173.106169 -42.530187 
L 172.903568 -42.530187 
L 172.700967 -42.530187 
L 172.498365 -42.530187 
L 172.295764 -42.530187 
L 172.093163 -42.530187 
L 171.890562 -42.530187 
L 171.687961 -42.530187 
L 171.48536 -42.530187 
L 171.282759 -42.530187 
L 171.080157 -42.530187 
L 170.877556 -42.530187 
L 170.674955 -42.530187 
L 170.472354 -42.530187 
L 170.269753 -42.530187 
L 170.067152 -42.530187 
L 169.864551 -42.530187 
L 169.66195 -42.530187 
L 169.459348 -42.530187 
L 169.256747 -42.530187 
L 169.054146 -42.530187 
L 168.851545 -42.530187 
L 168.648944 -42.530187 
L 168.446343 -42.530187 
L 168.243742 -42.530187 
L 168.04114 -42.530187 
L 167.838539 -42.530187 
L 167.635938 -42.530187 
L 167.433337 -42.530187 
L 167.230736 -42.530187 
L 167.028135 -42.530187 
L 166.825534 -42.530187 
L 166.622932 -42.530187 
L 166.420331 -42.530187 
L 166.21773 -42.530187 
L 166.015129 -42.530187 
L 165.812528 -42.530187 
L 165.609927 -42.530187 
L 165.407326 -42.530187 
L 165.204725 -42.530187 
L 165.002123 -42.530187 
L 164.799522 -42.530187 
L 164.596921 -42.530187 
L 164.39432 -42.530187 
L 164.191719 -42.530187 
L 163.989118 -42.530187 
L 163.786517 -42.530187 
L 163.583915 -42.530187 
L 163.381314 -42.530187 
L 163.178713 -42.530187 
L 162.976112 -42.530187 
L 162.773511 -42.530187 
L 162.57091 -42.530187 
L 162.368309 -42.530187 
L 162.165707 -42.530187 
L 161.963106 -42.530187 
L 161.760505 -42.530187 
L 161.557904 -42.530187 
L 161.355303 -42.530187 
L 161.152702 -42.530187 
L 160.950101 -42.530187 
L 160.747499 -42.530187 
L 160.544898 -42.530187 
L 160.342297 -42.530187 
L 160.139696 -42.530187 
L 159.937095 -42.530187 
L 159.734494 -42.530187 
L 159.531893 -42.530187 
L 159.329292 -42.530187 
L 159.12669 -42.530187 
L 158.924089 -42.530187 
L 158.721488 -42.530187 
L 158.518887 -42.530187 
L 158.316286 -42.530187 
L 158.113685 -42.530187 
L 157.911084 -42.530187 
L 157.708482 -42.530187 
L 157.505881 -42.530187 
L 157.30328 -42.530187 
L 157.100679 -42.530187 
L 156.898078 -42.530187 
L 156.695477 -42.530187 
L 156.492876 -42.530187 
L 156.290274 -42.530187 
L 156.087673 -42.530187 
L 155.885072 -42.530187 
L 155.682471 -42.530187 
L 155.47987 -42.530187 
L 155.277269 -42.530187 
L 155.074668 -42.530187 
L 154.872067 -42.530187 
L 154.669465 -42.530187 
L 154.466864 -42.530187 
L 154.264263 -42.530187 
L 154.061662 -42.530187 
L 153.859061 -42.530187 
L 153.65646 -42.530187 
L 153.453859 -42.530187 
L 153.251257 -42.530187 
L 153.048656 -42.530187 
L 152.846055 -42.530187 
L 152.643454 -42.530187 
L 152.440853 -42.530187 
L 152.238252 -42.530187 
L 152.035651 -42.530187 
L 151.833049 -42.530187 
L 151.630448 -42.530187 
L 151.427847 -42.530187 
L 151.225246 -42.530187 
L 151.022645 -42.530187 
L 150.820044 -42.530187 
L 150.617443 -42.530187 
L 150.414841 -42.530187 
L 150.21224 -42.530187 
L 150.009639 -42.530187 
L 149.807038 -42.530187 
L 149.604437 -42.530187 
L 149.401836 -42.530187 
L 149.199235 -42.530187 
L 148.996634 -42.530187 
L 148.794032 -42.530187 
L 148.591431 -42.530187 
L 148.38883 -42.530187 
L 148.186229 -42.530187 
L 147.983628 -42.530187 
L 147.781027 -42.530187 
L 147.578426 -42.530187 
L 147.375824 -42.530187 
L 147.173223 -42.530187 
L 146.970622 -42.530187 
L 146.768021 -42.530187 
L 146.56542 -42.530187 
L 146.362819 -42.530187 
L 146.160218 -42.530187 
L 145.957616 -42.530187 
L 145.755015 -42.530187 
L 145.552414 -42.530187 
L 145.349813 -42.530187 
L 145.147212 -42.530187 
L 144.944611 -42.530187 
L 144.74201 -42.530187 
L 144.539409 -42.530187 
L 144.336807 -42.530187 
L 144.134206 -42.530187 
L 143.931605 -42.530187 
L 143.729004 -42.530187 
L 143.526403 -42.530187 
L 143.323802 -42.530187 
L 143.121201 -42.530187 
L 142.918599 -42.530187 
L 142.715998 -42.530187 
L 142.513397 -42.530187 
L 142.310796 -42.530187 
L 142.108195 -42.530187 
L 141.905594 -42.530187 
L 141.702993 -42.530187 
L 141.500391 -42.530187 
L 141.29779 -42.530187 
L 141.095189 -42.530187 
L 140.892588 -42.530187 
L 140.689987 -42.530187 
L 140.487386 -42.530187 
L 140.284785 -42.530187 
L 140.082183 -42.530187 
L 139.879582 -42.530187 
L 139.676981 -42.530187 
L 139.47438 -42.530187 
L 139.271779 -42.530187 
L 139.069178 -42.530187 
L 138.866577 -42.530187 
L 138.663976 -42.530187 
L 138.461374 -42.530187 
L 138.258773 -42.530187 
L 138.056172 -42.530187 
L 137.853571 -42.530187 
L 137.65097 -42.530187 
L 137.448369 -42.530187 
L 137.245768 -42.530187 
L 137.043166 -42.530187 
L 136.840565 -42.530187 
L 136.637964 -42.530187 
L 136.435363 -42.530187 
L 136.232762 -42.530187 
L 136.030161 -42.530187 
L 135.82756 -42.530187 
L 135.624958 -42.530187 
L 135.422357 -42.530187 
L 135.219756 -42.530187 
L 135.017155 -42.530187 
L 134.814554 -42.530187 
L 134.611953 -42.530187 
L 134.409352 -42.530187 
L 134.206751 -42.530187 
L 134.004149 -42.530187 
L 133.801548 -42.530187 
L 133.598947 -42.530187 
L 133.396346 -42.530187 
L 133.193745 -42.530187 
L 132.991144 -42.530187 
L 132.788543 -42.530187 
L 132.585941 -42.530187 
L 132.38334 -42.530187 
L 132.180739 -42.530187 
L 131.978138 -42.530187 
L 131.775537 -42.530187 
L 131.572936 -42.530187 
L 131.370335 -42.530187 
L 131.167733 -42.530187 
L 130.965132 -42.530187 
L 130.762531 -42.530187 
L 130.55993 -42.530187 
L 130.357329 -42.530187 
L 130.154728 -42.530187 
L 129.952127 -42.530187 
L 129.749526 -42.530187 
L 129.546924 -42.530187 
L 129.344323 -42.530187 
L 129.141722 -42.530187 
L 128.939121 -42.530187 
L 128.73652 -42.530187 
L 128.533919 -42.530187 
L 128.331318 -42.530187 
L 128.128716 -42.530187 
L 127.926115 -42.530187 
L 127.723514 -42.530187 
L 127.520913 -42.530187 
L 127.318312 -42.530187 
L 127.115711 -42.530187 
L 126.91311 -42.530187 
L 126.710508 -42.530187 
L 126.507907 -42.530187 
L 126.305306 -42.530187 
L 126.102705 -42.530187 
L 125.900104 -42.530187 
L 125.697503 -42.530187 
L 125.494902 -42.530187 
L 125.2923 -42.530187 
L 125.089699 -42.530187 
L 124.887098 -42.530187 
L 124.684497 -42.530187 
L 124.481896 -42.530187 
L 124.279295 -42.530187 
L 124.076694 -42.530187 
L 123.874093 -42.530187 
L 123.671491 -42.530187 
L 123.46889 -42.530187 
L 123.266289 -42.530187 
L 123.063688 -42.530187 
L 122.861087 -42.530187 
L 122.658486 -42.530187 
L 122.455885 -42.530187 
L 122.253283 -42.530187 
L 122.050682 -42.530187 
L 121.848081 -42.530187 
L 121.64548 -42.530187 
L 121.442879 -42.530187 
L 121.240278 -42.530187 
L 121.037677 -42.530187 
L 120.835075 -42.530187 
L 120.632474 -42.530187 
L 120.429873 -42.530187 
L 120.227272 -42.530187 
L 120.024671 -42.530187 
L 119.82207 -42.530187 
L 119.619469 -42.530187 
L 119.416868 -42.530187 
L 119.214266 -42.530187 
L 119.011665 -42.530187 
L 118.809064 -42.530187 
L 118.606463 -42.530187 
L 118.403862 -42.530187 
L 118.201261 -42.530187 
L 117.99866 -42.530187 
L 117.796058 -42.530187 
L 117.593457 -42.530187 
L 117.390856 -42.530187 
L 117.188255 -42.530187 
L 116.985654 -42.530187 
L 116.783053 -42.530187 
L 116.580452 -42.530187 
L 116.37785 -42.530187 
L 116.175249 -42.530187 
L 115.972648 -42.530187 
L 115.770047 -42.530187 
L 115.567446 -42.530187 
L 115.364845 -42.530187 
L 115.162244 -42.530187 
L 114.959642 -42.530187 
L 114.757041 -42.530187 
L 114.55444 -42.530187 
L 114.351839 -42.530187 
L 114.149238 -42.530187 
L 113.946637 -42.530187 
L 113.744036 -42.530187 
L 113.541435 -42.530187 
L 113.338833 -42.530187 
L 113.136232 -42.530187 
L 112.933631 -42.530187 
L 112.73103 -42.530187 
L 112.528429 -42.530187 
L 112.325828 -42.530187 
L 112.123227 -42.530187 
L 111.920625 -42.530187 
L 111.718024 -42.530187 
L 111.515423 -42.530187 
L 111.312822 -42.530187 
L 111.110221 -42.530187 
L 110.90762 -42.530187 
L 110.705019 -42.530187 
L 110.502417 -42.530187 
L 110.299816 -42.530187 
L 110.097215 -42.530187 
L 109.894614 -42.530187 
L 109.692013 -42.530187 
L 109.489412 -42.530187 
L 109.286811 -42.530187 
L 109.08421 -42.530187 
L 108.881608 -42.530187 
L 108.679007 -42.530187 
L 108.476406 -42.530187 
L 108.273805 -42.530187 
L 108.071204 -42.530187 
L 107.868603 -42.530187 
L 107.666002 -42.530187 
L 107.4634 -42.530187 
L 107.260799 -42.530187 
L 107.058198 -42.530187 
L 106.855597 -42.530187 
L 106.652996 -42.530187 
L 106.450395 -42.530187 
L 106.247794 -42.530187 
L 106.045192 -42.530187 
L 105.842591 -42.530187 
L 105.63999 -42.530187 
L 105.437389 -42.530187 
L 105.234788 -42.530187 
L 105.032187 -42.530187 
L 104.829586 -42.530187 
L 104.626984 -42.530187 
L 104.424383 -42.530187 
L 104.221782 -42.530187 
L 104.019181 -42.530187 
L 103.81658 -42.530187 
L 103.613979 -42.530187 
L 103.411378 -42.530187 
L 103.208777 -42.530187 
L 103.006175 -42.530187 
L 102.803574 -42.530187 
L 102.600973 -42.530187 
L 102.398372 -42.530187 
L 102.195771 -42.530187 
L 101.99317 -42.530187 
L 101.790569 -42.530187 
L 101.587967 -42.530187 
L 101.385366 -42.530187 
L 101.182765 -42.530187 
L 100.980164 -42.530187 
L 100.777563 -42.530187 
L 100.574962 -42.530187 
L 100.372361 -42.530187 
L 100.169759 -42.530187 
L 99.967158 -42.530187 
L 99.764557 -42.530187 
L 99.561956 -42.530187 
L 99.359355 -42.530187 
L 99.156754 -42.530187 
L 98.954153 -42.530187 
L 98.751552 -42.530187 
L 98.54895 -42.530187 
L 98.346349 -42.530187 
L 98.143748 -42.530187 
L 97.941147 -42.530187 
L 97.738546 -42.530187 
L 97.535945 -42.530187 
L 97.333344 -42.530187 
L 97.130742 -42.530187 
L 96.928141 -42.530187 
L 96.72554 -42.530187 
L 96.522939 -42.530187 
L 96.320338 -42.530187 
L 96.117737 -42.530187 
L 95.915136 -42.530187 
L 95.712534 -42.530187 
L 95.509933 -42.530187 
L 95.307332 -42.530187 
L 95.104731 -42.530187 
L 94.90213 -42.530187 
L 94.699529 -42.530187 
L 94.496928 -42.530187 
L 94.294326 -42.530187 
L 94.091725 -42.530187 
L 93.889124 -42.530187 
L 93.686523 -42.530187 
L 93.483922 -42.530187 
L 93.281321 -42.530187 
L 93.07872 -42.530187 
L 92.876119 -42.530187 
L 92.673517 -42.530187 
L 92.470916 -42.530187 
L 92.268315 -42.530187 
L 92.065714 -42.530187 
L 91.863113 -42.530187 
L 91.660512 -42.530187 
L 91.457911 -42.530187 
L 91.255309 -42.530187 
L 91.052708 -42.530187 
L 90.850107 -42.530187 
L 90.647506 -42.530187 
L 90.444905 -42.530187 
L 90.242304 -42.530187 
L 90.039703 -42.530187 
L 89.837101 -42.530187 
L 89.6345 -42.530187 
L 89.431899 -42.530187 
L 89.229298 -42.530187 
L 89.026697 -42.530187 
L 88.824096 -42.530187 
L 88.621495 -42.530187 
L 88.418894 -42.530187 
L 88.216292 -42.530187 
L 88.013691 -42.530187 
L 87.81109 -42.530187 
L 87.608489 -42.530187 
L 87.405888 -42.530187 
L 87.203287 -42.530187 
L 87.000686 -42.530187 
L 86.798084 -42.530187 
L 86.595483 -42.530187 
L 86.392882 -42.530187 
L 86.190281 -42.530187 
L 85.98768 -42.530187 
L 85.785079 -42.530187 
L 85.582478 -42.530187 
L 85.379876 -42.530187 
L 85.177275 -42.530187 
L 84.974674 -42.530187 
L 84.772073 -42.530187 
L 84.569472 -42.530187 
L 84.366871 -42.530187 
L 84.16427 -42.530187 
L 83.961668 -42.530187 
L 83.759067 -42.530187 
L 83.556466 -42.530187 
L 83.353865 -42.530187 
L 83.151264 -42.530187 
L 82.948663 -42.530187 
L 82.746062 -42.530187 
L 82.543461 -42.530187 
L 82.340859 -42.530187 
L 82.138258 -42.530187 
L 81.935657 -42.530187 
L 81.733056 -42.530187 
L 81.530455 -42.530187 
L 81.327854 -42.530187 
L 81.125253 -42.530187 
L 80.922651 -42.530187 
L 80.72005 -42.530187 
L 80.517449 -42.530187 
L 80.314848 -42.530187 
L 80.112247 -42.530187 
L 79.909646 -42.530187 
L 79.707045 -42.530187 
L 79.504443 -42.530187 
L 79.301842 -42.530187 
L 79.099241 -42.530187 
L 78.89664 -42.530187 
L 78.694039 -42.530187 
L 78.491438 -42.530187 
L 78.288837 -42.530187 
L 78.086236 -42.530187 
L 77.883634 -42.530187 
L 77.681033 -42.530187 
L 77.478432 -42.530187 
L 77.275831 -42.530187 
L 77.07323 -42.530187 
L 76.870629 -42.530187 
L 76.668028 -42.530187 
L 76.465426 -42.530187 
L 76.262825 -42.530187 
L 76.060224 -42.530187 
L 75.857623 -42.530187 
L 75.655022 -42.530187 
L 75.452421 -42.530187 
L 75.24982 -42.530187 
L 75.047218 -42.530187 
L 74.844617 -42.530187 
L 74.642016 -42.530187 
L 74.439415 -42.530187 
L 74.236814 -42.530187 
L 74.034213 -42.530187 
L 73.831612 -42.530187 
L 73.629011 -42.530187 
L 73.426409 -42.530187 
L 73.223808 -42.530187 
L 73.021207 -42.530187 
L 72.818606 -42.530187 
L 72.616005 -42.530187 
L 72.413404 -42.530187 
L 72.210803 -42.530187 
L 72.008201 -42.530187 
L 71.8056 -42.530187 
L 71.602999 -42.530187 
L 71.400398 -42.530187 
L 71.197797 -42.530187 
L 70.995196 -42.530187 
L 70.792595 -42.530187 
L 70.589993 -42.530187 
L 70.387392 -42.530187 
L 70.184791 -42.530187 
L 69.98219 -42.530187 
L 69.779589 -42.530187 
L 69.576988 -42.530187 
L 69.374387 -42.530187 
L 69.171785 -42.530187 
L 68.969184 -42.530187 
L 68.766583 -42.530187 
L 68.563982 -42.530187 
L 68.361381 -42.530187 
L 68.15878 -42.530187 
L 67.956179 -42.530187 
L 67.753578 -42.530187 
L 67.550976 -42.530187 
L 67.348375 -42.530187 
L 67.145774 -42.530187 
L 66.943173 -42.530187 
L 66.740572 -42.530187 
L 66.537971 -42.530187 
L 66.33537 -42.530187 
L 66.132768 -42.530187 
L 65.930167 -42.530187 
L 65.727566 -42.530187 
L 65.524965 -42.530187 
L 65.322364 -42.530187 
L 65.119763 -42.530187 
L 64.917162 -42.530187 
L 64.71456 -42.530187 
L 64.511959 -42.530187 
L 64.309358 -42.530187 
L 64.106757 -42.530187 
L 63.904156 -42.530187 
L 63.701555 -42.530187 
L 63.498954 -42.530187 
L 63.296353 -42.530187 
L 63.093751 -42.530187 
L 62.89115 -42.530187 
L 62.688549 -42.530187 
L 62.485948 -42.530187 
L 62.283347 -42.530187 
L 62.080746 -42.530187 
L 61.878145 -42.530187 
L 61.675543 -42.530187 
L 61.472942 -42.530187 
L 61.270341 -42.530187 
L 61.06774 -42.530187 
L 60.865139 -42.530187 
L 60.662538 -42.530187 
L 60.459937 -42.530187 
L 60.257335 -42.530187 
L 60.054734 -42.530187 
L 59.852133 -42.530187 
L 59.649532 -42.530187 
L 59.446931 -42.530187 
L 59.24433 -42.530187 
L 59.041729 -42.530187 
L 58.839127 -42.530187 
L 58.636526 -42.530187 
L 58.433925 -42.530187 
L 58.231324 -42.530187 
L 58.028723 -42.530187 
L 57.826122 -42.530187 
L 57.623521 -42.530187 
L 57.42092 -42.530187 
L 57.218318 -42.530187 
L 57.015717 -42.530187 
L 56.813116 -42.530187 
L 56.610515 -42.530187 
L 56.407914 -42.530187 
L 56.205313 -42.530187 
L 56.002712 -42.530187 
L 55.80011 -42.530187 
L 55.597509 -42.530187 
L 55.394908 -42.530187 
L 55.192307 -42.530187 
L 54.989706 -42.530187 
L 54.787105 -42.530187 
L 54.584504 -42.530187 
L 54.381902 -42.530187 
L 54.179301 -42.530187 
L 53.9767 -42.530187 
L 53.774099 -42.530187 
L 53.571498 -42.530187 
L 53.368897 -42.530187 
L 53.166296 -42.530187 
L 52.963695 -42.530187 
L 52.761093 -42.530187 
L 52.558492 -42.530187 
L 52.355891 -42.530187 
L 52.15329 -42.530187 
L 51.950689 -42.530187 
L 51.748088 -42.530187 
L 51.545487 -42.530187 
L 51.342885 -42.530187 
L 51.140284 -42.530187 
L 50.937683 -42.530187 
L 50.735082 -42.530187 
L 50.532481 -42.530187 
L 50.32988 -42.530187 
L 50.127279 -42.530187 
L 49.924677 -42.530187 
L 49.722076 -42.530187 
L 49.519475 -42.530187 
L 49.316874 -42.530187 
L 49.114273 -42.530187 
L 48.911672 -42.530187 
L 48.709071 -42.530187 
L 48.506469 -42.530187 
L 48.303868 -42.530187 
L 48.101267 -42.530187 
L 47.898666 -42.530187 
L 47.696065 -42.530187 
L 47.493464 -42.530187 
L 47.290863 -42.530187 
L 47.088262 -42.530187 
L 46.88566 -42.530187 
L 46.683059 -42.530187 
L 46.480458 -42.530187 
L 46.277857 -42.530187 
L 46.075256 -42.530187 
L 45.872655 -42.530187 
L 45.670054 -42.530187 
L 45.467452 -42.530187 
L 45.264851 -42.530187 
L 45.06225 -42.530187 
L 44.859649 -42.530187 
L 44.657048 -42.530187 
L 44.454447 -42.530187 
L 44.251846 -42.530187 
L 44.049244 -42.530187 
L 43.846643 -42.530187 
L 43.644042 -42.530187 
L 43.441441 -42.530187 
L 43.23884 -42.530187 
L 43.036239 -42.530187 
L 42.833638 -42.530187 
L 42.631037 -42.530187 
L 42.428435 -42.530187 
L 42.225834 -42.530187 
L 42.023233 -42.530187 
L 41.820632 -42.530187 
L 41.618031 -42.530187 
L 41.41543 -42.530187 
L 41.212829 -42.530187 
L 41.010227 -42.530187 
L 40.807626 -42.530187 
L 40.605025 -42.530187 
L 40.402424 -42.530187 
L 40.199823 -42.530187 
L 39.997222 -42.530187 
L 39.794621 -42.530187 
L 39.592019 -42.530187 
L 39.389418 -42.530187 
L 39.186817 -42.530187 
L 38.984216 -42.530187 
L 38.781615 -42.530187 
L 38.579014 -42.530187 
L 38.376413 -42.530187 
L 38.173811 -42.530187 
L 37.97121 -42.530187 
L 37.768609 -42.530187 
L 37.566008 -42.530187 
L 37.363407 -42.530187 
L 37.160806 -42.530187 
L 36.958205 -42.530187 
L 36.755604 -42.530187 
L 36.553002 -42.530187 
L 36.350401 -42.530187 
L 36.1478 -42.530187 
L 35.945199 -42.530187 
L 35.742598 -42.530187 
L 35.539997 -42.530187 
L 35.337396 -42.530187 
L 35.134794 -42.530187 
L 34.932193 -42.530187 
L 34.729592 -42.530187 
L 34.526991 -42.530187 
L 34.32439 -42.530187 
L 34.121789 -42.530187 
L 33.919188 -42.530187 
L 33.716586 -42.530187 
L 33.513985 -42.530187 
L 33.311384 -42.530187 
L 33.108783 -42.530187 
L 32.906182 -42.530187 
L 32.703581 -42.530187 
L 32.50098 -42.530187 
L 32.298379 -42.530187 
L 32.095777 -42.530187 
L 31.893176 -42.530187 
L 31.690575 -42.530187 
L 31.487974 -42.530187 
L 31.285373 -42.530187 
L 31.082772 -42.530187 
L 30.880171 -42.530187 
L 30.677569 -42.530187 
L 30.474968 -42.530187 
L 30.272367 -42.530187 
L 30.069766 -42.530187 
L 29.867165 -42.530187 
L 29.664564 -42.530187 
L 29.461963 -42.530187 
L 29.259361 -42.530187 
L 29.05676 -42.530187 
L 28.854159 -42.530187 
L 28.651558 -42.530187 
L 28.448957 -42.530187 
L 28.246356 -42.530187 
L 28.043755 -42.530187 
L 27.841153 -42.530187 
L 27.638552 -42.530187 
L 27.435951 -42.530187 
L 27.23335 -42.530187 
z
"/>
    </defs>
    <g clip-path="url(#p0c7ab6bac6)">
     <use xlink:href="#m53939e47e8" x="0" y="229.658187" style="fill: #0072b2; fill-opacity: 0.5"/>
    </g>
   </g>
   <g id="matplotlib.axis_1">
    <g id="xtick_1">
     <g id="line2d_1">
      <defs>
       <path id="med0a66b394" d="M 0 0 
L 0 3.5 
" style="stroke: #000000; stroke-width: 0.8"/>
      </defs>
      <g>
       <use xlink:href="#med0a66b394" x="27.23335" y="195.696" style="stroke: #000000; stroke-width: 0.8"/>
      </g>
     </g>
     <g id="text_1">
      <!-- 1000 -->
      <g transform="translate(18.33585 208.42225) scale(0.08 -0.08)">
       <defs>
        <path id="ArialMT-31" d="M 2384 0 
L 1822 0 
L 1822 3584 
Q 1619 3391 1289 3197 
Q 959 3003 697 2906 
L 697 3450 
Q 1169 3672 1522 3987 
Q 1875 4303 2022 4600 
L 2384 4600 
L 2384 0 
z
" transform="scale(0.015625)"/>
        <path id="ArialMT-30" d="M 266 2259 
Q 266 3072 433 3567 
Q 600 4063 929 4331 
Q 1259 4600 1759 4600 
Q 2128 4600 2406 4451 
Q 2684 4303 2865 4023 
Q 3047 3744 3150 3342 
Q 3253 2941 3253 2259 
Q 3253 1453 3087 958 
Q 2922 463 2592 192 
Q 2263 -78 1759 -78 
Q 1097 -78 719 397 
Q 266 969 266 2259 
z
M 844 2259 
Q 844 1131 1108 757 
Q 1372 384 1759 384 
Q 2147 384 2411 759 
Q 2675 1134 2675 2259 
Q 2675 3391 2411 3762 
Q 2147 4134 1753 4134 
Q 1366 4134 1134 3806 
Q 844 3388 844 2259 
z
" transform="scale(0.015625)"/>
       </defs>
       <use xlink:href="#ArialMT-31"/>
       <use xlink:href="#ArialMT-30" transform="translate(55.615234 0)"/>
       <use xlink:href="#ArialMT-30" transform="translate(111.230469 0)"/>
       <use xlink:href="#ArialMT-30" transform="translate(166.845703 0)"/>
      </g>
     </g>
    </g>
    <g id="xtick_2">
     <g id="line2d_2">
      <g>
       <use xlink:href="#med0a66b394" x="67.753578" y="195.696" style="stroke: #000000; stroke-width: 0.8"/>
      </g>
     </g>
     <g id="text_2">
      <!-- 1200 -->
      <g transform="translate(58.856078 208.42225) scale(0.08 -0.08)">
       <defs>
        <path id="ArialMT-32" d="M 3222 541 
L 3222 0 
L 194 0 
Q 188 203 259 391 
Q 375 700 629 1000 
Q 884 1300 1366 1694 
Q 2113 2306 2375 2664 
Q 2638 3022 2638 3341 
Q 2638 3675 2398 3904 
Q 2159 4134 1775 4134 
Q 1369 4134 1125 3890 
Q 881 3647 878 3216 
L 300 3275 
Q 359 3922 746 4261 
Q 1134 4600 1788 4600 
Q 2447 4600 2831 4234 
Q 3216 3869 3216 3328 
Q 3216 3053 3103 2787 
Q 2991 2522 2730 2228 
Q 2469 1934 1863 1422 
Q 1356 997 1212 845 
Q 1069 694 975 541 
L 3222 541 
z
" transform="scale(0.015625)"/>
       </defs>
       <use xlink:href="#ArialMT-31"/>
       <use xlink:href="#ArialMT-32" transform="translate(55.615234 0)"/>
       <use xlink:href="#ArialMT-30" transform="translate(111.230469 0)"/>
       <use xlink:href="#ArialMT-30" transform="translate(166.845703 0)"/>
      </g>
     </g>
    </g>
    <g id="xtick_3">
     <g id="line2d_3">
      <g>
       <use xlink:href="#med0a66b394" x="108.273805" y="195.696" style="stroke: #000000; stroke-width: 0.8"/>
      </g>
     </g>
     <g id="text_3">
      <!-- 1400 -->
      <g transform="translate(99.376305 208.42225) scale(0.08 -0.08)">
       <defs>
        <path id="ArialMT-34" d="M 2069 0 
L 2069 1097 
L 81 1097 
L 81 1613 
L 2172 4581 
L 2631 4581 
L 2631 1613 
L 3250 1613 
L 3250 1097 
L 2631 1097 
L 2631 0 
L 2069 0 
z
M 2069 1613 
L 2069 3678 
L 634 1613 
L 2069 1613 
z
" transform="scale(0.015625)"/>
       </defs>
       <use xlink:href="#ArialMT-31"/>
       <use xlink:href="#ArialMT-34" transform="translate(55.615234 0)"/>
       <use xlink:href="#ArialMT-30" transform="translate(111.230469 0)"/>
       <use xlink:href="#ArialMT-30" transform="translate(166.845703 0)"/>
      </g>
     </g>
    </g>
    <g id="xtick_4">
     <g id="line2d_4">
      <g>
       <use xlink:href="#med0a66b394" x="148.794032" y="195.696" style="stroke: #000000; stroke-width: 0.8"/>
      </g>
     </g>
     <g id="text_4">
      <!-- 1600 -->
      <g transform="translate(139.896532 208.42225) scale(0.08 -0.08)">
       <defs>
        <path id="ArialMT-36" d="M 3184 3459 
L 2625 3416 
Q 2550 3747 2413 3897 
Q 2184 4138 1850 4138 
Q 1581 4138 1378 3988 
Q 1113 3794 959 3422 
Q 806 3050 800 2363 
Q 1003 2672 1297 2822 
Q 1591 2972 1913 2972 
Q 2475 2972 2870 2558 
Q 3266 2144 3266 1488 
Q 3266 1056 3080 686 
Q 2894 316 2569 119 
Q 2244 -78 1831 -78 
Q 1128 -78 684 439 
Q 241 956 241 2144 
Q 241 3472 731 4075 
Q 1159 4600 1884 4600 
Q 2425 4600 2770 4297 
Q 3116 3994 3184 3459 
z
M 888 1484 
Q 888 1194 1011 928 
Q 1134 663 1356 523 
Q 1578 384 1822 384 
Q 2178 384 2434 671 
Q 2691 959 2691 1453 
Q 2691 1928 2437 2201 
Q 2184 2475 1800 2475 
Q 1419 2475 1153 2201 
Q 888 1928 888 1484 
z
" transform="scale(0.015625)"/>
       </defs>
       <use xlink:href="#ArialMT-31"/>
       <use xlink:href="#ArialMT-36" transform="translate(55.615234 0)"/>
       <use xlink:href="#ArialMT-30" transform="translate(111.230469 0)"/>
       <use xlink:href="#ArialMT-30" transform="translate(166.845703 0)"/>
      </g>
     </g>
    </g>
    <g id="text_5">
     <!-- Calendar age (AD) -->
     <g transform="translate(65.591538 220.563969) scale(0.09 -0.09)">
      <defs>
       <path id="ArialMT-43" d="M 3763 1606 
L 4369 1453 
Q 4178 706 3683 314 
Q 3188 -78 2472 -78 
Q 1731 -78 1267 223 
Q 803 525 561 1097 
Q 319 1669 319 2325 
Q 319 3041 592 3573 
Q 866 4106 1370 4382 
Q 1875 4659 2481 4659 
Q 3169 4659 3637 4309 
Q 4106 3959 4291 3325 
L 3694 3184 
Q 3534 3684 3231 3912 
Q 2928 4141 2469 4141 
Q 1941 4141 1586 3887 
Q 1231 3634 1087 3207 
Q 944 2781 944 2328 
Q 944 1744 1114 1308 
Q 1284 872 1643 656 
Q 2003 441 2422 441 
Q 2931 441 3284 734 
Q 3638 1028 3763 1606 
z
" transform="scale(0.015625)"/>
       <path id="ArialMT-61" d="M 2588 409 
Q 2275 144 1986 34 
Q 1697 -75 1366 -75 
Q 819 -75 525 192 
Q 231 459 231 875 
Q 231 1119 342 1320 
Q 453 1522 633 1644 
Q 813 1766 1038 1828 
Q 1203 1872 1538 1913 
Q 2219 1994 2541 2106 
Q 2544 2222 2544 2253 
Q 2544 2597 2384 2738 
Q 2169 2928 1744 2928 
Q 1347 2928 1158 2789 
Q 969 2650 878 2297 
L 328 2372 
Q 403 2725 575 2942 
Q 747 3159 1072 3276 
Q 1397 3394 1825 3394 
Q 2250 3394 2515 3294 
Q 2781 3194 2906 3042 
Q 3031 2891 3081 2659 
Q 3109 2516 3109 2141 
L 3109 1391 
Q 3109 606 3145 398 
Q 3181 191 3288 0 
L 2700 0 
Q 2613 175 2588 409 
z
M 2541 1666 
Q 2234 1541 1622 1453 
Q 1275 1403 1131 1340 
Q 988 1278 909 1158 
Q 831 1038 831 891 
Q 831 666 1001 516 
Q 1172 366 1500 366 
Q 1825 366 2078 508 
Q 2331 650 2450 897 
Q 2541 1088 2541 1459 
L 2541 1666 
z
" transform="scale(0.015625)"/>
       <path id="ArialMT-6c" d="M 409 0 
L 409 4581 
L 972 4581 
L 972 0 
L 409 0 
z
" transform="scale(0.015625)"/>
       <path id="ArialMT-65" d="M 2694 1069 
L 3275 997 
Q 3138 488 2766 206 
Q 2394 -75 1816 -75 
Q 1088 -75 661 373 
Q 234 822 234 1631 
Q 234 2469 665 2931 
Q 1097 3394 1784 3394 
Q 2450 3394 2872 2941 
Q 3294 2488 3294 1666 
Q 3294 1616 3291 1516 
L 816 1516 
Q 847 969 1125 678 
Q 1403 388 1819 388 
Q 2128 388 2347 550 
Q 2566 713 2694 1069 
z
M 847 1978 
L 2700 1978 
Q 2663 2397 2488 2606 
Q 2219 2931 1791 2931 
Q 1403 2931 1139 2672 
Q 875 2413 847 1978 
z
" transform="scale(0.015625)"/>
       <path id="ArialMT-6e" d="M 422 0 
L 422 3319 
L 928 3319 
L 928 2847 
Q 1294 3394 1984 3394 
Q 2284 3394 2536 3286 
Q 2788 3178 2913 3003 
Q 3038 2828 3088 2588 
Q 3119 2431 3119 2041 
L 3119 0 
L 2556 0 
L 2556 2019 
Q 2556 2363 2490 2533 
Q 2425 2703 2258 2804 
Q 2091 2906 1866 2906 
Q 1506 2906 1245 2678 
Q 984 2450 984 1813 
L 984 0 
L 422 0 
z
" transform="scale(0.015625)"/>
       <path id="ArialMT-64" d="M 2575 0 
L 2575 419 
Q 2259 -75 1647 -75 
Q 1250 -75 917 144 
Q 584 363 401 755 
Q 219 1147 219 1656 
Q 219 2153 384 2558 
Q 550 2963 881 3178 
Q 1213 3394 1622 3394 
Q 1922 3394 2156 3267 
Q 2391 3141 2538 2938 
L 2538 4581 
L 3097 4581 
L 3097 0 
L 2575 0 
z
M 797 1656 
Q 797 1019 1065 703 
Q 1334 388 1700 388 
Q 2069 388 2326 689 
Q 2584 991 2584 1609 
Q 2584 2291 2321 2609 
Q 2059 2928 1675 2928 
Q 1300 2928 1048 2622 
Q 797 2316 797 1656 
z
" transform="scale(0.015625)"/>
       <path id="ArialMT-72" d="M 416 0 
L 416 3319 
L 922 3319 
L 922 2816 
Q 1116 3169 1280 3281 
Q 1444 3394 1641 3394 
Q 1925 3394 2219 3213 
L 2025 2691 
Q 1819 2813 1613 2813 
Q 1428 2813 1281 2702 
Q 1134 2591 1072 2394 
Q 978 2094 978 1738 
L 978 0 
L 416 0 
z
" transform="scale(0.015625)"/>
       <path id="ArialMT-20" transform="scale(0.015625)"/>
       <path id="ArialMT-67" d="M 319 -275 
L 866 -356 
Q 900 -609 1056 -725 
Q 1266 -881 1628 -881 
Q 2019 -881 2231 -725 
Q 2444 -569 2519 -288 
Q 2563 -116 2559 434 
Q 2191 0 1641 0 
Q 956 0 581 494 
Q 206 988 206 1678 
Q 206 2153 378 2554 
Q 550 2956 876 3175 
Q 1203 3394 1644 3394 
Q 2231 3394 2613 2919 
L 2613 3319 
L 3131 3319 
L 3131 450 
Q 3131 -325 2973 -648 
Q 2816 -972 2473 -1159 
Q 2131 -1347 1631 -1347 
Q 1038 -1347 672 -1080 
Q 306 -813 319 -275 
z
M 784 1719 
Q 784 1066 1043 766 
Q 1303 466 1694 466 
Q 2081 466 2343 764 
Q 2606 1063 2606 1700 
Q 2606 2309 2336 2618 
Q 2066 2928 1684 2928 
Q 1309 2928 1046 2623 
Q 784 2319 784 1719 
z
" transform="scale(0.015625)"/>
       <path id="ArialMT-28" d="M 1497 -1347 
Q 1031 -759 709 28 
Q 388 816 388 1659 
Q 388 2403 628 3084 
Q 909 3875 1497 4659 
L 1900 4659 
Q 1522 4009 1400 3731 
Q 1209 3300 1100 2831 
Q 966 2247 966 1656 
Q 966 153 1900 -1347 
L 1497 -1347 
z
" transform="scale(0.015625)"/>
       <path id="ArialMT-41" d="M -9 0 
L 1750 4581 
L 2403 4581 
L 4278 0 
L 3588 0 
L 3053 1388 
L 1138 1388 
L 634 0 
L -9 0 
z
M 1313 1881 
L 2866 1881 
L 2388 3150 
Q 2169 3728 2063 4100 
Q 1975 3659 1816 3225 
L 1313 1881 
z
" transform="scale(0.015625)"/>
       <path id="ArialMT-44" d="M 494 0 
L 494 4581 
L 2072 4581 
Q 2606 4581 2888 4516 
Q 3281 4425 3559 4188 
Q 3922 3881 4101 3404 
Q 4281 2928 4281 2316 
Q 4281 1794 4159 1391 
Q 4038 988 3847 723 
Q 3656 459 3429 307 
Q 3203 156 2883 78 
Q 2563 0 2147 0 
L 494 0 
z
M 1100 541 
L 2078 541 
Q 2531 541 2789 625 
Q 3047 709 3200 863 
Q 3416 1078 3536 1442 
Q 3656 1806 3656 2325 
Q 3656 3044 3420 3430 
Q 3184 3816 2847 3947 
Q 2603 4041 2063 4041 
L 1100 4041 
L 1100 541 
z
" transform="scale(0.015625)"/>
       <path id="ArialMT-29" d="M 791 -1347 
L 388 -1347 
Q 1322 153 1322 1656 
Q 1322 2244 1188 2822 
Q 1081 3291 891 3722 
Q 769 4003 388 4659 
L 791 4659 
Q 1378 3875 1659 3084 
Q 1900 2403 1900 1659 
Q 1900 816 1576 28 
Q 1253 -759 791 -1347 
z
" transform="scale(0.015625)"/>
      </defs>
      <use xlink:href="#ArialMT-43"/>
      <use xlink:href="#ArialMT-61" transform="translate(72.216797 0)"/>
      <use xlink:href="#ArialMT-6c" transform="translate(127.832031 0)"/>
      <use xlink:href="#ArialMT-65" transform="translate(150.048828 0)"/>
      <use xlink:href="#ArialMT-6e" transform="translate(205.664062 0)"/>
      <use xlink:href="#ArialMT-64" transform="translate(261.279297 0)"/>
      <use xlink:href="#ArialMT-61" transform="translate(316.894531 0)"/>
      <use xlink:href="#ArialMT-72" transform="translate(372.509766 0)"/>
      <use xlink:href="#ArialMT-20" transform="translate(405.810547 0)"/>
      <use xlink:href="#ArialMT-61" transform="translate(433.59375 0)"/>
      <use xlink:href="#ArialMT-67" transform="translate(489.208984 0)"/>
      <use xlink:href="#ArialMT-65" transform="translate(544.824219 0)"/>
      <use xlink:href="#ArialMT-20" transform="translate(600.439453 0)"/>
      <use xlink:href="#ArialMT-28" transform="translate(628.222656 0)"/>
      <use xlink:href="#ArialMT-41" transform="translate(661.523438 0)"/>
      <use xlink:href="#ArialMT-44" transform="translate(728.222656 0)"/>
      <use xlink:href="#ArialMT-29" transform="translate(800.439453 0)"/>
     </g>
    </g>
   </g>
   <g id="matplotlib.axis_2">
    <g id="text_6">
     <!-- Summed probability -->
     <g transform="translate(13.751719 141.213938) rotate(-90) scale(0.09 -0.09)">
      <defs>
       <path id="ArialMT-53" d="M 288 1472 
L 859 1522 
Q 900 1178 1048 958 
Q 1197 738 1509 602 
Q 1822 466 2213 466 
Q 2559 466 2825 569 
Q 3091 672 3220 851 
Q 3350 1031 3350 1244 
Q 3350 1459 3225 1620 
Q 3100 1781 2813 1891 
Q 2628 1963 1997 2114 
Q 1366 2266 1113 2400 
Q 784 2572 623 2826 
Q 463 3081 463 3397 
Q 463 3744 659 4045 
Q 856 4347 1234 4503 
Q 1613 4659 2075 4659 
Q 2584 4659 2973 4495 
Q 3363 4331 3572 4012 
Q 3781 3694 3797 3291 
L 3216 3247 
Q 3169 3681 2898 3903 
Q 2628 4125 2100 4125 
Q 1550 4125 1298 3923 
Q 1047 3722 1047 3438 
Q 1047 3191 1225 3031 
Q 1400 2872 2139 2705 
Q 2878 2538 3153 2413 
Q 3553 2228 3743 1945 
Q 3934 1663 3934 1294 
Q 3934 928 3725 604 
Q 3516 281 3123 101 
Q 2731 -78 2241 -78 
Q 1619 -78 1198 103 
Q 778 284 539 648 
Q 300 1013 288 1472 
z
" transform="scale(0.015625)"/>
       <path id="ArialMT-75" d="M 2597 0 
L 2597 488 
Q 2209 -75 1544 -75 
Q 1250 -75 995 37 
Q 741 150 617 320 
Q 494 491 444 738 
Q 409 903 409 1263 
L 409 3319 
L 972 3319 
L 972 1478 
Q 972 1038 1006 884 
Q 1059 663 1231 536 
Q 1403 409 1656 409 
Q 1909 409 2131 539 
Q 2353 669 2445 892 
Q 2538 1116 2538 1541 
L 2538 3319 
L 3100 3319 
L 3100 0 
L 2597 0 
z
" transform="scale(0.015625)"/>
       <path id="ArialMT-6d" d="M 422 0 
L 422 3319 
L 925 3319 
L 925 2853 
Q 1081 3097 1340 3245 
Q 1600 3394 1931 3394 
Q 2300 3394 2536 3241 
Q 2772 3088 2869 2813 
Q 3263 3394 3894 3394 
Q 4388 3394 4653 3120 
Q 4919 2847 4919 2278 
L 4919 0 
L 4359 0 
L 4359 2091 
Q 4359 2428 4304 2576 
Q 4250 2725 4106 2815 
Q 3963 2906 3769 2906 
Q 3419 2906 3187 2673 
Q 2956 2441 2956 1928 
L 2956 0 
L 2394 0 
L 2394 2156 
Q 2394 2531 2256 2718 
Q 2119 2906 1806 2906 
Q 1569 2906 1367 2781 
Q 1166 2656 1075 2415 
Q 984 2175 984 1722 
L 984 0 
L 422 0 
z
" transform="scale(0.015625)"/>
       <path id="ArialMT-70" d="M 422 -1272 
L 422 3319 
L 934 3319 
L 934 2888 
Q 1116 3141 1344 3267 
Q 1572 3394 1897 3394 
Q 2322 3394 2647 3175 
Q 2972 2956 3137 2557 
Q 3303 2159 3303 1684 
Q 3303 1175 3120 767 
Q 2938 359 2589 142 
Q 2241 -75 1856 -75 
Q 1575 -75 1351 44 
Q 1128 163 984 344 
L 984 -1272 
L 422 -1272 
z
M 931 1641 
Q 931 1000 1190 694 
Q 1450 388 1819 388 
Q 2194 388 2461 705 
Q 2728 1022 2728 1688 
Q 2728 2322 2467 2637 
Q 2206 2953 1844 2953 
Q 1484 2953 1207 2617 
Q 931 2281 931 1641 
z
" transform="scale(0.015625)"/>
       <path id="ArialMT-6f" d="M 213 1659 
Q 213 2581 725 3025 
Q 1153 3394 1769 3394 
Q 2453 3394 2887 2945 
Q 3322 2497 3322 1706 
Q 3322 1066 3130 698 
Q 2938 331 2570 128 
Q 2203 -75 1769 -75 
Q 1072 -75 642 372 
Q 213 819 213 1659 
z
M 791 1659 
Q 791 1022 1069 705 
Q 1347 388 1769 388 
Q 2188 388 2466 706 
Q 2744 1025 2744 1678 
Q 2744 2294 2464 2611 
Q 2184 2928 1769 2928 
Q 1347 2928 1069 2612 
Q 791 2297 791 1659 
z
" transform="scale(0.015625)"/>
       <path id="ArialMT-62" d="M 941 0 
L 419 0 
L 419 4581 
L 981 4581 
L 981 2947 
Q 1338 3394 1891 3394 
Q 2197 3394 2470 3270 
Q 2744 3147 2920 2923 
Q 3097 2700 3197 2384 
Q 3297 2069 3297 1709 
Q 3297 856 2875 390 
Q 2453 -75 1863 -75 
Q 1275 -75 941 416 
L 941 0 
z
M 934 1684 
Q 934 1088 1097 822 
Q 1363 388 1816 388 
Q 2184 388 2453 708 
Q 2722 1028 2722 1663 
Q 2722 2313 2464 2622 
Q 2206 2931 1841 2931 
Q 1472 2931 1203 2611 
Q 934 2291 934 1684 
z
" transform="scale(0.015625)"/>
       <path id="ArialMT-69" d="M 425 3934 
L 425 4581 
L 988 4581 
L 988 3934 
L 425 3934 
z
M 425 0 
L 425 3319 
L 988 3319 
L 988 0 
L 425 0 
z
" transform="scale(0.015625)"/>
       <path id="ArialMT-74" d="M 1650 503 
L 1731 6 
Q 1494 -44 1306 -44 
Q 1000 -44 831 53 
Q 663 150 594 308 
Q 525 466 525 972 
L 525 2881 
L 113 2881 
L 113 3319 
L 525 3319 
L 525 4141 
L 1084 4478 
L 1084 3319 
L 1650 3319 
L 1650 2881 
L 1084 2881 
L 1084 941 
Q 1084 700 1114 631 
Q 1144 563 1211 522 
Q 1278 481 1403 481 
Q 1497 481 1650 503 
z
" transform="scale(0.015625)"/>
       <path id="ArialMT-79" d="M 397 -1278 
L 334 -750 
Q 519 -800 656 -800 
Q 844 -800 956 -737 
Q 1069 -675 1141 -563 
Q 1194 -478 1313 -144 
Q 1328 -97 1363 -6 
L 103 3319 
L 709 3319 
L 1400 1397 
Q 1534 1031 1641 628 
Q 1738 1016 1872 1384 
L 2581 3319 
L 3144 3319 
L 1881 -56 
Q 1678 -603 1566 -809 
Q 1416 -1088 1222 -1217 
Q 1028 -1347 759 -1347 
Q 597 -1347 397 -1278 
z
" transform="scale(0.015625)"/>
      </defs>
      <use xlink:href="#ArialMT-53"/>
      <use xlink:href="#ArialMT-75" transform="translate(66.699219 0)"/>
      <use xlink:href="#ArialMT-6d" transform="translate(122.314453 0)"/>
      <use xlink:href="#ArialMT-6d" transform="translate(205.615234 0)"/>
      <use xlink:href="#ArialMT-65" transform="translate(288.916016 0)"/>
      <use xlink:href="#ArialMT-64" transform="translate(344.53125 0)"/>
      <use xlink:href="#ArialMT-20" transform="translate(400.146484 0)"/>
      <use xlink:href="#ArialMT-70" transform="translate(427.929688 0)"/>
      <use xlink:href="#ArialMT-72" transform="translate(483.544922 0)"/>
      <use xlink:href="#ArialMT-6f" transform="translate(516.845703 0)"/>
      <use xlink:href="#ArialMT-62" transform="translate(572.460938 0)"/>
      <use xlink:href="#ArialMT-61" transform="translate(628.076172 0)"/>
      <use xlink:href="#ArialMT-62" transform="translate(683.691406 0)"/>
      <use xlink:href="#ArialMT-69" transform="translate(739.306641 0)"/>
      <use xlink:href="#ArialMT-6c" transform="translate(761.523438 0)"/>
      <use xlink:href="#ArialMT-69" transform="translate(783.740234 0)"/>
      <use xlink:href="#ArialMT-74" transform="translate(805.957031 0)"/>
      <use xlink:href="#ArialMT-79" transform="translate(833.740234 0)"/>
     </g>
    </g>
   </g>
   <g id="line2d_5">
    <path d="M 27.23335 166.056887 
L 27.638552 167.224979 
L 28.043755 168.886968 
L 28.651558 171.266093 
L 29.05676 171.736834 
L 30.272367 170.31776 
L 30.474968 170.31776 
L 31.082772 168.648513 
L 31.690575 165.368425 
L 32.298379 161.946339 
L 34.121789 157.033927 
L 34.526991 156.44268 
L 35.134794 155.954574 
L 35.742598 155.743356 
L 37.566008 155.500429 
L 38.579014 155.677687 
L 44.049244 155.521916 
L 45.467452 155.807965 
L 46.683059 155.516776 
L 48.101267 155.555139 
L 48.911672 155.807965 
L 49.519475 155.984398 
L 50.127279 155.90682 
L 51.950689 155.597076 
L 53.9767 155.473384 
L 55.597509 155.529057 
L 56.610515 155.598463 
L 58.433925 155.48521 
L 59.649532 155.698115 
L 60.257335 155.542775 
L 60.662538 155.24489 
L 61.270341 154.667808 
L 62.688549 154.570528 
L 63.093751 154.119921 
L 64.309358 151.60461 
L 64.511959 151.60461 
L 64.917162 152.066825 
L 65.322364 152.691006 
L 65.930167 153.403256 
L 66.740572 154.570528 
L 67.145774 154.759328 
L 67.550976 154.570528 
L 67.956179 153.990904 
L 68.563982 153.237405 
L 69.171785 153.237405 
L 70.184791 152.379163 
L 70.792595 150.946749 
L 71.197797 148.800258 
L 71.602999 144.233973 
L 72.616005 125.962637 
L 73.021207 120.477993 
L 73.223808 119.547333 
L 73.831612 114.752997 
L 74.034213 113.768776 
L 74.642016 108.745597 
L 75.24982 108.745597 
L 77.478432 119.547333 
L 77.681033 119.547333 
L 77.883634 120.477993 
L 78.086236 120.477993 
L 78.89664 116.697352 
L 79.099241 116.697352 
L 79.707045 113.768776 
L 80.112247 108.745597 
L 80.517449 103.597921 
L 81.327854 89.106357 
L 81.935657 78.423792 
L 83.961668 51.503211 
L 84.366871 50.088281 
L 84.772073 49.68264 
L 85.379876 49.628615 
L 86.798084 49.993393 
L 87.203287 50.28392 
L 87.608489 50.826483 
L 88.418894 53.07826 
L 89.431899 57.855144 
L 89.837101 58.784018 
L 90.242304 59.433952 
L 91.457911 59.371445 
L 91.863113 60.746883 
L 92.268315 63.356116 
L 93.07872 70.337463 
L 93.686523 75.603895 
L 94.091725 77.094852 
L 94.496928 77.094852 
L 95.104731 75.984339 
L 95.509933 74.829214 
L 95.712534 74.435539 
L 96.928141 74.435539 
L 97.333344 73.63697 
L 97.535945 73.63697 
L 97.738546 73.232667 
L 98.143748 73.232667 
L 98.54895 72.415542 
L 98.954153 69.498701 
L 100.169759 60.107456 
L 101.182765 55.660407 
L 101.790569 53.315186 
L 102.398372 51.669112 
L 103.006175 51.112225 
L 103.208777 51.112225 
L 103.411378 51.278617 
L 104.019181 52.908587 
L 104.424383 54.433312 
L 105.63999 58.402437 
L 106.247794 62.969463 
L 107.260799 73.63697 
L 107.666002 77.806959 
L 108.071204 80.390644 
L 109.894614 85.413606 
L 110.299816 85.781711 
L 110.90762 85.855914 
L 112.73103 85.732567 
L 113.136232 85.742321 
L 113.541435 85.990079 
L 114.149238 86.356672 
L 114.757041 86.686613 
L 115.162244 87.075498 
L 115.972648 88.612881 
L 116.37785 89.044828 
L 116.783053 89.287421 
L 116.985654 89.240934 
L 117.188255 88.948068 
L 117.593457 87.630137 
L 117.99866 84.541601 
L 119.011665 76.166974 
L 119.416868 69.242917 
L 120.429873 41.268508 
L 120.835075 38.926481 
L 121.64548 43.67741 
L 122.455885 38.926481 
L 122.658486 38.926481 
L 122.861087 37.784724 
L 123.671491 27.768313 
L 124.076694 23.905461 
L 124.481896 21.413859 
L 125.089699 19.589045 
L 125.900104 19.589045 
L 126.102705 19.443352 
L 127.520913 16.713088 
L 127.926115 16.378579 
L 128.128716 16.378579 
L 128.331318 16.242457 
L 128.73652 16.242457 
L 129.546924 15.881674 
L 130.357329 15.771406 
L 132.180739 16.001053 
L 132.38334 16.068501 
L 132.991144 16.835817 
L 133.396346 17.647055 
L 133.801548 18.999563 
L 135.017155 24.280594 
L 135.219756 24.664661 
L 135.422357 24.664661 
L 135.82756 23.90675 
L 136.435363 21.879642 
L 136.637964 21.19102 
L 136.840565 21.002834 
L 137.245768 20.46681 
L 138.056172 21.577464 
L 138.461374 21.577464 
L 139.271779 19.504324 
L 140.284785 18.305937 
L 140.689987 17.647055 
L 141.095189 17.354223 
L 141.500391 17.647055 
L 141.905594 18.13156 
L 142.108195 18.305937 
L 142.310796 18.241585 
L 142.513397 18.305937 
L 142.918599 17.802335 
L 143.526403 17.084059 
L 144.74201 16.405007 
L 146.362819 16.311518 
L 146.970622 15.845366 
L 147.375824 15.768 
L 148.38883 16.027341 
L 148.794032 16.242457 
L 148.996634 16.535113 
L 149.807038 19.028596 
L 150.009639 19.028596 
L 150.617443 17.137467 
L 151.022645 16.535113 
L 151.630448 16.535113 
L 152.643454 15.785918 
L 153.048656 16.224082 
L 153.453859 16.835817 
L 154.061662 17.084059 
L 154.466864 16.957223 
L 155.074668 17.802335 
L 155.47987 19.504324 
L 155.885072 21.879642 
L 156.695477 27.629591 
L 157.30328 34.203244 
L 158.113685 42.061901 
L 159.12669 49.701091 
L 159.734494 52.231037 
L 159.937095 52.721584 
L 160.342297 55.095116 
L 161.152702 61.098706 
L 162.773511 74.47757 
L 163.381314 81.17264 
L 163.786517 82.9233 
L 164.39432 82.9233 
L 164.596921 83.525314 
L 165.002123 86.02709 
L 166.015129 96.72634 
L 167.028135 109.156853 
L 168.243742 126.311022 
L 168.851545 135.278272 
L 169.459348 139.618244 
L 169.66195 139.618244 
L 169.864551 138.760437 
L 170.472354 138.760437 
L 170.674955 139.618244 
L 171.48536 146.260325 
L 172.093163 148.636215 
L 172.295764 148.636215 
L 172.498365 147.851851 
L 173.106169 139.618244 
L 174.726978 110.077395 
L 175.334781 98.299959 
L 175.739984 94.426845 
L 176.550388 91.481047 
L 177.158192 86.676087 
L 177.765995 81.747037 
L 177.968596 80.607278 
L 178.5764 80.607278 
L 178.981602 81.747037 
L 178.981602 81.747037 
" clip-path="url(#p0c7ab6bac6)" style="fill: none; stroke: #d55e00; stroke-width: 1.3; stroke-linecap: square"/>
   </g>
   <g id="line2d_6">
    <path d="M 136.840565 195.696 
L 136.840565 7.2 
" clip-path="url(#p0c7ab6bac6)" style="fill: none; stroke-dasharray: 3.7,1.6; stroke-dashoffset: 0; stroke: #4c4c4c"/>
   </g>
   <g id="patch_3">
    <path d="M 19.645938 195.696 
L 19.645938 7.2 
" style="fill: none; stroke: #000000; stroke-width: 0.8; stroke-linejoin: miter; stroke-linecap: square"/>
   </g>
   <g id="patch_4">
    <path d="M 19.645938 195.696 
L 186.569014 195.696 
" style="fill: none; stroke: #000000; stroke-width: 0.8; stroke-linejoin: miter; stroke-linecap: square"/>
   </g>
   <g id="text_7">
    <!-- De Soto -->
    <g style="fill: #4c4c4c" transform="translate(138.056172 27.314231) scale(0.065 -0.065)">
     <use xlink:href="#ArialMT-44"/>
     <use xlink:href="#ArialMT-65" transform="translate(72.216797 0)"/>
     <use xlink:href="#ArialMT-20" transform="translate(127.832031 0)"/>
     <use xlink:href="#ArialMT-53" transform="translate(155.615234 0)"/>
     <use xlink:href="#ArialMT-6f" transform="translate(222.314453 0)"/>
     <use xlink:href="#ArialMT-74" transform="translate(277.929688 0)"/>
     <use xlink:href="#ArialMT-6f" transform="translate(305.712891 0)"/>
    </g>
    <!-- AD 1541 -->
    <g style="fill: #4c4c4c" transform="translate(138.056172 34.1892) scale(0.065 -0.065)">
     <defs>
      <path id="ArialMT-35" d="M 266 1200 
L 856 1250 
Q 922 819 1161 601 
Q 1400 384 1738 384 
Q 2144 384 2425 690 
Q 2706 997 2706 1503 
Q 2706 1984 2436 2262 
Q 2166 2541 1728 2541 
Q 1456 2541 1237 2417 
Q 1019 2294 894 2097 
L 366 2166 
L 809 4519 
L 3088 4519 
L 3088 3981 
L 1259 3981 
L 1013 2750 
Q 1425 3038 1878 3038 
Q 2478 3038 2890 2622 
Q 3303 2206 3303 1553 
Q 3303 931 2941 478 
Q 2500 -78 1738 -78 
Q 1113 -78 717 272 
Q 322 622 266 1200 
z
" transform="scale(0.015625)"/>
     </defs>
     <use xlink:href="#ArialMT-41"/>
     <use xlink:href="#ArialMT-44" transform="translate(66.699219 0)"/>
     <use xlink:href="#ArialMT-20" transform="translate(138.916016 0)"/>
     <use xlink:href="#ArialMT-31" transform="translate(166.699219 0)"/>
     <use xlink:href="#ArialMT-35" transform="translate(222.314453 0)"/>
     <use xlink:href="#ArialMT-34" transform="translate(277.929688 0)"/>
     <use xlink:href="#ArialMT-31" transform="translate(333.544922 0)"/>
    </g>
   </g>
   <g id="legend_1">
    <g id="patch_5">
     <path d="M 25.945938 98.223078 
L 39.945937 98.223078 
L 39.945937 93.323078 
L 25.945938 93.323078 
z
" style="fill: #0072b2; fill-opacity: 0.5"/>
    </g>
    <g id="text_8">
     <!-- basin -->
     <g transform="translate(45.545938 98.223078) scale(0.07 -0.07)">
      <defs>
       <path id="ArialMT-73" d="M 197 991 
L 753 1078 
Q 800 744 1014 566 
Q 1228 388 1613 388 
Q 2000 388 2187 545 
Q 2375 703 2375 916 
Q 2375 1106 2209 1216 
Q 2094 1291 1634 1406 
Q 1016 1563 777 1677 
Q 538 1791 414 1992 
Q 291 2194 291 2438 
Q 291 2659 392 2848 
Q 494 3038 669 3163 
Q 800 3259 1026 3326 
Q 1253 3394 1513 3394 
Q 1903 3394 2198 3281 
Q 2494 3169 2634 2976 
Q 2775 2784 2828 2463 
L 2278 2388 
Q 2241 2644 2061 2787 
Q 1881 2931 1553 2931 
Q 1166 2931 1000 2803 
Q 834 2675 834 2503 
Q 834 2394 903 2306 
Q 972 2216 1119 2156 
Q 1203 2125 1616 2013 
Q 2213 1853 2448 1751 
Q 2684 1650 2818 1456 
Q 2953 1263 2953 975 
Q 2953 694 2789 445 
Q 2625 197 2315 61 
Q 2006 -75 1616 -75 
Q 969 -75 630 194 
Q 291 463 197 991 
z
" transform="scale(0.015625)"/>
      </defs>
      <use xlink:href="#ArialMT-62"/>
      <use xlink:href="#ArialMT-61" transform="translate(55.615234 0)"/>
      <use xlink:href="#ArialMT-73" transform="translate(111.230469 0)"/>
      <use xlink:href="#ArialMT-69" transform="translate(161.230469 0)"/>
      <use xlink:href="#ArialMT-6e" transform="translate(183.447266 0)"/>
     </g>
    </g>
    <g id="line2d_7">
     <path d="M 25.945938 105.760109 
L 32.945937 105.760109 
L 39.945937 105.760109 
" style="fill: none; stroke: #d55e00; stroke-width: 1.3; stroke-linecap: square"/>
    </g>
    <g id="text_9">
     <!-- Parkin (scaled) -->
     <g transform="translate(45.545938 108.210109) scale(0.07 -0.07)">
      <defs>
       <path id="ArialMT-50" d="M 494 0 
L 494 4581 
L 2222 4581 
Q 2678 4581 2919 4538 
Q 3256 4481 3484 4323 
Q 3713 4166 3852 3881 
Q 3991 3597 3991 3256 
Q 3991 2672 3619 2267 
Q 3247 1863 2275 1863 
L 1100 1863 
L 1100 0 
L 494 0 
z
M 1100 2403 
L 2284 2403 
Q 2872 2403 3119 2622 
Q 3366 2841 3366 3238 
Q 3366 3525 3220 3729 
Q 3075 3934 2838 4000 
Q 2684 4041 2272 4041 
L 1100 4041 
L 1100 2403 
z
" transform="scale(0.015625)"/>
       <path id="ArialMT-6b" d="M 425 0 
L 425 4581 
L 988 4581 
L 988 1969 
L 2319 3319 
L 3047 3319 
L 1778 2088 
L 3175 0 
L 2481 0 
L 1384 1697 
L 988 1316 
L 988 0 
L 425 0 
z
" transform="scale(0.015625)"/>
       <path id="ArialMT-63" d="M 2588 1216 
L 3141 1144 
Q 3050 572 2676 248 
Q 2303 -75 1759 -75 
Q 1078 -75 664 370 
Q 250 816 250 1647 
Q 250 2184 428 2587 
Q 606 2991 970 3192 
Q 1334 3394 1763 3394 
Q 2303 3394 2647 3120 
Q 2991 2847 3088 2344 
L 2541 2259 
Q 2463 2594 2264 2762 
Q 2066 2931 1784 2931 
Q 1359 2931 1093 2626 
Q 828 2322 828 1663 
Q 828 994 1084 691 
Q 1341 388 1753 388 
Q 2084 388 2306 591 
Q 2528 794 2588 1216 
z
" transform="scale(0.015625)"/>
      </defs>
      <use xlink:href="#ArialMT-50"/>
      <use xlink:href="#ArialMT-61" transform="translate(66.699219 0)"/>
      <use xlink:href="#ArialMT-72" transform="translate(122.314453 0)"/>
      <use xlink:href="#ArialMT-6b" transform="translate(155.615234 0)"/>
      <use xlink:href="#ArialMT-69" transform="translate(205.615234 0)"/>
      <use xlink:href="#ArialMT-6e" transform="translate(227.832031 0)"/>
      <use xlink:href="#ArialMT-20" transform="translate(283.447266 0)"/>
      <use xlink:href="#ArialMT-28" transform="translate(311.230469 0)"/>
      <use xlink:href="#ArialMT-73" transform="translate(344.53125 0)"/>
      <use xlink:href="#ArialMT-63" transform="translate(394.53125 0)"/>
      <use xlink:href="#ArialMT-61" transform="translate(444.53125 0)"/>
      <use xlink:href="#ArialMT-6c" transform="translate(500.146484 0)"/>
      <use xlink:href="#ArialMT-65" transform="translate(522.363281 0)"/>
      <use xlink:href="#ArialMT-64" transform="translate(577.978516 0)"/>
      <use xlink:href="#ArialMT-29" transform="translate(633.59375 0)"/>
     </g>
    </g>
   </g>
  </g>
  <g id="axes_2">
   <g id="patch_6">
    <path d="M 243.322861 195.696 
L 410.245938 195.696 
L 410.245938 7.2 
L 243.322861 7.2 
z
" style="fill: #ffffff"/>
   </g>
   <g id="matplotlib.axis_3">
    <g id="xtick_5">
     <g id="line2d_8">
      <g>
       <use xlink:href="#med0a66b394" x="272.833956" y="195.696" style="stroke: #000000; stroke-width: 0.8"/>
      </g>
     </g>
     <g id="text_10">
      <!-- −1.5 -->
      <g transform="translate(264.937706 208.42225) scale(0.08 -0.08)">
       <defs>
        <path id="ArialMT-2212" d="M 3381 1997 
L 356 1997 
L 356 2522 
L 3381 2522 
L 3381 1997 
z
" transform="scale(0.015625)"/>
        <path id="ArialMT-2e" d="M 581 0 
L 581 641 
L 1222 641 
L 1222 0 
L 581 0 
z
" transform="scale(0.015625)"/>
       </defs>
       <use xlink:href="#ArialMT-2212"/>
       <use xlink:href="#ArialMT-31" transform="translate(58.398438 0)"/>
       <use xlink:href="#ArialMT-2e" transform="translate(114.013672 0)"/>
       <use xlink:href="#ArialMT-35" transform="translate(141.796875 0)"/>
      </g>
     </g>
    </g>
    <g id="xtick_6">
     <g id="line2d_9">
      <g>
       <use xlink:href="#med0a66b394" x="309.980941" y="195.696" style="stroke: #000000; stroke-width: 0.8"/>
      </g>
     </g>
     <g id="text_11">
      <!-- −1.0 -->
      <g transform="translate(302.084691 208.42225) scale(0.08 -0.08)">
       <use xlink:href="#ArialMT-2212"/>
       <use xlink:href="#ArialMT-31" transform="translate(58.398438 0)"/>
       <use xlink:href="#ArialMT-2e" transform="translate(114.013672 0)"/>
       <use xlink:href="#ArialMT-30" transform="translate(141.796875 0)"/>
      </g>
     </g>
    </g>
    <g id="xtick_7">
     <g id="line2d_10">
      <g>
       <use xlink:href="#med0a66b394" x="347.127926" y="195.696" style="stroke: #000000; stroke-width: 0.8"/>
      </g>
     </g>
     <g id="text_12">
      <!-- −0.5 -->
      <g transform="translate(339.231676 208.42225) scale(0.08 -0.08)">
       <use xlink:href="#ArialMT-2212"/>
       <use xlink:href="#ArialMT-30" transform="translate(58.398438 0)"/>
       <use xlink:href="#ArialMT-2e" transform="translate(114.013672 0)"/>
       <use xlink:href="#ArialMT-35" transform="translate(141.796875 0)"/>
      </g>
     </g>
    </g>
    <g id="xtick_8">
     <g id="line2d_11">
      <g>
       <use xlink:href="#med0a66b394" x="384.27491" y="195.696" style="stroke: #000000; stroke-width: 0.8"/>
      </g>
     </g>
     <g id="text_13">
      <!-- 0.0 -->
      <g transform="translate(378.71491 208.42225) scale(0.08 -0.08)">
       <use xlink:href="#ArialMT-30"/>
       <use xlink:href="#ArialMT-2e" transform="translate(55.615234 0)"/>
       <use xlink:href="#ArialMT-30" transform="translate(83.398438 0)"/>
      </g>
     </g>
    </g>
    <g id="text_14">
     <!-- CA1 seriation position -->
     <g transform="translate(283.012758 220.563969) scale(0.09 -0.09)">
      <use xlink:href="#ArialMT-43"/>
      <use xlink:href="#ArialMT-41" transform="translate(72.216797 0)"/>
      <use xlink:href="#ArialMT-31" transform="translate(138.916016 0)"/>
      <use xlink:href="#ArialMT-20" transform="translate(194.53125 0)"/>
      <use xlink:href="#ArialMT-73" transform="translate(222.314453 0)"/>
      <use xlink:href="#ArialMT-65" transform="translate(272.314453 0)"/>
      <use xlink:href="#ArialMT-72" transform="translate(327.929688 0)"/>
      <use xlink:href="#ArialMT-69" transform="translate(361.230469 0)"/>
      <use xlink:href="#ArialMT-61" transform="translate(383.447266 0)"/>
      <use xlink:href="#ArialMT-74" transform="translate(439.0625 0)"/>
      <use xlink:href="#ArialMT-69" transform="translate(466.845703 0)"/>
      <use xlink:href="#ArialMT-6f" transform="translate(489.0625 0)"/>
      <use xlink:href="#ArialMT-6e" transform="translate(544.677734 0)"/>
      <use xlink:href="#ArialMT-20" transform="translate(600.292969 0)"/>
      <use xlink:href="#ArialMT-70" transform="translate(628.076172 0)"/>
      <use xlink:href="#ArialMT-6f" transform="translate(683.691406 0)"/>
      <use xlink:href="#ArialMT-73" transform="translate(739.306641 0)"/>
      <use xlink:href="#ArialMT-69" transform="translate(789.306641 0)"/>
      <use xlink:href="#ArialMT-74" transform="translate(811.523438 0)"/>
      <use xlink:href="#ArialMT-69" transform="translate(839.306641 0)"/>
      <use xlink:href="#ArialMT-6f" transform="translate(861.523438 0)"/>
      <use xlink:href="#ArialMT-6e" transform="translate(917.138672 0)"/>
     </g>
    </g>
   </g>
   <g id="matplotlib.axis_4">
    <g id="ytick_1">
     <g id="line2d_12">
      <defs>
       <path id="m3b2d5103b4" d="M 0 0 
L -3.5 0 
" style="stroke: #000000; stroke-width: 0.8"/>
      </defs>
      <g>
       <use xlink:href="#m3b2d5103b4" x="243.322861" y="182.118119" style="stroke: #000000; stroke-width: 0.8"/>
      </g>
     </g>
     <g id="text_15">
      <!-- 1350 -->
      <g transform="translate(218.527861 184.981244) scale(0.08 -0.08)">
       <defs>
        <path id="ArialMT-33" d="M 269 1209 
L 831 1284 
Q 928 806 1161 595 
Q 1394 384 1728 384 
Q 2125 384 2398 659 
Q 2672 934 2672 1341 
Q 2672 1728 2419 1979 
Q 2166 2231 1775 2231 
Q 1616 2231 1378 2169 
L 1441 2663 
Q 1497 2656 1531 2656 
Q 1891 2656 2178 2843 
Q 2466 3031 2466 3422 
Q 2466 3731 2256 3934 
Q 2047 4138 1716 4138 
Q 1388 4138 1169 3931 
Q 950 3725 888 3313 
L 325 3413 
Q 428 3978 793 4289 
Q 1159 4600 1703 4600 
Q 2078 4600 2393 4439 
Q 2709 4278 2876 4000 
Q 3044 3722 3044 3409 
Q 3044 3113 2884 2869 
Q 2725 2625 2413 2481 
Q 2819 2388 3044 2092 
Q 3269 1797 3269 1353 
Q 3269 753 2831 336 
Q 2394 -81 1725 -81 
Q 1122 -81 723 278 
Q 325 638 269 1209 
z
" transform="scale(0.015625)"/>
       </defs>
       <use xlink:href="#ArialMT-31"/>
       <use xlink:href="#ArialMT-33" transform="translate(55.615234 0)"/>
       <use xlink:href="#ArialMT-35" transform="translate(111.230469 0)"/>
       <use xlink:href="#ArialMT-30" transform="translate(166.845703 0)"/>
      </g>
     </g>
    </g>
    <g id="ytick_2">
     <g id="line2d_13">
      <g>
       <use xlink:href="#m3b2d5103b4" x="243.322861" y="148.368651" style="stroke: #000000; stroke-width: 0.8"/>
      </g>
     </g>
     <g id="text_16">
      <!-- 1400 -->
      <g transform="translate(218.527861 151.231776) scale(0.08 -0.08)">
       <use xlink:href="#ArialMT-31"/>
       <use xlink:href="#ArialMT-34" transform="translate(55.615234 0)"/>
       <use xlink:href="#ArialMT-30" transform="translate(111.230469 0)"/>
       <use xlink:href="#ArialMT-30" transform="translate(166.845703 0)"/>
      </g>
     </g>
    </g>
    <g id="ytick_3">
     <g id="line2d_14">
      <g>
       <use xlink:href="#m3b2d5103b4" x="243.322861" y="114.619183" style="stroke: #000000; stroke-width: 0.8"/>
      </g>
     </g>
     <g id="text_17">
      <!-- 1450 -->
      <g transform="translate(218.527861 117.482308) scale(0.08 -0.08)">
       <use xlink:href="#ArialMT-31"/>
       <use xlink:href="#ArialMT-34" transform="translate(55.615234 0)"/>
       <use xlink:href="#ArialMT-35" transform="translate(111.230469 0)"/>
       <use xlink:href="#ArialMT-30" transform="translate(166.845703 0)"/>
      </g>
     </g>
    </g>
    <g id="ytick_4">
     <g id="line2d_15">
      <g>
       <use xlink:href="#m3b2d5103b4" x="243.322861" y="80.869716" style="stroke: #000000; stroke-width: 0.8"/>
      </g>
     </g>
     <g id="text_18">
      <!-- 1500 -->
      <g transform="translate(218.527861 83.732841) scale(0.08 -0.08)">
       <use xlink:href="#ArialMT-31"/>
       <use xlink:href="#ArialMT-35" transform="translate(55.615234 0)"/>
       <use xlink:href="#ArialMT-30" transform="translate(111.230469 0)"/>
       <use xlink:href="#ArialMT-30" transform="translate(166.845703 0)"/>
      </g>
     </g>
    </g>
    <g id="ytick_5">
     <g id="line2d_16">
      <g>
       <use xlink:href="#m3b2d5103b4" x="243.322861" y="47.120248" style="stroke: #000000; stroke-width: 0.8"/>
      </g>
     </g>
     <g id="text_19">
      <!-- 1550 -->
      <g transform="translate(218.527861 49.983373) scale(0.08 -0.08)">
       <use xlink:href="#ArialMT-31"/>
       <use xlink:href="#ArialMT-35" transform="translate(55.615234 0)"/>
       <use xlink:href="#ArialMT-35" transform="translate(111.230469 0)"/>
       <use xlink:href="#ArialMT-30" transform="translate(166.845703 0)"/>
      </g>
     </g>
    </g>
    <g id="ytick_6">
     <g id="line2d_17">
      <g>
       <use xlink:href="#m3b2d5103b4" x="243.322861" y="13.37078" style="stroke: #000000; stroke-width: 0.8"/>
      </g>
     </g>
     <g id="text_20">
      <!-- 1600 -->
      <g transform="translate(218.527861 16.233905) scale(0.08 -0.08)">
       <use xlink:href="#ArialMT-31"/>
       <use xlink:href="#ArialMT-36" transform="translate(55.615234 0)"/>
       <use xlink:href="#ArialMT-30" transform="translate(111.230469 0)"/>
       <use xlink:href="#ArialMT-30" transform="translate(166.845703 0)"/>
      </g>
     </g>
    </g>
    <g id="text_21">
     <!-- Pooled median cal AD -->
     <g transform="translate(212.739111 145.723781) rotate(-90) scale(0.09 -0.09)">
      <use xlink:href="#ArialMT-50"/>
      <use xlink:href="#ArialMT-6f" transform="translate(66.699219 0)"/>
      <use xlink:href="#ArialMT-6f" transform="translate(122.314453 0)"/>
      <use xlink:href="#ArialMT-6c" transform="translate(177.929688 0)"/>
      <use xlink:href="#ArialMT-65" transform="translate(200.146484 0)"/>
      <use xlink:href="#ArialMT-64" transform="translate(255.761719 0)"/>
      <use xlink:href="#ArialMT-20" transform="translate(311.376953 0)"/>
      <use xlink:href="#ArialMT-6d" transform="translate(339.160156 0)"/>
      <use xlink:href="#ArialMT-65" transform="translate(422.460938 0)"/>
      <use xlink:href="#ArialMT-64" transform="translate(478.076172 0)"/>
      <use xlink:href="#ArialMT-69" transform="translate(533.691406 0)"/>
      <use xlink:href="#ArialMT-61" transform="translate(555.908203 0)"/>
      <use xlink:href="#ArialMT-6e" transform="translate(611.523438 0)"/>
      <use xlink:href="#ArialMT-20" transform="translate(667.138672 0)"/>
      <use xlink:href="#ArialMT-63" transform="translate(694.921875 0)"/>
      <use xlink:href="#ArialMT-61" transform="translate(744.921875 0)"/>
      <use xlink:href="#ArialMT-6c" transform="translate(800.537109 0)"/>
      <use xlink:href="#ArialMT-20" transform="translate(822.753906 0)"/>
      <use xlink:href="#ArialMT-41" transform="translate(845.037109 0)"/>
      <use xlink:href="#ArialMT-44" transform="translate(911.736328 0)"/>
     </g>
    </g>
   </g>
   <g id="patch_7">
    <path d="M 243.322861 195.696 
L 243.322861 7.2 
" style="fill: none; stroke: #000000; stroke-width: 0.8; stroke-linejoin: miter; stroke-linecap: square"/>
   </g>
   <g id="patch_8">
    <path d="M 243.322861 195.696 
L 410.245938 195.696 
" style="fill: none; stroke: #000000; stroke-width: 0.8; stroke-linejoin: miter; stroke-linecap: square"/>
   </g>
   <g id="PathCollection_1">
    <path d="M 342.94697 18.640281 
C 343.708708 18.640281 344.43935 18.33764 344.97798 17.79901 
C 345.51661 17.26038 345.819251 16.529738 345.819251 15.768 
C 345.819251 15.006262 345.51661 14.27562 344.97798 13.73699 
C 344.43935 13.19836 343.708708 12.895719 342.94697 12.895719 
C 342.185232 12.895719 341.454591 13.19836 340.91596 13.73699 
C 340.37733 14.27562 340.074689 15.006262 340.074689 15.768 
C 340.074689 16.529738 340.37733 17.26038 340.91596 17.79901 
C 341.454591 18.33764 342.185232 18.640281 342.94697 18.640281 
z
" clip-path="url(#pdc11684aee)" style="fill: #e69f00; stroke: #ffffff; stroke-width: 0.5"/>
    <path d="M 329.468771 106.207006 
C 330.157789 106.207006 330.818679 105.933257 331.305888 105.446047 
C 331.793097 104.958838 332.066847 104.297948 332.066847 103.60893 
C 332.066847 102.919912 331.793097 102.259022 331.305888 101.771813 
C 330.818679 101.284604 330.157789 101.010854 329.468771 101.010854 
C 328.779753 101.010854 328.118863 101.284604 327.631653 101.771813 
C 327.144444 102.259022 326.870695 102.919912 326.870695 103.60893 
C 326.870695 104.297948 327.144444 104.958838 327.631653 105.446047 
C 328.118863 105.933257 328.779753 106.207006 329.468771 106.207006 
z
" clip-path="url(#pdc11684aee)" style="fill: #e69f00; stroke: #ffffff; stroke-width: 0.5"/>
    <path d="M 402.658525 74.937461 
C 403.347543 74.937461 404.008433 74.663712 404.495642 74.176502 
C 404.982851 73.689293 405.256601 73.028403 405.256601 72.339385 
C 405.256601 71.650367 404.982851 70.989477 404.495642 70.502268 
C 404.008433 70.015059 403.347543 69.741309 402.658525 69.741309 
C 401.969507 69.741309 401.308617 70.015059 400.821408 70.502268 
C 400.334198 70.989477 400.060449 71.650367 400.060449 72.339385 
C 400.060449 73.028403 400.334198 73.689293 400.821408 74.176502 
C 401.308617 74.663712 401.969507 74.937461 402.658525 74.937461 
z
" clip-path="url(#pdc11684aee)" style="fill: #e69f00; stroke: #ffffff; stroke-width: 0.5"/>
    <path d="M 398.995022 98.150431 
C 400.501086 98.150431 401.945668 97.552065 403.010616 96.487117 
C 404.075564 95.422169 404.67393 93.977587 404.67393 92.471523 
C 404.67393 90.965458 404.075564 89.520876 403.010616 88.455928 
C 401.945668 87.39098 400.501086 86.792614 398.995022 86.792614 
C 397.488958 86.792614 396.044375 87.39098 394.979427 88.455928 
C 393.914479 89.520876 393.316113 90.965458 393.316113 92.471523 
C 393.316113 93.977587 393.914479 95.422169 394.979427 96.487117 
C 396.044375 97.552065 397.488958 98.150431 398.995022 98.150431 
z
" clip-path="url(#pdc11684aee)" style="fill: #e69f00; stroke: #ffffff; stroke-width: 0.5"/>
    <path d="M 250.910273 189.419288 
C 251.51793 189.419288 252.10078 189.177863 252.530458 188.748185 
C 252.960136 188.318507 253.201561 187.735657 253.201561 187.128 
C 253.201561 186.520343 252.960136 185.937493 252.530458 185.507815 
C 252.10078 185.078137 251.51793 184.836712 250.910273 184.836712 
C 250.302617 184.836712 249.719766 185.078137 249.290088 185.507815 
C 248.86041 185.937493 248.618985 186.520343 248.618985 187.128 
C 248.618985 187.735657 248.86041 188.318507 249.290088 188.748185 
C 249.719766 189.177863 250.302617 189.419288 250.910273 189.419288 
z
" clip-path="url(#pdc11684aee)" style="fill: #e69f00; stroke: #ffffff; stroke-width: 0.5"/>
   </g>
   <g id="text_22">
    <!-- Clay Hill -->
    <g transform="translate(346.94697 12.768) scale(0.06 -0.06)">
     <defs>
      <path id="ArialMT-48" d="M 513 0 
L 513 4581 
L 1119 4581 
L 1119 2700 
L 3500 2700 
L 3500 4581 
L 4106 4581 
L 4106 0 
L 3500 0 
L 3500 2159 
L 1119 2159 
L 1119 0 
L 513 0 
z
" transform="scale(0.015625)"/>
     </defs>
     <use xlink:href="#ArialMT-43"/>
     <use xlink:href="#ArialMT-6c" transform="translate(72.216797 0)"/>
     <use xlink:href="#ArialMT-61" transform="translate(94.433594 0)"/>
     <use xlink:href="#ArialMT-79" transform="translate(150.048828 0)"/>
     <use xlink:href="#ArialMT-20" transform="translate(200.048828 0)"/>
     <use xlink:href="#ArialMT-48" transform="translate(227.832031 0)"/>
     <use xlink:href="#ArialMT-69" transform="translate(300.048828 0)"/>
     <use xlink:href="#ArialMT-6c" transform="translate(322.265625 0)"/>
     <use xlink:href="#ArialMT-6c" transform="translate(344.482422 0)"/>
    </g>
   </g>
   <g id="text_23">
    <!-- Kent Place -->
    <g transform="translate(333.468771 100.60893) scale(0.06 -0.06)">
     <defs>
      <path id="ArialMT-4b" d="M 469 0 
L 469 4581 
L 1075 4581 
L 1075 2309 
L 3350 4581 
L 4172 4581 
L 2250 2725 
L 4256 0 
L 3456 0 
L 1825 2319 
L 1075 1588 
L 1075 0 
L 469 0 
z
" transform="scale(0.015625)"/>
     </defs>
     <use xlink:href="#ArialMT-4b"/>
     <use xlink:href="#ArialMT-65" transform="translate(66.699219 0)"/>
     <use xlink:href="#ArialMT-6e" transform="translate(122.314453 0)"/>
     <use xlink:href="#ArialMT-74" transform="translate(177.929688 0)"/>
     <use xlink:href="#ArialMT-20" transform="translate(205.712891 0)"/>
     <use xlink:href="#ArialMT-50" transform="translate(233.496094 0)"/>
     <use xlink:href="#ArialMT-6c" transform="translate(300.195312 0)"/>
     <use xlink:href="#ArialMT-61" transform="translate(322.412109 0)"/>
     <use xlink:href="#ArialMT-63" transform="translate(378.027344 0)"/>
     <use xlink:href="#ArialMT-65" transform="translate(428.027344 0)"/>
    </g>
   </g>
   <g id="text_24">
    <!-- Neeleys Ferry -->
    <g transform="translate(406.658525 69.339385) scale(0.06 -0.06)">
     <defs>
      <path id="ArialMT-4e" d="M 488 0 
L 488 4581 
L 1109 4581 
L 3516 984 
L 3516 4581 
L 4097 4581 
L 4097 0 
L 3475 0 
L 1069 3600 
L 1069 0 
L 488 0 
z
" transform="scale(0.015625)"/>
      <path id="ArialMT-46" d="M 525 0 
L 525 4581 
L 3616 4581 
L 3616 4041 
L 1131 4041 
L 1131 2622 
L 3281 2622 
L 3281 2081 
L 1131 2081 
L 1131 0 
L 525 0 
z
" transform="scale(0.015625)"/>
     </defs>
     <use xlink:href="#ArialMT-4e"/>
     <use xlink:href="#ArialMT-65" transform="translate(72.216797 0)"/>
     <use xlink:href="#ArialMT-65" transform="translate(127.832031 0)"/>
     <use xlink:href="#ArialMT-6c" transform="translate(183.447266 0)"/>
     <use xlink:href="#ArialMT-65" transform="translate(205.664062 0)"/>
     <use xlink:href="#ArialMT-79" transform="translate(261.279297 0)"/>
     <use xlink:href="#ArialMT-73" transform="translate(311.279297 0)"/>
     <use xlink:href="#ArialMT-20" transform="translate(361.279297 0)"/>
     <use xlink:href="#ArialMT-46" transform="translate(389.0625 0)"/>
     <use xlink:href="#ArialMT-65" transform="translate(450.146484 0)"/>
     <use xlink:href="#ArialMT-72" transform="translate(505.761719 0)"/>
     <use xlink:href="#ArialMT-72" transform="translate(539.0625 0)"/>
     <use xlink:href="#ArialMT-79" transform="translate(572.363281 0)"/>
    </g>
   </g>
   <g id="text_25">
    <!-- Parkin -->
    <g transform="translate(402.995022 89.471523) scale(0.06 -0.06)">
     <use xlink:href="#ArialMT-50"/>
     <use xlink:href="#ArialMT-61" transform="translate(66.699219 0)"/>
     <use xlink:href="#ArialMT-72" transform="translate(122.314453 0)"/>
     <use xlink:href="#ArialMT-6b" transform="translate(155.615234 0)"/>
     <use xlink:href="#ArialMT-69" transform="translate(205.615234 0)"/>
     <use xlink:href="#ArialMT-6e" transform="translate(227.832031 0)"/>
    </g>
   </g>
   <g id="text_26">
    <!-- Upper Nodena -->
    <g transform="translate(254.910273 184.128) scale(0.06 -0.06)">
     <defs>
      <path id="ArialMT-55" d="M 3500 4581 
L 4106 4581 
L 4106 1934 
Q 4106 1244 3950 837 
Q 3794 431 3386 176 
Q 2978 -78 2316 -78 
Q 1672 -78 1262 144 
Q 853 366 678 786 
Q 503 1206 503 1934 
L 503 4581 
L 1109 4581 
L 1109 1938 
Q 1109 1341 1220 1058 
Q 1331 775 1601 622 
Q 1872 469 2263 469 
Q 2931 469 3215 772 
Q 3500 1075 3500 1938 
L 3500 4581 
z
" transform="scale(0.015625)"/>
     </defs>
     <use xlink:href="#ArialMT-55"/>
     <use xlink:href="#ArialMT-70" transform="translate(72.216797 0)"/>
     <use xlink:href="#ArialMT-70" transform="translate(127.832031 0)"/>
     <use xlink:href="#ArialMT-65" transform="translate(183.447266 0)"/>
     <use xlink:href="#ArialMT-72" transform="translate(239.0625 0)"/>
     <use xlink:href="#ArialMT-20" transform="translate(272.363281 0)"/>
     <use xlink:href="#ArialMT-4e" transform="translate(300.146484 0)"/>
     <use xlink:href="#ArialMT-6f" transform="translate(372.363281 0)"/>
     <use xlink:href="#ArialMT-64" transform="translate(427.978516 0)"/>
     <use xlink:href="#ArialMT-65" transform="translate(483.59375 0)"/>
     <use xlink:href="#ArialMT-6e" transform="translate(539.208984 0)"/>
     <use xlink:href="#ArialMT-61" transform="translate(594.824219 0)"/>
    </g>
   </g>
  </g>
 </g>
 <defs>
  <clipPath id="p0c7ab6bac6">
   <rect x="19.645938" y="7.2" width="166.923077" height="188.496"/>
  </clipPath>
  <clipPath id="pdc11684aee">
   <rect x="243.322861" y="7.2" width="166.923077" height="188.496"/>
  </clipPath>
 </defs>
</svg>
